M48
; DRILL file {KiCad 5.1.5} date Do 07 Mai 2020 02:59:42 CEST
; FORMAT={-:-/ absolute / inch / decimal}
; #@! TF.CreationDate,2020-05-07T02:59:42+02:00
; #@! TF.GenerationSoftware,Kicad,Pcbnew,5.1.5
; #@! TF.FileFunction,Plated,1,2,PTH
FMAT,2
INCH
T1C0.0157
T2C0.0315
T3C0.0394
T4C0.0472
T5C0.1201
%
G90
G05
T1
X0.174Y-2.0054
X0.3151Y-2.1054
X0.605Y-3.726
X0.6058Y-3.6517
X0.6083Y-3.8033
X0.796Y-1.047
X0.8999Y-3.546
X0.9386Y-3.1037
X0.9393Y-2.9079
X0.9394Y-3.2075
X0.9411Y-3.0127
X0.9416Y-2.2983
X0.9458Y-2.8065
X0.9541Y-3.4069
X1.0261Y-3.5051
X1.066Y-0.5377
X1.0738Y-2.751
X1.074Y-0.955
X1.0918Y-2.704
X1.0942Y-0.9979
X1.1107Y-0.6674
X1.112Y-0.6022
X1.1236Y-2.9783
X1.133Y-0.527
X1.1862Y-2.3961
X1.2362Y-1.9489
X1.2817Y-2.4332
X1.3071Y-2.7075
X1.3125Y-1.4054
X1.3203Y-2.6129
X1.335Y-0.941
X1.415Y-3.5315
X1.416Y-0.924
X1.4436Y-0.4495
X1.515Y-1.806
X1.5242Y-0.3648
X1.6347Y-2.526
X1.6347Y-2.6233
X1.6347Y-2.706
X1.6347Y-2.9021
X1.6347Y-3.106
X1.635Y-2.7966
X1.6364Y-2.3434
X1.6373Y-2.9964
X1.6392Y-3.2915
X1.679Y-0.9458
X1.732Y-2.156
X1.96Y-1.281
X1.9718Y-0.6843
X1.9865Y-1.1409
X1.9972Y-0.8603
X2.015Y-0.5316
X2.0527Y-1.611
X2.165Y-0.7735
X2.2237Y-1.7605
X2.2237Y-0.5343
X2.2623Y-0.8201
X2.3138Y-1.3194
X2.444Y-1.956
X2.665Y-1.5235
X2.6933Y-1.2457
X2.972Y-1.7059
X2.9738Y-1.6283
X3.0151Y-2.4313
X3.1558Y-1.3886
X3.1753Y-1.3364
X3.3112Y-0.4445
X3.326Y-2.186
X3.3265Y-2.7575
X3.3458Y-0.4768
X3.3567Y-0.526
X3.3928Y-2.3004
X3.4026Y-3.6564
X3.4107Y-3.5767
X3.5725Y-2.415
X3.739Y-1.9405
X3.743Y-2.3995
T2
X1.2364Y-2.5059
X3.07Y-0.186
X3.165Y-0.406
X3.165Y-0.6029
X0.965Y-1.2591
X0.965Y-1.456
X3.815Y-3.256
X3.815Y-3.4481
X0.0626Y-0.5403
X0.115Y-0.606
X0.165Y-0.5403
X0.065Y-2.256
X0.065Y-2.356
X0.065Y-2.456
X0.065Y-2.556
X0.065Y-2.656
X0.065Y-2.756
X0.065Y-2.856
X0.065Y-2.956
X0.065Y-3.056
X0.065Y-3.156
X0.065Y-3.256
X0.065Y-3.356
X0.065Y-3.456
X0.065Y-3.556
X0.065Y-3.656
X0.065Y-3.756
X0.665Y-2.256
X0.665Y-2.356
X0.665Y-2.456
X0.665Y-2.556
X0.665Y-2.656
X0.665Y-2.756
X0.665Y-2.856
X0.665Y-2.956
X0.665Y-3.056
X0.665Y-3.156
X0.665Y-3.256
X0.665Y-3.356
X0.665Y-3.456
X0.665Y-3.556
X0.665Y-3.656
X0.665Y-3.756
X1.765Y-0.356
X1.765Y-0.456
X1.765Y-0.556
X1.765Y-0.656
X1.765Y-0.756
X1.765Y-0.856
X1.765Y-0.956
X1.765Y-1.056
X1.765Y-1.156
X1.765Y-1.256
X1.765Y-1.356
X1.865Y-0.256
X1.865Y-0.356
X1.865Y-0.456
X1.865Y-0.556
X1.865Y-0.656
X1.865Y-0.756
X1.865Y-0.856
X1.865Y-0.956
X1.865Y-1.056
X1.865Y-1.156
X1.865Y-1.256
X1.865Y-1.356
X1.865Y-1.456
X1.965Y-0.256
X1.965Y-0.356
X1.965Y-1.356
X1.965Y-1.456
X2.065Y-0.256
X2.065Y-0.356
X2.065Y-1.356
X2.065Y-1.456
X2.165Y-0.256
X2.165Y-0.356
X2.165Y-1.356
X2.165Y-1.456
X2.265Y-0.256
X2.265Y-0.356
X2.265Y-1.356
X2.265Y-1.456
X2.365Y-0.256
X2.365Y-0.356
X2.365Y-1.356
X2.365Y-1.456
X2.465Y-0.256
X2.465Y-0.356
X2.465Y-1.356
X2.465Y-1.456
X2.565Y-0.256
X2.565Y-0.356
X2.565Y-1.356
X2.565Y-1.456
X2.665Y-0.256
X2.665Y-0.356
X2.665Y-1.356
X2.665Y-1.456
X2.765Y-0.256
X2.765Y-0.356
X2.765Y-1.356
X2.765Y-1.456
X2.865Y-0.256
X2.865Y-0.356
X2.865Y-0.456
X2.865Y-0.556
X2.865Y-0.656
X2.865Y-0.756
X2.865Y-0.856
X2.865Y-0.956
X2.865Y-1.056
X2.865Y-1.156
X2.865Y-1.256
X2.865Y-1.356
X2.865Y-1.456
X2.965Y-0.356
X2.965Y-0.456
X2.965Y-0.556
X2.965Y-0.656
X2.965Y-0.756
X2.965Y-0.856
X2.965Y-0.956
X2.965Y-1.056
X2.965Y-1.156
X2.965Y-1.256
X2.965Y-1.356
X1.915Y-1.656
X2.1119Y-1.656
X3.165Y-1.2591
X3.165Y-1.456
X0.665Y-1.056
X0.965Y-1.056
X0.665Y-1.556
X0.965Y-1.556
X0.265Y-1.656
X0.265Y-1.956
X0.365Y-1.656
X0.365Y-1.956
X0.465Y-1.656
X0.465Y-1.956
X0.565Y-1.656
X0.565Y-1.956
X0.665Y-1.656
X0.665Y-1.956
X0.765Y-1.656
X0.765Y-1.956
X0.865Y-1.656
X0.865Y-1.956
X0.065Y-0.706
X0.065Y-1.006
X3.265Y-1.756
X3.265Y-2.056
X3.365Y-1.756
X3.365Y-2.056
X3.465Y-1.756
X3.465Y-2.056
X3.565Y-1.756
X3.565Y-2.056
X3.665Y-1.756
X3.665Y-2.056
X3.765Y-1.756
X3.765Y-2.056
X3.865Y-1.756
X3.865Y-2.056
X1.565Y-1.856
X1.565Y-1.956
X1.565Y-2.056
X1.565Y-2.156
X1.565Y-2.256
X1.565Y-2.356
X1.565Y-2.456
X1.565Y-2.556
X1.565Y-2.656
X1.565Y-2.756
X1.565Y-2.856
X1.565Y-2.956
X1.565Y-3.056
X1.565Y-3.156
X1.565Y-3.256
X1.565Y-3.356
X1.565Y-3.456
X1.565Y-3.556
X1.565Y-3.656
X1.565Y-3.756
X2.165Y-1.856
X2.165Y-1.956
X2.165Y-2.056
X2.165Y-2.156
X2.165Y-2.256
X2.165Y-2.356
X2.165Y-2.456
X2.165Y-2.556
X2.165Y-2.656
X2.165Y-2.756
X2.165Y-2.856
X2.165Y-2.956
X2.165Y-3.056
X2.165Y-3.156
X2.165Y-3.256
X2.165Y-3.356
X2.165Y-3.456
X2.165Y-3.556
X2.165Y-3.656
X2.165Y-3.756
X3.065Y-2.456
X3.065Y-2.556
X3.065Y-2.656
X3.065Y-2.756
X3.065Y-2.856
X3.065Y-2.956
X3.065Y-3.056
X3.065Y-3.156
X3.065Y-3.256
X3.065Y-3.356
X3.065Y-3.456
X3.065Y-3.556
X3.065Y-3.656
X3.065Y-3.756
X3.665Y-2.456
X3.665Y-2.556
X3.665Y-2.656
X3.665Y-2.756
X3.665Y-2.856
X3.665Y-2.956
X3.665Y-3.056
X3.665Y-3.156
X3.665Y-3.256
X3.665Y-3.356
X3.665Y-3.456
X3.665Y-3.556
X3.665Y-3.656
X3.665Y-3.756
X1.4666Y-0.256
X1.565Y-0.256
X0.365Y-1.556
X0.5619Y-1.556
X1.565Y-1.0591
X1.565Y-1.256
X2.365Y-1.856
X2.365Y-1.956
X2.365Y-2.056
X2.365Y-2.156
X2.365Y-2.256
X2.365Y-2.356
X2.365Y-2.456
X2.365Y-2.556
X2.365Y-2.656
X2.365Y-2.756
X2.365Y-2.856
X2.365Y-2.956
X2.365Y-3.056
X2.365Y-3.156
X2.365Y-3.256
X2.365Y-3.356
X2.365Y-3.456
X2.365Y-3.556
X2.365Y-3.656
X2.365Y-3.756
X2.965Y-1.856
X2.965Y-1.956
X2.965Y-2.056
X2.965Y-2.156
X2.965Y-2.256
X2.965Y-2.356
X2.965Y-2.456
X2.965Y-2.556
X2.965Y-2.656
X2.965Y-2.756
X2.965Y-2.856
X2.965Y-2.956
X2.965Y-3.056
X2.965Y-3.156
X2.965Y-3.256
X2.965Y-3.356
X2.965Y-3.456
X2.965Y-3.556
X2.965Y-3.656
X2.965Y-3.756
X0.065Y-3.856
X0.2619Y-3.856
X0.365Y-1.056
X0.5619Y-1.056
X0.065Y-0.2091
X0.065Y-0.406
X0.765Y-2.256
X0.765Y-2.356
X0.765Y-2.456
X0.765Y-2.556
X0.765Y-2.656
X0.765Y-2.756
X0.765Y-2.856
X0.765Y-2.956
X0.765Y-3.056
X0.765Y-3.156
X0.765Y-3.256
X0.765Y-3.356
X0.765Y-3.456
X0.765Y-3.556
X0.765Y-3.656
X0.765Y-3.756
X1.365Y-2.256
X1.365Y-2.356
X1.365Y-2.456
X1.365Y-2.556
X1.365Y-2.656
X1.365Y-2.756
X1.365Y-2.856
X1.365Y-2.956
X1.365Y-3.056
X1.365Y-3.156
X1.365Y-3.256
X1.365Y-3.356
X1.365Y-3.456
X1.365Y-3.556
X1.365Y-3.656
X1.365Y-3.756
X0.165Y-0.2091
X0.165Y-0.406
X1.365Y-1.856
X1.365Y-2.056
X0.765Y-3.856
X0.9619Y-3.856
X3.065Y-2.356
X3.2619Y-2.356
X2.265Y-1.856
X2.265Y-2.056
X2.615Y-1.656
X2.8119Y-1.656
X3.165Y-0.806
X3.165Y-1.0029
X0.965Y-1.7591
X0.965Y-1.956
X1.565Y-0.7591
X1.565Y-0.956
X1.565Y-0.456
X1.565Y-0.6529
X2.0181Y-0.056
X2.215Y-0.056
X3.265Y-1.356
X3.265Y-1.656
X3.365Y-1.356
X3.365Y-1.656
X3.465Y-1.356
X3.465Y-1.656
X3.565Y-1.356
X3.565Y-1.656
X3.665Y-1.356
X3.665Y-1.656
X3.765Y-1.356
X3.765Y-1.656
X3.865Y-1.356
X3.865Y-1.656
X0.59Y-0.456
X0.89Y-0.456
X3.165Y-1.856
X3.165Y-2.0529
X3.815Y-3.656
X3.815Y-3.7544
X0.165Y-1.156
X0.165Y-1.456
X0.265Y-1.156
X0.265Y-1.456
X0.365Y-1.156
X0.365Y-1.456
X0.465Y-1.156
X0.465Y-1.456
X0.565Y-1.156
X0.565Y-1.456
X0.665Y-1.156
X0.665Y-1.456
X0.765Y-1.156
X0.765Y-1.456
X0.865Y-1.156
X0.865Y-1.456
X0.975Y-0.456
X1.075Y-0.456
X0.965Y-0.6591
X0.965Y-0.856
X0.265Y-0.556
X0.265Y-0.856
X0.365Y-0.556
X0.365Y-0.856
X0.465Y-0.556
X0.465Y-0.856
X0.565Y-0.556
X0.565Y-0.856
X0.665Y-0.556
X0.665Y-0.856
X0.765Y-0.556
X0.765Y-0.856
X0.865Y-0.556
X0.865Y-0.856
X1.465Y-1.856
X1.465Y-1.956
X1.465Y-2.056
X1.465Y-2.156
X1.465Y-2.256
X1.465Y-2.356
X1.465Y-2.456
X1.465Y-2.556
X1.465Y-2.656
X1.465Y-2.756
X1.465Y-2.856
X1.465Y-2.956
X1.465Y-3.056
X1.465Y-3.156
X1.465Y-3.256
X1.465Y-3.356
X1.465Y-3.456
X1.465Y-3.556
X1.465Y-3.656
X1.465Y-3.756
X2.065Y-1.856
X2.065Y-1.956
X2.065Y-2.056
X2.065Y-2.156
X2.065Y-2.256
X2.065Y-2.356
X2.065Y-2.456
X2.065Y-2.556
X2.065Y-2.656
X2.065Y-2.756
X2.065Y-2.856
X2.065Y-2.956
X2.065Y-3.056
X2.065Y-3.156
X2.065Y-3.256
X2.065Y-3.356
X2.065Y-3.456
X2.065Y-3.556
X2.065Y-3.656
X2.065Y-3.756
X0.265Y-2.056
X0.365Y-2.056
X0.465Y-2.056
X0.565Y-2.056
X0.665Y-2.056
X0.765Y-2.056
X0.865Y-2.056
X0.165Y-0.706
X0.165Y-1.006
X3.815Y-2.9576
X3.815Y-3.056
T3
X0.115Y-2.056
X3.665Y-0.406
X3.665Y-0.506
X3.665Y-0.606
X3.665Y-0.706
X3.665Y-0.806
X3.765Y-0.406
X3.765Y-0.506
X3.765Y-0.606
X3.765Y-0.706
X3.765Y-0.806
X1.265Y-0.556
X1.365Y-0.556
X1.365Y-0.656
X1.265Y-0.656
X1.265Y-0.756
X1.365Y-0.756
X3.465Y-0.4214
X3.465Y-0.5317
X3.465Y-0.6364
X3.465Y-0.7466
X3.465Y-0.8565
X3.565Y-0.4765
X3.565Y-0.5864
X3.565Y-0.6915
X3.565Y-0.8013
X1.265Y-1.156
X1.265Y-1.256
X1.265Y-1.356
X1.265Y-1.456
X1.265Y-1.556
X1.365Y-1.156
X1.365Y-1.256
X1.365Y-1.356
X1.365Y-1.456
X1.365Y-1.556
X0.165Y-0.056
X0.265Y-0.056
X0.365Y-0.056
X0.965Y-0.181
X1.065Y-0.181
X1.165Y-0.181
T4
X3.565Y-2.231
X3.665Y-2.231
X3.765Y-2.231
X0.415Y-0.306
X0.415Y-0.406
T5
X3.565Y-0.1415
X3.565Y-1.1415
T0
M30
