%TF.GenerationSoftware,KiCad,Pcbnew,5.1.5*%
%TF.CreationDate,2020-05-07T22:51:20+02:00*%
%TF.ProjectId,superpet,73757065-7270-4657-942e-6b696361645f,rev?*%
%TF.SameCoordinates,PX2edf448PY2f17140*%
%TF.FileFunction,Copper,L2,Bot*%
%TF.FilePolarity,Positive*%
%FSLAX46Y46*%
G04 Gerber Fmt 4.6, Leading zero omitted, Abs format (unit mm)*
G04 Created by KiCad (PCBNEW 5.1.5) date 2020-05-07 22:51:20*
%MOMM*%
%LPD*%
G04 APERTURE LIST*
%ADD10C,0.300000*%
%ADD11R,1.422400X1.422400*%
%ADD12O,1.422400X1.422400*%
%ADD13O,1.800000X1.800000*%
%ADD14R,1.800000X1.800000*%
%ADD15C,3.810000*%
%ADD16R,1.520000X1.520000*%
%ADD17C,1.520000*%
%ADD18C,1.422400*%
%ADD19R,1.700000X1.700000*%
%ADD20C,1.700000*%
%ADD21C,1.400000*%
%ADD22C,1.500000*%
%ADD23R,2.600000X2.000000*%
%ADD24O,2.600000X2.000000*%
%ADD25C,1.600000*%
%ADD26O,1.600000X1.600000*%
%ADD27C,2.200000*%
%ADD28O,1.700000X1.700000*%
%ADD29C,1.000000*%
%ADD30C,0.203200*%
%ADD31C,0.660400*%
%ADD32C,0.406400*%
%ADD33C,0.254000*%
G04 APERTURE END LIST*
D10*
X101866228Y-7031514D02*
X102866228Y-7031514D01*
X103366228Y-7031514D02*
X103294800Y-7102942D01*
X103223371Y-7031514D01*
X103294800Y-6960085D01*
X103366228Y-7031514D01*
X103223371Y-7031514D01*
X101937657Y-6388657D02*
X101866228Y-6245800D01*
X101866228Y-5960085D01*
X101937657Y-5817228D01*
X102080514Y-5745800D01*
X102151942Y-5745800D01*
X102294800Y-5817228D01*
X102366228Y-5960085D01*
X102366228Y-6174371D01*
X102437657Y-6317228D01*
X102580514Y-6388657D01*
X102651942Y-6388657D01*
X102794800Y-6317228D01*
X102866228Y-6174371D01*
X102866228Y-5960085D01*
X102794800Y-5817228D01*
X101937657Y-5174371D02*
X101866228Y-5031514D01*
X101866228Y-4745800D01*
X101937657Y-4602942D01*
X102080514Y-4531514D01*
X102151942Y-4531514D01*
X102294800Y-4602942D01*
X102366228Y-4745800D01*
X102366228Y-4960085D01*
X102437657Y-5102942D01*
X102580514Y-5174371D01*
X102651942Y-5174371D01*
X102794800Y-5102942D01*
X102866228Y-4960085D01*
X102866228Y-4745800D01*
X102794800Y-4602942D01*
X102866228Y-3245800D02*
X101866228Y-3245800D01*
X102866228Y-3888657D02*
X102080514Y-3888657D01*
X101937657Y-3817228D01*
X101866228Y-3674371D01*
X101866228Y-3460085D01*
X101937657Y-3317228D01*
X102009085Y-3245800D01*
X101937657Y-1960085D02*
X101866228Y-2102942D01*
X101866228Y-2388657D01*
X101937657Y-2531514D01*
X102080514Y-2602942D01*
X102651942Y-2602942D01*
X102794800Y-2531514D01*
X102866228Y-2388657D01*
X102866228Y-2102942D01*
X102794800Y-1960085D01*
X102651942Y-1888657D01*
X102509085Y-1888657D01*
X102366228Y-2602942D01*
X100316228Y-6245800D02*
X100316228Y-5674371D01*
X100816228Y-6031514D02*
X99530514Y-6031514D01*
X99387657Y-5960085D01*
X99316228Y-5817228D01*
X99316228Y-5674371D01*
X100316228Y-5317228D02*
X99316228Y-5031514D01*
X100030514Y-4745800D01*
X99316228Y-4460085D01*
X100316228Y-4174371D01*
X99316228Y-3388657D02*
X99387657Y-3531514D01*
X99459085Y-3602942D01*
X99601942Y-3674371D01*
X100030514Y-3674371D01*
X100173371Y-3602942D01*
X100244800Y-3531514D01*
X100316228Y-3388657D01*
X100316228Y-3174371D01*
X100244800Y-3031514D01*
X100173371Y-2960085D01*
X100030514Y-2888657D01*
X99601942Y-2888657D01*
X99459085Y-2960085D01*
X99387657Y-3031514D01*
X99316228Y-3174371D01*
X99316228Y-3388657D01*
D11*
X82931000Y-39522400D03*
D12*
X90551000Y-57302400D03*
X82931000Y-42062400D03*
X90551000Y-54762400D03*
X82931000Y-44602400D03*
X90551000Y-52222400D03*
X82931000Y-47142400D03*
X90551000Y-49682400D03*
X82931000Y-49682400D03*
X90551000Y-47142400D03*
X82931000Y-52222400D03*
X90551000Y-44602400D03*
X82931000Y-54762400D03*
X90551000Y-42062400D03*
X82931000Y-57302400D03*
X90551000Y-39522400D03*
D13*
X9271000Y-1422400D03*
X6731000Y-1422400D03*
D14*
X4191000Y-1422400D03*
D15*
X95551000Y-28994100D03*
X95551000Y-3594100D03*
D16*
X93011000Y-21754100D03*
D17*
X93011000Y-18964100D03*
X93011000Y-16164100D03*
X93011000Y-13504100D03*
X93011000Y-10704100D03*
X95551000Y-12104100D03*
X95551000Y-14894100D03*
X95551000Y-17564100D03*
X95551000Y-20354100D03*
D18*
X47371000Y-21742400D03*
X47371000Y-24282400D03*
X47371000Y-26822400D03*
X47371000Y-29362400D03*
X47371000Y-31902400D03*
X47371000Y-19202400D03*
X47371000Y-16662400D03*
X47371000Y-14122400D03*
X47371000Y-11582400D03*
X47371000Y-9042400D03*
X47371000Y-6502400D03*
D11*
X44831000Y-21742400D03*
D18*
X44831000Y-24282400D03*
X44831000Y-26822400D03*
X44831000Y-29362400D03*
X44831000Y-31902400D03*
X44831000Y-34442400D03*
X44831000Y-19202400D03*
X44831000Y-16662400D03*
X44831000Y-14122400D03*
X44831000Y-11582400D03*
X44831000Y-9042400D03*
X47371000Y-34442400D03*
X49911000Y-34442400D03*
X52451000Y-34442400D03*
X54991000Y-34442400D03*
X57531000Y-34442400D03*
X60071000Y-34442400D03*
X62611000Y-34442400D03*
X65151000Y-34442400D03*
X67691000Y-34442400D03*
X70231000Y-34442400D03*
X47371000Y-36982400D03*
X49911000Y-36982400D03*
X52451000Y-36982400D03*
X54991000Y-36982400D03*
X57531000Y-36982400D03*
X60071000Y-36982400D03*
X62611000Y-36982400D03*
X65151000Y-36982400D03*
X67691000Y-36982400D03*
X70231000Y-36982400D03*
X72771000Y-36982400D03*
X72771000Y-34442400D03*
X72771000Y-31902400D03*
X72771000Y-29362400D03*
X72771000Y-26822400D03*
X72771000Y-24282400D03*
X72771000Y-21742400D03*
X72771000Y-19202400D03*
X72771000Y-16662400D03*
X72771000Y-14122400D03*
X72771000Y-11582400D03*
X75311000Y-34442400D03*
X75311000Y-31902400D03*
X75311000Y-29362400D03*
X75311000Y-26822400D03*
X75311000Y-24282400D03*
X75311000Y-21742400D03*
X75311000Y-19202400D03*
X75311000Y-16662400D03*
X75311000Y-14122400D03*
X75311000Y-11582400D03*
X75311000Y-9042400D03*
X72771000Y-9042400D03*
X70231000Y-9042400D03*
X67691000Y-9042400D03*
X65151000Y-9042400D03*
X62611000Y-9042400D03*
X60071000Y-9042400D03*
X57531000Y-9042400D03*
X54991000Y-9042400D03*
X52451000Y-9042400D03*
X49911000Y-9042400D03*
X72771000Y-6502400D03*
X70231000Y-6502400D03*
X67691000Y-6502400D03*
X65151000Y-6502400D03*
X62611000Y-6502400D03*
X60071000Y-6502400D03*
X57531000Y-6502400D03*
X54991000Y-6502400D03*
X52451000Y-6502400D03*
X49911000Y-6502400D03*
D19*
X32131000Y-29362400D03*
D20*
X34671000Y-29362400D03*
X32131000Y-31902400D03*
X34671000Y-31902400D03*
X32131000Y-34442400D03*
X34671000Y-34442400D03*
X32131000Y-36982400D03*
X34671000Y-36982400D03*
X32131000Y-39522400D03*
X34671000Y-39522400D03*
D11*
X37211000Y-47142400D03*
D12*
X52451000Y-95402400D03*
X37211000Y-49682400D03*
X52451000Y-92862400D03*
X37211000Y-52222400D03*
X52451000Y-90322400D03*
X37211000Y-54762400D03*
X52451000Y-87782400D03*
X37211000Y-57302400D03*
X52451000Y-85242400D03*
X37211000Y-59842400D03*
X52451000Y-82702400D03*
X37211000Y-62382400D03*
X52451000Y-80162400D03*
X37211000Y-64922400D03*
X52451000Y-77622400D03*
X37211000Y-67462400D03*
X52451000Y-75082400D03*
X37211000Y-70002400D03*
X52451000Y-72542400D03*
X37211000Y-72542400D03*
X52451000Y-70002400D03*
X37211000Y-75082400D03*
X52451000Y-67462400D03*
X37211000Y-77622400D03*
X52451000Y-64922400D03*
X37211000Y-80162400D03*
X52451000Y-62382400D03*
X37211000Y-82702400D03*
X52451000Y-59842400D03*
X37211000Y-85242400D03*
X52451000Y-57302400D03*
X37211000Y-87782400D03*
X52451000Y-54762400D03*
X37211000Y-90322400D03*
X52451000Y-52222400D03*
X37211000Y-92862400D03*
X52451000Y-49682400D03*
X37211000Y-95402400D03*
X52451000Y-47142400D03*
D11*
X39751000Y-47142400D03*
D12*
X54991000Y-95402400D03*
X39751000Y-49682400D03*
X54991000Y-92862400D03*
X39751000Y-52222400D03*
X54991000Y-90322400D03*
X39751000Y-54762400D03*
X54991000Y-87782400D03*
X39751000Y-57302400D03*
X54991000Y-85242400D03*
X39751000Y-59842400D03*
X54991000Y-82702400D03*
X39751000Y-62382400D03*
X54991000Y-80162400D03*
X39751000Y-64922400D03*
X54991000Y-77622400D03*
X39751000Y-67462400D03*
X54991000Y-75082400D03*
X39751000Y-70002400D03*
X54991000Y-72542400D03*
X39751000Y-72542400D03*
X54991000Y-70002400D03*
X39751000Y-75082400D03*
X54991000Y-67462400D03*
X39751000Y-77622400D03*
X54991000Y-64922400D03*
X39751000Y-80162400D03*
X54991000Y-62382400D03*
X39751000Y-82702400D03*
X54991000Y-59842400D03*
X39751000Y-85242400D03*
X54991000Y-57302400D03*
X39751000Y-87782400D03*
X54991000Y-54762400D03*
X39751000Y-90322400D03*
X54991000Y-52222400D03*
X39751000Y-92862400D03*
X54991000Y-49682400D03*
X39751000Y-95402400D03*
X54991000Y-47142400D03*
D11*
X60071000Y-47142400D03*
D12*
X75311000Y-95402400D03*
X60071000Y-49682400D03*
X75311000Y-92862400D03*
X60071000Y-52222400D03*
X75311000Y-90322400D03*
X60071000Y-54762400D03*
X75311000Y-87782400D03*
X60071000Y-57302400D03*
X75311000Y-85242400D03*
X60071000Y-59842400D03*
X75311000Y-82702400D03*
X60071000Y-62382400D03*
X75311000Y-80162400D03*
X60071000Y-64922400D03*
X75311000Y-77622400D03*
X60071000Y-67462400D03*
X75311000Y-75082400D03*
X60071000Y-70002400D03*
X75311000Y-72542400D03*
X60071000Y-72542400D03*
X75311000Y-70002400D03*
X60071000Y-75082400D03*
X75311000Y-67462400D03*
X60071000Y-77622400D03*
X75311000Y-64922400D03*
X60071000Y-80162400D03*
X75311000Y-62382400D03*
X60071000Y-82702400D03*
X75311000Y-59842400D03*
X60071000Y-85242400D03*
X75311000Y-57302400D03*
X60071000Y-87782400D03*
X75311000Y-54762400D03*
X60071000Y-90322400D03*
X75311000Y-52222400D03*
X60071000Y-92862400D03*
X75311000Y-49682400D03*
X60071000Y-95402400D03*
X75311000Y-47142400D03*
D11*
X21971000Y-29362400D03*
D12*
X4191000Y-36982400D03*
X19431000Y-29362400D03*
X6731000Y-36982400D03*
X16891000Y-29362400D03*
X9271000Y-36982400D03*
X14351000Y-29362400D03*
X11811000Y-36982400D03*
X11811000Y-29362400D03*
X14351000Y-36982400D03*
X9271000Y-29362400D03*
X16891000Y-36982400D03*
X6731000Y-29362400D03*
X19431000Y-36982400D03*
X4191000Y-29362400D03*
X21971000Y-36982400D03*
D11*
X21971000Y-14122400D03*
D12*
X6731000Y-21742400D03*
X19431000Y-14122400D03*
X9271000Y-21742400D03*
X16891000Y-14122400D03*
X11811000Y-21742400D03*
X14351000Y-14122400D03*
X14351000Y-21742400D03*
X11811000Y-14122400D03*
X16891000Y-21742400D03*
X9271000Y-14122400D03*
X19431000Y-21742400D03*
X6731000Y-14122400D03*
X21971000Y-21742400D03*
D21*
X2921000Y-15392400D03*
X1591000Y-13722400D03*
X4191000Y-13722400D03*
D22*
X96901000Y-82702400D03*
X96901000Y-87582400D03*
D11*
X21971000Y-42062400D03*
D12*
X6731000Y-49682400D03*
X19431000Y-42062400D03*
X9271000Y-49682400D03*
X16891000Y-42062400D03*
X11811000Y-49682400D03*
X14351000Y-42062400D03*
X14351000Y-49682400D03*
X11811000Y-42062400D03*
X16891000Y-49682400D03*
X9271000Y-42062400D03*
X19431000Y-49682400D03*
X6731000Y-42062400D03*
X21971000Y-49682400D03*
D23*
X10541000Y-10312400D03*
D24*
X10541000Y-7772400D03*
D25*
X16891000Y-39522400D03*
D26*
X24511000Y-39522400D03*
D25*
X16891000Y-26822400D03*
D26*
X24511000Y-26822400D03*
D25*
X4191000Y-25552400D03*
D26*
X4191000Y-17932400D03*
D25*
X1651000Y-17932400D03*
D26*
X1651000Y-25552400D03*
D27*
X2921000Y-52222400D03*
D20*
X32131000Y-19202400D03*
D28*
X32131000Y-16662400D03*
X34671000Y-19202400D03*
D20*
X34671000Y-14122400D03*
D28*
X34671000Y-16662400D03*
D19*
X32131000Y-14122400D03*
D25*
X4191000Y-10312400D03*
X4191000Y-5312400D03*
X1651000Y-10312400D03*
X1651000Y-5312400D03*
X39751000Y-26902400D03*
X39751000Y-31902400D03*
X48641000Y-42062400D03*
X53641000Y-42062400D03*
X66421000Y-42062400D03*
X71421000Y-42062400D03*
X80391000Y-33092400D03*
X80391000Y-28092400D03*
X80391000Y-20472400D03*
X80391000Y-25472400D03*
X80391000Y-10312400D03*
X80391000Y-15312400D03*
X56261000Y-1422400D03*
X51261000Y-1422400D03*
X39751000Y-11582400D03*
X39751000Y-16582400D03*
X24511000Y-49682400D03*
X24511000Y-44682400D03*
X24511000Y-36982400D03*
X24511000Y-31982400D03*
X24511000Y-21742400D03*
X24511000Y-16742400D03*
X1651000Y-97942400D03*
X6651000Y-97942400D03*
X19431000Y-97942400D03*
X24431000Y-97942400D03*
X88011000Y-97942400D03*
X93011000Y-97942400D03*
X9271000Y-26822400D03*
X14271000Y-26822400D03*
X9271000Y-39522400D03*
X14271000Y-39522400D03*
X39751000Y-24282400D03*
X39751000Y-19282400D03*
D18*
X77851000Y-95402400D03*
D11*
X93091000Y-95402400D03*
D18*
X77851000Y-92862400D03*
X93091000Y-92862400D03*
X77851000Y-90322400D03*
X93091000Y-90322400D03*
X77851000Y-87782400D03*
X93091000Y-87782400D03*
X77851000Y-85242400D03*
X93091000Y-85242400D03*
X77851000Y-82702400D03*
X93091000Y-82702400D03*
X77851000Y-80162400D03*
X93091000Y-80162400D03*
X77851000Y-77622400D03*
X93091000Y-77622400D03*
X77851000Y-75082400D03*
X93091000Y-75082400D03*
X77851000Y-72542400D03*
X93091000Y-72542400D03*
X77851000Y-70002400D03*
X93091000Y-70002400D03*
X77851000Y-67462400D03*
X93091000Y-67462400D03*
X77851000Y-64922400D03*
X93091000Y-64922400D03*
X77851000Y-62382400D03*
X93091000Y-62382400D03*
X1651000Y-95402400D03*
X16891000Y-95402400D03*
X1651000Y-92862400D03*
X16891000Y-92862400D03*
X1651000Y-90322400D03*
X16891000Y-90322400D03*
X1651000Y-87782400D03*
X16891000Y-87782400D03*
X1651000Y-85242400D03*
X16891000Y-85242400D03*
X1651000Y-82702400D03*
X16891000Y-82702400D03*
X1651000Y-80162400D03*
X16891000Y-80162400D03*
X1651000Y-77622400D03*
X16891000Y-77622400D03*
X1651000Y-75082400D03*
X16891000Y-75082400D03*
X1651000Y-72542400D03*
X16891000Y-72542400D03*
X1651000Y-70002400D03*
X16891000Y-70002400D03*
X1651000Y-67462400D03*
X16891000Y-67462400D03*
X1651000Y-64922400D03*
X16891000Y-64922400D03*
X1651000Y-62382400D03*
X16891000Y-62382400D03*
X1651000Y-59842400D03*
X16891000Y-59842400D03*
X1651000Y-57302400D03*
X16891000Y-57302400D03*
X19431000Y-95402400D03*
X34671000Y-95402400D03*
X19431000Y-92862400D03*
X34671000Y-92862400D03*
X19431000Y-90322400D03*
X34671000Y-90322400D03*
X19431000Y-87782400D03*
X34671000Y-87782400D03*
X19431000Y-85242400D03*
X34671000Y-85242400D03*
X19431000Y-82702400D03*
X34671000Y-82702400D03*
X19431000Y-80162400D03*
X34671000Y-80162400D03*
X19431000Y-77622400D03*
X34671000Y-77622400D03*
X19431000Y-75082400D03*
X34671000Y-75082400D03*
X19431000Y-72542400D03*
X34671000Y-72542400D03*
X19431000Y-70002400D03*
X34671000Y-70002400D03*
X19431000Y-67462400D03*
X34671000Y-67462400D03*
X19431000Y-64922400D03*
X34671000Y-64922400D03*
X19431000Y-62382400D03*
X34671000Y-62382400D03*
X19431000Y-59842400D03*
X34671000Y-59842400D03*
X19431000Y-57302400D03*
X34671000Y-57302400D03*
X57531000Y-52222400D03*
X57531000Y-47142400D03*
X34671000Y-52222400D03*
X34671000Y-47142400D03*
D11*
X21971000Y-52222400D03*
D18*
X19431000Y-52222400D03*
X16891000Y-52222400D03*
X14351000Y-52222400D03*
X11811000Y-52222400D03*
X9271000Y-52222400D03*
X6731000Y-52222400D03*
X39751000Y-3962400D03*
X37251000Y-3962400D03*
D11*
X27305000Y-11582400D03*
D12*
X24765000Y-11582400D03*
D25*
X14986000Y-11582400D03*
D26*
X22606000Y-11582400D03*
D25*
X96901000Y-95362400D03*
X96901000Y-92862400D03*
X96901000Y-77622400D03*
X96901000Y-75122400D03*
D14*
X24511000Y-4597400D03*
D13*
X27051000Y-4597400D03*
X29591000Y-4597400D03*
D18*
X93091000Y-39522400D03*
X93091000Y-44602400D03*
X80391000Y-39522400D03*
X80391000Y-44602400D03*
X98171000Y-36982400D03*
X103251000Y-36982400D03*
X93091000Y-52222400D03*
X93091000Y-47142400D03*
X80391000Y-52222400D03*
X80391000Y-47142400D03*
X90551000Y-36982400D03*
X95631000Y-36982400D03*
X88011000Y-36982400D03*
X82931000Y-36982400D03*
X93091000Y-54762400D03*
X93091000Y-59842400D03*
X80391000Y-59842400D03*
X80391000Y-54762400D03*
D11*
X95631000Y-39522400D03*
D12*
X103251000Y-57302400D03*
X95631000Y-42062400D03*
X103251000Y-54762400D03*
X95631000Y-44602400D03*
X103251000Y-52222400D03*
X95631000Y-47142400D03*
X103251000Y-49682400D03*
X95631000Y-49682400D03*
X103251000Y-47142400D03*
X95631000Y-52222400D03*
X103251000Y-44602400D03*
X95631000Y-54762400D03*
X103251000Y-42062400D03*
X95631000Y-57302400D03*
X103251000Y-39522400D03*
D20*
X98171000Y-10312400D03*
X100711000Y-10312400D03*
X98171000Y-12852400D03*
X100711000Y-12852400D03*
X98171000Y-15392400D03*
X100711000Y-15392400D03*
X98171000Y-17932400D03*
X100711000Y-17932400D03*
X98171000Y-20472400D03*
D19*
X100711000Y-20472400D03*
D29*
X58769255Y-33512410D03*
X50457999Y-28980059D03*
X8003650Y-53476977D03*
X38481000Y-45872400D03*
X23861319Y-81470636D03*
X23839716Y-78834825D03*
X23905123Y-76522210D03*
X41522558Y-64160647D03*
X23858221Y-73860035D03*
X75405223Y-43261233D03*
X41522558Y-66632675D03*
X24024426Y-71283859D03*
X75533985Y-41358250D03*
X41522558Y-68732400D03*
X33200192Y-68770678D03*
X41528529Y-71033651D03*
X33535303Y-66368601D03*
X82589340Y-18498472D03*
X41522558Y-73714588D03*
X83286600Y-17221200D03*
X84327999Y-70002401D03*
X41588295Y-76109770D03*
X76583221Y-61755289D03*
X32555265Y-61802098D03*
X33336354Y-35697236D03*
X49784000Y-32537400D03*
X41522558Y-78892400D03*
X41565192Y-59521725D03*
X41634814Y-83604210D03*
X43992800Y-54762400D03*
X15387587Y-92752810D03*
X15367000Y-94640400D03*
X15450251Y-96603507D03*
D18*
X31403615Y-63649876D03*
D29*
X56481838Y-13570734D03*
X36668596Y-11417934D03*
X35966400Y-23469600D03*
X84219855Y-11174280D03*
X85883371Y-55597237D03*
X85532508Y-11912182D03*
X87102382Y-59672481D03*
X23915978Y-58377898D03*
X50083496Y-17381589D03*
X33909000Y-23901400D03*
X20218400Y-26593800D03*
X86425284Y-92872915D03*
X42645747Y-24023906D03*
X38715231Y-9266378D03*
X22856326Y-90068400D03*
X86631500Y-90847359D03*
X87122000Y-11988800D03*
X26064105Y-89028449D03*
X28778200Y-13385800D03*
X35941006Y-89699784D03*
X27076185Y-13657210D03*
X24233231Y-86534456D03*
X31399077Y-49502437D03*
X57462045Y-20830694D03*
X27273500Y-69874798D03*
X27279600Y-24257000D03*
X28539548Y-75650057D03*
X54991000Y-19646900D03*
X28211364Y-16953057D03*
X27730665Y-68681460D03*
X50730021Y-21851827D03*
X27792202Y-25345558D03*
X51181000Y-13502402D03*
X83515200Y-22428200D03*
X56481499Y-44715479D03*
X69088000Y-31641608D03*
X52139257Y-40919400D03*
X67691000Y-38696900D03*
X4419362Y-50935999D03*
X62076646Y-49682400D03*
X30130152Y-60861343D03*
X28244423Y-15296380D03*
D30*
X48372133Y-28244812D02*
X49974848Y-29847525D01*
X49974848Y-29847525D02*
X51622589Y-29847525D01*
X42755818Y-29534461D02*
X44045467Y-28244812D01*
X32131000Y-29362400D02*
X32131000Y-28309200D01*
X51622589Y-29847525D02*
X54787475Y-33012411D01*
X54787475Y-33012411D02*
X58269256Y-33012411D01*
X37130719Y-28041622D02*
X38623558Y-29534461D01*
X38623558Y-29534461D02*
X42755818Y-29534461D01*
X32398578Y-28041622D02*
X37130719Y-28041622D01*
X32131000Y-28309200D02*
X32398578Y-28041622D01*
X44045467Y-28244812D02*
X48372133Y-28244812D01*
X58269256Y-33012411D02*
X58769255Y-33512410D01*
D31*
X52451000Y-95402400D02*
X54991000Y-95402400D01*
X47371000Y-97942400D02*
X49911000Y-95402400D01*
X49911000Y-95402400D02*
X52451000Y-95402400D01*
X24431000Y-97942400D02*
X43561000Y-97942400D01*
X43561000Y-97942400D02*
X47371000Y-97942400D01*
X34671000Y-29362400D02*
X37211000Y-29362400D01*
X37211000Y-29362400D02*
X39751000Y-31902400D01*
X16891000Y-57302400D02*
X18285814Y-55907586D01*
X18285814Y-55907586D02*
X20195175Y-55907586D01*
X20195175Y-55907586D02*
X21589989Y-57302400D01*
X21589989Y-57302400D02*
X34671000Y-57302400D01*
X44831000Y-29362400D02*
X46075601Y-30607001D01*
X46075601Y-30607001D02*
X51138488Y-30607001D01*
X51138488Y-30607001D02*
X54966907Y-34435420D01*
X54966907Y-34435420D02*
X54997980Y-34435420D01*
X54997980Y-34435420D02*
X54991000Y-34442400D01*
X6647678Y-19202400D02*
X6731000Y-19119078D01*
X6731000Y-19119078D02*
X6731000Y-14122400D01*
X24511000Y-19202400D02*
X6647678Y-19202400D01*
X6647678Y-19202400D02*
X5024081Y-20825997D01*
X5024081Y-20825997D02*
X5024081Y-23307597D01*
X5024081Y-23307597D02*
X6221617Y-24505133D01*
X6221617Y-24505133D02*
X6221617Y-27597289D01*
X6221617Y-27597289D02*
X4456506Y-29362400D01*
X4456506Y-29362400D02*
X4191000Y-29362400D01*
X32131000Y-19202400D02*
X24511000Y-19202400D01*
X24511000Y-19202400D02*
X24511000Y-16742400D01*
X16891000Y-57302400D02*
X4985957Y-57302400D01*
X4985957Y-57302400D02*
X1287599Y-53604042D01*
X1287599Y-53604042D02*
X1287599Y-32265801D01*
X1287599Y-32265801D02*
X3479801Y-30073599D01*
X3479801Y-30073599D02*
X4191000Y-29362400D01*
X6651000Y-97942400D02*
X6651000Y-97947722D01*
X6651000Y-97947722D02*
X8062397Y-99359119D01*
X8062397Y-99359119D02*
X23025561Y-99359119D01*
X23025561Y-99359119D02*
X24431000Y-97953680D01*
X24431000Y-97953680D02*
X24431000Y-97942400D01*
X24511000Y-97779242D02*
X24682305Y-97950547D01*
X93091000Y-95461763D02*
X93091000Y-95402400D01*
X53438969Y-43395801D02*
X53641000Y-43193770D01*
X53641000Y-43193770D02*
X53641000Y-42062400D01*
X42291000Y-42062400D02*
X46667566Y-42062400D01*
X48000967Y-43395801D02*
X53438969Y-43395801D01*
X46667566Y-42062400D02*
X48000967Y-43395801D01*
X57531000Y-47222400D02*
X56731001Y-46422401D01*
X56731001Y-46422401D02*
X56167461Y-46422401D01*
X56167461Y-46422401D02*
X53641000Y-43895940D01*
X53641000Y-43895940D02*
X53641000Y-42062400D01*
X26971000Y-19202400D02*
X32131000Y-19202400D01*
X32131000Y-19202400D02*
X32131000Y-20670035D01*
X32131000Y-20670035D02*
X33492896Y-22031931D01*
X33492896Y-22031931D02*
X37500531Y-22031931D01*
X37500531Y-22031931D02*
X38951001Y-23482401D01*
X38951001Y-23482401D02*
X39751000Y-24282400D01*
X37211000Y-44682400D02*
X39686479Y-44682400D01*
X42291000Y-42077879D02*
X42291000Y-42062400D01*
X39686479Y-44682400D02*
X42291000Y-42077879D01*
X37211000Y-47142400D02*
X34751000Y-47142400D01*
X34751000Y-47142400D02*
X34671000Y-47222400D01*
X60071000Y-47142400D02*
X57611000Y-47142400D01*
X57611000Y-47142400D02*
X57531000Y-47222400D01*
X39751000Y-31902400D02*
X42291000Y-31902400D01*
X42291000Y-31902400D02*
X44751000Y-29442400D01*
X44751000Y-29442400D02*
X44831000Y-29362400D01*
X80391000Y-15392400D02*
X80391000Y-15312400D01*
X79121000Y-16662400D02*
X80391000Y-15392400D01*
X75311000Y-16662400D02*
X79121000Y-16662400D01*
X72771000Y-24282400D02*
X74041000Y-25552400D01*
X80391000Y-25552400D02*
X80391000Y-25472400D01*
X74041000Y-25552400D02*
X80391000Y-25552400D01*
X34671000Y-44682400D02*
X37211000Y-44682400D01*
X37211000Y-47142400D02*
X37211000Y-44682400D01*
X60071000Y-47142400D02*
X66341000Y-47142400D01*
X66341000Y-47142400D02*
X71421000Y-42062400D01*
X24511000Y-44682400D02*
X34671000Y-44682400D01*
X34671000Y-39522400D02*
X34671000Y-44682400D01*
X24511000Y-44682400D02*
X9351000Y-44682400D01*
X9351000Y-44682400D02*
X6731000Y-42062400D01*
X4191000Y-29362400D02*
X6811000Y-31982400D01*
X6811000Y-31982400D02*
X24511000Y-31982400D01*
X34671000Y-14122400D02*
X37291000Y-14122400D01*
X37291000Y-14122400D02*
X39751000Y-16582400D01*
X6731000Y-5312400D02*
X7781000Y-5312400D01*
X6731000Y-5312400D02*
X4191000Y-5312400D01*
X6731000Y-1422400D02*
X6731000Y-5312400D01*
X1651000Y-5312400D02*
X4111000Y-5312400D01*
X4111000Y-5312400D02*
X4191000Y-5232400D01*
X24384000Y-97942400D02*
X24431000Y-97942400D01*
X51181000Y-1422400D02*
X51261000Y-1422400D01*
X46101000Y-15392400D02*
X40941000Y-15392400D01*
X47371000Y-16662400D02*
X46101000Y-15392400D01*
X40941000Y-15392400D02*
X39751000Y-16582400D01*
X44751000Y-29442400D02*
X44831000Y-29362400D01*
X7781000Y-5312400D02*
X10241000Y-7772400D01*
X10241000Y-7772400D02*
X10541000Y-7772400D01*
X93131000Y-95362400D02*
X93091000Y-95402400D01*
X94956000Y-92187400D02*
X93091000Y-90322400D01*
X96901000Y-95362400D02*
X94956000Y-95362400D01*
X94956000Y-95362400D02*
X94956000Y-92187400D01*
X94956000Y-95362400D02*
X93131000Y-95362400D01*
X97700999Y-75922399D02*
X96901000Y-75122400D01*
X98374200Y-76595600D02*
X97700999Y-75922399D01*
X96901000Y-95362400D02*
X98374200Y-93889200D01*
X98374200Y-93889200D02*
X98374200Y-76595600D01*
X39751000Y-47142400D02*
X37211000Y-47142400D01*
X72771000Y-36982400D02*
X76657200Y-36982400D01*
X76606399Y-37033201D02*
X76657200Y-36982400D01*
X73961000Y-44602400D02*
X75730100Y-44602400D01*
X71421000Y-42062400D02*
X73961000Y-44602400D01*
X75730100Y-44602400D02*
X76612750Y-43719750D01*
X76612750Y-43719750D02*
X76606399Y-43713399D01*
X76606399Y-43713399D02*
X76606399Y-37033201D01*
X89839801Y-55473599D02*
X90551000Y-54762400D01*
X86639400Y-58674000D02*
X89839801Y-55473599D01*
X80391000Y-59842400D02*
X81559400Y-58674000D01*
X81559400Y-58674000D02*
X86639400Y-58674000D01*
X93011000Y-95482400D02*
X93091000Y-95402400D01*
X93011000Y-97942400D02*
X93011000Y-95482400D01*
X56540400Y-96951800D02*
X86690200Y-96951800D01*
X90500200Y-97942400D02*
X93011000Y-97942400D01*
X54991000Y-95402400D02*
X56540400Y-96951800D01*
X88976200Y-96418400D02*
X90500200Y-97942400D01*
X86690200Y-96951800D02*
X87223600Y-96418400D01*
X87223600Y-96418400D02*
X88976200Y-96418400D01*
X103251000Y-42062400D02*
X98171000Y-36982400D01*
X91262199Y-42773599D02*
X90551000Y-42062400D01*
X91795601Y-43307001D02*
X91262199Y-42773599D01*
X96228409Y-43307001D02*
X91795601Y-43307001D01*
X96941000Y-42594410D02*
X96228409Y-43307001D01*
X96941000Y-36982400D02*
X96941000Y-42594410D01*
X95631000Y-36982400D02*
X96941000Y-36982400D01*
X96941000Y-36982400D02*
X98171000Y-36982400D01*
X76606399Y-37033201D02*
X80391000Y-33248600D01*
X88011000Y-36982400D02*
X85750400Y-34721800D01*
X81864200Y-34721800D02*
X80391000Y-33248600D01*
X85750400Y-34721800D02*
X81864200Y-34721800D01*
X71247000Y-25806400D02*
X71247000Y-29921200D01*
X79591001Y-32292401D02*
X80391000Y-33092400D01*
X72771000Y-24282400D02*
X71247000Y-25806400D01*
X71247000Y-29921200D02*
X71983599Y-30657799D01*
X71983599Y-30657799D02*
X77956399Y-30657799D01*
X77956399Y-30657799D02*
X79591001Y-32292401D01*
X99197599Y-8878999D02*
X99731001Y-9412401D01*
X99731001Y-9412401D02*
X100631000Y-10312400D01*
X93011000Y-10704100D02*
X94836101Y-8878999D01*
X95551000Y-8683000D02*
X95551000Y-3594100D01*
X95746999Y-8878999D02*
X95551000Y-8683000D01*
X94836101Y-8878999D02*
X95746999Y-8878999D01*
X95746999Y-8878999D02*
X99197599Y-8878999D01*
X92493591Y-73837799D02*
X91338400Y-74992990D01*
X96901000Y-75122400D02*
X95616399Y-73837799D01*
X95616399Y-73837799D02*
X92493591Y-73837799D01*
X91338400Y-88569800D02*
X93091000Y-90322400D01*
X91338400Y-74992990D02*
X91338400Y-88569800D01*
X88373500Y-15341600D02*
X92251001Y-11464099D01*
X80391000Y-15312400D02*
X80420200Y-15341600D01*
X92251001Y-11464099D02*
X93011000Y-10704100D01*
X80420200Y-15341600D02*
X88373500Y-15341600D01*
X66446399Y-5955789D02*
X65113410Y-4622800D01*
X67691000Y-9042400D02*
X66446399Y-7797799D01*
X66446399Y-7797799D02*
X66446399Y-5955789D01*
X49911000Y-4648200D02*
X49911000Y-6502400D01*
X49936400Y-4622800D02*
X49911000Y-4648200D01*
X65113410Y-4622800D02*
X49936400Y-4622800D01*
X33172400Y-3962400D02*
X37251000Y-3962400D01*
X27051000Y-4597400D02*
X28803600Y-6350000D01*
X30784800Y-6350000D02*
X33172400Y-3962400D01*
X28803600Y-6350000D02*
X30784800Y-6350000D01*
X38775000Y-5486400D02*
X37251000Y-3962400D01*
X40640000Y-5486400D02*
X38775000Y-5486400D01*
X49936400Y-4622800D02*
X41503600Y-4622800D01*
X41503600Y-4622800D02*
X40640000Y-5486400D01*
D30*
X30976199Y-30747599D02*
X30976199Y-28268559D01*
X30976199Y-28268559D02*
X31609547Y-27635211D01*
X41485671Y-28897729D02*
X42544999Y-27838401D01*
X42544999Y-27838401D02*
X49316341Y-27838401D01*
X49316341Y-27838401D02*
X49958000Y-28480060D01*
X49958000Y-28480060D02*
X50457999Y-28980059D01*
X31609547Y-27635211D02*
X37594940Y-27635211D01*
X37594940Y-27635211D02*
X38857458Y-28897729D01*
X38857458Y-28897729D02*
X41485671Y-28897729D01*
X32131000Y-31902400D02*
X30976199Y-30747599D01*
X32131000Y-34442400D02*
X33414599Y-33158801D01*
X51187853Y-35055648D02*
X51841477Y-35709272D01*
X33414599Y-33158801D02*
X46040465Y-33158801D01*
X50478218Y-31648400D02*
X51187853Y-32358035D01*
X46040465Y-33158801D02*
X46268890Y-32930376D01*
X46268890Y-32930376D02*
X48006000Y-32930376D01*
X48006000Y-32930376D02*
X48006000Y-32918400D01*
X58804128Y-35709272D02*
X59359801Y-35153599D01*
X59359801Y-35153599D02*
X60071000Y-34442400D01*
X48006000Y-32918400D02*
X49276000Y-31648400D01*
X49276000Y-31648400D02*
X50478218Y-31648400D01*
X51187853Y-32358035D02*
X51187853Y-35055648D01*
X51841477Y-35709272D02*
X58804128Y-35709272D01*
X32131000Y-39522400D02*
X33516199Y-38137201D01*
X33516199Y-38137201D02*
X48756199Y-38137201D01*
X48756199Y-38137201D02*
X49911000Y-36982400D01*
X37211000Y-49682400D02*
X39751000Y-49682400D01*
X56525212Y-92862400D02*
X54991000Y-92862400D01*
X60071000Y-95402400D02*
X59065212Y-95402400D01*
X59065212Y-95402400D02*
X56525212Y-92862400D01*
X54991000Y-92862400D02*
X52451000Y-92862400D01*
X37211000Y-52222400D02*
X39751000Y-52222400D01*
X54991000Y-90322400D02*
X56007000Y-90322400D01*
X56007000Y-90322400D02*
X57247360Y-91562760D01*
X57247360Y-91562760D02*
X61281542Y-91562760D01*
X61281542Y-91562760D02*
X65082689Y-95363907D01*
X65082689Y-95363907D02*
X75272507Y-95363907D01*
X75272507Y-95363907D02*
X75311000Y-95402400D01*
X54991000Y-90322400D02*
X52451000Y-90322400D01*
X39751000Y-54762400D02*
X37211000Y-54762400D01*
X58039000Y-54254400D02*
X60071000Y-52222400D01*
X40779788Y-53733612D02*
X56007000Y-53733612D01*
X39751000Y-54762400D02*
X40779788Y-53733612D01*
X56007000Y-53733612D02*
X56007000Y-53746400D01*
X56515000Y-54254400D02*
X58039000Y-54254400D01*
X56007000Y-53746400D02*
X56515000Y-54254400D01*
X75311000Y-92862400D02*
X64935166Y-92862400D01*
X64935166Y-92862400D02*
X61277578Y-89204812D01*
X61277578Y-89204812D02*
X56413412Y-89204812D01*
X56413412Y-89204812D02*
X55702199Y-88493599D01*
X55702199Y-88493599D02*
X54991000Y-87782400D01*
X54991000Y-87782400D02*
X52451000Y-87782400D01*
X37211000Y-57302400D02*
X36205212Y-57302400D01*
X36205212Y-57302400D02*
X34935212Y-56032400D01*
X34935212Y-56032400D02*
X21717000Y-56032400D01*
X21717000Y-56032400D02*
X20797805Y-55113205D01*
X20797805Y-55113205D02*
X9639878Y-55113205D01*
X9639878Y-55113205D02*
X8003650Y-53476977D01*
X75311000Y-90322400D02*
X67561006Y-90322400D01*
X67561006Y-90322400D02*
X63535095Y-86296489D01*
X63535095Y-86296489D02*
X58433454Y-86296489D01*
X58433454Y-86296489D02*
X57379365Y-85242400D01*
X57379365Y-85242400D02*
X54991000Y-85242400D01*
X53467001Y-46611452D02*
X53467001Y-47055330D01*
X54671660Y-48259989D02*
X55647022Y-48259990D01*
X59065212Y-49682400D02*
X60071000Y-49682400D01*
X55647022Y-48259990D02*
X57069432Y-49682400D01*
X57069432Y-49682400D02*
X59065212Y-49682400D01*
X52727949Y-45872400D02*
X53467001Y-46611452D01*
X38481000Y-45872400D02*
X52727949Y-45872400D01*
X53467001Y-47055330D02*
X54671660Y-48259989D01*
X37211000Y-59842400D02*
X39751000Y-59842400D01*
X57531000Y-82702400D02*
X58807301Y-83978701D01*
X58807301Y-83978701D02*
X63887301Y-83978701D01*
X63887301Y-83978701D02*
X67691000Y-87782400D01*
X67691000Y-87782400D02*
X75311000Y-87782400D01*
X43019054Y-83784563D02*
X53086000Y-83784563D01*
X53086000Y-83784563D02*
X53908837Y-83784563D01*
X53908837Y-83784563D02*
X54991000Y-82702400D01*
X15621000Y-68516489D02*
X18404093Y-68516489D01*
X1651000Y-67462400D02*
X14566911Y-67462400D01*
X14566911Y-67462400D02*
X15621000Y-68516489D01*
X23861319Y-81470636D02*
X34942918Y-81470636D01*
X42207860Y-84595757D02*
X43019054Y-83784563D01*
X34942918Y-81470636D02*
X35956167Y-82483885D01*
X40335596Y-83954472D02*
X40976881Y-84595757D01*
X35956167Y-82483885D02*
X35956167Y-83267823D01*
X35956167Y-83267823D02*
X36642816Y-83954472D01*
X36642816Y-83954472D02*
X40335596Y-83954472D01*
X40976881Y-84595757D02*
X42207860Y-84595757D01*
X18404093Y-68516489D02*
X19431000Y-67489582D01*
X19431000Y-67489582D02*
X19431000Y-67462400D01*
X75311000Y-87782400D02*
X77851000Y-87782400D01*
X54991000Y-82702400D02*
X57531000Y-82702400D01*
X39751000Y-62382400D02*
X37211000Y-62382400D01*
X57531000Y-80162400D02*
X58796100Y-81427500D01*
X63876100Y-81427500D02*
X67691000Y-85242400D01*
X58796100Y-81427500D02*
X63876100Y-81427500D01*
X67691000Y-85242400D02*
X75311000Y-85242400D01*
X54991000Y-80162400D02*
X53974999Y-81178401D01*
X53974999Y-81178401D02*
X51963319Y-81178401D01*
X51963319Y-81178401D02*
X51181000Y-80396082D01*
X40273877Y-78834825D02*
X24546822Y-78834825D01*
X51181000Y-80396082D02*
X41835134Y-80396082D01*
X41835134Y-80396082D02*
X40273877Y-78834825D01*
X24546822Y-78834825D02*
X23839716Y-78834825D01*
X15621000Y-66174401D02*
X18178999Y-66174401D01*
X1651000Y-64922400D02*
X14368999Y-64922400D01*
X14368999Y-64922400D02*
X15621000Y-66174401D01*
X77851000Y-85242400D02*
X75311000Y-85242400D01*
X57531000Y-80162400D02*
X54991000Y-80162400D01*
X18178999Y-66174401D02*
X19431000Y-64922400D01*
X54991000Y-77622400D02*
X53954682Y-77622400D01*
X53954682Y-77622400D02*
X52938681Y-76606399D01*
X52938681Y-76606399D02*
X51628108Y-76606399D01*
X51628108Y-76606399D02*
X50627353Y-77607154D01*
X41590456Y-77607154D02*
X40285904Y-76302602D01*
X50627353Y-77607154D02*
X41590456Y-77607154D01*
X40285904Y-76302602D02*
X34042336Y-76302602D01*
X34042336Y-76302602D02*
X33823165Y-76521773D01*
X33823165Y-76521773D02*
X23905560Y-76521773D01*
X23905560Y-76521773D02*
X23905123Y-76522210D01*
X57531000Y-77622400D02*
X58182581Y-78273981D01*
X67691000Y-82702400D02*
X74305212Y-82702400D01*
X58182581Y-78273981D02*
X59005703Y-78273981D01*
X59005703Y-78273981D02*
X59627524Y-78895802D01*
X59627524Y-78895802D02*
X63884402Y-78895802D01*
X63884402Y-78895802D02*
X67691000Y-82702400D01*
X74305212Y-82702400D02*
X75311000Y-82702400D01*
X15621000Y-63634401D02*
X18178999Y-63634401D01*
X1651000Y-62382400D02*
X14368999Y-62382400D01*
X14368999Y-62382400D02*
X15621000Y-63634401D01*
X75311000Y-82702400D02*
X77851000Y-82702400D01*
X57531000Y-77622400D02*
X54991000Y-77622400D01*
X18178999Y-63634401D02*
X19431000Y-62382400D01*
X34671000Y-67462400D02*
X33184414Y-67462400D01*
X19017999Y-66210399D02*
X18565997Y-66662401D01*
X33184414Y-67462400D02*
X31932413Y-66210399D01*
X31932413Y-66210399D02*
X19017999Y-66210399D01*
X18565997Y-66662401D02*
X17690999Y-66662401D01*
X17690999Y-66662401D02*
X17602199Y-66751201D01*
X17602199Y-66751201D02*
X16891000Y-67462400D01*
X42183217Y-63499988D02*
X42022557Y-63660648D01*
X60071000Y-64922400D02*
X58648588Y-63499988D01*
X58648588Y-63499988D02*
X42183217Y-63499988D01*
X42022557Y-63660648D02*
X41522558Y-64160647D01*
X37211000Y-67462400D02*
X34671000Y-67462400D01*
X39751000Y-67462400D02*
X37211000Y-67462400D01*
X89204800Y-64922400D02*
X93091000Y-64922400D01*
X85394800Y-68732400D02*
X89204800Y-64922400D01*
X70909904Y-68732400D02*
X85394800Y-68732400D01*
X60071000Y-64922400D02*
X67099904Y-64922400D01*
X67099904Y-64922400D02*
X70909904Y-68732400D01*
X67691000Y-80162400D02*
X75311000Y-80162400D01*
X63867225Y-76338625D02*
X67691000Y-80162400D01*
X57531000Y-75082400D02*
X58787225Y-76338625D01*
X58787225Y-76338625D02*
X63867225Y-76338625D01*
X15621000Y-61094401D02*
X18178999Y-61094401D01*
X1651000Y-59842400D02*
X14368999Y-59842400D01*
X14368999Y-59842400D02*
X15621000Y-61094401D01*
X41136252Y-74519390D02*
X40476897Y-73860035D01*
X51510329Y-74519389D02*
X41136252Y-74519390D01*
X52938681Y-74066399D02*
X51963319Y-74066399D01*
X51963319Y-74066399D02*
X51510329Y-74519389D01*
X24565327Y-73860035D02*
X23858221Y-73860035D01*
X54991000Y-75082400D02*
X53954682Y-75082400D01*
X40476897Y-73860035D02*
X24565327Y-73860035D01*
X53954682Y-75082400D02*
X52938681Y-74066399D01*
X77851000Y-80162400D02*
X75311000Y-80162400D01*
X57531000Y-75082400D02*
X54991000Y-75082400D01*
X18178999Y-61094401D02*
X19431000Y-59842400D01*
X73939606Y-18491201D02*
X73401173Y-17952768D01*
X74599801Y-18491201D02*
X73939606Y-18491201D01*
X75311000Y-19202400D02*
X74599801Y-18491201D01*
X73401173Y-17952768D02*
X71728565Y-17952768D01*
X71728565Y-17952768D02*
X69892802Y-19788531D01*
X69892802Y-19788531D02*
X69892802Y-33276916D01*
X69214999Y-37778115D02*
X74698117Y-43261233D01*
X74698117Y-43261233D02*
X75405223Y-43261233D01*
X69892802Y-33276916D02*
X69214999Y-33954719D01*
X69214999Y-33954719D02*
X69214999Y-37778115D01*
X60071000Y-67462400D02*
X65177131Y-67462400D01*
X65177131Y-67462400D02*
X68987131Y-71272400D01*
X94328465Y-63619865D02*
X93802199Y-63093599D01*
X93802199Y-63093599D02*
X93091000Y-62382400D01*
X60071000Y-67462400D02*
X59359801Y-66751201D01*
X59359801Y-66751201D02*
X58454907Y-66751201D01*
X57873962Y-66170256D02*
X53591567Y-66170256D01*
X58454907Y-66751201D02*
X57873962Y-66170256D01*
X42195116Y-65960117D02*
X41522558Y-66632675D01*
X53591567Y-66170256D02*
X53381428Y-65960117D01*
X53381428Y-65960117D02*
X42195116Y-65960117D01*
X34671000Y-70002400D02*
X33838718Y-70834682D01*
X25012143Y-70834682D02*
X24643008Y-70465547D01*
X33838718Y-70834682D02*
X25012143Y-70834682D01*
X24643008Y-70465547D02*
X23500966Y-70465547D01*
X23500966Y-70465547D02*
X22853034Y-71113479D01*
X22853034Y-71113479D02*
X18002079Y-71113479D01*
X18002079Y-71113479D02*
X17602199Y-70713599D01*
X17602199Y-70713599D02*
X16891000Y-70002400D01*
X37211000Y-70002400D02*
X39751000Y-70002400D01*
X34671000Y-70002400D02*
X37211000Y-70002400D01*
X85217000Y-71272400D02*
X85217000Y-71221600D01*
X68987131Y-71272400D02*
X85217000Y-71272400D01*
X85217000Y-71221600D02*
X90271600Y-66167000D01*
X93929200Y-66167000D02*
X94335600Y-65760600D01*
X90271600Y-66167000D02*
X93929200Y-66167000D01*
X94335600Y-65760600D02*
X94328465Y-63619865D01*
X53985212Y-72542400D02*
X52969211Y-71526399D01*
X41231429Y-72353800D02*
X40161488Y-71283859D01*
X54991000Y-72542400D02*
X53985212Y-72542400D01*
X52969211Y-71526399D02*
X51816000Y-71526399D01*
X51816000Y-71526399D02*
X50988599Y-72353800D01*
X50988599Y-72353800D02*
X41231429Y-72353800D01*
X40161488Y-71283859D02*
X24024426Y-71283859D01*
X75311000Y-77622400D02*
X77851000Y-77622400D01*
X63627001Y-73558401D02*
X67691000Y-77622400D01*
X67691000Y-77622400D02*
X75311000Y-77622400D01*
X57531000Y-72542400D02*
X58547001Y-73558401D01*
X58547001Y-73558401D02*
X63627001Y-73558401D01*
X57531000Y-72542400D02*
X54991000Y-72542400D01*
X1651000Y-57302400D02*
X2903001Y-58554401D01*
X18178999Y-58554401D02*
X19431000Y-57302400D01*
X2903001Y-58554401D02*
X18178999Y-58554401D01*
X71754999Y-37579264D02*
X75533985Y-41358250D01*
X70459600Y-21513800D02*
X70459600Y-32232600D01*
X72771000Y-19202400D02*
X70459600Y-21513800D01*
X71704200Y-33477200D02*
X71704200Y-34188400D01*
X70459600Y-32232600D02*
X71704200Y-33477200D01*
X71704200Y-34188400D02*
X71754999Y-37579264D01*
X34671000Y-72542400D02*
X21096018Y-72542400D01*
X21096018Y-72542400D02*
X20073508Y-71519890D01*
X20073508Y-71519890D02*
X17913510Y-71519890D01*
X17913510Y-71519890D02*
X17602199Y-71831201D01*
X17602199Y-71831201D02*
X16891000Y-72542400D01*
X51147660Y-68516111D02*
X50931371Y-68732400D01*
X60071000Y-70002400D02*
X58966199Y-68897599D01*
X54460950Y-68897599D02*
X54079462Y-68516111D01*
X42229664Y-68732400D02*
X41522558Y-68732400D01*
X58966199Y-68897599D02*
X54460950Y-68897599D01*
X54079462Y-68516111D02*
X51147660Y-68516111D01*
X50931371Y-68732400D02*
X42229664Y-68732400D01*
X37211000Y-72542400D02*
X34671000Y-72542400D01*
X39751000Y-72542400D02*
X37211000Y-72542400D01*
X34671000Y-59842400D02*
X21953001Y-59842400D01*
X21953001Y-59842400D02*
X20701000Y-58590399D01*
X20701000Y-58590399D02*
X19017999Y-58590399D01*
X19017999Y-58590399D02*
X18434559Y-59173839D01*
X18434559Y-59173839D02*
X17559561Y-59173839D01*
X17559561Y-59173839D02*
X16891000Y-59842400D01*
X57531000Y-70002400D02*
X58747304Y-71218704D01*
X58747304Y-71218704D02*
X63827304Y-71218704D01*
X63827304Y-71218704D02*
X67691000Y-75082400D01*
X67691000Y-75082400D02*
X75311000Y-75082400D01*
X40369728Y-68770678D02*
X33907298Y-68770678D01*
X41136252Y-69537202D02*
X40369728Y-68770678D01*
X51316000Y-68922522D02*
X50701321Y-69537201D01*
X53911122Y-68922522D02*
X51316000Y-68922522D01*
X33907298Y-68770678D02*
X33200192Y-68770678D01*
X50701321Y-69537201D02*
X41136252Y-69537202D01*
X54991000Y-70002400D02*
X53911122Y-68922522D01*
X77851000Y-75082400D02*
X75311000Y-75082400D01*
X57531000Y-70002400D02*
X54991000Y-70002400D01*
X34671000Y-75082400D02*
X33501578Y-75082400D01*
X32915275Y-74496097D02*
X26679904Y-74496097D01*
X33501578Y-75082400D02*
X32915275Y-74496097D01*
X26679904Y-74496097D02*
X26278990Y-74897011D01*
X26278990Y-74897011D02*
X21767612Y-74897011D01*
X20701000Y-73830399D02*
X19017999Y-73830399D01*
X21767612Y-74897011D02*
X20701000Y-73830399D01*
X19017999Y-73830399D02*
X18565997Y-74282401D01*
X18565997Y-74282401D02*
X17690999Y-74282401D01*
X17690999Y-74282401D02*
X17602199Y-74371201D01*
X17602199Y-74371201D02*
X16891000Y-75082400D01*
X60071000Y-72542400D02*
X59364623Y-71836023D01*
X59364623Y-71836023D02*
X58511118Y-71836023D01*
X58511118Y-71836023D02*
X58112694Y-71437599D01*
X58112694Y-71437599D02*
X54340222Y-71437599D01*
X54340222Y-71437599D02*
X53936274Y-71033651D01*
X53936274Y-71033651D02*
X42235635Y-71033651D01*
X42235635Y-71033651D02*
X41528529Y-71033651D01*
X37211000Y-75082400D02*
X39751000Y-75082400D01*
X34671000Y-75082400D02*
X37211000Y-75082400D01*
X34671000Y-62382400D02*
X33405765Y-62382400D01*
X33405765Y-62382400D02*
X33040346Y-62747819D01*
X33040346Y-62747819D02*
X31947113Y-62747819D01*
X31947113Y-62747819D02*
X31477135Y-62277841D01*
X29154944Y-62277841D02*
X28159304Y-61282201D01*
X31477135Y-62277841D02*
X29154944Y-62277841D01*
X28159304Y-61282201D02*
X18866197Y-61282201D01*
X18866197Y-61282201D02*
X18565997Y-61582401D01*
X18565997Y-61582401D02*
X17690999Y-61582401D01*
X17690999Y-61582401D02*
X17602199Y-61671201D01*
X17602199Y-61671201D02*
X16891000Y-62382400D01*
X54991000Y-67462400D02*
X53985212Y-67462400D01*
X51816000Y-66371888D02*
X50750411Y-67437477D01*
X53985212Y-67462400D02*
X52894700Y-66371888D01*
X40717757Y-66720104D02*
X40366254Y-66368601D01*
X52894700Y-66371888D02*
X51816000Y-66371888D01*
X50750411Y-67437477D02*
X42174852Y-67437477D01*
X41980168Y-67632161D02*
X41330938Y-67632161D01*
X42174852Y-67437477D02*
X41980168Y-67632161D01*
X40717757Y-67018980D02*
X40717757Y-66720104D01*
X41330938Y-67632161D02*
X40717757Y-67018980D01*
X40366254Y-66368601D02*
X33535303Y-66368601D01*
X75311000Y-72542400D02*
X77851000Y-72542400D01*
X63627001Y-68478401D02*
X67691000Y-72542400D01*
X67691000Y-72542400D02*
X75311000Y-72542400D01*
X57531000Y-67462400D02*
X58547001Y-68478401D01*
X58547001Y-68478401D02*
X63627001Y-68478401D01*
X57531000Y-67462400D02*
X54991000Y-67462400D01*
X81882234Y-18498472D02*
X82589340Y-18498472D01*
X72992731Y-15380449D02*
X73888588Y-16276306D01*
X74030364Y-12841764D02*
X72102766Y-12841764D01*
X74654979Y-18084812D02*
X81468574Y-18084812D01*
X72102766Y-12841764D02*
X71505718Y-13438812D01*
X81468574Y-18084812D02*
X81882234Y-18498472D01*
X73888588Y-17318421D02*
X74654979Y-18084812D01*
X72122653Y-15380449D02*
X72992731Y-15380449D01*
X75311000Y-14122400D02*
X74030364Y-12841764D01*
X71505718Y-14763514D02*
X72122653Y-15380449D01*
X71505718Y-13438812D02*
X71505718Y-14763514D01*
X73888588Y-16276306D02*
X73888588Y-17318421D01*
X60071000Y-75082400D02*
X58966199Y-73977599D01*
X53424631Y-73977599D02*
X53107021Y-73659988D01*
X58966199Y-73977599D02*
X53424631Y-73977599D01*
X53107021Y-73659988D02*
X41537306Y-73659988D01*
X41537306Y-73659988D02*
X41482706Y-73714588D01*
X41482706Y-73714588D02*
X41522558Y-73714588D01*
X34671000Y-77622400D02*
X21971000Y-77622400D01*
X21971000Y-77622400D02*
X20718999Y-76370399D01*
X20718999Y-76370399D02*
X19017999Y-76370399D01*
X19017999Y-76370399D02*
X18565997Y-76822401D01*
X18565997Y-76822401D02*
X17690999Y-76822401D01*
X17690999Y-76822401D02*
X16891000Y-77622400D01*
X34671000Y-77622400D02*
X37211000Y-77622400D01*
X39751000Y-77622400D02*
X37211000Y-77622400D01*
X17602199Y-64211201D02*
X16891000Y-64922400D01*
X17690999Y-64122401D02*
X17602199Y-64211201D01*
X32540604Y-64922400D02*
X32281306Y-65181698D01*
X32281306Y-65181698D02*
X22212299Y-65181698D01*
X18565997Y-64122401D02*
X17690999Y-64122401D01*
X34671000Y-64922400D02*
X32540604Y-64922400D01*
X22212299Y-65181698D02*
X20701000Y-63670399D01*
X19017999Y-63670399D02*
X18565997Y-64122401D01*
X20701000Y-63670399D02*
X19017999Y-63670399D01*
X75311000Y-70002400D02*
X69965815Y-70002400D01*
X69965815Y-70002400D02*
X66175181Y-66211766D01*
X66175181Y-66211766D02*
X58820366Y-66211766D01*
X58820366Y-66211766D02*
X57531000Y-64922400D01*
X35687001Y-65938401D02*
X35382199Y-65633599D01*
X35382199Y-65633599D02*
X34671000Y-64922400D01*
X40238681Y-65938401D02*
X35687001Y-65938401D01*
X50624378Y-65245340D02*
X40931742Y-65245340D01*
X54991000Y-64922400D02*
X53974999Y-63906399D01*
X51963319Y-63906399D02*
X50624378Y-65245340D01*
X53974999Y-63906399D02*
X51963319Y-63906399D01*
X40931742Y-65245340D02*
X40238681Y-65938401D01*
X57531000Y-64922400D02*
X54991000Y-64922400D01*
X74294999Y-15646399D02*
X74294999Y-17150081D01*
X72771000Y-14122400D02*
X74294999Y-15646399D01*
X74823319Y-17678401D02*
X82122293Y-17678401D01*
X82579494Y-17221200D02*
X83286600Y-17221200D01*
X82122293Y-17678401D02*
X82579494Y-17221200D01*
X74294999Y-17150081D02*
X74823319Y-17678401D01*
X78856789Y-70002401D02*
X84327999Y-70002401D01*
X77851000Y-70002400D02*
X78856789Y-70002401D01*
X60071000Y-77622400D02*
X59456590Y-77007990D01*
X59456590Y-77007990D02*
X58563486Y-77007990D01*
X58563486Y-77007990D02*
X58073095Y-76517599D01*
X58073095Y-76517599D02*
X54072918Y-76517599D01*
X54072918Y-76517599D02*
X53665089Y-76109770D01*
X53665089Y-76109770D02*
X42295401Y-76109770D01*
X42295401Y-76109770D02*
X41588295Y-76109770D01*
X34671000Y-80162400D02*
X21861725Y-80162400D01*
X21861725Y-80162400D02*
X20609724Y-78910399D01*
X20609724Y-78910399D02*
X19017999Y-78910399D01*
X18565997Y-79362401D02*
X17690999Y-79362401D01*
X17690999Y-79362401D02*
X16891000Y-80162400D01*
X19017999Y-78910399D02*
X18565997Y-79362401D01*
X37211000Y-80162400D02*
X39751000Y-80162400D01*
X34671000Y-80162400D02*
X37211000Y-80162400D01*
X75671682Y-63525400D02*
X76583221Y-62613861D01*
X76583221Y-62613861D02*
X76583221Y-61755289D01*
X74041000Y-63525400D02*
X75671682Y-63525400D01*
X72771000Y-62255400D02*
X74041000Y-63525400D01*
X72644000Y-62255400D02*
X72771000Y-62255400D01*
X62064801Y-62255400D02*
X72644000Y-62255400D01*
X33090514Y-61266849D02*
X33055264Y-61302099D01*
X54991000Y-62382400D02*
X53875449Y-61266849D01*
X53875449Y-61266849D02*
X33090514Y-61266849D01*
X33055264Y-61302099D02*
X32555265Y-61802098D01*
X33336354Y-35697236D02*
X45481164Y-35697236D01*
X45481164Y-35697236D02*
X46101000Y-35077400D01*
X46101000Y-35077400D02*
X46101000Y-33971786D01*
X46101000Y-33971786D02*
X46736000Y-33336786D01*
X46736000Y-33336786D02*
X48984614Y-33336786D01*
X48984614Y-33336786D02*
X49784000Y-32537400D01*
X56095801Y-61277599D02*
X61087000Y-61277599D01*
X61087000Y-61277599D02*
X62064801Y-62255400D01*
X54991000Y-62382400D02*
X56095801Y-61277599D01*
X60071000Y-80162400D02*
X58801000Y-78892400D01*
X58801000Y-78892400D02*
X42229664Y-78892400D01*
X42229664Y-78892400D02*
X41522558Y-78892400D01*
X34671000Y-82702400D02*
X34669251Y-82704149D01*
X34669251Y-82704149D02*
X21954750Y-82704149D01*
X21954750Y-82704149D02*
X20701000Y-81450399D01*
X20701000Y-81450399D02*
X19017999Y-81450399D01*
X19017999Y-81450399D02*
X18565997Y-81902401D01*
X18565997Y-81902401D02*
X17690999Y-81902401D01*
X17690999Y-81902401D02*
X16891000Y-82702400D01*
X51463339Y-58854739D02*
X42232178Y-58854739D01*
X42065191Y-59021726D02*
X41565192Y-59521725D01*
X52451000Y-59842400D02*
X51463339Y-58854739D01*
X42232178Y-58854739D02*
X42065191Y-59021726D01*
X60071000Y-82702400D02*
X59373504Y-82004904D01*
X59373504Y-82004904D02*
X58528234Y-82004904D01*
X58528234Y-82004904D02*
X58120929Y-81597599D01*
X58120929Y-81597599D02*
X43641425Y-81597599D01*
X43641425Y-81597599D02*
X42134813Y-83104211D01*
X42134813Y-83104211D02*
X41634814Y-83604210D01*
X34671000Y-85242400D02*
X34669085Y-85240485D01*
X34669085Y-85240485D02*
X21969085Y-85240485D01*
X18565997Y-84442401D02*
X17690999Y-84442401D01*
X21969085Y-85240485D02*
X20718999Y-83990399D01*
X20718999Y-83990399D02*
X19017999Y-83990399D01*
X19017999Y-83990399D02*
X18565997Y-84442401D01*
X17690999Y-84442401D02*
X17602199Y-84531201D01*
X17602199Y-84531201D02*
X16891000Y-85242400D01*
X39751000Y-87782400D02*
X47830109Y-87782400D01*
X47830109Y-87782400D02*
X51421535Y-84190974D01*
X51421535Y-84190974D02*
X57531000Y-84190974D01*
X57531000Y-84190974D02*
X58582426Y-85242400D01*
X58582426Y-85242400D02*
X60071000Y-85242400D01*
X15621000Y-83954401D02*
X18178999Y-83954401D01*
X1651000Y-82702400D02*
X14368999Y-82702400D01*
X14368999Y-82702400D02*
X15621000Y-83954401D01*
X37211000Y-87782400D02*
X37211000Y-87733710D01*
X37211000Y-87733710D02*
X35916278Y-86438988D01*
X35916278Y-86438988D02*
X35916278Y-84607872D01*
X35916278Y-84607872D02*
X35280806Y-83972400D01*
X35280806Y-83972400D02*
X21971000Y-83972400D01*
X21971000Y-83972400D02*
X20701000Y-82702400D01*
X20701000Y-82702400D02*
X19431000Y-82702400D01*
X39751000Y-87782400D02*
X37211000Y-87782400D01*
X18178999Y-83954401D02*
X19431000Y-82702400D01*
X52451000Y-54762400D02*
X54991000Y-54762400D01*
X52451000Y-54762400D02*
X43992800Y-54762400D01*
X60071000Y-87782400D02*
X56769000Y-87782400D01*
X55703994Y-86717394D02*
X51734005Y-86717394D01*
X56769000Y-87782400D02*
X55703994Y-86717394D01*
X51734005Y-86717394D02*
X48128999Y-90322400D01*
X48128999Y-90322400D02*
X39751000Y-90322400D01*
X15387587Y-92752810D02*
X15387587Y-93403961D01*
X15387587Y-93403961D02*
X15862027Y-93878401D01*
X15862027Y-93878401D02*
X20559953Y-93878401D01*
X20559953Y-93878401D02*
X20813952Y-94132400D01*
X20813952Y-94132400D02*
X35118831Y-94132400D01*
X35118831Y-94132400D02*
X35955288Y-93295943D01*
X35955288Y-93295943D02*
X35955288Y-92566342D01*
X35955288Y-92566342D02*
X37211000Y-91310630D01*
X37211000Y-91310630D02*
X37211000Y-90322400D01*
X15621000Y-81414401D02*
X18178999Y-81414401D01*
X1651000Y-80162400D02*
X14368999Y-80162400D01*
X14368999Y-80162400D02*
X15621000Y-81414401D01*
X37211000Y-90322400D02*
X39751000Y-90322400D01*
X18178999Y-81414401D02*
X19431000Y-80162400D01*
X52451000Y-52222400D02*
X54991000Y-52222400D01*
X60071000Y-90322400D02*
X56769000Y-90322400D01*
X56769000Y-90322400D02*
X55499000Y-89052400D01*
X55499000Y-89052400D02*
X51739379Y-89052400D01*
X51739379Y-89052400D02*
X47929379Y-92862400D01*
X47929379Y-92862400D02*
X39751000Y-92862400D01*
X15367000Y-94640400D02*
X15367000Y-95382082D01*
X34167534Y-96649830D02*
X35089921Y-96649830D01*
X15367000Y-95382082D02*
X16403319Y-96418401D01*
X16403319Y-96418401D02*
X20504213Y-96418401D01*
X20504213Y-96418401D02*
X20778904Y-96143710D01*
X20778904Y-96143710D02*
X33661414Y-96143710D01*
X33661414Y-96143710D02*
X34167534Y-96649830D01*
X35089921Y-96649830D02*
X35989740Y-95750011D01*
X35989740Y-95750011D02*
X35989740Y-94083660D01*
X35989740Y-94083660D02*
X37211000Y-92862400D01*
X1651000Y-72542400D02*
X14351000Y-72542400D01*
X14351000Y-72542400D02*
X15603001Y-73794401D01*
X18178999Y-73794401D02*
X19431000Y-72542400D01*
X15603001Y-73794401D02*
X18178999Y-73794401D01*
X39751000Y-92862400D02*
X37211000Y-92862400D01*
X60071000Y-92862400D02*
X57404000Y-92862400D01*
X57404000Y-92862400D02*
X56134000Y-91592400D01*
X56134000Y-91592400D02*
X51684593Y-91592400D01*
X51684593Y-91592400D02*
X47874593Y-95402400D01*
X47874593Y-95402400D02*
X39878000Y-95402400D01*
X39878000Y-95402400D02*
X39751000Y-95402400D01*
X15621000Y-78874401D02*
X18178999Y-78874401D01*
X1651000Y-77622400D02*
X14368999Y-77622400D01*
X14368999Y-77622400D02*
X15621000Y-78874401D01*
X15450251Y-96603507D02*
X15216159Y-96837599D01*
X15216159Y-96837599D02*
X33259786Y-96837599D01*
X33259786Y-96837599D02*
X33567106Y-97144919D01*
X33567106Y-97144919D02*
X35468481Y-97144919D01*
X35468481Y-97144919D02*
X37211000Y-95402400D01*
X39751000Y-95402400D02*
X37211000Y-95402400D01*
X18178999Y-78874401D02*
X19431000Y-77622400D01*
X51066517Y-48526883D02*
X41483445Y-48526883D01*
X41483445Y-48526883D02*
X41216550Y-48259988D01*
X9252255Y-47161145D02*
X7442199Y-48971201D01*
X52451000Y-47142400D02*
X51066517Y-48526883D01*
X30152701Y-48259988D02*
X29053858Y-47161145D01*
X41216550Y-48259988D02*
X30152701Y-48259988D01*
X29053858Y-47161145D02*
X9252255Y-47161145D01*
X7442199Y-48971201D02*
X6731000Y-49682400D01*
D31*
X7601000Y-10312400D02*
X10541000Y-10312400D01*
X4191000Y-13722400D02*
X4191000Y-17932400D01*
X4191000Y-13722400D02*
X7601000Y-10312400D01*
X22950600Y-4597400D02*
X24511000Y-4597400D01*
X18216400Y-4597400D02*
X22950600Y-4597400D01*
X12501400Y-10312400D02*
X18216400Y-4597400D01*
X10541000Y-10312400D02*
X12501400Y-10312400D01*
X38478476Y-63649876D02*
X31403615Y-63649876D01*
X39751000Y-64922400D02*
X38478476Y-63649876D01*
D30*
X55981839Y-13070735D02*
X56481838Y-13570734D01*
X55608696Y-12697592D02*
X55981839Y-13070735D01*
X45946192Y-12697592D02*
X55608696Y-12697592D01*
X44831000Y-11582400D02*
X45946192Y-12697592D01*
X36682976Y-11403554D02*
X36668596Y-11417934D01*
X38426643Y-12689345D02*
X37140852Y-11403554D01*
X37140852Y-11403554D02*
X36682976Y-11403554D01*
X44831000Y-11582400D02*
X43724055Y-12689345D01*
X43724055Y-12689345D02*
X38426643Y-12689345D01*
X35259294Y-23469600D02*
X35966400Y-23469600D01*
X34808446Y-23018752D02*
X35259294Y-23469600D01*
X8007352Y-23018752D02*
X34808446Y-23018752D01*
X6731000Y-21742400D02*
X8007352Y-23018752D01*
X76784189Y-53289211D02*
X76022199Y-54051201D01*
X71627999Y-48158401D02*
X74295000Y-45491400D01*
X56120183Y-48158401D02*
X71627999Y-48158401D01*
X55702199Y-47853599D02*
X55815381Y-47853599D01*
X74295000Y-45491400D02*
X76454000Y-45491400D01*
X76454000Y-45491400D02*
X76784189Y-45821589D01*
X76784189Y-45821589D02*
X76784189Y-53289211D01*
X55815381Y-47853599D02*
X56120183Y-48158401D01*
X54991000Y-47142400D02*
X55702199Y-47853599D01*
X76022199Y-54051201D02*
X75311000Y-54762400D01*
X16891000Y-52222400D02*
X18583266Y-53914666D01*
X18583266Y-53914666D02*
X34679488Y-53914666D01*
X60071000Y-54762400D02*
X59054999Y-55778401D01*
X59054999Y-55778401D02*
X36543223Y-55778401D01*
X36543223Y-55778401D02*
X34679488Y-53914666D01*
X83719856Y-11674279D02*
X84219855Y-11174280D01*
X76842660Y-10071100D02*
X78445839Y-11674279D01*
X78445839Y-11674279D02*
X83719856Y-11674279D01*
X72771000Y-9042400D02*
X73799700Y-10071100D01*
X73799700Y-10071100D02*
X76842660Y-10071100D01*
X68769164Y-56097236D02*
X85383372Y-56097236D01*
X60071000Y-57302400D02*
X67564000Y-57302400D01*
X85383372Y-56097236D02*
X85883371Y-55597237D01*
X67564000Y-57302400D02*
X68769164Y-56097236D01*
X71470825Y-9380328D02*
X72644197Y-10553700D01*
X78079676Y-12412181D02*
X85032509Y-12412181D01*
X72644197Y-10553700D02*
X76221195Y-10553700D01*
X70231000Y-6502400D02*
X71470825Y-7742225D01*
X85032509Y-12412181D02*
X85532508Y-11912182D01*
X76221195Y-10553700D02*
X78079676Y-12412181D01*
X71470825Y-7742225D02*
X71470825Y-9380328D01*
X60071000Y-59842400D02*
X73533000Y-59842400D01*
X73533000Y-59842400D02*
X74641088Y-60950488D01*
X85824375Y-60950488D02*
X86602383Y-60172480D01*
X86602383Y-60172480D02*
X87102382Y-59672481D01*
X74641088Y-60950488D02*
X85824375Y-60950488D01*
D31*
X44831000Y-24282400D02*
X46100175Y-25551575D01*
X46100175Y-25551575D02*
X48571095Y-25551575D01*
X63855601Y-35687001D02*
X65151000Y-36982400D01*
X48571095Y-25551575D02*
X54921920Y-31902400D01*
X54921920Y-31902400D02*
X62585601Y-31902400D01*
X62585601Y-31902400D02*
X63855601Y-33172400D01*
X63855601Y-33172400D02*
X63855601Y-35687001D01*
X80391000Y-10312400D02*
X78740000Y-10312400D01*
X75311000Y-9042400D02*
X77470000Y-9042400D01*
X77470000Y-9042400D02*
X78740000Y-10312400D01*
X51181000Y-39522400D02*
X51181000Y-36982400D01*
X47371000Y-34442400D02*
X48666399Y-35737799D01*
X48666399Y-35737799D02*
X50508409Y-35737799D01*
X50508409Y-35737799D02*
X51181000Y-36410390D01*
X51181000Y-36410390D02*
X51181000Y-36982400D01*
X56261000Y-1422400D02*
X56297615Y-1385785D01*
X56297615Y-1385785D02*
X77628120Y-1385785D01*
X77628120Y-1385785D02*
X80391000Y-4148665D01*
X80391000Y-4148665D02*
X80391000Y-10312400D01*
X66421000Y-42062400D02*
X63881000Y-39522400D01*
X63881000Y-39522400D02*
X51181000Y-39522400D01*
X48641000Y-42062400D02*
X51181000Y-39522400D01*
X75311000Y-21742400D02*
X79121000Y-21742400D01*
X79121000Y-21742400D02*
X80391000Y-20472400D01*
X61341000Y-63652400D02*
X68199000Y-63652400D01*
X75819000Y-66192400D02*
X70739000Y-66192400D01*
X70739000Y-66192400D02*
X68199000Y-63652400D01*
X76606399Y-65405001D02*
X75819000Y-66192400D01*
X77851000Y-62382400D02*
X76606399Y-63627001D01*
X76606399Y-63627001D02*
X76606399Y-65405001D01*
X60071000Y-62382400D02*
X61341000Y-63652400D01*
X34671000Y-50927001D02*
X25755601Y-50927001D01*
X25755601Y-50927001D02*
X25310999Y-50482399D01*
X25310999Y-50482399D02*
X24511000Y-49682400D01*
X19431000Y-97942400D02*
X14942215Y-97942400D01*
X14942215Y-97942400D02*
X13431277Y-96431462D01*
X13431277Y-96431462D02*
X5422538Y-96431462D01*
X5422538Y-96431462D02*
X3911600Y-97942400D01*
X3911600Y-97942400D02*
X1651000Y-97942400D01*
X21971000Y-52222400D02*
X21971000Y-49682400D01*
X21971000Y-49682400D02*
X24511000Y-49682400D01*
X56235601Y-50927001D02*
X34671000Y-50927001D01*
X34671000Y-52222400D02*
X34671000Y-50927001D01*
X57531000Y-52222400D02*
X56235601Y-50927001D01*
X21971000Y-36982400D02*
X24511000Y-36982400D01*
X9271000Y-36982400D02*
X10515601Y-35737799D01*
X10515601Y-35737799D02*
X20726399Y-35737799D01*
X20726399Y-35737799D02*
X21971000Y-36982400D01*
X6731000Y-36982400D02*
X9271000Y-36982400D01*
X21971000Y-21742400D02*
X24511000Y-21742400D01*
X19431000Y-21742400D02*
X21971000Y-21742400D01*
X19431000Y-29362400D02*
X16891000Y-29362400D01*
X24511000Y-26822400D02*
X21971000Y-26822400D01*
X21971000Y-26822400D02*
X19431000Y-29362400D01*
X16891000Y-15367001D02*
X20726399Y-15367001D01*
X13055601Y-15367001D02*
X16891000Y-15367001D01*
X16891000Y-15367001D02*
X16891000Y-14122400D01*
X11811000Y-14122400D02*
X13055601Y-15367001D01*
X20726399Y-15367001D02*
X21971000Y-14122400D01*
X1651000Y-97942400D02*
X1651000Y-95402400D01*
X25958800Y-26822400D02*
X24511000Y-26822400D01*
X26263600Y-26517600D02*
X25958800Y-26822400D01*
X38404800Y-26517600D02*
X26263600Y-26517600D01*
X39751000Y-26902400D02*
X38789600Y-26902400D01*
X38789600Y-26902400D02*
X38404800Y-26517600D01*
X74041000Y-28092400D02*
X72771000Y-29362400D01*
X80391000Y-28092400D02*
X74041000Y-28092400D01*
X103251000Y-39522400D02*
X103251000Y-36982400D01*
X89839801Y-38811201D02*
X90551000Y-39522400D01*
X89306399Y-38277799D02*
X89839801Y-38811201D01*
X101726999Y-35458399D02*
X103251000Y-36982400D01*
X89306399Y-35458399D02*
X101726999Y-35458399D01*
X89306399Y-35458399D02*
X89306399Y-38277799D01*
X81940400Y-28092400D02*
X89306399Y-35458399D01*
X80391000Y-28092400D02*
X81940400Y-28092400D01*
X32131000Y-2057400D02*
X29591000Y-4597400D01*
X39751000Y-2057400D02*
X39751000Y-3962400D01*
X39751000Y-2057400D02*
X32131000Y-2057400D01*
X41198800Y-2057400D02*
X39751000Y-2057400D01*
X42341800Y-3200400D02*
X41198800Y-2057400D01*
X56261000Y-1422400D02*
X54483000Y-3200400D01*
X54483000Y-3200400D02*
X42341800Y-3200400D01*
D30*
X73846498Y-58377898D02*
X23915978Y-58377898D01*
X75311000Y-59842400D02*
X73846498Y-58377898D01*
X74823319Y-46126399D02*
X69781407Y-51168311D01*
X20142199Y-52933599D02*
X19431000Y-52222400D01*
X58791739Y-52596767D02*
X58061305Y-53327201D01*
X58061305Y-53327201D02*
X20535801Y-53327201D01*
X69781407Y-51168311D02*
X59270192Y-51168311D01*
X75798681Y-46126399D02*
X74823319Y-46126399D01*
X76327001Y-48666399D02*
X76327001Y-46654719D01*
X75311000Y-49682400D02*
X76327001Y-48666399D01*
X58791739Y-51646764D02*
X58791739Y-52596767D01*
X59270192Y-51168311D02*
X58791739Y-51646764D01*
X20535801Y-53327201D02*
X20142199Y-52933599D01*
X76327001Y-46654719D02*
X75798681Y-46126399D01*
X19431000Y-49682400D02*
X18149911Y-48401311D01*
X18149911Y-48401311D02*
X15632089Y-48401311D01*
X15062199Y-48971201D02*
X14351000Y-49682400D01*
X15632089Y-48401311D02*
X15062199Y-48971201D01*
X49352311Y-18112774D02*
X49583497Y-17881588D01*
X39751000Y-19282400D02*
X40920626Y-18112774D01*
X40920626Y-18112774D02*
X49352311Y-18112774D01*
X49583497Y-17881588D02*
X50083496Y-17381589D01*
X39751000Y-19282400D02*
X37131000Y-16662400D01*
X37131000Y-16662400D02*
X34671000Y-16662400D01*
X33201894Y-23901400D02*
X32744694Y-23444200D01*
X33909000Y-23901400D02*
X33201894Y-23901400D01*
X32744694Y-23444200D02*
X23368000Y-23444200D01*
X23368000Y-23444200D02*
X20218400Y-26593800D01*
X11811000Y-52222400D02*
X14127613Y-54539013D01*
X14127613Y-54539013D02*
X21265024Y-54539013D01*
X51689000Y-56184812D02*
X53873412Y-56184812D01*
X21265024Y-54539013D02*
X21735623Y-55009612D01*
X41275000Y-56794400D02*
X51079412Y-56794400D01*
X21735623Y-55009612D02*
X34827394Y-55009612D01*
X40665412Y-56184812D02*
X41275000Y-56794400D01*
X34827394Y-55009612D02*
X36002594Y-56184812D01*
X36002594Y-56184812D02*
X40665412Y-56184812D01*
X51079412Y-56794400D02*
X51689000Y-56184812D01*
X53873412Y-56184812D02*
X54991000Y-57302400D01*
X58547001Y-56286399D02*
X57531000Y-57302400D01*
X57531000Y-57302400D02*
X54991000Y-57302400D01*
X75311000Y-47142400D02*
X66167001Y-56286399D01*
X66167001Y-56286399D02*
X58547001Y-56286399D01*
X93091000Y-92862400D02*
X93086671Y-92858071D01*
X93086671Y-92858071D02*
X86440128Y-92858071D01*
X86440128Y-92858071D02*
X86425284Y-92872915D01*
X42645747Y-24731012D02*
X42645747Y-24023906D01*
X42645747Y-26291943D02*
X42645747Y-24731012D01*
X40741666Y-28196024D02*
X42645747Y-26291943D01*
X39039382Y-28196024D02*
X40741666Y-28196024D01*
X38072158Y-27228800D02*
X39039382Y-28196024D01*
X26380328Y-39966718D02*
X26380328Y-31267297D01*
X24284646Y-42062400D02*
X26380328Y-39966718D01*
X30418825Y-27228800D02*
X38072158Y-27228800D01*
X21971000Y-42062400D02*
X24284646Y-42062400D01*
X26380328Y-31267297D02*
X30418825Y-27228800D01*
X38939209Y-9042400D02*
X38715231Y-9266378D01*
X44831000Y-9042400D02*
X38939209Y-9042400D01*
X1651000Y-92862400D02*
X13756385Y-92862400D01*
X13756385Y-92862400D02*
X14823185Y-91795600D01*
X14823185Y-91795600D02*
X18465800Y-91795600D01*
X18897600Y-91363800D02*
X21566290Y-91363800D01*
X21566290Y-91363800D02*
X22856326Y-90073764D01*
X18465800Y-91795600D02*
X18897600Y-91363800D01*
X22856326Y-90073764D02*
X22856326Y-90068400D01*
X34671000Y-87782400D02*
X35687001Y-88798401D01*
X35687001Y-88798401D02*
X48234230Y-88798401D01*
X48234230Y-88798401D02*
X50774230Y-86258401D01*
X50774230Y-86258401D02*
X57023001Y-86258401D01*
X85890133Y-91588726D02*
X86631500Y-90847359D01*
X57023001Y-86258401D02*
X57467500Y-86702900D01*
X57467500Y-86702900D02*
X61158336Y-86702900D01*
X61158336Y-86702900D02*
X66044162Y-91588726D01*
X66044162Y-91588726D02*
X85890133Y-91588726D01*
X34671000Y-87782400D02*
X21953001Y-87782400D01*
X21953001Y-87782400D02*
X20701000Y-86530399D01*
X20701000Y-86530399D02*
X19017999Y-86530399D01*
X19017999Y-86530399D02*
X18565997Y-86982401D01*
X18565997Y-86982401D02*
X17690999Y-86982401D01*
X17690999Y-86982401D02*
X17602199Y-87071201D01*
X17602199Y-87071201D02*
X16891000Y-87782400D01*
X86622001Y-12488799D02*
X87122000Y-11988800D01*
X85809201Y-13301599D02*
X86622001Y-12488799D01*
X75311000Y-11582400D02*
X77030199Y-13301599D01*
X77030199Y-13301599D02*
X85809201Y-13301599D01*
X15621000Y-89028449D02*
X26064105Y-89028449D01*
X1651000Y-87782400D02*
X14374951Y-87782400D01*
X14374951Y-87782400D02*
X15621000Y-89028449D01*
X34671000Y-90322400D02*
X33390266Y-89041666D01*
X33390266Y-89041666D02*
X26077322Y-89041666D01*
X26077322Y-89041666D02*
X26064105Y-89028449D01*
X68971772Y-5843074D02*
X68971772Y-9517994D01*
X68418578Y-10071188D02*
X32092812Y-10071188D01*
X69607946Y-5206900D02*
X68971772Y-5843074D01*
X32092812Y-10071188D02*
X29278199Y-12885801D01*
X29278199Y-12885801D02*
X28778200Y-13385800D01*
X68971772Y-9517994D02*
X68418578Y-10071188D01*
X72771000Y-6502400D02*
X71475500Y-5206900D01*
X71475500Y-5206900D02*
X69607946Y-5206900D01*
X34671000Y-92862400D02*
X21267712Y-92862400D01*
X21267712Y-92862400D02*
X20216853Y-91811541D01*
X20216853Y-91811541D02*
X19024609Y-91811541D01*
X19024609Y-91811541D02*
X17973750Y-92862400D01*
X17973750Y-92862400D02*
X16891000Y-92862400D01*
X35941006Y-90406890D02*
X35941006Y-89699784D01*
X35941006Y-91592394D02*
X35941006Y-90406890D01*
X34671000Y-92862400D02*
X35941006Y-91592394D01*
X15621000Y-91389189D02*
X18043461Y-91389189D01*
X14554211Y-90322400D02*
X15621000Y-91389189D01*
X1651000Y-90322400D02*
X14554211Y-90322400D01*
X19110250Y-90322400D02*
X19431000Y-90322400D01*
X18043461Y-91389189D02*
X19110250Y-90322400D01*
X15621000Y-86494401D02*
X18178999Y-86494401D01*
X1651000Y-85242400D02*
X14368999Y-85242400D01*
X14368999Y-85242400D02*
X15621000Y-86494401D01*
X19431000Y-85242400D02*
X20436788Y-85242400D01*
X20436788Y-85242400D02*
X21748751Y-86554363D01*
X21748751Y-86554363D02*
X24213324Y-86554363D01*
X24213324Y-86554363D02*
X24233231Y-86534456D01*
X71056500Y-11582400D02*
X70802500Y-11582400D01*
X72771000Y-11582400D02*
X71765212Y-11582400D01*
X71765212Y-11582400D02*
X70802500Y-11582400D01*
X18178999Y-86494401D02*
X19431000Y-85242400D01*
X32902909Y-10477599D02*
X29189906Y-14190602D01*
X48874682Y-11582400D02*
X47769881Y-10477599D01*
X29189906Y-14190602D02*
X27609577Y-14190602D01*
X70802500Y-11582400D02*
X48874682Y-11582400D01*
X27609577Y-14190602D02*
X27576184Y-14157209D01*
X27576184Y-14157209D02*
X27076185Y-13657210D01*
X47769881Y-10477599D02*
X32902909Y-10477599D01*
X16891000Y-95402400D02*
X18008588Y-94284812D01*
X18008588Y-94284812D02*
X19867608Y-94284812D01*
X19867608Y-94284812D02*
X20985196Y-95402400D01*
X20985196Y-95402400D02*
X34671000Y-95402400D01*
X48387001Y-17150081D02*
X48387001Y-15138401D01*
X34671000Y-19202400D02*
X33516199Y-18047599D01*
X33516199Y-18047599D02*
X33516199Y-16108095D01*
X33516199Y-16108095D02*
X34116695Y-15507599D01*
X34116695Y-15507599D02*
X37041093Y-15507599D01*
X37041093Y-15507599D02*
X39220695Y-17687201D01*
X39220695Y-17687201D02*
X47849881Y-17687201D01*
X47849881Y-17687201D02*
X48387001Y-17150081D01*
X48387001Y-15138401D02*
X47371000Y-14122400D01*
X14351000Y-52222400D02*
X15383902Y-52222400D01*
X15383902Y-52222400D02*
X15678019Y-51928283D01*
X20688301Y-50386783D02*
X20688301Y-49088814D01*
X15678019Y-51928283D02*
X15678019Y-51339993D01*
X16071005Y-50947007D02*
X20128077Y-50947007D01*
X15678019Y-51339993D02*
X16071005Y-50947007D01*
X26301919Y-49502437D02*
X30691971Y-49502437D01*
X30691971Y-49502437D02*
X31399077Y-49502437D01*
X20128077Y-50947007D02*
X20688301Y-50386783D01*
X20688301Y-49088814D02*
X21398776Y-48378339D01*
X21398776Y-48378339D02*
X25177821Y-48378339D01*
X25177821Y-48378339D02*
X26301919Y-49502437D01*
X32131000Y-16662400D02*
X33285801Y-15507599D01*
X33285801Y-15507599D02*
X33285801Y-13798493D01*
X33285801Y-13798493D02*
X34116695Y-12967599D01*
X34116695Y-12967599D02*
X35657846Y-12967599D01*
X35657846Y-12967599D02*
X36101448Y-13411201D01*
X38495395Y-14122400D02*
X43825212Y-14122400D01*
X36101448Y-13411201D02*
X37784196Y-13411201D01*
X37784196Y-13411201D02*
X38495395Y-14122400D01*
X43825212Y-14122400D02*
X44831000Y-14122400D01*
X59359801Y-8331201D02*
X60071000Y-9042400D01*
X59004203Y-7975603D02*
X59359801Y-8331201D01*
X46015353Y-7975603D02*
X59004203Y-7975603D01*
X45507340Y-7467589D02*
X46015353Y-7975603D01*
X19431000Y-10871200D02*
X22352011Y-7950189D01*
X19431000Y-14122400D02*
X19431000Y-10871200D01*
X22352011Y-7950189D02*
X43468860Y-7950189D01*
X43468860Y-7950189D02*
X43951459Y-7467589D01*
X43951459Y-7467589D02*
X45507340Y-7467589D01*
X19431000Y-70002400D02*
X27145898Y-70002400D01*
X27145898Y-70002400D02*
X27273500Y-69874798D01*
X41137082Y-23312821D02*
X41137082Y-24674318D01*
X27986706Y-24257000D02*
X27279600Y-24257000D01*
X48078618Y-22758401D02*
X41691502Y-22758401D01*
X57462045Y-20830694D02*
X50006325Y-20830694D01*
X29116907Y-25387201D02*
X27986706Y-24257000D01*
X40424199Y-25387201D02*
X29116907Y-25387201D01*
X41691502Y-22758401D02*
X41137082Y-23312821D01*
X50006325Y-20830694D02*
X48078618Y-22758401D01*
X41137082Y-24674318D02*
X40424199Y-25387201D01*
X27832442Y-75650057D02*
X28539548Y-75650057D01*
X21268657Y-75650057D02*
X27832442Y-75650057D01*
X20701000Y-75082400D02*
X21268657Y-75650057D01*
X19431000Y-75082400D02*
X20701000Y-75082400D01*
X15621000Y-76334401D02*
X18178999Y-76334401D01*
X1651000Y-75082400D02*
X14368999Y-75082400D01*
X14368999Y-75082400D02*
X15621000Y-76334401D01*
X18178999Y-76334401D02*
X19431000Y-75082400D01*
X49313559Y-19646900D02*
X54991000Y-19646900D01*
X48453006Y-20507453D02*
X49313559Y-19646900D01*
X29075742Y-17817435D02*
X32397035Y-17817435D01*
X33401000Y-19989800D02*
X33918653Y-20507453D01*
X28211364Y-16953057D02*
X29075742Y-17817435D01*
X32397035Y-17817435D02*
X33401000Y-18821400D01*
X33918653Y-20507453D02*
X48453006Y-20507453D01*
X33401000Y-18821400D02*
X33401000Y-19989800D01*
X27023559Y-68681460D02*
X27730665Y-68681460D01*
X26762283Y-68681460D02*
X27023559Y-68681460D01*
X2730500Y-68922900D02*
X26520843Y-68922900D01*
X26520843Y-68922900D02*
X26762283Y-68681460D01*
X1651000Y-70002400D02*
X2730500Y-68922900D01*
X41702842Y-25035668D02*
X40944898Y-25793612D01*
X27817531Y-25345558D02*
X27792202Y-25345558D01*
X40944898Y-25793612D02*
X28265585Y-25793612D01*
X28265585Y-25793612D02*
X27817531Y-25345558D01*
X41702842Y-23615729D02*
X41702842Y-25035668D01*
X42099466Y-23219105D02*
X41702842Y-23615729D01*
X49362743Y-23219105D02*
X42099466Y-23219105D01*
X50730021Y-21851827D02*
X49362743Y-23219105D01*
X32131000Y-14122400D02*
X33967267Y-12286133D01*
X33967267Y-12286133D02*
X36009733Y-12286133D01*
X50473894Y-13502402D02*
X51181000Y-13502402D01*
X36009733Y-12286133D02*
X36347932Y-12624332D01*
X36347932Y-12624332D02*
X37786879Y-12624332D01*
X50075495Y-13104003D02*
X50473894Y-13502402D01*
X37786879Y-12624332D02*
X38266550Y-13104003D01*
X38266550Y-13104003D02*
X50075495Y-13104003D01*
X95919300Y-17932400D02*
X95551000Y-17564100D01*
X98091000Y-17932400D02*
X95919300Y-17932400D01*
X94085802Y-13504100D02*
X93011000Y-13504100D01*
X96959594Y-13504100D02*
X94085802Y-13504100D01*
X99426199Y-14057201D02*
X97512695Y-14057201D01*
X97512695Y-14057201D02*
X96959594Y-13504100D01*
X100631000Y-12852400D02*
X99426199Y-14057201D01*
X96160007Y-16597201D02*
X95726906Y-16164100D01*
X94085802Y-16164100D02*
X93011000Y-16164100D01*
X99426199Y-16597201D02*
X96160007Y-16597201D01*
X95726906Y-16164100D02*
X94085802Y-16164100D01*
X100631000Y-15392400D02*
X99426199Y-16597201D01*
X94085802Y-18964100D02*
X93011000Y-18964100D01*
X99426199Y-19137201D02*
X94258903Y-19137201D01*
X94258903Y-19137201D02*
X94085802Y-18964100D01*
X100631000Y-17932400D02*
X99426199Y-19137201D01*
X95669300Y-20472400D02*
X95551000Y-20354100D01*
X98091000Y-20472400D02*
X95669300Y-20472400D01*
X96049300Y-15392400D02*
X95551000Y-14894100D01*
X98091000Y-15392400D02*
X96049300Y-15392400D01*
X93974200Y-21754100D02*
X93011000Y-21754100D01*
X100452500Y-21754100D02*
X93974200Y-21754100D01*
X100631000Y-21575600D02*
X100452500Y-21754100D01*
X100631000Y-20472400D02*
X100631000Y-21575600D01*
X84189300Y-21754100D02*
X93011000Y-21754100D01*
X83515200Y-22428200D02*
X84189300Y-21754100D01*
X9271000Y-39522400D02*
X10537656Y-38255744D01*
X10537656Y-38255744D02*
X15617656Y-38255744D01*
X15617656Y-38255744D02*
X16891000Y-36982400D01*
X16891000Y-39522400D02*
X19431000Y-36982400D01*
X14271000Y-39522400D02*
X16891000Y-39522400D01*
X6731000Y-29362400D02*
X7946759Y-28146641D01*
X12946759Y-28146641D02*
X14271000Y-26822400D01*
X7946759Y-28146641D02*
X12946759Y-28146641D01*
X14271000Y-26822400D02*
X16891000Y-26822400D01*
X56481499Y-44715479D02*
X67173052Y-44715479D01*
X67173052Y-44715479D02*
X68707000Y-43181531D01*
X68707000Y-32729714D02*
X69088000Y-32348714D01*
X68707000Y-43181531D02*
X68707000Y-32729714D01*
X69088000Y-32348714D02*
X69088000Y-31641608D01*
X67246500Y-43459400D02*
X56642000Y-43459400D01*
X54102000Y-40919400D02*
X52846363Y-40919400D01*
X56642000Y-43459400D02*
X54102000Y-40919400D01*
X67691000Y-38696900D02*
X67691000Y-43014900D01*
X52846363Y-40919400D02*
X52139257Y-40919400D01*
X67691000Y-43014900D02*
X67246500Y-43459400D01*
X14351000Y-42062400D02*
X11811000Y-42062400D01*
X19431000Y-42062400D02*
X18154161Y-40785561D01*
X18154161Y-40785561D02*
X5983954Y-40785561D01*
X5983954Y-40785561D02*
X2751199Y-44018316D01*
X2751199Y-44018316D02*
X2751199Y-52052599D01*
X2751199Y-52052599D02*
X2921000Y-52222400D01*
X6731000Y-52222400D02*
X2921000Y-52222400D01*
X16891000Y-49682400D02*
X15876753Y-49682400D01*
X15468031Y-50555304D02*
X15083491Y-50939844D01*
X15876753Y-49682400D02*
X15468031Y-50091122D01*
X15468031Y-50091122D02*
X15468031Y-50555304D01*
X15083491Y-50939844D02*
X4423207Y-50939844D01*
X4423207Y-50939844D02*
X4419362Y-50935999D01*
X53467000Y-48666400D02*
X55478681Y-48666399D01*
X55478681Y-48666399D02*
X57574182Y-50761900D01*
X60997146Y-50761900D02*
X61576647Y-50182399D01*
X52451000Y-49682400D02*
X53467000Y-48666400D01*
X57574182Y-50761900D02*
X60997146Y-50761900D01*
X61576647Y-50182399D02*
X62076646Y-49682400D01*
X30837258Y-60861343D02*
X30130152Y-60861343D01*
X75311000Y-62382400D02*
X73787001Y-60858401D01*
X30846150Y-60858401D02*
X30843208Y-60861343D01*
X30843208Y-60861343D02*
X30837258Y-60861343D01*
X73787001Y-60858401D02*
X30846150Y-60858401D01*
X23476077Y-15296380D02*
X28244423Y-15296380D01*
X9271000Y-14122400D02*
X11766124Y-16617524D01*
X11766124Y-16617524D02*
X22154933Y-16617524D01*
X22154933Y-16617524D02*
X23476077Y-15296380D01*
X59004208Y-7569192D02*
X59359801Y-7213599D01*
X46183693Y-7569192D02*
X59004208Y-7569192D01*
X20929622Y-7543778D02*
X43300519Y-7543778D01*
X14351000Y-14122400D02*
X20929622Y-7543778D01*
X43300519Y-7543778D02*
X43783119Y-7061178D01*
X43783119Y-7061178D02*
X45675680Y-7061178D01*
X59359801Y-7213599D02*
X60071000Y-6502400D01*
X45675680Y-7061178D02*
X46183693Y-7569192D01*
X24765000Y-11582400D02*
X22606000Y-11582400D01*
X96901000Y-87582400D02*
X96901000Y-86512400D01*
X96901000Y-86512400D02*
X93091000Y-82702400D01*
X96901000Y-92862400D02*
X96901000Y-87582400D01*
X46507400Y-9042400D02*
X47371000Y-9042400D01*
X29591000Y-11582400D02*
X32766000Y-8407400D01*
X32766000Y-8407400D02*
X43586399Y-8407400D01*
X45339000Y-7874000D02*
X46507400Y-9042400D01*
X43586399Y-8407400D02*
X44119799Y-7874000D01*
X44119799Y-7874000D02*
X45339000Y-7874000D01*
X29591000Y-11582400D02*
X27305000Y-11582400D01*
X95631000Y-82702400D02*
X93091000Y-80162400D01*
X96901000Y-82702400D02*
X95631000Y-82702400D01*
X95631000Y-77622400D02*
X93091000Y-80162400D01*
X96901000Y-77622400D02*
X95631000Y-77622400D01*
X90551000Y-58308188D02*
X90551000Y-57302400D01*
X83936788Y-64922400D02*
X90551000Y-58308188D01*
X77851000Y-64922400D02*
X83936788Y-64922400D01*
X91262199Y-50393599D02*
X90551000Y-49682400D01*
X91846400Y-50977800D02*
X91262199Y-50393599D01*
X91846400Y-58318400D02*
X91846400Y-50977800D01*
X77851000Y-67462400D02*
X82702400Y-67462400D01*
X82702400Y-67462400D02*
X91846400Y-58318400D01*
X96299300Y-12852400D02*
X95551000Y-12104100D01*
X98091000Y-12852400D02*
X96299300Y-12852400D01*
D32*
X93091000Y-39522400D02*
X95631000Y-39522400D01*
X93091000Y-44602400D02*
X95631000Y-44602400D01*
X82931000Y-39522400D02*
X80391000Y-39522400D01*
X80391000Y-44602400D02*
X82931000Y-44602400D01*
X93091000Y-52222400D02*
X95631000Y-49682400D01*
X93091000Y-47142400D02*
X95631000Y-47142400D01*
X80391000Y-52222400D02*
X82931000Y-49682400D01*
X80391000Y-47142400D02*
X82931000Y-47142400D01*
X91262199Y-37693599D02*
X90551000Y-36982400D01*
X93548200Y-42062400D02*
X91795600Y-40309800D01*
X95631000Y-42062400D02*
X93548200Y-42062400D01*
X91795600Y-38227000D02*
X91262199Y-37693599D01*
X91795600Y-40309800D02*
X91795600Y-38227000D01*
X82931000Y-36982400D02*
X84455000Y-38506400D01*
X83642199Y-41351201D02*
X82931000Y-42062400D01*
X84455000Y-40538400D02*
X83642199Y-41351201D01*
X84455000Y-38506400D02*
X84455000Y-40538400D01*
X93091000Y-54762400D02*
X95631000Y-52222400D01*
X80391000Y-54762400D02*
X82931000Y-52222400D01*
D33*
G36*
X91898013Y-69364735D02*
G01*
X91796533Y-69609728D01*
X91744800Y-69869811D01*
X91744800Y-70134989D01*
X91796533Y-70395072D01*
X91898013Y-70640065D01*
X92045338Y-70860553D01*
X92232847Y-71048062D01*
X92453335Y-71195387D01*
X92639260Y-71272400D01*
X92453335Y-71349413D01*
X92232847Y-71496738D01*
X92045338Y-71684247D01*
X91898013Y-71904735D01*
X91796533Y-72149728D01*
X91744800Y-72409811D01*
X91744800Y-72674989D01*
X91796533Y-72935072D01*
X91898013Y-73180065D01*
X92045338Y-73400553D01*
X92232847Y-73588062D01*
X92453335Y-73735387D01*
X92639260Y-73812400D01*
X92453335Y-73889413D01*
X92232847Y-74036738D01*
X92045338Y-74224247D01*
X91898013Y-74444735D01*
X91796533Y-74689728D01*
X91744800Y-74949811D01*
X91744800Y-75214989D01*
X91796533Y-75475072D01*
X91898013Y-75720065D01*
X92045338Y-75940553D01*
X92232847Y-76128062D01*
X92453335Y-76275387D01*
X92639260Y-76352400D01*
X92453335Y-76429413D01*
X92232847Y-76576738D01*
X92045338Y-76764247D01*
X91898013Y-76984735D01*
X91796533Y-77229728D01*
X91744800Y-77489811D01*
X91744800Y-77754989D01*
X91796533Y-78015072D01*
X91898013Y-78260065D01*
X92045338Y-78480553D01*
X92232847Y-78668062D01*
X92453335Y-78815387D01*
X92639260Y-78892400D01*
X92453335Y-78969413D01*
X92232847Y-79116738D01*
X92045338Y-79304247D01*
X91898013Y-79524735D01*
X91796533Y-79769728D01*
X91744800Y-80029811D01*
X91744800Y-80294989D01*
X91796533Y-80555072D01*
X91898013Y-80800065D01*
X92045338Y-81020553D01*
X92232847Y-81208062D01*
X92453335Y-81355387D01*
X92639260Y-81432400D01*
X92453335Y-81509413D01*
X92232847Y-81656738D01*
X92045338Y-81844247D01*
X91898013Y-82064735D01*
X91796533Y-82309728D01*
X91744800Y-82569811D01*
X91744800Y-82834989D01*
X91796533Y-83095072D01*
X91898013Y-83340065D01*
X92045338Y-83560553D01*
X92232847Y-83748062D01*
X92453335Y-83895387D01*
X92639260Y-83972400D01*
X92453335Y-84049413D01*
X92232847Y-84196738D01*
X92045338Y-84384247D01*
X91898013Y-84604735D01*
X91796533Y-84849728D01*
X91744800Y-85109811D01*
X91744800Y-85374989D01*
X91796533Y-85635072D01*
X91898013Y-85880065D01*
X92045338Y-86100553D01*
X92232847Y-86288062D01*
X92453335Y-86435387D01*
X92639260Y-86512400D01*
X92453335Y-86589413D01*
X92232847Y-86736738D01*
X92045338Y-86924247D01*
X91898013Y-87144735D01*
X91796533Y-87389728D01*
X91744800Y-87649811D01*
X91744800Y-87914989D01*
X91796533Y-88175072D01*
X91898013Y-88420065D01*
X92045338Y-88640553D01*
X92232847Y-88828062D01*
X92453335Y-88975387D01*
X92641600Y-89053369D01*
X92505720Y-89102858D01*
X92402152Y-89158217D01*
X92341332Y-89393127D01*
X93091000Y-90142795D01*
X93840668Y-89393127D01*
X93779848Y-89158217D01*
X93548066Y-89050194D01*
X93728665Y-88975387D01*
X93949153Y-88828062D01*
X94136662Y-88640553D01*
X94283987Y-88420065D01*
X94385467Y-88175072D01*
X94437200Y-87914989D01*
X94437200Y-87649811D01*
X94385467Y-87389728D01*
X94283987Y-87144735D01*
X94136662Y-86924247D01*
X93949153Y-86736738D01*
X93728665Y-86589413D01*
X93542740Y-86512400D01*
X93728665Y-86435387D01*
X93949153Y-86288062D01*
X94136662Y-86100553D01*
X94283987Y-85880065D01*
X94385467Y-85635072D01*
X94437200Y-85374989D01*
X94437200Y-85109811D01*
X94432358Y-85085467D01*
X95935803Y-86588912D01*
X95825201Y-86699514D01*
X95673629Y-86926357D01*
X95569225Y-87178411D01*
X95516000Y-87445989D01*
X95516000Y-87718811D01*
X95569225Y-87986389D01*
X95673629Y-88238443D01*
X95825201Y-88465286D01*
X96018114Y-88658199D01*
X96164401Y-88755945D01*
X96164400Y-91628721D01*
X95986241Y-91747763D01*
X95786363Y-91947641D01*
X95629320Y-92182673D01*
X95521147Y-92443826D01*
X95466000Y-92721065D01*
X95466000Y-93003735D01*
X95521147Y-93280974D01*
X95629320Y-93542127D01*
X95786363Y-93777159D01*
X95986241Y-93977037D01*
X96186869Y-94111092D01*
X96159486Y-94125729D01*
X96087903Y-94369698D01*
X96901000Y-95182795D01*
X97714097Y-94369698D01*
X97642514Y-94125729D01*
X97613659Y-94112076D01*
X97815759Y-93977037D01*
X98015637Y-93777159D01*
X98172680Y-93542127D01*
X98280853Y-93280974D01*
X98336000Y-93003735D01*
X98336000Y-92721065D01*
X98280853Y-92443826D01*
X98172680Y-92182673D01*
X98015637Y-91947641D01*
X97815759Y-91747763D01*
X97637600Y-91628721D01*
X97637600Y-88755944D01*
X97783886Y-88658199D01*
X97976799Y-88465286D01*
X98128371Y-88238443D01*
X98232775Y-87986389D01*
X98286000Y-87718811D01*
X98286000Y-87445989D01*
X98232775Y-87178411D01*
X98128371Y-86926357D01*
X97976799Y-86699514D01*
X97783886Y-86506601D01*
X97630498Y-86404110D01*
X97626942Y-86368001D01*
X97623007Y-86355029D01*
X97584822Y-86229151D01*
X97516424Y-86101187D01*
X97424375Y-85989025D01*
X97396269Y-85965959D01*
X94408680Y-82978371D01*
X94437200Y-82834989D01*
X94437200Y-82569811D01*
X94432358Y-82545467D01*
X95084554Y-83197663D01*
X95107625Y-83225775D01*
X95219787Y-83317824D01*
X95347751Y-83386222D01*
X95486601Y-83428342D01*
X95594814Y-83439000D01*
X95594823Y-83439000D01*
X95630999Y-83442563D01*
X95667175Y-83439000D01*
X95727456Y-83439000D01*
X95825201Y-83585286D01*
X96018114Y-83778199D01*
X96244957Y-83929771D01*
X96497011Y-84034175D01*
X96764589Y-84087400D01*
X97037411Y-84087400D01*
X97304989Y-84034175D01*
X97557043Y-83929771D01*
X97783886Y-83778199D01*
X97976799Y-83585286D01*
X98128371Y-83358443D01*
X98232775Y-83106389D01*
X98286000Y-82838811D01*
X98286000Y-82565989D01*
X98232775Y-82298411D01*
X98128371Y-82046357D01*
X97976799Y-81819514D01*
X97783886Y-81626601D01*
X97557043Y-81475029D01*
X97304989Y-81370625D01*
X97037411Y-81317400D01*
X96764589Y-81317400D01*
X96497011Y-81370625D01*
X96244957Y-81475029D01*
X96018114Y-81626601D01*
X95825201Y-81819514D01*
X95811031Y-81840722D01*
X94408680Y-80438371D01*
X94437200Y-80294989D01*
X94437200Y-80029811D01*
X94408680Y-79886429D01*
X95774982Y-78520127D01*
X95786363Y-78537159D01*
X95986241Y-78737037D01*
X96221273Y-78894080D01*
X96482426Y-79002253D01*
X96759665Y-79057400D01*
X97042335Y-79057400D01*
X97319574Y-79002253D01*
X97580727Y-78894080D01*
X97815759Y-78737037D01*
X98015637Y-78537159D01*
X98172680Y-78302127D01*
X98280853Y-78040974D01*
X98336000Y-77763735D01*
X98336000Y-77481065D01*
X98280853Y-77203826D01*
X98172680Y-76942673D01*
X98015637Y-76707641D01*
X97815759Y-76507763D01*
X97615131Y-76373708D01*
X97642514Y-76359071D01*
X97714097Y-76115102D01*
X96901000Y-75302005D01*
X96087903Y-76115102D01*
X96159486Y-76359071D01*
X96188341Y-76372724D01*
X95986241Y-76507763D01*
X95786363Y-76707641D01*
X95667321Y-76885800D01*
X95667175Y-76885800D01*
X95630999Y-76882237D01*
X95594823Y-76885800D01*
X95594814Y-76885800D01*
X95486601Y-76896458D01*
X95347751Y-76938578D01*
X95219787Y-77006976D01*
X95107625Y-77099025D01*
X95084554Y-77127137D01*
X94432358Y-77779333D01*
X94437200Y-77754989D01*
X94437200Y-77489811D01*
X94385467Y-77229728D01*
X94283987Y-76984735D01*
X94136662Y-76764247D01*
X93949153Y-76576738D01*
X93728665Y-76429413D01*
X93542740Y-76352400D01*
X93728665Y-76275387D01*
X93949153Y-76128062D01*
X94136662Y-75940553D01*
X94283987Y-75720065D01*
X94385467Y-75475072D01*
X94437200Y-75214989D01*
X94437200Y-75192912D01*
X95460783Y-75192912D01*
X95502213Y-75472530D01*
X95597397Y-75738692D01*
X95664329Y-75863914D01*
X95908298Y-75935497D01*
X96721395Y-75122400D01*
X97080605Y-75122400D01*
X97893702Y-75935497D01*
X98137671Y-75863914D01*
X98258571Y-75608404D01*
X98327300Y-75334216D01*
X98341217Y-75051888D01*
X98299787Y-74772270D01*
X98204603Y-74506108D01*
X98137671Y-74380886D01*
X97893702Y-74309303D01*
X97080605Y-75122400D01*
X96721395Y-75122400D01*
X95908298Y-74309303D01*
X95664329Y-74380886D01*
X95543429Y-74636396D01*
X95474700Y-74910584D01*
X95460783Y-75192912D01*
X94437200Y-75192912D01*
X94437200Y-74949811D01*
X94385467Y-74689728D01*
X94283987Y-74444735D01*
X94136662Y-74224247D01*
X94042113Y-74129698D01*
X96087903Y-74129698D01*
X96901000Y-74942795D01*
X97714097Y-74129698D01*
X97642514Y-73885729D01*
X97387004Y-73764829D01*
X97112816Y-73696100D01*
X96830488Y-73682183D01*
X96550870Y-73723613D01*
X96284708Y-73818797D01*
X96159486Y-73885729D01*
X96087903Y-74129698D01*
X94042113Y-74129698D01*
X93949153Y-74036738D01*
X93728665Y-73889413D01*
X93542740Y-73812400D01*
X93728665Y-73735387D01*
X93949153Y-73588062D01*
X94136662Y-73400553D01*
X94283987Y-73180065D01*
X94385467Y-72935072D01*
X94437200Y-72674989D01*
X94437200Y-72409811D01*
X94385467Y-72149728D01*
X94283987Y-71904735D01*
X94136662Y-71684247D01*
X93949153Y-71496738D01*
X93728665Y-71349413D01*
X93542740Y-71272400D01*
X93728665Y-71195387D01*
X93949153Y-71048062D01*
X94136662Y-70860553D01*
X94283987Y-70640065D01*
X94385467Y-70395072D01*
X94437200Y-70134989D01*
X94437200Y-69869811D01*
X94385467Y-69609728D01*
X94283987Y-69364735D01*
X94206923Y-69249400D01*
X104316001Y-69249400D01*
X104316001Y-99307400D01*
X93455608Y-99307400D01*
X93627292Y-99246003D01*
X93752514Y-99179071D01*
X93824097Y-98935102D01*
X93011000Y-98122005D01*
X92197903Y-98935102D01*
X92269486Y-99179071D01*
X92524996Y-99299971D01*
X92554633Y-99307400D01*
X89478000Y-99307400D01*
X89478000Y-98012912D01*
X91570783Y-98012912D01*
X91612213Y-98292530D01*
X91707397Y-98558692D01*
X91774329Y-98683914D01*
X92018298Y-98755497D01*
X92831395Y-97942400D01*
X93190605Y-97942400D01*
X94003702Y-98755497D01*
X94247671Y-98683914D01*
X94368571Y-98428404D01*
X94437300Y-98154216D01*
X94451217Y-97871888D01*
X94409787Y-97592270D01*
X94314603Y-97326108D01*
X94247671Y-97200886D01*
X94003702Y-97129303D01*
X93190605Y-97942400D01*
X92831395Y-97942400D01*
X92018298Y-97129303D01*
X91774329Y-97200886D01*
X91653429Y-97456396D01*
X91584700Y-97730584D01*
X91570783Y-98012912D01*
X89478000Y-98012912D01*
X89478000Y-96113600D01*
X91741728Y-96113600D01*
X91753988Y-96238082D01*
X91790298Y-96357780D01*
X91849263Y-96468094D01*
X91928615Y-96564785D01*
X92025306Y-96644137D01*
X92135620Y-96703102D01*
X92255318Y-96739412D01*
X92259483Y-96739822D01*
X92197903Y-96949698D01*
X93011000Y-97762795D01*
X93824097Y-96949698D01*
X93765917Y-96751410D01*
X93802200Y-96751672D01*
X93926682Y-96739412D01*
X94046380Y-96703102D01*
X94156694Y-96644137D01*
X94253385Y-96564785D01*
X94332737Y-96468094D01*
X94391702Y-96357780D01*
X94392514Y-96355102D01*
X96087903Y-96355102D01*
X96159486Y-96599071D01*
X96414996Y-96719971D01*
X96689184Y-96788700D01*
X96971512Y-96802617D01*
X97251130Y-96761187D01*
X97517292Y-96666003D01*
X97642514Y-96599071D01*
X97714097Y-96355102D01*
X96901000Y-95542005D01*
X96087903Y-96355102D01*
X94392514Y-96355102D01*
X94428012Y-96238082D01*
X94440272Y-96113600D01*
X94437200Y-95688150D01*
X94278450Y-95529400D01*
X93218000Y-95529400D01*
X93218000Y-95549400D01*
X92964000Y-95549400D01*
X92964000Y-95529400D01*
X91903550Y-95529400D01*
X91744800Y-95688150D01*
X91741728Y-96113600D01*
X89478000Y-96113600D01*
X89478000Y-95432912D01*
X95460783Y-95432912D01*
X95502213Y-95712530D01*
X95597397Y-95978692D01*
X95664329Y-96103914D01*
X95908298Y-96175497D01*
X96721395Y-95362400D01*
X97080605Y-95362400D01*
X97893702Y-96175497D01*
X98137671Y-96103914D01*
X98258571Y-95848404D01*
X98327300Y-95574216D01*
X98341217Y-95291888D01*
X98299787Y-95012270D01*
X98204603Y-94746108D01*
X98137671Y-94620886D01*
X97893702Y-94549303D01*
X97080605Y-95362400D01*
X96721395Y-95362400D01*
X95908298Y-94549303D01*
X95664329Y-94620886D01*
X95543429Y-94876396D01*
X95474700Y-95150584D01*
X95460783Y-95432912D01*
X89478000Y-95432912D01*
X89478000Y-93594671D01*
X91961227Y-93594671D01*
X92045338Y-93720553D01*
X92232847Y-93908062D01*
X92450721Y-94053640D01*
X92379800Y-94053128D01*
X92255318Y-94065388D01*
X92135620Y-94101698D01*
X92025306Y-94160663D01*
X91928615Y-94240015D01*
X91849263Y-94336706D01*
X91790298Y-94447020D01*
X91753988Y-94566718D01*
X91741728Y-94691200D01*
X91744800Y-95116650D01*
X91903550Y-95275400D01*
X92964000Y-95275400D01*
X92964000Y-95255400D01*
X93218000Y-95255400D01*
X93218000Y-95275400D01*
X94278450Y-95275400D01*
X94437200Y-95116650D01*
X94440272Y-94691200D01*
X94428012Y-94566718D01*
X94391702Y-94447020D01*
X94332737Y-94336706D01*
X94253385Y-94240015D01*
X94156694Y-94160663D01*
X94046380Y-94101698D01*
X93926682Y-94065388D01*
X93802200Y-94053128D01*
X93731279Y-94053640D01*
X93949153Y-93908062D01*
X94136662Y-93720553D01*
X94283987Y-93500065D01*
X94385467Y-93255072D01*
X94437200Y-92994989D01*
X94437200Y-92729811D01*
X94385467Y-92469728D01*
X94283987Y-92224735D01*
X94136662Y-92004247D01*
X93949153Y-91816738D01*
X93728665Y-91669413D01*
X93540400Y-91591431D01*
X93676280Y-91541942D01*
X93779848Y-91486583D01*
X93840668Y-91251673D01*
X93091000Y-90502005D01*
X92341332Y-91251673D01*
X92402152Y-91486583D01*
X92633934Y-91594606D01*
X92453335Y-91669413D01*
X92232847Y-91816738D01*
X92045338Y-92004247D01*
X91967012Y-92121471D01*
X89478000Y-92121471D01*
X89478000Y-90396430D01*
X91740313Y-90396430D01*
X91780709Y-90658513D01*
X91871458Y-90907680D01*
X91926817Y-91011248D01*
X92161727Y-91072068D01*
X92911395Y-90322400D01*
X93270605Y-90322400D01*
X94020273Y-91072068D01*
X94255183Y-91011248D01*
X94367202Y-90770891D01*
X94430176Y-90513298D01*
X94441687Y-90248370D01*
X94401291Y-89986287D01*
X94310542Y-89737120D01*
X94255183Y-89633552D01*
X94020273Y-89572732D01*
X93270605Y-90322400D01*
X92911395Y-90322400D01*
X92161727Y-89572732D01*
X91926817Y-89633552D01*
X91814798Y-89873909D01*
X91751824Y-90131502D01*
X91740313Y-90396430D01*
X89478000Y-90396430D01*
X89478000Y-69249400D01*
X91975077Y-69249400D01*
X91898013Y-69364735D01*
G37*
X91898013Y-69364735D02*
X91796533Y-69609728D01*
X91744800Y-69869811D01*
X91744800Y-70134989D01*
X91796533Y-70395072D01*
X91898013Y-70640065D01*
X92045338Y-70860553D01*
X92232847Y-71048062D01*
X92453335Y-71195387D01*
X92639260Y-71272400D01*
X92453335Y-71349413D01*
X92232847Y-71496738D01*
X92045338Y-71684247D01*
X91898013Y-71904735D01*
X91796533Y-72149728D01*
X91744800Y-72409811D01*
X91744800Y-72674989D01*
X91796533Y-72935072D01*
X91898013Y-73180065D01*
X92045338Y-73400553D01*
X92232847Y-73588062D01*
X92453335Y-73735387D01*
X92639260Y-73812400D01*
X92453335Y-73889413D01*
X92232847Y-74036738D01*
X92045338Y-74224247D01*
X91898013Y-74444735D01*
X91796533Y-74689728D01*
X91744800Y-74949811D01*
X91744800Y-75214989D01*
X91796533Y-75475072D01*
X91898013Y-75720065D01*
X92045338Y-75940553D01*
X92232847Y-76128062D01*
X92453335Y-76275387D01*
X92639260Y-76352400D01*
X92453335Y-76429413D01*
X92232847Y-76576738D01*
X92045338Y-76764247D01*
X91898013Y-76984735D01*
X91796533Y-77229728D01*
X91744800Y-77489811D01*
X91744800Y-77754989D01*
X91796533Y-78015072D01*
X91898013Y-78260065D01*
X92045338Y-78480553D01*
X92232847Y-78668062D01*
X92453335Y-78815387D01*
X92639260Y-78892400D01*
X92453335Y-78969413D01*
X92232847Y-79116738D01*
X92045338Y-79304247D01*
X91898013Y-79524735D01*
X91796533Y-79769728D01*
X91744800Y-80029811D01*
X91744800Y-80294989D01*
X91796533Y-80555072D01*
X91898013Y-80800065D01*
X92045338Y-81020553D01*
X92232847Y-81208062D01*
X92453335Y-81355387D01*
X92639260Y-81432400D01*
X92453335Y-81509413D01*
X92232847Y-81656738D01*
X92045338Y-81844247D01*
X91898013Y-82064735D01*
X91796533Y-82309728D01*
X91744800Y-82569811D01*
X91744800Y-82834989D01*
X91796533Y-83095072D01*
X91898013Y-83340065D01*
X92045338Y-83560553D01*
X92232847Y-83748062D01*
X92453335Y-83895387D01*
X92639260Y-83972400D01*
X92453335Y-84049413D01*
X92232847Y-84196738D01*
X92045338Y-84384247D01*
X91898013Y-84604735D01*
X91796533Y-84849728D01*
X91744800Y-85109811D01*
X91744800Y-85374989D01*
X91796533Y-85635072D01*
X91898013Y-85880065D01*
X92045338Y-86100553D01*
X92232847Y-86288062D01*
X92453335Y-86435387D01*
X92639260Y-86512400D01*
X92453335Y-86589413D01*
X92232847Y-86736738D01*
X92045338Y-86924247D01*
X91898013Y-87144735D01*
X91796533Y-87389728D01*
X91744800Y-87649811D01*
X91744800Y-87914989D01*
X91796533Y-88175072D01*
X91898013Y-88420065D01*
X92045338Y-88640553D01*
X92232847Y-88828062D01*
X92453335Y-88975387D01*
X92641600Y-89053369D01*
X92505720Y-89102858D01*
X92402152Y-89158217D01*
X92341332Y-89393127D01*
X93091000Y-90142795D01*
X93840668Y-89393127D01*
X93779848Y-89158217D01*
X93548066Y-89050194D01*
X93728665Y-88975387D01*
X93949153Y-88828062D01*
X94136662Y-88640553D01*
X94283987Y-88420065D01*
X94385467Y-88175072D01*
X94437200Y-87914989D01*
X94437200Y-87649811D01*
X94385467Y-87389728D01*
X94283987Y-87144735D01*
X94136662Y-86924247D01*
X93949153Y-86736738D01*
X93728665Y-86589413D01*
X93542740Y-86512400D01*
X93728665Y-86435387D01*
X93949153Y-86288062D01*
X94136662Y-86100553D01*
X94283987Y-85880065D01*
X94385467Y-85635072D01*
X94437200Y-85374989D01*
X94437200Y-85109811D01*
X94432358Y-85085467D01*
X95935803Y-86588912D01*
X95825201Y-86699514D01*
X95673629Y-86926357D01*
X95569225Y-87178411D01*
X95516000Y-87445989D01*
X95516000Y-87718811D01*
X95569225Y-87986389D01*
X95673629Y-88238443D01*
X95825201Y-88465286D01*
X96018114Y-88658199D01*
X96164401Y-88755945D01*
X96164400Y-91628721D01*
X95986241Y-91747763D01*
X95786363Y-91947641D01*
X95629320Y-92182673D01*
X95521147Y-92443826D01*
X95466000Y-92721065D01*
X95466000Y-93003735D01*
X95521147Y-93280974D01*
X95629320Y-93542127D01*
X95786363Y-93777159D01*
X95986241Y-93977037D01*
X96186869Y-94111092D01*
X96159486Y-94125729D01*
X96087903Y-94369698D01*
X96901000Y-95182795D01*
X97714097Y-94369698D01*
X97642514Y-94125729D01*
X97613659Y-94112076D01*
X97815759Y-93977037D01*
X98015637Y-93777159D01*
X98172680Y-93542127D01*
X98280853Y-93280974D01*
X98336000Y-93003735D01*
X98336000Y-92721065D01*
X98280853Y-92443826D01*
X98172680Y-92182673D01*
X98015637Y-91947641D01*
X97815759Y-91747763D01*
X97637600Y-91628721D01*
X97637600Y-88755944D01*
X97783886Y-88658199D01*
X97976799Y-88465286D01*
X98128371Y-88238443D01*
X98232775Y-87986389D01*
X98286000Y-87718811D01*
X98286000Y-87445989D01*
X98232775Y-87178411D01*
X98128371Y-86926357D01*
X97976799Y-86699514D01*
X97783886Y-86506601D01*
X97630498Y-86404110D01*
X97626942Y-86368001D01*
X97623007Y-86355029D01*
X97584822Y-86229151D01*
X97516424Y-86101187D01*
X97424375Y-85989025D01*
X97396269Y-85965959D01*
X94408680Y-82978371D01*
X94437200Y-82834989D01*
X94437200Y-82569811D01*
X94432358Y-82545467D01*
X95084554Y-83197663D01*
X95107625Y-83225775D01*
X95219787Y-83317824D01*
X95347751Y-83386222D01*
X95486601Y-83428342D01*
X95594814Y-83439000D01*
X95594823Y-83439000D01*
X95630999Y-83442563D01*
X95667175Y-83439000D01*
X95727456Y-83439000D01*
X95825201Y-83585286D01*
X96018114Y-83778199D01*
X96244957Y-83929771D01*
X96497011Y-84034175D01*
X96764589Y-84087400D01*
X97037411Y-84087400D01*
X97304989Y-84034175D01*
X97557043Y-83929771D01*
X97783886Y-83778199D01*
X97976799Y-83585286D01*
X98128371Y-83358443D01*
X98232775Y-83106389D01*
X98286000Y-82838811D01*
X98286000Y-82565989D01*
X98232775Y-82298411D01*
X98128371Y-82046357D01*
X97976799Y-81819514D01*
X97783886Y-81626601D01*
X97557043Y-81475029D01*
X97304989Y-81370625D01*
X97037411Y-81317400D01*
X96764589Y-81317400D01*
X96497011Y-81370625D01*
X96244957Y-81475029D01*
X96018114Y-81626601D01*
X95825201Y-81819514D01*
X95811031Y-81840722D01*
X94408680Y-80438371D01*
X94437200Y-80294989D01*
X94437200Y-80029811D01*
X94408680Y-79886429D01*
X95774982Y-78520127D01*
X95786363Y-78537159D01*
X95986241Y-78737037D01*
X96221273Y-78894080D01*
X96482426Y-79002253D01*
X96759665Y-79057400D01*
X97042335Y-79057400D01*
X97319574Y-79002253D01*
X97580727Y-78894080D01*
X97815759Y-78737037D01*
X98015637Y-78537159D01*
X98172680Y-78302127D01*
X98280853Y-78040974D01*
X98336000Y-77763735D01*
X98336000Y-77481065D01*
X98280853Y-77203826D01*
X98172680Y-76942673D01*
X98015637Y-76707641D01*
X97815759Y-76507763D01*
X97615131Y-76373708D01*
X97642514Y-76359071D01*
X97714097Y-76115102D01*
X96901000Y-75302005D01*
X96087903Y-76115102D01*
X96159486Y-76359071D01*
X96188341Y-76372724D01*
X95986241Y-76507763D01*
X95786363Y-76707641D01*
X95667321Y-76885800D01*
X95667175Y-76885800D01*
X95630999Y-76882237D01*
X95594823Y-76885800D01*
X95594814Y-76885800D01*
X95486601Y-76896458D01*
X95347751Y-76938578D01*
X95219787Y-77006976D01*
X95107625Y-77099025D01*
X95084554Y-77127137D01*
X94432358Y-77779333D01*
X94437200Y-77754989D01*
X94437200Y-77489811D01*
X94385467Y-77229728D01*
X94283987Y-76984735D01*
X94136662Y-76764247D01*
X93949153Y-76576738D01*
X93728665Y-76429413D01*
X93542740Y-76352400D01*
X93728665Y-76275387D01*
X93949153Y-76128062D01*
X94136662Y-75940553D01*
X94283987Y-75720065D01*
X94385467Y-75475072D01*
X94437200Y-75214989D01*
X94437200Y-75192912D01*
X95460783Y-75192912D01*
X95502213Y-75472530D01*
X95597397Y-75738692D01*
X95664329Y-75863914D01*
X95908298Y-75935497D01*
X96721395Y-75122400D01*
X97080605Y-75122400D01*
X97893702Y-75935497D01*
X98137671Y-75863914D01*
X98258571Y-75608404D01*
X98327300Y-75334216D01*
X98341217Y-75051888D01*
X98299787Y-74772270D01*
X98204603Y-74506108D01*
X98137671Y-74380886D01*
X97893702Y-74309303D01*
X97080605Y-75122400D01*
X96721395Y-75122400D01*
X95908298Y-74309303D01*
X95664329Y-74380886D01*
X95543429Y-74636396D01*
X95474700Y-74910584D01*
X95460783Y-75192912D01*
X94437200Y-75192912D01*
X94437200Y-74949811D01*
X94385467Y-74689728D01*
X94283987Y-74444735D01*
X94136662Y-74224247D01*
X94042113Y-74129698D01*
X96087903Y-74129698D01*
X96901000Y-74942795D01*
X97714097Y-74129698D01*
X97642514Y-73885729D01*
X97387004Y-73764829D01*
X97112816Y-73696100D01*
X96830488Y-73682183D01*
X96550870Y-73723613D01*
X96284708Y-73818797D01*
X96159486Y-73885729D01*
X96087903Y-74129698D01*
X94042113Y-74129698D01*
X93949153Y-74036738D01*
X93728665Y-73889413D01*
X93542740Y-73812400D01*
X93728665Y-73735387D01*
X93949153Y-73588062D01*
X94136662Y-73400553D01*
X94283987Y-73180065D01*
X94385467Y-72935072D01*
X94437200Y-72674989D01*
X94437200Y-72409811D01*
X94385467Y-72149728D01*
X94283987Y-71904735D01*
X94136662Y-71684247D01*
X93949153Y-71496738D01*
X93728665Y-71349413D01*
X93542740Y-71272400D01*
X93728665Y-71195387D01*
X93949153Y-71048062D01*
X94136662Y-70860553D01*
X94283987Y-70640065D01*
X94385467Y-70395072D01*
X94437200Y-70134989D01*
X94437200Y-69869811D01*
X94385467Y-69609728D01*
X94283987Y-69364735D01*
X94206923Y-69249400D01*
X104316001Y-69249400D01*
X104316001Y-99307400D01*
X93455608Y-99307400D01*
X93627292Y-99246003D01*
X93752514Y-99179071D01*
X93824097Y-98935102D01*
X93011000Y-98122005D01*
X92197903Y-98935102D01*
X92269486Y-99179071D01*
X92524996Y-99299971D01*
X92554633Y-99307400D01*
X89478000Y-99307400D01*
X89478000Y-98012912D01*
X91570783Y-98012912D01*
X91612213Y-98292530D01*
X91707397Y-98558692D01*
X91774329Y-98683914D01*
X92018298Y-98755497D01*
X92831395Y-97942400D01*
X93190605Y-97942400D01*
X94003702Y-98755497D01*
X94247671Y-98683914D01*
X94368571Y-98428404D01*
X94437300Y-98154216D01*
X94451217Y-97871888D01*
X94409787Y-97592270D01*
X94314603Y-97326108D01*
X94247671Y-97200886D01*
X94003702Y-97129303D01*
X93190605Y-97942400D01*
X92831395Y-97942400D01*
X92018298Y-97129303D01*
X91774329Y-97200886D01*
X91653429Y-97456396D01*
X91584700Y-97730584D01*
X91570783Y-98012912D01*
X89478000Y-98012912D01*
X89478000Y-96113600D01*
X91741728Y-96113600D01*
X91753988Y-96238082D01*
X91790298Y-96357780D01*
X91849263Y-96468094D01*
X91928615Y-96564785D01*
X92025306Y-96644137D01*
X92135620Y-96703102D01*
X92255318Y-96739412D01*
X92259483Y-96739822D01*
X92197903Y-96949698D01*
X93011000Y-97762795D01*
X93824097Y-96949698D01*
X93765917Y-96751410D01*
X93802200Y-96751672D01*
X93926682Y-96739412D01*
X94046380Y-96703102D01*
X94156694Y-96644137D01*
X94253385Y-96564785D01*
X94332737Y-96468094D01*
X94391702Y-96357780D01*
X94392514Y-96355102D01*
X96087903Y-96355102D01*
X96159486Y-96599071D01*
X96414996Y-96719971D01*
X96689184Y-96788700D01*
X96971512Y-96802617D01*
X97251130Y-96761187D01*
X97517292Y-96666003D01*
X97642514Y-96599071D01*
X97714097Y-96355102D01*
X96901000Y-95542005D01*
X96087903Y-96355102D01*
X94392514Y-96355102D01*
X94428012Y-96238082D01*
X94440272Y-96113600D01*
X94437200Y-95688150D01*
X94278450Y-95529400D01*
X93218000Y-95529400D01*
X93218000Y-95549400D01*
X92964000Y-95549400D01*
X92964000Y-95529400D01*
X91903550Y-95529400D01*
X91744800Y-95688150D01*
X91741728Y-96113600D01*
X89478000Y-96113600D01*
X89478000Y-95432912D01*
X95460783Y-95432912D01*
X95502213Y-95712530D01*
X95597397Y-95978692D01*
X95664329Y-96103914D01*
X95908298Y-96175497D01*
X96721395Y-95362400D01*
X97080605Y-95362400D01*
X97893702Y-96175497D01*
X98137671Y-96103914D01*
X98258571Y-95848404D01*
X98327300Y-95574216D01*
X98341217Y-95291888D01*
X98299787Y-95012270D01*
X98204603Y-94746108D01*
X98137671Y-94620886D01*
X97893702Y-94549303D01*
X97080605Y-95362400D01*
X96721395Y-95362400D01*
X95908298Y-94549303D01*
X95664329Y-94620886D01*
X95543429Y-94876396D01*
X95474700Y-95150584D01*
X95460783Y-95432912D01*
X89478000Y-95432912D01*
X89478000Y-93594671D01*
X91961227Y-93594671D01*
X92045338Y-93720553D01*
X92232847Y-93908062D01*
X92450721Y-94053640D01*
X92379800Y-94053128D01*
X92255318Y-94065388D01*
X92135620Y-94101698D01*
X92025306Y-94160663D01*
X91928615Y-94240015D01*
X91849263Y-94336706D01*
X91790298Y-94447020D01*
X91753988Y-94566718D01*
X91741728Y-94691200D01*
X91744800Y-95116650D01*
X91903550Y-95275400D01*
X92964000Y-95275400D01*
X92964000Y-95255400D01*
X93218000Y-95255400D01*
X93218000Y-95275400D01*
X94278450Y-95275400D01*
X94437200Y-95116650D01*
X94440272Y-94691200D01*
X94428012Y-94566718D01*
X94391702Y-94447020D01*
X94332737Y-94336706D01*
X94253385Y-94240015D01*
X94156694Y-94160663D01*
X94046380Y-94101698D01*
X93926682Y-94065388D01*
X93802200Y-94053128D01*
X93731279Y-94053640D01*
X93949153Y-93908062D01*
X94136662Y-93720553D01*
X94283987Y-93500065D01*
X94385467Y-93255072D01*
X94437200Y-92994989D01*
X94437200Y-92729811D01*
X94385467Y-92469728D01*
X94283987Y-92224735D01*
X94136662Y-92004247D01*
X93949153Y-91816738D01*
X93728665Y-91669413D01*
X93540400Y-91591431D01*
X93676280Y-91541942D01*
X93779848Y-91486583D01*
X93840668Y-91251673D01*
X93091000Y-90502005D01*
X92341332Y-91251673D01*
X92402152Y-91486583D01*
X92633934Y-91594606D01*
X92453335Y-91669413D01*
X92232847Y-91816738D01*
X92045338Y-92004247D01*
X91967012Y-92121471D01*
X89478000Y-92121471D01*
X89478000Y-90396430D01*
X91740313Y-90396430D01*
X91780709Y-90658513D01*
X91871458Y-90907680D01*
X91926817Y-91011248D01*
X92161727Y-91072068D01*
X92911395Y-90322400D01*
X93270605Y-90322400D01*
X94020273Y-91072068D01*
X94255183Y-91011248D01*
X94367202Y-90770891D01*
X94430176Y-90513298D01*
X94441687Y-90248370D01*
X94401291Y-89986287D01*
X94310542Y-89737120D01*
X94255183Y-89633552D01*
X94020273Y-89572732D01*
X93270605Y-90322400D01*
X92911395Y-90322400D01*
X92161727Y-89572732D01*
X91926817Y-89633552D01*
X91814798Y-89873909D01*
X91751824Y-90131502D01*
X91740313Y-90396430D01*
X89478000Y-90396430D01*
X89478000Y-69249400D01*
X91975077Y-69249400D01*
X91898013Y-69364735D01*
M02*
