%TF.GenerationSoftware,KiCad,Pcbnew,5.1.5*%
%TF.CreationDate,2020-05-07T02:59:33+02:00*%
%TF.ProjectId,superpet,73757065-7270-4657-942e-6b696361645f,rev?*%
%TF.SameCoordinates,PX2edf448PY2f17140*%
%TF.FileFunction,Soldermask,Bot*%
%TF.FilePolarity,Negative*%
%FSLAX46Y46*%
G04 Gerber Fmt 4.6, Leading zero omitted, Abs format (unit mm)*
G04 Created by KiCad (PCBNEW 5.1.5) date 2020-05-07 02:59:33*
%MOMM*%
%LPD*%
G04 APERTURE LIST*
%ADD10C,5.000000*%
%ADD11O,1.800000X1.800000*%
%ADD12R,1.800000X1.800000*%
%ADD13R,1.422400X1.422400*%
%ADD14O,1.422400X1.422400*%
%ADD15C,3.810000*%
%ADD16R,1.520000X1.520000*%
%ADD17C,1.520000*%
%ADD18C,1.422400*%
%ADD19R,1.700000X1.700000*%
%ADD20C,1.700000*%
%ADD21C,1.400000*%
%ADD22C,1.500000*%
%ADD23R,2.600000X2.000000*%
%ADD24O,2.600000X2.000000*%
%ADD25C,1.600000*%
%ADD26O,1.600000X1.600000*%
%ADD27C,2.200000*%
%ADD28O,1.700000X1.700000*%
%ADD29C,1.800000*%
%ADD30O,2.000000X2.600000*%
%ADD31R,2.000000X2.600000*%
G04 APERTURE END LIST*
D10*
X65151000Y-26822400D03*
X65151000Y-16662400D03*
X54991000Y-26822400D03*
D11*
X9271000Y-1422400D03*
X6731000Y-1422400D03*
D12*
X4191000Y-1422400D03*
D13*
X82931000Y-42062400D03*
D14*
X98171000Y-34442400D03*
X85471000Y-42062400D03*
X95631000Y-34442400D03*
X88011000Y-42062400D03*
X93091000Y-34442400D03*
X90551000Y-42062400D03*
X90551000Y-34442400D03*
X93091000Y-42062400D03*
X88011000Y-34442400D03*
X95631000Y-42062400D03*
X85471000Y-34442400D03*
X98171000Y-42062400D03*
X82931000Y-34442400D03*
D15*
X90551000Y-28994100D03*
X90551000Y-3594100D03*
D16*
X88011000Y-21754100D03*
D17*
X88011000Y-18964100D03*
X88011000Y-16164100D03*
X88011000Y-13504100D03*
X88011000Y-10704100D03*
X90551000Y-12104100D03*
X90551000Y-14894100D03*
X90551000Y-17564100D03*
X90551000Y-20354100D03*
D18*
X47371000Y-21742400D03*
X47371000Y-24282400D03*
X47371000Y-26822400D03*
X47371000Y-29362400D03*
X47371000Y-31902400D03*
X47371000Y-19202400D03*
X47371000Y-16662400D03*
X47371000Y-14122400D03*
X47371000Y-11582400D03*
X47371000Y-9042400D03*
X47371000Y-6502400D03*
D13*
X44831000Y-21742400D03*
D18*
X44831000Y-24282400D03*
X44831000Y-26822400D03*
X44831000Y-29362400D03*
X44831000Y-31902400D03*
X44831000Y-34442400D03*
X44831000Y-19202400D03*
X44831000Y-16662400D03*
X44831000Y-14122400D03*
X44831000Y-11582400D03*
X44831000Y-9042400D03*
X47371000Y-34442400D03*
X49911000Y-34442400D03*
X52451000Y-34442400D03*
X54991000Y-34442400D03*
X57531000Y-34442400D03*
X60071000Y-34442400D03*
X62611000Y-34442400D03*
X65151000Y-34442400D03*
X67691000Y-34442400D03*
X70231000Y-34442400D03*
X47371000Y-36982400D03*
X49911000Y-36982400D03*
X52451000Y-36982400D03*
X54991000Y-36982400D03*
X57531000Y-36982400D03*
X60071000Y-36982400D03*
X62611000Y-36982400D03*
X65151000Y-36982400D03*
X67691000Y-36982400D03*
X70231000Y-36982400D03*
X72771000Y-36982400D03*
X72771000Y-34442400D03*
X72771000Y-31902400D03*
X72771000Y-29362400D03*
X72771000Y-26822400D03*
X72771000Y-24282400D03*
X72771000Y-21742400D03*
X72771000Y-19202400D03*
X72771000Y-16662400D03*
X72771000Y-14122400D03*
X72771000Y-11582400D03*
X75311000Y-34442400D03*
X75311000Y-31902400D03*
X75311000Y-29362400D03*
X75311000Y-26822400D03*
X75311000Y-24282400D03*
X75311000Y-21742400D03*
X75311000Y-19202400D03*
X75311000Y-16662400D03*
X75311000Y-14122400D03*
X75311000Y-11582400D03*
X75311000Y-9042400D03*
X72771000Y-9042400D03*
X70231000Y-9042400D03*
X67691000Y-9042400D03*
X65151000Y-9042400D03*
X62611000Y-9042400D03*
X60071000Y-9042400D03*
X57531000Y-9042400D03*
X54991000Y-9042400D03*
X52451000Y-9042400D03*
X49911000Y-9042400D03*
X72771000Y-6502400D03*
X70231000Y-6502400D03*
X67691000Y-6502400D03*
X65151000Y-6502400D03*
X62611000Y-6502400D03*
X60071000Y-6502400D03*
X57531000Y-6502400D03*
X54991000Y-6502400D03*
X52451000Y-6502400D03*
X49911000Y-6502400D03*
D19*
X32131000Y-29362400D03*
D20*
X34671000Y-29362400D03*
X32131000Y-31902400D03*
X34671000Y-31902400D03*
X32131000Y-34442400D03*
X34671000Y-34442400D03*
X32131000Y-36982400D03*
X34671000Y-36982400D03*
X32131000Y-39522400D03*
X34671000Y-39522400D03*
D13*
X37211000Y-47142400D03*
D14*
X52451000Y-95402400D03*
X37211000Y-49682400D03*
X52451000Y-92862400D03*
X37211000Y-52222400D03*
X52451000Y-90322400D03*
X37211000Y-54762400D03*
X52451000Y-87782400D03*
X37211000Y-57302400D03*
X52451000Y-85242400D03*
X37211000Y-59842400D03*
X52451000Y-82702400D03*
X37211000Y-62382400D03*
X52451000Y-80162400D03*
X37211000Y-64922400D03*
X52451000Y-77622400D03*
X37211000Y-67462400D03*
X52451000Y-75082400D03*
X37211000Y-70002400D03*
X52451000Y-72542400D03*
X37211000Y-72542400D03*
X52451000Y-70002400D03*
X37211000Y-75082400D03*
X52451000Y-67462400D03*
X37211000Y-77622400D03*
X52451000Y-64922400D03*
X37211000Y-80162400D03*
X52451000Y-62382400D03*
X37211000Y-82702400D03*
X52451000Y-59842400D03*
X37211000Y-85242400D03*
X52451000Y-57302400D03*
X37211000Y-87782400D03*
X52451000Y-54762400D03*
X37211000Y-90322400D03*
X52451000Y-52222400D03*
X37211000Y-92862400D03*
X52451000Y-49682400D03*
X37211000Y-95402400D03*
X52451000Y-47142400D03*
D13*
X39751000Y-47142400D03*
D14*
X54991000Y-95402400D03*
X39751000Y-49682400D03*
X54991000Y-92862400D03*
X39751000Y-52222400D03*
X54991000Y-90322400D03*
X39751000Y-54762400D03*
X54991000Y-87782400D03*
X39751000Y-57302400D03*
X54991000Y-85242400D03*
X39751000Y-59842400D03*
X54991000Y-82702400D03*
X39751000Y-62382400D03*
X54991000Y-80162400D03*
X39751000Y-64922400D03*
X54991000Y-77622400D03*
X39751000Y-67462400D03*
X54991000Y-75082400D03*
X39751000Y-70002400D03*
X54991000Y-72542400D03*
X39751000Y-72542400D03*
X54991000Y-70002400D03*
X39751000Y-75082400D03*
X54991000Y-67462400D03*
X39751000Y-77622400D03*
X54991000Y-64922400D03*
X39751000Y-80162400D03*
X54991000Y-62382400D03*
X39751000Y-82702400D03*
X54991000Y-59842400D03*
X39751000Y-85242400D03*
X54991000Y-57302400D03*
X39751000Y-87782400D03*
X54991000Y-54762400D03*
X39751000Y-90322400D03*
X54991000Y-52222400D03*
X39751000Y-92862400D03*
X54991000Y-49682400D03*
X39751000Y-95402400D03*
X54991000Y-47142400D03*
D13*
X60071000Y-47142400D03*
D14*
X75311000Y-95402400D03*
X60071000Y-49682400D03*
X75311000Y-92862400D03*
X60071000Y-52222400D03*
X75311000Y-90322400D03*
X60071000Y-54762400D03*
X75311000Y-87782400D03*
X60071000Y-57302400D03*
X75311000Y-85242400D03*
X60071000Y-59842400D03*
X75311000Y-82702400D03*
X60071000Y-62382400D03*
X75311000Y-80162400D03*
X60071000Y-64922400D03*
X75311000Y-77622400D03*
X60071000Y-67462400D03*
X75311000Y-75082400D03*
X60071000Y-70002400D03*
X75311000Y-72542400D03*
X60071000Y-72542400D03*
X75311000Y-70002400D03*
X60071000Y-75082400D03*
X75311000Y-67462400D03*
X60071000Y-77622400D03*
X75311000Y-64922400D03*
X60071000Y-80162400D03*
X75311000Y-62382400D03*
X60071000Y-82702400D03*
X75311000Y-59842400D03*
X60071000Y-85242400D03*
X75311000Y-57302400D03*
X60071000Y-87782400D03*
X75311000Y-54762400D03*
X60071000Y-90322400D03*
X75311000Y-52222400D03*
X60071000Y-92862400D03*
X75311000Y-49682400D03*
X60071000Y-95402400D03*
X75311000Y-47142400D03*
D13*
X21971000Y-29362400D03*
D14*
X4191000Y-36982400D03*
X19431000Y-29362400D03*
X6731000Y-36982400D03*
X16891000Y-29362400D03*
X9271000Y-36982400D03*
X14351000Y-29362400D03*
X11811000Y-36982400D03*
X11811000Y-29362400D03*
X14351000Y-36982400D03*
X9271000Y-29362400D03*
X16891000Y-36982400D03*
X6731000Y-29362400D03*
X19431000Y-36982400D03*
X4191000Y-29362400D03*
X21971000Y-36982400D03*
D13*
X21971000Y-14122400D03*
D14*
X6731000Y-21742400D03*
X19431000Y-14122400D03*
X9271000Y-21742400D03*
X16891000Y-14122400D03*
X11811000Y-21742400D03*
X14351000Y-14122400D03*
X14351000Y-21742400D03*
X11811000Y-14122400D03*
X16891000Y-21742400D03*
X9271000Y-14122400D03*
X19431000Y-21742400D03*
X6731000Y-14122400D03*
X21971000Y-21742400D03*
D21*
X2921000Y-15392400D03*
X1591000Y-13722400D03*
X4191000Y-13722400D03*
D22*
X96901000Y-82702400D03*
X96901000Y-87582400D03*
D13*
X21971000Y-42062400D03*
D14*
X6731000Y-49682400D03*
X19431000Y-42062400D03*
X9271000Y-49682400D03*
X16891000Y-42062400D03*
X11811000Y-49682400D03*
X14351000Y-42062400D03*
X14351000Y-49682400D03*
X11811000Y-42062400D03*
X16891000Y-49682400D03*
X9271000Y-42062400D03*
X19431000Y-49682400D03*
X6731000Y-42062400D03*
X21971000Y-49682400D03*
D23*
X10541000Y-10312400D03*
D24*
X10541000Y-7772400D03*
D25*
X16891000Y-39522400D03*
D26*
X24511000Y-39522400D03*
D25*
X16891000Y-26822400D03*
D26*
X24511000Y-26822400D03*
D25*
X4191000Y-25552400D03*
D26*
X4191000Y-17932400D03*
D25*
X1651000Y-17932400D03*
D26*
X1651000Y-25552400D03*
D27*
X2921000Y-52222400D03*
D20*
X32131000Y-19202400D03*
D28*
X32131000Y-16662400D03*
X34671000Y-19202400D03*
D20*
X34671000Y-14122400D03*
D28*
X34671000Y-16662400D03*
X32131000Y-14122400D03*
D25*
X4191000Y-10312400D03*
X4191000Y-5312400D03*
X1651000Y-10312400D03*
X1651000Y-5312400D03*
X39751000Y-26902400D03*
X39751000Y-31902400D03*
X48641000Y-42062400D03*
X53641000Y-42062400D03*
X66421000Y-42062400D03*
X71421000Y-42062400D03*
X80391000Y-31982400D03*
X80391000Y-36982400D03*
X80391000Y-20472400D03*
X80391000Y-25472400D03*
X80391000Y-10312400D03*
X80391000Y-15312400D03*
X56261000Y-1422400D03*
X51261000Y-1422400D03*
X39751000Y-11582400D03*
X39751000Y-16582400D03*
D14*
X80391000Y-47142400D03*
X80391000Y-52142400D03*
D25*
X24511000Y-49682400D03*
X24511000Y-44682400D03*
X24511000Y-36982400D03*
X24511000Y-31982400D03*
X24511000Y-21742400D03*
X24511000Y-16742400D03*
X1651000Y-97942400D03*
X6651000Y-97942400D03*
X19431000Y-97942400D03*
X24431000Y-97942400D03*
X77851000Y-59842400D03*
X82851000Y-59842400D03*
X9271000Y-26822400D03*
X14271000Y-26822400D03*
X9271000Y-39522400D03*
X14271000Y-39522400D03*
X39751000Y-24282400D03*
X39751000Y-19282400D03*
D29*
X93091000Y-10312400D03*
D12*
X95631000Y-20472400D03*
D29*
X93091000Y-12852400D03*
X95631000Y-17932400D03*
X93091000Y-15392400D03*
X95631000Y-15392400D03*
X93091000Y-17932400D03*
X95631000Y-12852400D03*
X93091000Y-20472400D03*
X95631000Y-10312400D03*
D13*
X82931000Y-52222400D03*
D14*
X98171000Y-44602400D03*
X85471000Y-52222400D03*
X95631000Y-44602400D03*
X88011000Y-52222400D03*
X93091000Y-44602400D03*
X90551000Y-52222400D03*
X90551000Y-44602400D03*
X93091000Y-52222400D03*
X88011000Y-44602400D03*
X95631000Y-52222400D03*
X85471000Y-44602400D03*
X98171000Y-52222400D03*
X82931000Y-44602400D03*
D18*
X77851000Y-95402400D03*
D13*
X93091000Y-95402400D03*
D18*
X77851000Y-92862400D03*
X93091000Y-92862400D03*
X77851000Y-90322400D03*
X93091000Y-90322400D03*
X77851000Y-87782400D03*
X93091000Y-87782400D03*
X77851000Y-85242400D03*
X93091000Y-85242400D03*
X77851000Y-82702400D03*
X93091000Y-82702400D03*
X77851000Y-80162400D03*
X93091000Y-80162400D03*
X77851000Y-77622400D03*
X93091000Y-77622400D03*
X77851000Y-75082400D03*
X93091000Y-75082400D03*
X77851000Y-72542400D03*
X93091000Y-72542400D03*
X77851000Y-70002400D03*
X93091000Y-70002400D03*
X77851000Y-67462400D03*
X93091000Y-67462400D03*
X77851000Y-64922400D03*
X93091000Y-64922400D03*
X77851000Y-62382400D03*
X93091000Y-62382400D03*
X1651000Y-95402400D03*
X16891000Y-95402400D03*
X1651000Y-92862400D03*
X16891000Y-92862400D03*
X1651000Y-90322400D03*
X16891000Y-90322400D03*
X1651000Y-87782400D03*
X16891000Y-87782400D03*
X1651000Y-85242400D03*
X16891000Y-85242400D03*
X1651000Y-82702400D03*
X16891000Y-82702400D03*
X1651000Y-80162400D03*
X16891000Y-80162400D03*
X1651000Y-77622400D03*
X16891000Y-77622400D03*
X1651000Y-75082400D03*
X16891000Y-75082400D03*
X1651000Y-72542400D03*
X16891000Y-72542400D03*
X1651000Y-70002400D03*
X16891000Y-70002400D03*
X1651000Y-67462400D03*
X16891000Y-67462400D03*
X1651000Y-64922400D03*
X16891000Y-64922400D03*
X1651000Y-62382400D03*
X16891000Y-62382400D03*
X1651000Y-59842400D03*
X16891000Y-59842400D03*
X1651000Y-57302400D03*
X16891000Y-57302400D03*
X19431000Y-95402400D03*
X34671000Y-95402400D03*
X19431000Y-92862400D03*
X34671000Y-92862400D03*
X19431000Y-90322400D03*
X34671000Y-90322400D03*
X19431000Y-87782400D03*
X34671000Y-87782400D03*
X19431000Y-85242400D03*
X34671000Y-85242400D03*
X19431000Y-82702400D03*
X34671000Y-82702400D03*
X19431000Y-80162400D03*
X34671000Y-80162400D03*
X19431000Y-77622400D03*
X34671000Y-77622400D03*
X19431000Y-75082400D03*
X34671000Y-75082400D03*
X19431000Y-72542400D03*
X34671000Y-72542400D03*
X19431000Y-70002400D03*
X34671000Y-70002400D03*
X19431000Y-67462400D03*
X34671000Y-67462400D03*
X19431000Y-64922400D03*
X34671000Y-64922400D03*
X19431000Y-62382400D03*
X34671000Y-62382400D03*
X19431000Y-59842400D03*
X34671000Y-59842400D03*
X19431000Y-57302400D03*
X34671000Y-57302400D03*
X57531000Y-52222400D03*
X57531000Y-47142400D03*
X34671000Y-52222400D03*
X34671000Y-47142400D03*
D13*
X21971000Y-52222400D03*
D18*
X19431000Y-52222400D03*
X16891000Y-52222400D03*
X14351000Y-52222400D03*
X11811000Y-52222400D03*
X9271000Y-52222400D03*
X6731000Y-52222400D03*
X39751000Y-6502400D03*
X37251000Y-6502400D03*
D13*
X27305000Y-11582400D03*
D14*
X24765000Y-11582400D03*
D25*
X14986000Y-11582400D03*
D26*
X22606000Y-11582400D03*
D30*
X95631000Y-56667400D03*
X93091000Y-56667400D03*
D31*
X90551000Y-56667400D03*
D25*
X96901000Y-95362400D03*
X96901000Y-92862400D03*
X96901000Y-77622400D03*
X96901000Y-75122400D03*
D12*
X24511000Y-4597400D03*
D11*
X27051000Y-4597400D03*
X29591000Y-4597400D03*
M02*
