%TF.GenerationSoftware,KiCad,Pcbnew,5.1.5*%
%TF.CreationDate,2020-05-07T22:51:20+02:00*%
%TF.ProjectId,superpet,73757065-7270-4657-942e-6b696361645f,rev?*%
%TF.SameCoordinates,PX2edf448PY2f17140*%
%TF.FileFunction,Legend,Top*%
%TF.FilePolarity,Positive*%
%FSLAX46Y46*%
G04 Gerber Fmt 4.6, Leading zero omitted, Abs format (unit mm)*
G04 Created by KiCad (PCBNEW 5.1.5) date 2020-05-07 22:51:20*
%MOMM*%
%LPD*%
G04 APERTURE LIST*
%ADD10C,0.150000*%
%ADD11C,0.300000*%
%ADD12C,0.500000*%
%ADD13C,0.200000*%
%ADD14C,0.120000*%
%ADD15R,1.422400X1.422400*%
%ADD16O,1.422400X1.422400*%
%ADD17C,5.000000*%
%ADD18O,1.800000X1.800000*%
%ADD19R,1.800000X1.800000*%
%ADD20C,3.810000*%
%ADD21R,1.520000X1.520000*%
%ADD22C,1.520000*%
%ADD23C,1.422400*%
%ADD24R,1.700000X1.700000*%
%ADD25C,1.700000*%
%ADD26C,1.400000*%
%ADD27C,1.500000*%
%ADD28R,2.600000X2.000000*%
%ADD29O,2.600000X2.000000*%
%ADD30C,1.600000*%
%ADD31O,1.600000X1.600000*%
%ADD32C,2.200000*%
%ADD33O,1.700000X1.700000*%
G04 APERTURE END LIST*
D10*
X31496000Y-11963400D02*
X32131000Y-12598400D01*
X32766000Y-11963400D02*
X31496000Y-11963400D01*
X32131000Y-12598400D02*
X32766000Y-11963400D01*
X27178047Y-9621828D02*
X27939952Y-9621828D01*
X23876047Y-9621828D02*
X24637952Y-9621828D01*
X24257000Y-10002780D02*
X24257000Y-9240876D01*
D11*
X28252666Y-21097400D02*
X28319333Y-20897400D01*
X28319333Y-20564066D01*
X28252666Y-20430733D01*
X28186000Y-20364066D01*
X28052666Y-20297400D01*
X27919333Y-20297400D01*
X27786000Y-20364066D01*
X27719333Y-20430733D01*
X27652666Y-20564066D01*
X27586000Y-20830733D01*
X27519333Y-20964066D01*
X27452666Y-21030733D01*
X27319333Y-21097400D01*
X27186000Y-21097400D01*
X27052666Y-21030733D01*
X26986000Y-20964066D01*
X26919333Y-20830733D01*
X26919333Y-20497400D01*
X26986000Y-20297400D01*
X26919333Y-19830733D02*
X28319333Y-19497400D01*
X27319333Y-19230733D01*
X28319333Y-18964066D01*
X26919333Y-18630733D01*
X28319333Y-16297400D02*
X28319333Y-17097400D01*
X28319333Y-16697400D02*
X26919333Y-16697400D01*
X27119333Y-16830733D01*
X27252666Y-16964066D01*
X27319333Y-17097400D01*
X26852666Y-14697400D02*
X28652666Y-15897400D01*
X27052666Y-14297400D02*
X26986000Y-14230733D01*
X26919333Y-14097400D01*
X26919333Y-13764066D01*
X26986000Y-13630733D01*
X27052666Y-13564066D01*
X27186000Y-13497400D01*
X27319333Y-13497400D01*
X27519333Y-13564066D01*
X28319333Y-14364066D01*
X28319333Y-13497400D01*
D10*
X28956000Y-14122400D02*
X28956000Y-19202400D01*
X28956000Y-19202400D02*
X28956000Y-24282400D01*
X30226000Y-19202400D02*
X28956000Y-19202400D01*
X30226000Y-23012400D02*
X30226000Y-19202400D01*
X36576000Y-23012400D02*
X30226000Y-23012400D01*
X36576000Y-10312400D02*
X36576000Y-23012400D01*
X30226000Y-10312400D02*
X36576000Y-10312400D01*
X30226000Y-14122400D02*
X30226000Y-10312400D01*
X28956000Y-14122400D02*
X30226000Y-14122400D01*
X28956000Y-9042400D02*
X28956000Y-14122400D01*
X37846000Y-9042400D02*
X28956000Y-9042400D01*
X37846000Y-24282400D02*
X37846000Y-9042400D01*
D12*
X101308142Y-98493828D02*
X104308142Y-98493828D01*
X102879571Y-97065257D02*
X103165285Y-96922400D01*
X103308142Y-96636685D01*
X102879571Y-98493828D02*
X103165285Y-98350971D01*
X103308142Y-98065257D01*
X103308142Y-97493828D01*
X103165285Y-97208114D01*
X102879571Y-97065257D01*
X101308142Y-97065257D01*
X103308142Y-95350971D02*
X100308142Y-95350971D01*
X102451000Y-94350971D01*
X100308142Y-93350971D01*
X103308142Y-93350971D01*
X103308142Y-91922400D02*
X100308142Y-91922400D01*
X102451000Y-90922400D01*
X100308142Y-89922400D01*
X103308142Y-89922400D01*
X101736714Y-87493828D02*
X101736714Y-88493828D01*
X103308142Y-88493828D02*
X100308142Y-88493828D01*
X100308142Y-87065257D01*
D10*
X5486476Y-7499400D02*
X5410285Y-7461304D01*
X5296000Y-7461304D01*
X5181714Y-7499400D01*
X5105523Y-7575590D01*
X5067428Y-7651780D01*
X5029333Y-7804161D01*
X5029333Y-7918447D01*
X5067428Y-8070828D01*
X5105523Y-8147019D01*
X5181714Y-8223209D01*
X5296000Y-8261304D01*
X5372190Y-8261304D01*
X5486476Y-8223209D01*
X5524571Y-8185114D01*
X5524571Y-7918447D01*
X5372190Y-7918447D01*
X5867428Y-8261304D02*
X5867428Y-7461304D01*
X6324571Y-8261304D01*
X6324571Y-7461304D01*
X6705523Y-8261304D02*
X6705523Y-7461304D01*
X6896000Y-7461304D01*
X7010285Y-7499400D01*
X7086476Y-7575590D01*
X7124571Y-7651780D01*
X7162666Y-7804161D01*
X7162666Y-7918447D01*
X7124571Y-8070828D01*
X7086476Y-8147019D01*
X7010285Y-8223209D01*
X6896000Y-8261304D01*
X6705523Y-8261304D01*
X5194428Y-10369542D02*
X5803952Y-10369542D01*
X5499190Y-10674304D02*
X5499190Y-10064780D01*
X6223000Y-10674304D02*
X6375380Y-10674304D01*
X6451571Y-10636209D01*
X6489666Y-10598114D01*
X6565857Y-10483828D01*
X6603952Y-10331447D01*
X6603952Y-10026685D01*
X6565857Y-9950495D01*
X6527761Y-9912400D01*
X6451571Y-9874304D01*
X6299190Y-9874304D01*
X6223000Y-9912400D01*
X6184904Y-9950495D01*
X6146809Y-10026685D01*
X6146809Y-10217161D01*
X6184904Y-10293352D01*
X6223000Y-10331447D01*
X6299190Y-10369542D01*
X6451571Y-10369542D01*
X6527761Y-10331447D01*
X6565857Y-10293352D01*
X6603952Y-10217161D01*
X6832523Y-9874304D02*
X7099190Y-10674304D01*
X7365857Y-9874304D01*
X23257431Y-5883830D02*
G75*
G03X23257431Y-5883830I-499031J0D01*
G01*
D11*
X103079571Y-85886685D02*
X101579571Y-85886685D01*
X103079571Y-85029542D01*
X101579571Y-85029542D01*
X103079571Y-84315257D02*
X102079571Y-84315257D01*
X101579571Y-84315257D02*
X101651000Y-84386685D01*
X101722428Y-84315257D01*
X101651000Y-84243828D01*
X101579571Y-84315257D01*
X101722428Y-84315257D01*
X103079571Y-83386685D02*
X103008142Y-83529542D01*
X102865285Y-83600971D01*
X101579571Y-83600971D01*
X103008142Y-82886685D02*
X103079571Y-82743828D01*
X103079571Y-82458114D01*
X103008142Y-82315257D01*
X102865285Y-82243828D01*
X102793857Y-82243828D01*
X102651000Y-82315257D01*
X102579571Y-82458114D01*
X102579571Y-82672400D01*
X102508142Y-82815257D01*
X102365285Y-82886685D01*
X102293857Y-82886685D01*
X102151000Y-82815257D01*
X102079571Y-82672400D01*
X102079571Y-82458114D01*
X102151000Y-82315257D01*
X102293857Y-80458114D02*
X102293857Y-79958114D01*
X103079571Y-79743828D02*
X103079571Y-80458114D01*
X101579571Y-80458114D01*
X101579571Y-79743828D01*
X103079571Y-79100971D02*
X102079571Y-79100971D01*
X101579571Y-79100971D02*
X101651000Y-79172400D01*
X101722428Y-79100971D01*
X101651000Y-79029542D01*
X101579571Y-79100971D01*
X101722428Y-79100971D01*
X103079571Y-78172400D02*
X103008142Y-78315257D01*
X102865285Y-78386685D01*
X101579571Y-78386685D01*
X103008142Y-77029542D02*
X103079571Y-77172400D01*
X103079571Y-77458114D01*
X103008142Y-77600971D01*
X102865285Y-77672400D01*
X102293857Y-77672400D01*
X102151000Y-77600971D01*
X102079571Y-77458114D01*
X102079571Y-77172400D01*
X102151000Y-77029542D01*
X102293857Y-76958114D01*
X102436714Y-76958114D01*
X102579571Y-77672400D01*
X103079571Y-76315257D02*
X102079571Y-76315257D01*
X102365285Y-76315257D02*
X102222428Y-76243828D01*
X102151000Y-76172400D01*
X102079571Y-76029542D01*
X102079571Y-75886685D01*
X103008142Y-75458114D02*
X103079571Y-75315257D01*
X103079571Y-75029542D01*
X103008142Y-74886685D01*
X102865285Y-74815257D01*
X102793857Y-74815257D01*
X102651000Y-74886685D01*
X102579571Y-75029542D01*
X102579571Y-75243828D01*
X102508142Y-75386685D01*
X102365285Y-75458114D01*
X102293857Y-75458114D01*
X102151000Y-75386685D01*
X102079571Y-75243828D01*
X102079571Y-75029542D01*
X102151000Y-74886685D01*
X101722428Y-73100971D02*
X101651000Y-73029542D01*
X101579571Y-72886685D01*
X101579571Y-72529542D01*
X101651000Y-72386685D01*
X101722428Y-72315257D01*
X101865285Y-72243828D01*
X102008142Y-72243828D01*
X102222428Y-72315257D01*
X103079571Y-73172400D01*
X103079571Y-72243828D01*
X101579571Y-71315257D02*
X101579571Y-71172400D01*
X101651000Y-71029542D01*
X101722428Y-70958114D01*
X101865285Y-70886685D01*
X102151000Y-70815257D01*
X102508142Y-70815257D01*
X102793857Y-70886685D01*
X102936714Y-70958114D01*
X103008142Y-71029542D01*
X103079571Y-71172400D01*
X103079571Y-71315257D01*
X103008142Y-71458114D01*
X102936714Y-71529542D01*
X102793857Y-71600971D01*
X102508142Y-71672400D01*
X102151000Y-71672400D01*
X101865285Y-71600971D01*
X101722428Y-71529542D01*
X101651000Y-71458114D01*
X101579571Y-71315257D01*
X103079571Y-69386685D02*
X103079571Y-70243828D01*
X103079571Y-69815257D02*
X101579571Y-69815257D01*
X101793857Y-69958114D01*
X101936714Y-70100971D01*
X102008142Y-70243828D01*
X101579571Y-68886685D02*
X101579571Y-67886685D01*
X103079571Y-68529542D01*
X103008142Y-67243828D02*
X103079571Y-67243828D01*
X103222428Y-67315257D01*
X103293857Y-67386685D01*
X101722428Y-65529542D02*
X101651000Y-65458114D01*
X101579571Y-65315257D01*
X101579571Y-64958114D01*
X101651000Y-64815257D01*
X101722428Y-64743828D01*
X101865285Y-64672400D01*
X102008142Y-64672400D01*
X102222428Y-64743828D01*
X103079571Y-65600971D01*
X103079571Y-64672400D01*
X101579571Y-63743828D02*
X101579571Y-63600971D01*
X101651000Y-63458114D01*
X101722428Y-63386685D01*
X101865285Y-63315257D01*
X102151000Y-63243828D01*
X102508142Y-63243828D01*
X102793857Y-63315257D01*
X102936714Y-63386685D01*
X103008142Y-63458114D01*
X103079571Y-63600971D01*
X103079571Y-63743828D01*
X103008142Y-63886685D01*
X102936714Y-63958114D01*
X102793857Y-64029542D01*
X102508142Y-64100971D01*
X102151000Y-64100971D01*
X101865285Y-64029542D01*
X101722428Y-63958114D01*
X101651000Y-63886685D01*
X101579571Y-63743828D01*
X101722428Y-62672400D02*
X101651000Y-62600971D01*
X101579571Y-62458114D01*
X101579571Y-62100971D01*
X101651000Y-61958114D01*
X101722428Y-61886685D01*
X101865285Y-61815257D01*
X102008142Y-61815257D01*
X102222428Y-61886685D01*
X103079571Y-62743828D01*
X103079571Y-61815257D01*
X101579571Y-60886685D02*
X101579571Y-60743828D01*
X101651000Y-60600971D01*
X101722428Y-60529542D01*
X101865285Y-60458114D01*
X102151000Y-60386685D01*
X102508142Y-60386685D01*
X102793857Y-60458114D01*
X102936714Y-60529542D01*
X103008142Y-60600971D01*
X103079571Y-60743828D01*
X103079571Y-60886685D01*
X103008142Y-61029542D01*
X102936714Y-61100971D01*
X102793857Y-61172400D01*
X102508142Y-61243828D01*
X102151000Y-61243828D01*
X101865285Y-61172400D01*
X101722428Y-61100971D01*
X101651000Y-61029542D01*
X101579571Y-60886685D01*
X26939571Y-98089257D02*
X27153857Y-98160685D01*
X27225285Y-98232114D01*
X27296714Y-98374971D01*
X27296714Y-98589257D01*
X27225285Y-98732114D01*
X27153857Y-98803542D01*
X27011000Y-98874971D01*
X26439571Y-98874971D01*
X26439571Y-97374971D01*
X26939571Y-97374971D01*
X27082428Y-97446400D01*
X27153857Y-97517828D01*
X27225285Y-97660685D01*
X27225285Y-97803542D01*
X27153857Y-97946400D01*
X27082428Y-98017828D01*
X26939571Y-98089257D01*
X26439571Y-98089257D01*
X28582428Y-98874971D02*
X28582428Y-98089257D01*
X28511000Y-97946400D01*
X28368142Y-97874971D01*
X28082428Y-97874971D01*
X27939571Y-97946400D01*
X28582428Y-98803542D02*
X28439571Y-98874971D01*
X28082428Y-98874971D01*
X27939571Y-98803542D01*
X27868142Y-98660685D01*
X27868142Y-98517828D01*
X27939571Y-98374971D01*
X28082428Y-98303542D01*
X28439571Y-98303542D01*
X28582428Y-98232114D01*
X29225285Y-98803542D02*
X29368142Y-98874971D01*
X29653857Y-98874971D01*
X29796714Y-98803542D01*
X29868142Y-98660685D01*
X29868142Y-98589257D01*
X29796714Y-98446400D01*
X29653857Y-98374971D01*
X29439571Y-98374971D01*
X29296714Y-98303542D01*
X29225285Y-98160685D01*
X29225285Y-98089257D01*
X29296714Y-97946400D01*
X29439571Y-97874971D01*
X29653857Y-97874971D01*
X29796714Y-97946400D01*
X31082428Y-98803542D02*
X30939571Y-98874971D01*
X30653857Y-98874971D01*
X30511000Y-98803542D01*
X30439571Y-98660685D01*
X30439571Y-98089257D01*
X30511000Y-97946400D01*
X30653857Y-97874971D01*
X30939571Y-97874971D01*
X31082428Y-97946400D01*
X31153857Y-98089257D01*
X31153857Y-98232114D01*
X30439571Y-98374971D01*
X32439571Y-98874971D02*
X32439571Y-97374971D01*
X32439571Y-98803542D02*
X32296714Y-98874971D01*
X32011000Y-98874971D01*
X31868142Y-98803542D01*
X31796714Y-98732114D01*
X31725285Y-98589257D01*
X31725285Y-98160685D01*
X31796714Y-98017828D01*
X31868142Y-97946400D01*
X32011000Y-97874971D01*
X32296714Y-97874971D01*
X32439571Y-97946400D01*
X34511000Y-98874971D02*
X34368142Y-98803542D01*
X34296714Y-98732114D01*
X34225285Y-98589257D01*
X34225285Y-98160685D01*
X34296714Y-98017828D01*
X34368142Y-97946400D01*
X34511000Y-97874971D01*
X34725285Y-97874971D01*
X34868142Y-97946400D01*
X34939571Y-98017828D01*
X35011000Y-98160685D01*
X35011000Y-98589257D01*
X34939571Y-98732114D01*
X34868142Y-98803542D01*
X34725285Y-98874971D01*
X34511000Y-98874971D01*
X35653857Y-97874971D02*
X35653857Y-98874971D01*
X35653857Y-98017828D02*
X35725285Y-97946400D01*
X35868142Y-97874971D01*
X36082428Y-97874971D01*
X36225285Y-97946400D01*
X36296714Y-98089257D01*
X36296714Y-98874971D01*
X38011000Y-97874971D02*
X38296714Y-98874971D01*
X38582428Y-98160685D01*
X38868142Y-98874971D01*
X39153857Y-97874971D01*
X39939571Y-98874971D02*
X39796714Y-98803542D01*
X39725285Y-98732114D01*
X39653857Y-98589257D01*
X39653857Y-98160685D01*
X39725285Y-98017828D01*
X39796714Y-97946400D01*
X39939571Y-97874971D01*
X40153857Y-97874971D01*
X40296714Y-97946400D01*
X40368142Y-98017828D01*
X40439571Y-98160685D01*
X40439571Y-98589257D01*
X40368142Y-98732114D01*
X40296714Y-98803542D01*
X40153857Y-98874971D01*
X39939571Y-98874971D01*
X41082428Y-98874971D02*
X41082428Y-97874971D01*
X41082428Y-98160685D02*
X41153857Y-98017828D01*
X41225285Y-97946400D01*
X41368142Y-97874971D01*
X41511000Y-97874971D01*
X42011000Y-98874971D02*
X42011000Y-97374971D01*
X42153857Y-98303542D02*
X42582428Y-98874971D01*
X42582428Y-97874971D02*
X42011000Y-98446400D01*
X44368142Y-98874971D02*
X44368142Y-97374971D01*
X44368142Y-97946400D02*
X44511000Y-97874971D01*
X44796714Y-97874971D01*
X44939571Y-97946400D01*
X45011000Y-98017828D01*
X45082428Y-98160685D01*
X45082428Y-98589257D01*
X45011000Y-98732114D01*
X44939571Y-98803542D01*
X44796714Y-98874971D01*
X44511000Y-98874971D01*
X44368142Y-98803542D01*
X45582428Y-97874971D02*
X45939571Y-98874971D01*
X46296714Y-97874971D02*
X45939571Y-98874971D01*
X45796714Y-99232114D01*
X45725285Y-99303542D01*
X45582428Y-99374971D01*
X47939571Y-98446400D02*
X48653857Y-98446400D01*
X47796714Y-98874971D02*
X48296714Y-97374971D01*
X48796714Y-98874971D01*
X49296714Y-97874971D02*
X49296714Y-98874971D01*
X49296714Y-98017828D02*
X49368142Y-97946400D01*
X49511000Y-97874971D01*
X49725285Y-97874971D01*
X49868142Y-97946400D01*
X49939571Y-98089257D01*
X49939571Y-98874971D01*
X51296714Y-98874971D02*
X51296714Y-97374971D01*
X51296714Y-98803542D02*
X51153857Y-98874971D01*
X50868142Y-98874971D01*
X50725285Y-98803542D01*
X50653857Y-98732114D01*
X50582428Y-98589257D01*
X50582428Y-98160685D01*
X50653857Y-98017828D01*
X50725285Y-97946400D01*
X50868142Y-97874971D01*
X51153857Y-97874971D01*
X51296714Y-97946400D01*
X52011000Y-98874971D02*
X52011000Y-97874971D01*
X52011000Y-98160685D02*
X52082428Y-98017828D01*
X52153857Y-97946400D01*
X52296714Y-97874971D01*
X52439571Y-97874971D01*
X53511000Y-98803542D02*
X53368142Y-98874971D01*
X53082428Y-98874971D01*
X52939571Y-98803542D01*
X52868142Y-98660685D01*
X52868142Y-98089257D01*
X52939571Y-97946400D01*
X53082428Y-97874971D01*
X53368142Y-97874971D01*
X53511000Y-97946400D01*
X53582428Y-98089257D01*
X53582428Y-98232114D01*
X52868142Y-98374971D01*
X53368142Y-97303542D02*
X53153857Y-97517828D01*
X55868142Y-98089257D02*
X55368142Y-98089257D01*
X55368142Y-98874971D02*
X55368142Y-97374971D01*
X56082428Y-97374971D01*
X57296714Y-98874971D02*
X57296714Y-98089257D01*
X57225285Y-97946400D01*
X57082428Y-97874971D01*
X56796714Y-97874971D01*
X56653857Y-97946400D01*
X57296714Y-98803542D02*
X57153857Y-98874971D01*
X56796714Y-98874971D01*
X56653857Y-98803542D01*
X56582428Y-98660685D01*
X56582428Y-98517828D01*
X56653857Y-98374971D01*
X56796714Y-98303542D01*
X57153857Y-98303542D01*
X57296714Y-98232114D01*
X58653857Y-98803542D02*
X58511000Y-98874971D01*
X58225285Y-98874971D01*
X58082428Y-98803542D01*
X58011000Y-98732114D01*
X57939571Y-98589257D01*
X57939571Y-98160685D01*
X58011000Y-98017828D01*
X58082428Y-97946400D01*
X58225285Y-97874971D01*
X58511000Y-97874971D01*
X58653857Y-97946400D01*
X59296714Y-98874971D02*
X59296714Y-97374971D01*
X59939571Y-98874971D02*
X59939571Y-98089257D01*
X59868142Y-97946400D01*
X59725285Y-97874971D01*
X59511000Y-97874971D01*
X59368142Y-97946400D01*
X59296714Y-98017828D01*
X61296714Y-98874971D02*
X61296714Y-98089257D01*
X61225285Y-97946400D01*
X61082428Y-97874971D01*
X60796714Y-97874971D01*
X60653857Y-97946400D01*
X61296714Y-98803542D02*
X61153857Y-98874971D01*
X60796714Y-98874971D01*
X60653857Y-98803542D01*
X60582428Y-98660685D01*
X60582428Y-98517828D01*
X60653857Y-98374971D01*
X60796714Y-98303542D01*
X61153857Y-98303542D01*
X61296714Y-98232114D01*
X61796714Y-97874971D02*
X62368142Y-97874971D01*
X62011000Y-97374971D02*
X62011000Y-98660685D01*
X62082428Y-98803542D01*
X62225285Y-98874971D01*
X62368142Y-98874971D01*
X64653857Y-98874971D02*
X64653857Y-98089257D01*
X64582428Y-97946400D01*
X64439571Y-97874971D01*
X64153857Y-97874971D01*
X64011000Y-97946400D01*
X64653857Y-98803542D02*
X64511000Y-98874971D01*
X64153857Y-98874971D01*
X64011000Y-98803542D01*
X63939571Y-98660685D01*
X63939571Y-98517828D01*
X64011000Y-98374971D01*
X64153857Y-98303542D01*
X64511000Y-98303542D01*
X64653857Y-98232114D01*
X65368142Y-97874971D02*
X65368142Y-98874971D01*
X65368142Y-98017828D02*
X65439571Y-97946400D01*
X65582428Y-97874971D01*
X65796714Y-97874971D01*
X65939571Y-97946400D01*
X66011000Y-98089257D01*
X66011000Y-98874971D01*
X67368142Y-98874971D02*
X67368142Y-97374971D01*
X67368142Y-98803542D02*
X67225285Y-98874971D01*
X66939571Y-98874971D01*
X66796714Y-98803542D01*
X66725285Y-98732114D01*
X66653857Y-98589257D01*
X66653857Y-98160685D01*
X66725285Y-98017828D01*
X66796714Y-97946400D01*
X66939571Y-97874971D01*
X67225285Y-97874971D01*
X67368142Y-97946400D01*
X69225285Y-98874971D02*
X69225285Y-97374971D01*
X69725285Y-98446400D01*
X70225285Y-97374971D01*
X70225285Y-98874971D01*
X70939571Y-98874971D02*
X70939571Y-97874971D01*
X70939571Y-97374971D02*
X70868142Y-97446400D01*
X70939571Y-97517828D01*
X71011000Y-97446400D01*
X70939571Y-97374971D01*
X70939571Y-97517828D01*
X71653857Y-98874971D02*
X71653857Y-97374971D01*
X71796714Y-98303542D02*
X72225285Y-98874971D01*
X72225285Y-97874971D02*
X71653857Y-98446400D01*
X73439571Y-98803542D02*
X73296714Y-98874971D01*
X73011000Y-98874971D01*
X72868142Y-98803542D01*
X72796714Y-98660685D01*
X72796714Y-98089257D01*
X72868142Y-97946400D01*
X73011000Y-97874971D01*
X73296714Y-97874971D01*
X73439571Y-97946400D01*
X73511000Y-98089257D01*
X73511000Y-98232114D01*
X72796714Y-98374971D01*
X75296714Y-98874971D02*
X75296714Y-97374971D01*
X76153857Y-98874971D01*
X76153857Y-97374971D01*
X77511000Y-98874971D02*
X77511000Y-98089257D01*
X77439571Y-97946400D01*
X77296714Y-97874971D01*
X77011000Y-97874971D01*
X76868142Y-97946400D01*
X77511000Y-98803542D02*
X77368142Y-98874971D01*
X77011000Y-98874971D01*
X76868142Y-98803542D01*
X76796714Y-98660685D01*
X76796714Y-98517828D01*
X76868142Y-98374971D01*
X77011000Y-98303542D01*
X77368142Y-98303542D01*
X77511000Y-98232114D01*
X78225285Y-98874971D02*
X78225285Y-97374971D01*
X78225285Y-97946400D02*
X78368142Y-97874971D01*
X78653857Y-97874971D01*
X78796714Y-97946400D01*
X78868142Y-98017828D01*
X78939571Y-98160685D01*
X78939571Y-98589257D01*
X78868142Y-98732114D01*
X78796714Y-98803542D01*
X78653857Y-98874971D01*
X78368142Y-98874971D01*
X78225285Y-98803542D01*
X80153857Y-98803542D02*
X80011000Y-98874971D01*
X79725285Y-98874971D01*
X79582428Y-98803542D01*
X79511000Y-98660685D01*
X79511000Y-98089257D01*
X79582428Y-97946400D01*
X79725285Y-97874971D01*
X80011000Y-97874971D01*
X80153857Y-97946400D01*
X80225285Y-98089257D01*
X80225285Y-98232114D01*
X79511000Y-98374971D01*
X80868142Y-98874971D02*
X80868142Y-97874971D01*
X80868142Y-98160685D02*
X80939571Y-98017828D01*
X81011000Y-97946400D01*
X81153857Y-97874971D01*
X81296714Y-97874971D01*
X82368142Y-98803542D02*
X82225285Y-98874971D01*
X81939571Y-98874971D01*
X81796714Y-98803542D01*
X81725285Y-98660685D01*
X81725285Y-98089257D01*
X81796714Y-97946400D01*
X81939571Y-97874971D01*
X82225285Y-97874971D01*
X82368142Y-97946400D01*
X82439571Y-98089257D01*
X82439571Y-98232114D01*
X81725285Y-98374971D01*
X82939571Y-97874971D02*
X83725285Y-97874971D01*
X82939571Y-98874971D01*
X83725285Y-98874971D01*
X84296714Y-97874971D02*
X84296714Y-98874971D01*
X84296714Y-98017828D02*
X84368142Y-97946400D01*
X84511000Y-97874971D01*
X84725285Y-97874971D01*
X84868142Y-97946400D01*
X84939571Y-98089257D01*
X84939571Y-98874971D01*
X85511000Y-97874971D02*
X85868142Y-98874971D01*
X86225285Y-97874971D02*
X85868142Y-98874971D01*
X85725285Y-99232114D01*
X85653857Y-99303542D01*
X85511000Y-99374971D01*
D13*
X3418462Y-47707282D02*
X2402462Y-47707282D01*
X3291462Y-47834282D02*
X2529462Y-47834282D01*
X3164462Y-47961282D02*
X2656462Y-47961282D01*
X3799462Y-47326282D02*
X2021462Y-47326282D01*
X3545462Y-47580282D02*
X2275462Y-47580282D01*
X3926462Y-47199282D02*
X1894462Y-47199282D01*
X3672462Y-47453282D02*
X2148462Y-47453282D01*
X2656462Y-44278282D02*
X3037462Y-44278282D01*
X2656462Y-47072282D02*
X2656462Y-44278282D01*
X2910462Y-44405282D02*
X2910462Y-46945282D01*
X3037462Y-44278282D02*
X3037462Y-46945282D01*
X2783462Y-44405282D02*
X2910462Y-44405282D01*
X2783462Y-46945282D02*
X2783462Y-44405282D01*
X3164462Y-44151282D02*
X3164462Y-47072282D01*
X2529462Y-44151282D02*
X2529462Y-47072282D01*
X3672462Y-47072282D02*
X3545462Y-47072282D01*
X4180462Y-47072282D02*
X3672462Y-47072282D01*
X2910462Y-48342282D02*
X4180462Y-47072282D01*
X3545462Y-47072282D02*
X3291462Y-47072282D01*
X3037462Y-48088282D02*
X2783462Y-48088282D01*
X1640462Y-47072282D02*
X2529462Y-47072282D01*
X2910462Y-48342282D02*
X1640462Y-47072282D01*
X2783462Y-48088282D02*
X2910462Y-48215282D01*
X3291462Y-47072282D02*
X3291462Y-44151282D01*
X3037462Y-46945282D02*
X2783462Y-46945282D01*
X3164462Y-47072282D02*
X2656462Y-47072282D01*
X3291462Y-44151282D02*
X2529462Y-44151282D01*
X11811000Y-4978400D02*
X10541000Y-6248400D01*
X10541000Y-6248400D02*
X10541000Y-5359400D01*
X7874000Y-5105400D02*
X7874000Y-4978400D01*
X7747000Y-5232400D02*
X7747000Y-4851400D01*
X7620000Y-4724400D02*
X10541000Y-4724400D01*
X7620000Y-4597400D02*
X7620000Y-5359400D01*
X10414000Y-5105400D02*
X7874000Y-5105400D01*
X7874000Y-4978400D02*
X10414000Y-4978400D01*
X10414000Y-4851400D02*
X10414000Y-5105400D01*
X7747000Y-4851400D02*
X10414000Y-4851400D01*
X10541000Y-5232400D02*
X7747000Y-5232400D01*
X7620000Y-5359400D02*
X10541000Y-5359400D01*
X10668000Y-3962400D02*
X10668000Y-5994400D01*
X10795000Y-4089400D02*
X10795000Y-5867400D01*
X11176000Y-4470400D02*
X11176000Y-5486400D01*
X11049000Y-4343400D02*
X11049000Y-5613400D01*
X10922000Y-4216400D02*
X10922000Y-5740400D01*
X10541000Y-4597400D02*
X7620000Y-4597400D01*
X10541000Y-3708400D02*
X10541000Y-4216400D01*
X10541000Y-4216400D02*
X10541000Y-4343400D01*
X10541000Y-4343400D02*
X10541000Y-4597400D01*
X10541000Y-4724400D02*
X10541000Y-5232400D01*
X11557000Y-5105400D02*
X11684000Y-4978400D01*
X11557000Y-4851400D02*
X11557000Y-5105400D01*
X11430000Y-4724400D02*
X11430000Y-5232400D01*
X11303000Y-4597400D02*
X11303000Y-5359400D01*
X11811000Y-4978400D02*
X10541000Y-3708400D01*
D11*
X87673571Y-20872828D02*
X86959285Y-21372828D01*
X87673571Y-21729971D02*
X86173571Y-21729971D01*
X86173571Y-21158542D01*
X86245000Y-21015685D01*
X86316428Y-20944257D01*
X86459285Y-20872828D01*
X86673571Y-20872828D01*
X86816428Y-20944257D01*
X86887857Y-21015685D01*
X86959285Y-21158542D01*
X86959285Y-21729971D01*
X87602142Y-20301400D02*
X87673571Y-20087114D01*
X87673571Y-19729971D01*
X87602142Y-19587114D01*
X87530714Y-19515685D01*
X87387857Y-19444257D01*
X87245000Y-19444257D01*
X87102142Y-19515685D01*
X87030714Y-19587114D01*
X86959285Y-19729971D01*
X86887857Y-20015685D01*
X86816428Y-20158542D01*
X86745000Y-20229971D01*
X86602142Y-20301400D01*
X86459285Y-20301400D01*
X86316428Y-20229971D01*
X86245000Y-20158542D01*
X86173571Y-20015685D01*
X86173571Y-19658542D01*
X86245000Y-19444257D01*
X87102142Y-18801400D02*
X87102142Y-17658542D01*
X86316428Y-17015685D02*
X86245000Y-16944257D01*
X86173571Y-16801400D01*
X86173571Y-16444257D01*
X86245000Y-16301400D01*
X86316428Y-16229971D01*
X86459285Y-16158542D01*
X86602142Y-16158542D01*
X86816428Y-16229971D01*
X87673571Y-17087114D01*
X87673571Y-16158542D01*
X86173571Y-15658542D02*
X86173571Y-14729971D01*
X86745000Y-15229971D01*
X86745000Y-15015685D01*
X86816428Y-14872828D01*
X86887857Y-14801400D01*
X87030714Y-14729971D01*
X87387857Y-14729971D01*
X87530714Y-14801400D01*
X87602142Y-14872828D01*
X87673571Y-15015685D01*
X87673571Y-15444257D01*
X87602142Y-15587114D01*
X87530714Y-15658542D01*
X86316428Y-14158542D02*
X86245000Y-14087114D01*
X86173571Y-13944257D01*
X86173571Y-13587114D01*
X86245000Y-13444257D01*
X86316428Y-13372828D01*
X86459285Y-13301400D01*
X86602142Y-13301400D01*
X86816428Y-13372828D01*
X87673571Y-14229971D01*
X87673571Y-13301400D01*
D10*
X23074809Y-54214780D02*
X22598619Y-54214780D01*
X22551000Y-54690971D01*
X22598619Y-54643352D01*
X22693857Y-54595733D01*
X22931952Y-54595733D01*
X23027190Y-54643352D01*
X23074809Y-54690971D01*
X23122428Y-54786209D01*
X23122428Y-55024304D01*
X23074809Y-55119542D01*
X23027190Y-55167161D01*
X22931952Y-55214780D01*
X22693857Y-55214780D01*
X22598619Y-55167161D01*
X22551000Y-55119542D01*
X24074809Y-55214780D02*
X23503380Y-55214780D01*
X23789095Y-55214780D02*
X23789095Y-54214780D01*
X23693857Y-54357638D01*
X23598619Y-54452876D01*
X23503380Y-54500495D01*
X24455761Y-54310019D02*
X24503380Y-54262400D01*
X24598619Y-54214780D01*
X24836714Y-54214780D01*
X24931952Y-54262400D01*
X24979571Y-54310019D01*
X25027190Y-54405257D01*
X25027190Y-54500495D01*
X24979571Y-54643352D01*
X24408142Y-55214780D01*
X25027190Y-55214780D01*
X26217666Y-55214780D02*
X26217666Y-54214780D01*
X26789095Y-55214780D02*
X26360523Y-54643352D01*
X26789095Y-54214780D02*
X26217666Y-54786209D01*
X27551000Y-54690971D02*
X27693857Y-54738590D01*
X27741476Y-54786209D01*
X27789095Y-54881447D01*
X27789095Y-55024304D01*
X27741476Y-55119542D01*
X27693857Y-55167161D01*
X27598619Y-55214780D01*
X27217666Y-55214780D01*
X27217666Y-54214780D01*
X27551000Y-54214780D01*
X27646238Y-54262400D01*
X27693857Y-54310019D01*
X27741476Y-54405257D01*
X27741476Y-54500495D01*
X27693857Y-54595733D01*
X27646238Y-54643352D01*
X27551000Y-54690971D01*
X27217666Y-54690971D01*
X29551000Y-55214780D02*
X29217666Y-54738590D01*
X28979571Y-55214780D02*
X28979571Y-54214780D01*
X29360523Y-54214780D01*
X29455761Y-54262400D01*
X29503380Y-54310019D01*
X29551000Y-54405257D01*
X29551000Y-54548114D01*
X29503380Y-54643352D01*
X29455761Y-54690971D01*
X29360523Y-54738590D01*
X28979571Y-54738590D01*
X29931952Y-54929066D02*
X30408142Y-54929066D01*
X29836714Y-55214780D02*
X30170047Y-54214780D01*
X30503380Y-55214780D01*
X30836714Y-55214780D02*
X30836714Y-54214780D01*
X31170047Y-54929066D01*
X31503380Y-54214780D01*
X31503380Y-55214780D01*
X4842428Y-55214780D02*
X4271000Y-55214780D01*
X4556714Y-55214780D02*
X4556714Y-54214780D01*
X4461476Y-54357638D01*
X4366238Y-54452876D01*
X4271000Y-54500495D01*
X5223380Y-54310019D02*
X5271000Y-54262400D01*
X5366238Y-54214780D01*
X5604333Y-54214780D01*
X5699571Y-54262400D01*
X5747190Y-54310019D01*
X5794809Y-54405257D01*
X5794809Y-54500495D01*
X5747190Y-54643352D01*
X5175761Y-55214780D01*
X5794809Y-55214780D01*
X6366238Y-54643352D02*
X6271000Y-54595733D01*
X6223380Y-54548114D01*
X6175761Y-54452876D01*
X6175761Y-54405257D01*
X6223380Y-54310019D01*
X6271000Y-54262400D01*
X6366238Y-54214780D01*
X6556714Y-54214780D01*
X6651952Y-54262400D01*
X6699571Y-54310019D01*
X6747190Y-54405257D01*
X6747190Y-54452876D01*
X6699571Y-54548114D01*
X6651952Y-54595733D01*
X6556714Y-54643352D01*
X6366238Y-54643352D01*
X6271000Y-54690971D01*
X6223380Y-54738590D01*
X6175761Y-54833828D01*
X6175761Y-55024304D01*
X6223380Y-55119542D01*
X6271000Y-55167161D01*
X6366238Y-55214780D01*
X6556714Y-55214780D01*
X6651952Y-55167161D01*
X6699571Y-55119542D01*
X6747190Y-55024304D01*
X6747190Y-54833828D01*
X6699571Y-54738590D01*
X6651952Y-54690971D01*
X6556714Y-54643352D01*
X7937666Y-55214780D02*
X7937666Y-54214780D01*
X8509095Y-55214780D02*
X8080523Y-54643352D01*
X8509095Y-54214780D02*
X7937666Y-54786209D01*
X9271000Y-54690971D02*
X9413857Y-54738590D01*
X9461476Y-54786209D01*
X9509095Y-54881447D01*
X9509095Y-55024304D01*
X9461476Y-55119542D01*
X9413857Y-55167161D01*
X9318619Y-55214780D01*
X8937666Y-55214780D01*
X8937666Y-54214780D01*
X9271000Y-54214780D01*
X9366238Y-54262400D01*
X9413857Y-54310019D01*
X9461476Y-54405257D01*
X9461476Y-54500495D01*
X9413857Y-54595733D01*
X9366238Y-54643352D01*
X9271000Y-54690971D01*
X8937666Y-54690971D01*
X11032904Y-54690971D02*
X10699571Y-54690971D01*
X10699571Y-55214780D02*
X10699571Y-54214780D01*
X11175761Y-54214780D01*
X11699571Y-55214780D02*
X11604333Y-55167161D01*
X11556714Y-55071923D01*
X11556714Y-54214780D01*
X12509095Y-55214780D02*
X12509095Y-54690971D01*
X12461476Y-54595733D01*
X12366238Y-54548114D01*
X12175761Y-54548114D01*
X12080523Y-54595733D01*
X12509095Y-55167161D02*
X12413857Y-55214780D01*
X12175761Y-55214780D01*
X12080523Y-55167161D01*
X12032904Y-55071923D01*
X12032904Y-54976685D01*
X12080523Y-54881447D01*
X12175761Y-54833828D01*
X12413857Y-54833828D01*
X12509095Y-54786209D01*
X12937666Y-55167161D02*
X13032904Y-55214780D01*
X13223380Y-55214780D01*
X13318619Y-55167161D01*
X13366238Y-55071923D01*
X13366238Y-55024304D01*
X13318619Y-54929066D01*
X13223380Y-54881447D01*
X13080523Y-54881447D01*
X12985285Y-54833828D01*
X12937666Y-54738590D01*
X12937666Y-54690971D01*
X12985285Y-54595733D01*
X13080523Y-54548114D01*
X13223380Y-54548114D01*
X13318619Y-54595733D01*
X13794809Y-55214780D02*
X13794809Y-54214780D01*
X14223380Y-55214780D02*
X14223380Y-54690971D01*
X14175761Y-54595733D01*
X14080523Y-54548114D01*
X13937666Y-54548114D01*
X13842428Y-54595733D01*
X13794809Y-54643352D01*
D11*
X921000Y-50315733D02*
X921000Y-48915733D01*
X1254333Y-48915733D01*
X1454333Y-48982400D01*
X1587666Y-49115733D01*
X1654333Y-49249066D01*
X1721000Y-49515733D01*
X1721000Y-49715733D01*
X1654333Y-49982400D01*
X1587666Y-50115733D01*
X1454333Y-50249066D01*
X1254333Y-50315733D01*
X921000Y-50315733D01*
X2321000Y-50315733D02*
X2321000Y-48915733D01*
X2921000Y-49915733D02*
X3587666Y-49915733D01*
X2787666Y-50315733D02*
X3254333Y-48915733D01*
X3721000Y-50315733D01*
X4921000Y-48982400D02*
X4787666Y-48915733D01*
X4587666Y-48915733D01*
X4387666Y-48982400D01*
X4254333Y-49115733D01*
X4187666Y-49249066D01*
X4121000Y-49515733D01*
X4121000Y-49715733D01*
X4187666Y-49982400D01*
X4254333Y-50115733D01*
X4387666Y-50249066D01*
X4587666Y-50315733D01*
X4721000Y-50315733D01*
X4921000Y-50249066D01*
X4987666Y-50182400D01*
X4987666Y-49715733D01*
X4721000Y-49715733D01*
X28186000Y-38875733D02*
X28252666Y-38942400D01*
X28319333Y-39142400D01*
X28319333Y-39275733D01*
X28252666Y-39475733D01*
X28119333Y-39609066D01*
X27986000Y-39675733D01*
X27719333Y-39742400D01*
X27519333Y-39742400D01*
X27252666Y-39675733D01*
X27119333Y-39609066D01*
X26986000Y-39475733D01*
X26919333Y-39275733D01*
X26919333Y-39142400D01*
X26986000Y-38942400D01*
X27052666Y-38875733D01*
X28319333Y-38275733D02*
X26919333Y-38275733D01*
X26919333Y-37742400D01*
X26986000Y-37609066D01*
X27052666Y-37542400D01*
X27186000Y-37475733D01*
X27386000Y-37475733D01*
X27519333Y-37542400D01*
X27586000Y-37609066D01*
X27652666Y-37742400D01*
X27652666Y-38275733D01*
X28319333Y-36209066D02*
X28319333Y-36875733D01*
X26919333Y-36875733D01*
X28319333Y-35742400D02*
X26919333Y-35742400D01*
X26919333Y-35409066D01*
X26986000Y-35209066D01*
X27119333Y-35075733D01*
X27252666Y-35009066D01*
X27519333Y-34942400D01*
X27719333Y-34942400D01*
X27986000Y-35009066D01*
X28119333Y-35075733D01*
X28252666Y-35209066D01*
X28319333Y-35409066D01*
X28319333Y-35742400D01*
X26919333Y-32875733D02*
X27919333Y-32875733D01*
X28119333Y-32942400D01*
X28252666Y-33075733D01*
X28319333Y-33275733D01*
X28319333Y-33409066D01*
X26919333Y-32409066D02*
X26919333Y-31609066D01*
X28319333Y-32009066D02*
X26919333Y-32009066D01*
X27919333Y-31209066D02*
X27919333Y-30542400D01*
X28319333Y-31342400D02*
X26919333Y-30875733D01*
X28319333Y-30409066D01*
X26986000Y-29209066D02*
X26919333Y-29342400D01*
X26919333Y-29542400D01*
X26986000Y-29742400D01*
X27119333Y-29875733D01*
X27252666Y-29942400D01*
X27519333Y-30009066D01*
X27719333Y-30009066D01*
X27986000Y-29942400D01*
X28119333Y-29875733D01*
X28252666Y-29742400D01*
X28319333Y-29542400D01*
X28319333Y-29409066D01*
X28252666Y-29209066D01*
X28186000Y-29142400D01*
X27719333Y-29142400D01*
X27719333Y-29409066D01*
D13*
X12319190Y-3755352D02*
X12223952Y-3707733D01*
X12176333Y-3660114D01*
X12128714Y-3564876D01*
X12128714Y-3517257D01*
X12176333Y-3422019D01*
X12223952Y-3374400D01*
X12319190Y-3326780D01*
X12509666Y-3326780D01*
X12604904Y-3374400D01*
X12652523Y-3422019D01*
X12700142Y-3517257D01*
X12700142Y-3564876D01*
X12652523Y-3660114D01*
X12604904Y-3707733D01*
X12509666Y-3755352D01*
X12319190Y-3755352D01*
X12223952Y-3802971D01*
X12176333Y-3850590D01*
X12128714Y-3945828D01*
X12128714Y-4136304D01*
X12176333Y-4231542D01*
X12223952Y-4279161D01*
X12319190Y-4326780D01*
X12509666Y-4326780D01*
X12604904Y-4279161D01*
X12652523Y-4231542D01*
X12700142Y-4136304D01*
X12700142Y-3945828D01*
X12652523Y-3850590D01*
X12604904Y-3802971D01*
X12509666Y-3755352D01*
X13319190Y-3326780D02*
X13414428Y-3326780D01*
X13509666Y-3374400D01*
X13557285Y-3422019D01*
X13604904Y-3517257D01*
X13652523Y-3707733D01*
X13652523Y-3945828D01*
X13604904Y-4136304D01*
X13557285Y-4231542D01*
X13509666Y-4279161D01*
X13414428Y-4326780D01*
X13319190Y-4326780D01*
X13223952Y-4279161D01*
X13176333Y-4231542D01*
X13128714Y-4136304D01*
X13081095Y-3945828D01*
X13081095Y-3707733D01*
X13128714Y-3517257D01*
X13176333Y-3422019D01*
X13223952Y-3374400D01*
X13319190Y-3326780D01*
X13985857Y-3326780D02*
X14604904Y-3326780D01*
X14271571Y-3707733D01*
X14414428Y-3707733D01*
X14509666Y-3755352D01*
X14557285Y-3802971D01*
X14604904Y-3898209D01*
X14604904Y-4136304D01*
X14557285Y-4231542D01*
X14509666Y-4279161D01*
X14414428Y-4326780D01*
X14128714Y-4326780D01*
X14033476Y-4279161D01*
X13985857Y-4231542D01*
X14985857Y-3422019D02*
X15033476Y-3374400D01*
X15128714Y-3326780D01*
X15366809Y-3326780D01*
X15462047Y-3374400D01*
X15509666Y-3422019D01*
X15557285Y-3517257D01*
X15557285Y-3612495D01*
X15509666Y-3755352D01*
X14938238Y-4326780D01*
X15557285Y-4326780D01*
X13033476Y-5026780D02*
X13033476Y-5741066D01*
X12985857Y-5883923D01*
X12890619Y-5979161D01*
X12747761Y-6026780D01*
X12652523Y-6026780D01*
X14033476Y-6026780D02*
X13462047Y-6026780D01*
X13747761Y-6026780D02*
X13747761Y-5026780D01*
X13652523Y-5169638D01*
X13557285Y-5264876D01*
X13462047Y-5312495D01*
X14985857Y-6026780D02*
X14414428Y-6026780D01*
X14700142Y-6026780D02*
X14700142Y-5026780D01*
X14604904Y-5169638D01*
X14509666Y-5264876D01*
X14414428Y-5312495D01*
D14*
X85741000Y-38132400D02*
X83971000Y-38132400D01*
X83971000Y-38132400D02*
X83971000Y-58692400D01*
X83971000Y-58692400D02*
X89511000Y-58692400D01*
X89511000Y-58692400D02*
X89511000Y-38132400D01*
X89511000Y-38132400D02*
X87741000Y-38132400D01*
X87741000Y-38132400D02*
G75*
G02X85741000Y-38132400I-1000000J0D01*
G01*
D10*
X1611000Y-312400D02*
X1587500Y-3390900D01*
X11851000Y-312400D02*
X11874500Y-3454400D01*
X11851000Y-312400D02*
X1611000Y-312400D01*
X1587500Y-3390900D02*
X11874500Y-3454400D01*
X1651000Y-850900D02*
X11811000Y-850900D01*
D14*
X41961000Y-22742400D02*
X41961000Y-38867400D01*
X41961000Y-38867400D02*
X42961000Y-39867400D01*
X42961000Y-39867400D02*
X78181000Y-39867400D01*
X78181000Y-39867400D02*
X78181000Y-3617400D01*
X78181000Y-3617400D02*
X41961000Y-3617400D01*
X41961000Y-3617400D02*
X41961000Y-20742400D01*
D10*
X28931000Y-24292400D02*
X37871000Y-24292400D01*
X37871000Y-24292400D02*
X37871000Y-44592400D01*
X37871000Y-44592400D02*
X28931000Y-44592400D01*
X28931000Y-44592400D02*
X28931000Y-24292400D01*
X28931000Y-32217400D02*
X30231000Y-32217400D01*
X30231000Y-32217400D02*
X30231000Y-25492400D01*
X30231000Y-25492400D02*
X36571000Y-25492400D01*
X36571000Y-25492400D02*
X36571000Y-43392400D01*
X36571000Y-43392400D02*
X30231000Y-43392400D01*
X30231000Y-43392400D02*
X30231000Y-36667400D01*
X30231000Y-36667400D02*
X28931000Y-36667400D01*
X37871000Y-34192400D02*
X38071000Y-34192400D01*
X38071000Y-34192400D02*
X38071000Y-34692400D01*
X38071000Y-34692400D02*
X37871000Y-34692400D01*
X37971000Y-34192400D02*
X37971000Y-34692400D01*
X37871000Y-41672400D02*
X38071000Y-41672400D01*
X38071000Y-41672400D02*
X38071000Y-42172400D01*
X38071000Y-42172400D02*
X37871000Y-42172400D01*
X37971000Y-41672400D02*
X37971000Y-42172400D01*
X37871000Y-26712400D02*
X38071000Y-26712400D01*
X38071000Y-26712400D02*
X38071000Y-27212400D01*
X38071000Y-27212400D02*
X37871000Y-27212400D01*
X37971000Y-26712400D02*
X37971000Y-27212400D01*
X31531000Y-27162400D02*
X32731000Y-27162400D01*
X32731000Y-27162400D02*
X32131000Y-27762400D01*
X32131000Y-27762400D02*
X31531000Y-27162400D01*
D14*
X43831000Y-45752400D02*
X38251000Y-45752400D01*
X38251000Y-45752400D02*
X38251000Y-96792400D01*
X38251000Y-96792400D02*
X51411000Y-96792400D01*
X51411000Y-96792400D02*
X51411000Y-45752400D01*
X51411000Y-45752400D02*
X45831000Y-45752400D01*
X45831000Y-45752400D02*
G75*
G02X43831000Y-45752400I-1000000J0D01*
G01*
X46371000Y-45752400D02*
X40791000Y-45752400D01*
X40791000Y-45752400D02*
X40791000Y-96792400D01*
X40791000Y-96792400D02*
X53951000Y-96792400D01*
X53951000Y-96792400D02*
X53951000Y-45752400D01*
X53951000Y-45752400D02*
X48371000Y-45752400D01*
X48371000Y-45752400D02*
G75*
G02X46371000Y-45752400I-1000000J0D01*
G01*
X66691000Y-45752400D02*
X61111000Y-45752400D01*
X61111000Y-45752400D02*
X61111000Y-96792400D01*
X61111000Y-96792400D02*
X74271000Y-96792400D01*
X74271000Y-96792400D02*
X74271000Y-45752400D01*
X74271000Y-45752400D02*
X68691000Y-45752400D01*
X68691000Y-45752400D02*
G75*
G02X66691000Y-45752400I-1000000J0D01*
G01*
X23361000Y-32172400D02*
X23361000Y-30402400D01*
X23361000Y-30402400D02*
X2801000Y-30402400D01*
X2801000Y-30402400D02*
X2801000Y-35942400D01*
X2801000Y-35942400D02*
X23361000Y-35942400D01*
X23361000Y-35942400D02*
X23361000Y-34172400D01*
X23361000Y-34172400D02*
G75*
G02X23361000Y-32172400I0J1000000D01*
G01*
X23361000Y-16932400D02*
X23361000Y-15162400D01*
X23361000Y-15162400D02*
X5341000Y-15162400D01*
X5341000Y-15162400D02*
X5341000Y-20702400D01*
X5341000Y-20702400D02*
X23361000Y-20702400D01*
X23361000Y-20702400D02*
X23361000Y-18932400D01*
X23361000Y-18932400D02*
G75*
G02X23361000Y-16932400I0J1000000D01*
G01*
X4721000Y-12272400D02*
X1121000Y-12272400D01*
X4759478Y-12283922D02*
G75*
G02X2921000Y-16722400I-1838478J-1838478D01*
G01*
X1082522Y-12283922D02*
G75*
G03X2921000Y-16722400I1838478J-1838478D01*
G01*
X99426000Y-82017400D02*
X99426000Y-88267400D01*
X94376000Y-82017400D02*
X94376000Y-88267400D01*
X94376000Y-82017400D02*
G75*
G02X99426000Y-82017400I2525000J0D01*
G01*
X94376000Y-88267400D02*
G75*
G03X99426000Y-88267400I2525000J0D01*
G01*
X23361000Y-44872400D02*
X23361000Y-43102400D01*
X23361000Y-43102400D02*
X5341000Y-43102400D01*
X5341000Y-43102400D02*
X5341000Y-48642400D01*
X5341000Y-48642400D02*
X23361000Y-48642400D01*
X23361000Y-48642400D02*
X23361000Y-46872400D01*
X23361000Y-46872400D02*
G75*
G02X23361000Y-44872400I0J1000000D01*
G01*
X7521000Y-11682400D02*
X13521000Y-11682400D01*
X13521000Y-11682400D02*
X13521000Y-6402400D01*
X13521000Y-6402400D02*
X7521000Y-6402400D01*
X7521000Y-6402400D02*
X7521000Y-11682400D01*
X13521000Y-10312400D02*
X12521000Y-10312400D01*
X12521000Y-10312400D02*
X12521000Y-7772400D01*
X12521000Y-7772400D02*
X13521000Y-7772400D01*
X12521000Y-10312400D02*
X12091000Y-10062400D01*
X12091000Y-10062400D02*
X12091000Y-8022400D01*
X12091000Y-8022400D02*
X12521000Y-7772400D01*
X13521000Y-10062400D02*
X12521000Y-10062400D01*
X13521000Y-8022400D02*
X12521000Y-8022400D01*
X7521000Y-11112400D02*
X8141000Y-11112400D01*
X8141000Y-11112400D02*
X8141000Y-9512400D01*
X8141000Y-9512400D02*
X7521000Y-9512400D01*
X7521000Y-8572400D02*
X8141000Y-8572400D01*
X8141000Y-8572400D02*
X8141000Y-6972400D01*
X8141000Y-6972400D02*
X7521000Y-6972400D01*
X17491000Y-38542400D02*
X17491000Y-38212400D01*
X17491000Y-38212400D02*
X23911000Y-38212400D01*
X23911000Y-38212400D02*
X23911000Y-38542400D01*
X17491000Y-40502400D02*
X17491000Y-40832400D01*
X17491000Y-40832400D02*
X23911000Y-40832400D01*
X23911000Y-40832400D02*
X23911000Y-40502400D01*
X17491000Y-25842400D02*
X17491000Y-25512400D01*
X17491000Y-25512400D02*
X23911000Y-25512400D01*
X23911000Y-25512400D02*
X23911000Y-25842400D01*
X17491000Y-27802400D02*
X17491000Y-28132400D01*
X17491000Y-28132400D02*
X23911000Y-28132400D01*
X23911000Y-28132400D02*
X23911000Y-27802400D01*
X3211000Y-24952400D02*
X2881000Y-24952400D01*
X2881000Y-24952400D02*
X2881000Y-18532400D01*
X2881000Y-18532400D02*
X3211000Y-18532400D01*
X5171000Y-24952400D02*
X5501000Y-24952400D01*
X5501000Y-24952400D02*
X5501000Y-18532400D01*
X5501000Y-18532400D02*
X5171000Y-18532400D01*
X2631000Y-18532400D02*
X2961000Y-18532400D01*
X2961000Y-18532400D02*
X2961000Y-24952400D01*
X2961000Y-24952400D02*
X2631000Y-24952400D01*
X671000Y-18532400D02*
X341000Y-18532400D01*
X341000Y-18532400D02*
X341000Y-24952400D01*
X341000Y-24952400D02*
X671000Y-24952400D01*
D10*
X4191000Y-7512400D02*
X4191000Y-6312400D01*
X3591000Y-7512400D02*
X4791000Y-7512400D01*
X3591000Y-7912400D02*
X4191000Y-7912400D01*
X4791000Y-7912400D02*
X4191000Y-7912400D01*
X4191000Y-9312400D02*
X4191000Y-7912400D01*
X1651000Y-7512400D02*
X1651000Y-6312400D01*
X1051000Y-7512400D02*
X2251000Y-7512400D01*
X1051000Y-7912400D02*
X1651000Y-7912400D01*
X2251000Y-7912400D02*
X1651000Y-7912400D01*
X1651000Y-9312400D02*
X1651000Y-7912400D01*
X39751000Y-29702400D02*
X39751000Y-30902400D01*
X40351000Y-29702400D02*
X39151000Y-29702400D01*
X40351000Y-29302400D02*
X39751000Y-29302400D01*
X39151000Y-29302400D02*
X39751000Y-29302400D01*
X39751000Y-27902400D02*
X39751000Y-29302400D01*
X51441000Y-42062400D02*
X52641000Y-42062400D01*
X51441000Y-41462400D02*
X51441000Y-42662400D01*
X51041000Y-41462400D02*
X51041000Y-42062400D01*
X51041000Y-42662400D02*
X51041000Y-42062400D01*
X49641000Y-42062400D02*
X51041000Y-42062400D01*
X69221000Y-42062400D02*
X70421000Y-42062400D01*
X69221000Y-41462400D02*
X69221000Y-42662400D01*
X68821000Y-41462400D02*
X68821000Y-42062400D01*
X68821000Y-42662400D02*
X68821000Y-42062400D01*
X67421000Y-42062400D02*
X68821000Y-42062400D01*
X80391000Y-30292400D02*
X80391000Y-29092400D01*
X79791000Y-30292400D02*
X80991000Y-30292400D01*
X79791000Y-30692400D02*
X80391000Y-30692400D01*
X80991000Y-30692400D02*
X80391000Y-30692400D01*
X80391000Y-32092400D02*
X80391000Y-30692400D01*
X80391000Y-23272400D02*
X80391000Y-24472400D01*
X80991000Y-23272400D02*
X79791000Y-23272400D01*
X80991000Y-22872400D02*
X80391000Y-22872400D01*
X79791000Y-22872400D02*
X80391000Y-22872400D01*
X80391000Y-21472400D02*
X80391000Y-22872400D01*
X80391000Y-13112400D02*
X80391000Y-14312400D01*
X80991000Y-13112400D02*
X79791000Y-13112400D01*
X80991000Y-12712400D02*
X80391000Y-12712400D01*
X79791000Y-12712400D02*
X80391000Y-12712400D01*
X80391000Y-11312400D02*
X80391000Y-12712400D01*
X53461000Y-1422400D02*
X52261000Y-1422400D01*
X53461000Y-2022400D02*
X53461000Y-822400D01*
X53861000Y-2022400D02*
X53861000Y-1422400D01*
X53861000Y-822400D02*
X53861000Y-1422400D01*
X55261000Y-1422400D02*
X53861000Y-1422400D01*
X39751000Y-14382400D02*
X39751000Y-15582400D01*
X40351000Y-14382400D02*
X39151000Y-14382400D01*
X40351000Y-13982400D02*
X39751000Y-13982400D01*
X39151000Y-13982400D02*
X39751000Y-13982400D01*
X39751000Y-12582400D02*
X39751000Y-13982400D01*
X24511000Y-46882400D02*
X24511000Y-45682400D01*
X23911000Y-46882400D02*
X25111000Y-46882400D01*
X23911000Y-47282400D02*
X24511000Y-47282400D01*
X25111000Y-47282400D02*
X24511000Y-47282400D01*
X24511000Y-48682400D02*
X24511000Y-47282400D01*
X24511000Y-34182400D02*
X24511000Y-32982400D01*
X23911000Y-34182400D02*
X25111000Y-34182400D01*
X23911000Y-34582400D02*
X24511000Y-34582400D01*
X25111000Y-34582400D02*
X24511000Y-34582400D01*
X24511000Y-35982400D02*
X24511000Y-34582400D01*
X24511000Y-18942400D02*
X24511000Y-17742400D01*
X23911000Y-18942400D02*
X25111000Y-18942400D01*
X23911000Y-19342400D02*
X24511000Y-19342400D01*
X25111000Y-19342400D02*
X24511000Y-19342400D01*
X24511000Y-20742400D02*
X24511000Y-19342400D01*
X4451000Y-97942400D02*
X5651000Y-97942400D01*
X4451000Y-97342400D02*
X4451000Y-98542400D01*
X4051000Y-97342400D02*
X4051000Y-97942400D01*
X4051000Y-98542400D02*
X4051000Y-97942400D01*
X2651000Y-97942400D02*
X4051000Y-97942400D01*
X22231000Y-97942400D02*
X23431000Y-97942400D01*
X22231000Y-97342400D02*
X22231000Y-98542400D01*
X21831000Y-97342400D02*
X21831000Y-97942400D01*
X21831000Y-98542400D02*
X21831000Y-97942400D01*
X20431000Y-97942400D02*
X21831000Y-97942400D01*
X90811000Y-97942400D02*
X92011000Y-97942400D01*
X90811000Y-97342400D02*
X90811000Y-98542400D01*
X90411000Y-97342400D02*
X90411000Y-97942400D01*
X90411000Y-98542400D02*
X90411000Y-97942400D01*
X89011000Y-97942400D02*
X90411000Y-97942400D01*
X12071000Y-26822400D02*
X13271000Y-26822400D01*
X12071000Y-26222400D02*
X12071000Y-27422400D01*
X11671000Y-26222400D02*
X11671000Y-26822400D01*
X11671000Y-27422400D02*
X11671000Y-26822400D01*
X10271000Y-26822400D02*
X11671000Y-26822400D01*
X12071000Y-39522400D02*
X13271000Y-39522400D01*
X12071000Y-38922400D02*
X12071000Y-40122400D01*
X11671000Y-38922400D02*
X11671000Y-39522400D01*
X11671000Y-40122400D02*
X11671000Y-39522400D01*
X10271000Y-39522400D02*
X11671000Y-39522400D01*
X39751000Y-21482400D02*
X39751000Y-20282400D01*
X39151000Y-21482400D02*
X40351000Y-21482400D01*
X39151000Y-21882400D02*
X39751000Y-21882400D01*
X40351000Y-21882400D02*
X39751000Y-21882400D01*
X39751000Y-23282400D02*
X39751000Y-21882400D01*
X91821000Y-96672400D02*
X86741000Y-96672400D01*
X91821000Y-61112400D02*
X91821000Y-96672400D01*
X79121000Y-61112400D02*
X91821000Y-61112400D01*
X79121000Y-96672400D02*
X79121000Y-61112400D01*
X84201000Y-96672400D02*
X79121000Y-96672400D01*
X86741000Y-96672400D02*
G75*
G03X85471000Y-95402400I-1270000J0D01*
G01*
X85471000Y-95402400D02*
G75*
G03X84201000Y-96672400I0J-1270000D01*
G01*
X10541000Y-96672400D02*
X15621000Y-96672400D01*
X2921000Y-96672400D02*
X8001000Y-96672400D01*
X10541000Y-96672400D02*
G75*
G03X9271000Y-95402400I-1270000J0D01*
G01*
X9271000Y-95402400D02*
G75*
G03X8001000Y-96672400I0J-1270000D01*
G01*
X15679799Y-96613600D02*
X15679800Y-56091200D01*
X15679800Y-56091200D02*
X2862201Y-56091200D01*
X2862201Y-56091200D02*
X2862200Y-96613600D01*
X28321000Y-96672400D02*
X33401000Y-96672400D01*
X20701000Y-96672400D02*
X25781000Y-96672400D01*
X28321000Y-96672400D02*
G75*
G03X27051000Y-95402400I-1270000J0D01*
G01*
X27051000Y-95402400D02*
G75*
G03X25781000Y-96672400I0J-1270000D01*
G01*
X33459799Y-96613600D02*
X33459800Y-56091200D01*
X33459800Y-56091200D02*
X20642201Y-56091200D01*
X20642201Y-56091200D02*
X20642200Y-96613600D01*
X57531000Y-49422400D02*
X57531000Y-48222400D01*
X56931000Y-49422400D02*
X58131000Y-49422400D01*
X56931000Y-49822400D02*
X57531000Y-49822400D01*
X58131000Y-49822400D02*
X57531000Y-49822400D01*
X57531000Y-51222400D02*
X57531000Y-49822400D01*
X34671000Y-49422400D02*
X34671000Y-48222400D01*
X34071000Y-49422400D02*
X35271000Y-49422400D01*
X34071000Y-49822400D02*
X34671000Y-49822400D01*
X35271000Y-49822400D02*
X34671000Y-49822400D01*
X34671000Y-51222400D02*
X34671000Y-49822400D01*
D14*
X23411000Y-53622400D02*
X23411000Y-50822400D01*
X23411000Y-50822400D02*
X5291000Y-50822400D01*
X5291000Y-50822400D02*
X5291000Y-53622400D01*
X5291000Y-53622400D02*
X23411000Y-53622400D01*
X20701000Y-53622400D02*
X20701000Y-50822400D01*
X35483180Y-5141536D02*
G75*
G03X41518482Y-5142400I3017820J1179136D01*
G01*
X35483180Y-2783264D02*
G75*
G02X41518482Y-2782400I3017820J-1179136D01*
G01*
X35483180Y-2783264D02*
G75*
G03X35483518Y-5142400I3017820J-1179136D01*
G01*
X38501000Y-7162400D02*
X38501000Y-762400D01*
X38461000Y-7162400D02*
X38461000Y-762400D01*
X38421000Y-7162400D02*
X38421000Y-762400D01*
X38381000Y-7160400D02*
X38381000Y-764400D01*
X38341000Y-7159400D02*
X38341000Y-765400D01*
X38301000Y-7156400D02*
X38301000Y-768400D01*
X38261000Y-7154400D02*
X38261000Y-770400D01*
X38221000Y-7150400D02*
X38221000Y-4942400D01*
X38221000Y-2982400D02*
X38221000Y-774400D01*
X38181000Y-7147400D02*
X38181000Y-4942400D01*
X38181000Y-2982400D02*
X38181000Y-777400D01*
X38141000Y-7142400D02*
X38141000Y-4942400D01*
X38141000Y-2982400D02*
X38141000Y-782400D01*
X38101000Y-7138400D02*
X38101000Y-4942400D01*
X38101000Y-2982400D02*
X38101000Y-786400D01*
X38061000Y-7132400D02*
X38061000Y-4942400D01*
X38061000Y-2982400D02*
X38061000Y-792400D01*
X38021000Y-7127400D02*
X38021000Y-4942400D01*
X38021000Y-2982400D02*
X38021000Y-797400D01*
X37981000Y-7120400D02*
X37981000Y-4942400D01*
X37981000Y-2982400D02*
X37981000Y-804400D01*
X37941000Y-7114400D02*
X37941000Y-4942400D01*
X37941000Y-2982400D02*
X37941000Y-810400D01*
X37901000Y-7106400D02*
X37901000Y-4942400D01*
X37901000Y-2982400D02*
X37901000Y-818400D01*
X37861000Y-7099400D02*
X37861000Y-4942400D01*
X37861000Y-2982400D02*
X37861000Y-825400D01*
X37821000Y-7090400D02*
X37821000Y-4942400D01*
X37821000Y-2982400D02*
X37821000Y-834400D01*
X37780000Y-7081400D02*
X37780000Y-4942400D01*
X37780000Y-2982400D02*
X37780000Y-843400D01*
X37740000Y-7072400D02*
X37740000Y-4942400D01*
X37740000Y-2982400D02*
X37740000Y-852400D01*
X37700000Y-7062400D02*
X37700000Y-4942400D01*
X37700000Y-2982400D02*
X37700000Y-862400D01*
X37660000Y-7052400D02*
X37660000Y-4942400D01*
X37660000Y-2982400D02*
X37660000Y-872400D01*
X37620000Y-7041400D02*
X37620000Y-4942400D01*
X37620000Y-2982400D02*
X37620000Y-883400D01*
X37580000Y-7029400D02*
X37580000Y-4942400D01*
X37580000Y-2982400D02*
X37580000Y-895400D01*
X37540000Y-7017400D02*
X37540000Y-4942400D01*
X37540000Y-2982400D02*
X37540000Y-907400D01*
X37500000Y-7004400D02*
X37500000Y-4942400D01*
X37500000Y-2982400D02*
X37500000Y-920400D01*
X37460000Y-6991400D02*
X37460000Y-4942400D01*
X37460000Y-2982400D02*
X37460000Y-933400D01*
X37420000Y-6977400D02*
X37420000Y-4942400D01*
X37420000Y-2982400D02*
X37420000Y-947400D01*
X37380000Y-6963400D02*
X37380000Y-4942400D01*
X37380000Y-2982400D02*
X37380000Y-961400D01*
X37340000Y-6948400D02*
X37340000Y-4942400D01*
X37340000Y-2982400D02*
X37340000Y-976400D01*
X37300000Y-6932400D02*
X37300000Y-4942400D01*
X37300000Y-2982400D02*
X37300000Y-992400D01*
X37260000Y-6916400D02*
X37260000Y-4942400D01*
X37260000Y-2982400D02*
X37260000Y-1008400D01*
X37220000Y-6899400D02*
X37220000Y-4942400D01*
X37220000Y-2982400D02*
X37220000Y-1025400D01*
X37180000Y-6881400D02*
X37180000Y-4942400D01*
X37180000Y-2982400D02*
X37180000Y-1043400D01*
X37140000Y-6863400D02*
X37140000Y-4942400D01*
X37140000Y-2982400D02*
X37140000Y-1061400D01*
X37100000Y-6844400D02*
X37100000Y-4942400D01*
X37100000Y-2982400D02*
X37100000Y-1080400D01*
X37060000Y-6825400D02*
X37060000Y-4942400D01*
X37060000Y-2982400D02*
X37060000Y-1099400D01*
X37020000Y-6805400D02*
X37020000Y-4942400D01*
X37020000Y-2982400D02*
X37020000Y-1119400D01*
X36980000Y-6784400D02*
X36980000Y-4942400D01*
X36980000Y-2982400D02*
X36980000Y-1140400D01*
X36940000Y-6762400D02*
X36940000Y-4942400D01*
X36940000Y-2982400D02*
X36940000Y-1162400D01*
X36900000Y-6740400D02*
X36900000Y-4942400D01*
X36900000Y-2982400D02*
X36900000Y-1184400D01*
X36860000Y-6717400D02*
X36860000Y-4942400D01*
X36860000Y-2982400D02*
X36860000Y-1207400D01*
X36820000Y-6693400D02*
X36820000Y-4942400D01*
X36820000Y-2982400D02*
X36820000Y-1231400D01*
X36780000Y-6668400D02*
X36780000Y-4942400D01*
X36780000Y-2982400D02*
X36780000Y-1256400D01*
X36740000Y-6643400D02*
X36740000Y-4942400D01*
X36740000Y-2982400D02*
X36740000Y-1281400D01*
X36700000Y-6616400D02*
X36700000Y-4942400D01*
X36700000Y-2982400D02*
X36700000Y-1308400D01*
X36660000Y-6589400D02*
X36660000Y-4942400D01*
X36660000Y-2982400D02*
X36660000Y-1335400D01*
X36620000Y-6561400D02*
X36620000Y-4942400D01*
X36620000Y-2982400D02*
X36620000Y-1363400D01*
X36580000Y-6532400D02*
X36580000Y-4942400D01*
X36580000Y-2982400D02*
X36580000Y-1392400D01*
X36540000Y-6502400D02*
X36540000Y-4942400D01*
X36540000Y-2982400D02*
X36540000Y-1422400D01*
X36500000Y-6472400D02*
X36500000Y-4942400D01*
X36500000Y-2982400D02*
X36500000Y-1452400D01*
X36460000Y-6440400D02*
X36460000Y-4942400D01*
X36460000Y-2982400D02*
X36460000Y-1484400D01*
X36420000Y-6407400D02*
X36420000Y-4942400D01*
X36420000Y-2982400D02*
X36420000Y-1517400D01*
X36380000Y-6373400D02*
X36380000Y-4942400D01*
X36380000Y-2982400D02*
X36380000Y-1551400D01*
X36340000Y-6337400D02*
X36340000Y-4942400D01*
X36340000Y-2982400D02*
X36340000Y-1587400D01*
X36300000Y-6301400D02*
X36300000Y-4942400D01*
X36300000Y-2982400D02*
X36300000Y-1623400D01*
X36260000Y-6263400D02*
X36260000Y-1661400D01*
X36220000Y-6224400D02*
X36220000Y-1700400D01*
X36180000Y-6184400D02*
X36180000Y-1740400D01*
X36140000Y-6142400D02*
X36140000Y-1782400D01*
X36100000Y-6099400D02*
X36100000Y-1825400D01*
X36060000Y-6054400D02*
X36060000Y-1870400D01*
X36020000Y-6007400D02*
X36020000Y-1917400D01*
X35980000Y-5959400D02*
X35980000Y-1965400D01*
X35940000Y-5908400D02*
X35940000Y-2016400D01*
X35900000Y-5856400D02*
X35900000Y-2068400D01*
X35860000Y-5801400D02*
X35860000Y-2123400D01*
X35820000Y-5743400D02*
X35820000Y-2181400D01*
X35780000Y-5683400D02*
X35780000Y-2241400D01*
X35740000Y-5620400D02*
X35740000Y-2304400D01*
X35700000Y-5553400D02*
X35700000Y-2371400D01*
X35660000Y-5482400D02*
X35660000Y-2442400D01*
X35620000Y-5407400D02*
X35620000Y-2517400D01*
X35580000Y-5326400D02*
X35580000Y-2598400D01*
X35540000Y-5240400D02*
X35540000Y-2684400D01*
X35500000Y-5146400D02*
X35500000Y-2778400D01*
X35460000Y-5043400D02*
X35460000Y-2881400D01*
X35420000Y-4928400D02*
X35420000Y-2996400D01*
X35380000Y-4796400D02*
X35380000Y-3128400D01*
X35340000Y-4638400D02*
X35340000Y-3286400D01*
X35300000Y-4430400D02*
X35300000Y-3494400D01*
X41951000Y-3962400D02*
X40751000Y-3962400D01*
X41351000Y-4612400D02*
X41351000Y-3312400D01*
X24362665Y-12661008D02*
G75*
G03X27595000Y-12817916I1672335J1078608D01*
G01*
X24362665Y-10503792D02*
G75*
G02X27595000Y-10346884I1672335J-1078608D01*
G01*
X24993870Y-12662237D02*
G75*
G03X27075961Y-12662400I1041130J1079837D01*
G01*
X24993870Y-10502563D02*
G75*
G02X27075961Y-10502400I1041130J-1079837D01*
G01*
X27595000Y-12818400D02*
X27595000Y-12662400D01*
X27595000Y-10502400D02*
X27595000Y-10346400D01*
X15586000Y-10602400D02*
X15586000Y-10272400D01*
X15586000Y-10272400D02*
X22006000Y-10272400D01*
X22006000Y-10272400D02*
X22006000Y-10602400D01*
X15586000Y-12562400D02*
X15586000Y-12892400D01*
X15586000Y-12892400D02*
X22006000Y-12892400D01*
X22006000Y-12892400D02*
X22006000Y-12562400D01*
X98211000Y-96672400D02*
X95591000Y-96672400D01*
X98211000Y-91552400D02*
X95591000Y-91552400D01*
X95591000Y-91552400D02*
X95591000Y-96672400D01*
X98211000Y-91552400D02*
X98211000Y-96672400D01*
X95591000Y-78932400D02*
X95591000Y-73812400D01*
X98211000Y-78932400D02*
X98211000Y-73812400D01*
X95591000Y-78932400D02*
X98211000Y-78932400D01*
X95591000Y-73812400D02*
X98211000Y-73812400D01*
X21931000Y-1977400D02*
X32171000Y-1977400D01*
X21931000Y-6618400D02*
X32171000Y-6618400D01*
X21931000Y-1977400D02*
X21931000Y-6618400D01*
X32171000Y-1977400D02*
X32171000Y-6618400D01*
X21931000Y-3487400D02*
X32171000Y-3487400D01*
X25201000Y-1977400D02*
X25201000Y-3487400D01*
X28902000Y-1977400D02*
X28902000Y-3487400D01*
D10*
X93091000Y-43602400D02*
X93091000Y-42202400D01*
X93691000Y-42202400D02*
X93091000Y-42202400D01*
X92491000Y-42202400D02*
X93091000Y-42202400D01*
X92491000Y-41802400D02*
X93691000Y-41802400D01*
X93091000Y-41802400D02*
X93091000Y-40602400D01*
X80391000Y-43602400D02*
X80391000Y-42202400D01*
X80991000Y-42202400D02*
X80391000Y-42202400D01*
X79791000Y-42202400D02*
X80391000Y-42202400D01*
X79791000Y-41802400D02*
X80991000Y-41802400D01*
X80391000Y-41802400D02*
X80391000Y-40602400D01*
X100971000Y-36982400D02*
X102171000Y-36982400D01*
X100971000Y-36382400D02*
X100971000Y-37582400D01*
X100571000Y-36382400D02*
X100571000Y-36982400D01*
X100571000Y-37582400D02*
X100571000Y-36982400D01*
X99171000Y-36982400D02*
X100571000Y-36982400D01*
X93091000Y-49422400D02*
X93091000Y-48222400D01*
X92491000Y-49422400D02*
X93691000Y-49422400D01*
X92491000Y-49822400D02*
X93091000Y-49822400D01*
X93691000Y-49822400D02*
X93091000Y-49822400D01*
X93091000Y-51222400D02*
X93091000Y-49822400D01*
X80391000Y-49422400D02*
X80391000Y-48222400D01*
X79791000Y-49422400D02*
X80991000Y-49422400D01*
X79791000Y-49822400D02*
X80391000Y-49822400D01*
X80991000Y-49822400D02*
X80391000Y-49822400D01*
X80391000Y-51222400D02*
X80391000Y-49822400D01*
X93351000Y-36982400D02*
X94551000Y-36982400D01*
X93351000Y-36382400D02*
X93351000Y-37582400D01*
X92951000Y-36382400D02*
X92951000Y-36982400D01*
X92951000Y-37582400D02*
X92951000Y-36982400D01*
X91551000Y-36982400D02*
X92951000Y-36982400D01*
X83931000Y-36982400D02*
X85331000Y-36982400D01*
X85331000Y-37582400D02*
X85331000Y-36982400D01*
X85331000Y-36382400D02*
X85331000Y-36982400D01*
X85731000Y-36382400D02*
X85731000Y-37582400D01*
X85731000Y-36982400D02*
X86931000Y-36982400D01*
X93091000Y-58842400D02*
X93091000Y-57442400D01*
X93691000Y-57442400D02*
X93091000Y-57442400D01*
X92491000Y-57442400D02*
X93091000Y-57442400D01*
X92491000Y-57042400D02*
X93691000Y-57042400D01*
X93091000Y-57042400D02*
X93091000Y-55842400D01*
X80391000Y-57042400D02*
X80391000Y-55842400D01*
X79791000Y-57042400D02*
X80991000Y-57042400D01*
X79791000Y-57442400D02*
X80391000Y-57442400D01*
X80991000Y-57442400D02*
X80391000Y-57442400D01*
X80391000Y-58842400D02*
X80391000Y-57442400D01*
D14*
X98441000Y-38132400D02*
X96671000Y-38132400D01*
X96671000Y-38132400D02*
X96671000Y-58692400D01*
X96671000Y-58692400D02*
X102211000Y-58692400D01*
X102211000Y-58692400D02*
X102211000Y-38132400D01*
X102211000Y-38132400D02*
X100441000Y-38132400D01*
X100441000Y-38132400D02*
G75*
G02X98441000Y-38132400I-1000000J0D01*
G01*
D10*
X100711000Y-22072400D02*
X101311000Y-22672400D01*
X100111000Y-22672400D02*
X100711000Y-22072400D01*
X101311000Y-22672400D02*
X100111000Y-22672400D01*
X94871000Y-23122400D02*
X94871000Y-22622400D01*
X94771000Y-22622400D02*
X94971000Y-22622400D01*
X94771000Y-23122400D02*
X94771000Y-22622400D01*
X94971000Y-23122400D02*
X94771000Y-23122400D01*
X94871000Y-8162400D02*
X94871000Y-7662400D01*
X94771000Y-7662400D02*
X94971000Y-7662400D01*
X94771000Y-8162400D02*
X94771000Y-7662400D01*
X94971000Y-8162400D02*
X94771000Y-8162400D01*
X94871000Y-15642400D02*
X94871000Y-15142400D01*
X94771000Y-15142400D02*
X94971000Y-15142400D01*
X94771000Y-15642400D02*
X94771000Y-15142400D01*
X94971000Y-15642400D02*
X94771000Y-15642400D01*
X102611000Y-13167400D02*
X103911000Y-13167400D01*
X102611000Y-6442400D02*
X102611000Y-13167400D01*
X96271000Y-6442400D02*
X102611000Y-6442400D01*
X96271000Y-24342400D02*
X96271000Y-6442400D01*
X102611000Y-24342400D02*
X96271000Y-24342400D01*
X102611000Y-17617400D02*
X102611000Y-24342400D01*
X103911000Y-17617400D02*
X102611000Y-17617400D01*
X103911000Y-5242400D02*
X103911000Y-25542400D01*
X94971000Y-5242400D02*
X103911000Y-5242400D01*
X94971000Y-25542400D02*
X94971000Y-5242400D01*
X103911000Y-25542400D02*
X94971000Y-25542400D01*
X85553704Y-42606980D02*
X85553704Y-43416504D01*
X85601323Y-43511742D01*
X85648942Y-43559361D01*
X85744180Y-43606980D01*
X85934657Y-43606980D01*
X86029895Y-43559361D01*
X86077514Y-43511742D01*
X86125133Y-43416504D01*
X86125133Y-42606980D01*
X87125133Y-43606980D02*
X86553704Y-43606980D01*
X86839419Y-43606980D02*
X86839419Y-42606980D01*
X86744180Y-42749838D01*
X86648942Y-42845076D01*
X86553704Y-42892695D01*
X88077514Y-43606980D02*
X87506085Y-43606980D01*
X87791800Y-43606980D02*
X87791800Y-42606980D01*
X87696561Y-42749838D01*
X87601323Y-42845076D01*
X87506085Y-42892695D01*
X12858904Y-620780D02*
X12858904Y-1430304D01*
X12906523Y-1525542D01*
X12954142Y-1573161D01*
X13049380Y-1620780D01*
X13239857Y-1620780D01*
X13335095Y-1573161D01*
X13382714Y-1525542D01*
X13430333Y-1430304D01*
X13430333Y-620780D01*
X14430333Y-1620780D02*
X13858904Y-1620780D01*
X14144619Y-1620780D02*
X14144619Y-620780D01*
X14049380Y-763638D01*
X13954142Y-858876D01*
X13858904Y-906495D01*
X15287476Y-954114D02*
X15287476Y-1620780D01*
X15049380Y-573161D02*
X14811285Y-1287447D01*
X15430333Y-1287447D01*
X92560200Y-23066457D02*
X92560200Y-23923600D01*
X92503057Y-24095028D01*
X92388771Y-24209314D01*
X92217342Y-24266457D01*
X92103057Y-24266457D01*
X93645914Y-23466457D02*
X93645914Y-24266457D01*
X93360200Y-23009314D02*
X93074485Y-23866457D01*
X93817342Y-23866457D01*
X66929095Y-874780D02*
X66929095Y-1684304D01*
X66976714Y-1779542D01*
X67024333Y-1827161D01*
X67119571Y-1874780D01*
X67310047Y-1874780D01*
X67405285Y-1827161D01*
X67452904Y-1779542D01*
X67500523Y-1684304D01*
X67500523Y-874780D01*
X68405285Y-1208114D02*
X68405285Y-1874780D01*
X68167190Y-827161D02*
X67929095Y-1541447D01*
X68548142Y-1541447D01*
X70374333Y-1350971D02*
X70707666Y-1350971D01*
X70850523Y-1874780D02*
X70374333Y-1874780D01*
X70374333Y-874780D01*
X70850523Y-874780D01*
X71279095Y-1874780D02*
X71279095Y-874780D01*
X71660047Y-874780D01*
X71755285Y-922400D01*
X71802904Y-970019D01*
X71850523Y-1065257D01*
X71850523Y-1208114D01*
X71802904Y-1303352D01*
X71755285Y-1350971D01*
X71660047Y-1398590D01*
X71279095Y-1398590D01*
X72279095Y-1874780D02*
X72279095Y-874780D01*
X72612428Y-1589066D01*
X72945761Y-874780D01*
X72945761Y-1874780D01*
X73326714Y-874780D02*
X73993380Y-874780D01*
X73564809Y-1874780D01*
X74898142Y-1874780D02*
X74326714Y-1874780D01*
X74612428Y-1874780D02*
X74612428Y-874780D01*
X74517190Y-1017638D01*
X74421952Y-1112876D01*
X74326714Y-1160495D01*
X75279095Y-970019D02*
X75326714Y-922400D01*
X75421952Y-874780D01*
X75660047Y-874780D01*
X75755285Y-922400D01*
X75802904Y-970019D01*
X75850523Y-1065257D01*
X75850523Y-1160495D01*
X75802904Y-1303352D01*
X75231476Y-1874780D01*
X75850523Y-1874780D01*
X76421952Y-1303352D02*
X76326714Y-1255733D01*
X76279095Y-1208114D01*
X76231476Y-1112876D01*
X76231476Y-1065257D01*
X76279095Y-970019D01*
X76326714Y-922400D01*
X76421952Y-874780D01*
X76612428Y-874780D01*
X76707666Y-922400D01*
X76755285Y-970019D01*
X76802904Y-1065257D01*
X76802904Y-1112876D01*
X76755285Y-1208114D01*
X76707666Y-1255733D01*
X76612428Y-1303352D01*
X76421952Y-1303352D01*
X76326714Y-1350971D01*
X76279095Y-1398590D01*
X76231476Y-1493828D01*
X76231476Y-1684304D01*
X76279095Y-1779542D01*
X76326714Y-1827161D01*
X76421952Y-1874780D01*
X76612428Y-1874780D01*
X76707666Y-1827161D01*
X76755285Y-1779542D01*
X76802904Y-1684304D01*
X76802904Y-1493828D01*
X76755285Y-1398590D01*
X76707666Y-1350971D01*
X76612428Y-1303352D01*
X77183857Y-1827161D02*
X77326714Y-1874780D01*
X77564809Y-1874780D01*
X77660047Y-1827161D01*
X77707666Y-1779542D01*
X77755285Y-1684304D01*
X77755285Y-1589066D01*
X77707666Y-1493828D01*
X77660047Y-1446209D01*
X77564809Y-1398590D01*
X77374333Y-1350971D01*
X77279095Y-1303352D01*
X77231476Y-1255733D01*
X77183857Y-1160495D01*
X77183857Y-1065257D01*
X77231476Y-970019D01*
X77279095Y-922400D01*
X77374333Y-874780D01*
X77612428Y-874780D01*
X77755285Y-922400D01*
X27138380Y-42395733D02*
X27852666Y-42395733D01*
X27995523Y-42443352D01*
X28090761Y-42538590D01*
X28138380Y-42681447D01*
X28138380Y-42776685D01*
X28138380Y-41395733D02*
X28138380Y-41967161D01*
X28138380Y-41681447D02*
X27138380Y-41681447D01*
X27281238Y-41776685D01*
X27376476Y-41871923D01*
X27424095Y-41967161D01*
X36877666Y-44689780D02*
X36877666Y-45404066D01*
X36830047Y-45546923D01*
X36734809Y-45642161D01*
X36591952Y-45689780D01*
X36496714Y-45689780D01*
X37306238Y-44785019D02*
X37353857Y-44737400D01*
X37449095Y-44689780D01*
X37687190Y-44689780D01*
X37782428Y-44737400D01*
X37830047Y-44785019D01*
X37877666Y-44880257D01*
X37877666Y-44975495D01*
X37830047Y-45118352D01*
X37258619Y-45689780D01*
X37877666Y-45689780D01*
X42799095Y-44204780D02*
X42799095Y-45014304D01*
X42846714Y-45109542D01*
X42894333Y-45157161D01*
X42989571Y-45204780D01*
X43180047Y-45204780D01*
X43275285Y-45157161D01*
X43322904Y-45109542D01*
X43370523Y-45014304D01*
X43370523Y-44204780D01*
X44370523Y-45204780D02*
X43799095Y-45204780D01*
X44084809Y-45204780D02*
X44084809Y-44204780D01*
X43989571Y-44347638D01*
X43894333Y-44442876D01*
X43799095Y-44490495D01*
X46132904Y-44204780D02*
X45942428Y-44204780D01*
X45847190Y-44252400D01*
X45799571Y-44300019D01*
X45704333Y-44442876D01*
X45656714Y-44633352D01*
X45656714Y-45014304D01*
X45704333Y-45109542D01*
X45751952Y-45157161D01*
X45847190Y-45204780D01*
X46037666Y-45204780D01*
X46132904Y-45157161D01*
X46180523Y-45109542D01*
X46228142Y-45014304D01*
X46228142Y-44776209D01*
X46180523Y-44680971D01*
X46132904Y-44633352D01*
X46037666Y-44585733D01*
X45847190Y-44585733D01*
X45751952Y-44633352D01*
X45704333Y-44680971D01*
X45656714Y-44776209D01*
X47132904Y-44204780D02*
X46656714Y-44204780D01*
X46609095Y-44680971D01*
X46656714Y-44633352D01*
X46751952Y-44585733D01*
X46990047Y-44585733D01*
X47085285Y-44633352D01*
X47132904Y-44680971D01*
X47180523Y-44776209D01*
X47180523Y-45014304D01*
X47132904Y-45109542D01*
X47085285Y-45157161D01*
X46990047Y-45204780D01*
X46751952Y-45204780D01*
X46656714Y-45157161D01*
X46609095Y-45109542D01*
X47799571Y-44204780D02*
X47894809Y-44204780D01*
X47990047Y-44252400D01*
X48037666Y-44300019D01*
X48085285Y-44395257D01*
X48132904Y-44585733D01*
X48132904Y-44823828D01*
X48085285Y-45014304D01*
X48037666Y-45109542D01*
X47990047Y-45157161D01*
X47894809Y-45204780D01*
X47799571Y-45204780D01*
X47704333Y-45157161D01*
X47656714Y-45109542D01*
X47609095Y-45014304D01*
X47561476Y-44823828D01*
X47561476Y-44585733D01*
X47609095Y-44395257D01*
X47656714Y-44300019D01*
X47704333Y-44252400D01*
X47799571Y-44204780D01*
X48513857Y-44300019D02*
X48561476Y-44252400D01*
X48656714Y-44204780D01*
X48894809Y-44204780D01*
X48990047Y-44252400D01*
X49037666Y-44300019D01*
X49085285Y-44395257D01*
X49085285Y-44490495D01*
X49037666Y-44633352D01*
X48466238Y-45204780D01*
X49085285Y-45204780D01*
X62484095Y-44204780D02*
X62484095Y-45014304D01*
X62531714Y-45109542D01*
X62579333Y-45157161D01*
X62674571Y-45204780D01*
X62865047Y-45204780D01*
X62960285Y-45157161D01*
X63007904Y-45109542D01*
X63055523Y-45014304D01*
X63055523Y-44204780D01*
X63484095Y-44300019D02*
X63531714Y-44252400D01*
X63626952Y-44204780D01*
X63865047Y-44204780D01*
X63960285Y-44252400D01*
X64007904Y-44300019D01*
X64055523Y-44395257D01*
X64055523Y-44490495D01*
X64007904Y-44633352D01*
X63436476Y-45204780D01*
X64055523Y-45204780D01*
X66000523Y-44204780D02*
X65810047Y-44204780D01*
X65714809Y-44252400D01*
X65667190Y-44300019D01*
X65571952Y-44442876D01*
X65524333Y-44633352D01*
X65524333Y-45014304D01*
X65571952Y-45109542D01*
X65619571Y-45157161D01*
X65714809Y-45204780D01*
X65905285Y-45204780D01*
X66000523Y-45157161D01*
X66048142Y-45109542D01*
X66095761Y-45014304D01*
X66095761Y-44776209D01*
X66048142Y-44680971D01*
X66000523Y-44633352D01*
X65905285Y-44585733D01*
X65714809Y-44585733D01*
X65619571Y-44633352D01*
X65571952Y-44680971D01*
X65524333Y-44776209D01*
X66667190Y-44633352D02*
X66571952Y-44585733D01*
X66524333Y-44538114D01*
X66476714Y-44442876D01*
X66476714Y-44395257D01*
X66524333Y-44300019D01*
X66571952Y-44252400D01*
X66667190Y-44204780D01*
X66857666Y-44204780D01*
X66952904Y-44252400D01*
X67000523Y-44300019D01*
X67048142Y-44395257D01*
X67048142Y-44442876D01*
X67000523Y-44538114D01*
X66952904Y-44585733D01*
X66857666Y-44633352D01*
X66667190Y-44633352D01*
X66571952Y-44680971D01*
X66524333Y-44728590D01*
X66476714Y-44823828D01*
X66476714Y-45014304D01*
X66524333Y-45109542D01*
X66571952Y-45157161D01*
X66667190Y-45204780D01*
X66857666Y-45204780D01*
X66952904Y-45157161D01*
X67000523Y-45109542D01*
X67048142Y-45014304D01*
X67048142Y-44823828D01*
X67000523Y-44728590D01*
X66952904Y-44680971D01*
X66857666Y-44633352D01*
X67667190Y-44204780D02*
X67762428Y-44204780D01*
X67857666Y-44252400D01*
X67905285Y-44300019D01*
X67952904Y-44395257D01*
X68000523Y-44585733D01*
X68000523Y-44823828D01*
X67952904Y-45014304D01*
X67905285Y-45109542D01*
X67857666Y-45157161D01*
X67762428Y-45204780D01*
X67667190Y-45204780D01*
X67571952Y-45157161D01*
X67524333Y-45109542D01*
X67476714Y-45014304D01*
X67429095Y-44823828D01*
X67429095Y-44585733D01*
X67476714Y-44395257D01*
X67524333Y-44300019D01*
X67571952Y-44252400D01*
X67667190Y-44204780D01*
X68476714Y-45204780D02*
X68667190Y-45204780D01*
X68762428Y-45157161D01*
X68810047Y-45109542D01*
X68905285Y-44966685D01*
X68952904Y-44776209D01*
X68952904Y-44395257D01*
X68905285Y-44300019D01*
X68857666Y-44252400D01*
X68762428Y-44204780D01*
X68571952Y-44204780D01*
X68476714Y-44252400D01*
X68429095Y-44300019D01*
X68381476Y-44395257D01*
X68381476Y-44633352D01*
X68429095Y-44728590D01*
X68476714Y-44776209D01*
X68571952Y-44823828D01*
X68762428Y-44823828D01*
X68857666Y-44776209D01*
X68905285Y-44728590D01*
X68952904Y-44633352D01*
X69381476Y-44680971D02*
X69714809Y-44680971D01*
X69857666Y-45204780D02*
X69381476Y-45204780D01*
X69381476Y-44204780D01*
X69857666Y-44204780D01*
X23907904Y-29449780D02*
X23907904Y-30259304D01*
X23955523Y-30354542D01*
X24003142Y-30402161D01*
X24098380Y-30449780D01*
X24288857Y-30449780D01*
X24384095Y-30402161D01*
X24431714Y-30354542D01*
X24479333Y-30259304D01*
X24479333Y-29449780D01*
X25479333Y-30449780D02*
X24907904Y-30449780D01*
X25193619Y-30449780D02*
X25193619Y-29449780D01*
X25098380Y-29592638D01*
X25003142Y-29687876D01*
X24907904Y-29735495D01*
X26098380Y-29449780D02*
X26193619Y-29449780D01*
X26288857Y-29497400D01*
X26336476Y-29545019D01*
X26384095Y-29640257D01*
X26431714Y-29830733D01*
X26431714Y-30068828D01*
X26384095Y-30259304D01*
X26336476Y-30354542D01*
X26288857Y-30402161D01*
X26193619Y-30449780D01*
X26098380Y-30449780D01*
X26003142Y-30402161D01*
X25955523Y-30354542D01*
X25907904Y-30259304D01*
X25860285Y-30068828D01*
X25860285Y-29830733D01*
X25907904Y-29640257D01*
X25955523Y-29545019D01*
X26003142Y-29497400D01*
X26098380Y-29449780D01*
X9961952Y-32624780D02*
X10628619Y-32624780D01*
X10200047Y-33624780D01*
X11438142Y-32958114D02*
X11438142Y-33624780D01*
X11200047Y-32577161D02*
X10961952Y-33291447D01*
X11581000Y-33291447D01*
X12438142Y-33624780D02*
X11961952Y-33624780D01*
X11961952Y-32624780D01*
X12723857Y-33577161D02*
X12866714Y-33624780D01*
X13104809Y-33624780D01*
X13200047Y-33577161D01*
X13247666Y-33529542D01*
X13295285Y-33434304D01*
X13295285Y-33339066D01*
X13247666Y-33243828D01*
X13200047Y-33196209D01*
X13104809Y-33148590D01*
X12914333Y-33100971D01*
X12819095Y-33053352D01*
X12771476Y-33005733D01*
X12723857Y-32910495D01*
X12723857Y-32815257D01*
X12771476Y-32720019D01*
X12819095Y-32672400D01*
X12914333Y-32624780D01*
X13152428Y-32624780D01*
X13295285Y-32672400D01*
X14247666Y-33624780D02*
X13676238Y-33624780D01*
X13961952Y-33624780D02*
X13961952Y-32624780D01*
X13866714Y-32767638D01*
X13771476Y-32862876D01*
X13676238Y-32910495D01*
X14628619Y-32720019D02*
X14676238Y-32672400D01*
X14771476Y-32624780D01*
X15009571Y-32624780D01*
X15104809Y-32672400D01*
X15152428Y-32720019D01*
X15200047Y-32815257D01*
X15200047Y-32910495D01*
X15152428Y-33053352D01*
X14581000Y-33624780D01*
X15200047Y-33624780D01*
X15533380Y-32624780D02*
X16152428Y-32624780D01*
X15819095Y-33005733D01*
X15961952Y-33005733D01*
X16057190Y-33053352D01*
X16104809Y-33100971D01*
X16152428Y-33196209D01*
X16152428Y-33434304D01*
X16104809Y-33529542D01*
X16057190Y-33577161D01*
X15961952Y-33624780D01*
X15676238Y-33624780D01*
X15581000Y-33577161D01*
X15533380Y-33529542D01*
X23599095Y-14209780D02*
X23599095Y-15019304D01*
X23646714Y-15114542D01*
X23694333Y-15162161D01*
X23789571Y-15209780D01*
X23980047Y-15209780D01*
X24075285Y-15162161D01*
X24122904Y-15114542D01*
X24170523Y-15019304D01*
X24170523Y-14209780D01*
X24551476Y-14209780D02*
X25170523Y-14209780D01*
X24837190Y-14590733D01*
X24980047Y-14590733D01*
X25075285Y-14638352D01*
X25122904Y-14685971D01*
X25170523Y-14781209D01*
X25170523Y-15019304D01*
X25122904Y-15114542D01*
X25075285Y-15162161D01*
X24980047Y-15209780D01*
X24694333Y-15209780D01*
X24599095Y-15162161D01*
X24551476Y-15114542D01*
X11184333Y-17384780D02*
X11851000Y-17384780D01*
X11422428Y-18384780D01*
X12660523Y-17718114D02*
X12660523Y-18384780D01*
X12422428Y-17337161D02*
X12184333Y-18051447D01*
X12803380Y-18051447D01*
X13184333Y-18384780D02*
X13184333Y-17384780D01*
X13184333Y-17860971D02*
X13755761Y-17860971D01*
X13755761Y-18384780D02*
X13755761Y-17384780D01*
X14803380Y-18289542D02*
X14755761Y-18337161D01*
X14612904Y-18384780D01*
X14517666Y-18384780D01*
X14374809Y-18337161D01*
X14279571Y-18241923D01*
X14231952Y-18146685D01*
X14184333Y-17956209D01*
X14184333Y-17813352D01*
X14231952Y-17622876D01*
X14279571Y-17527638D01*
X14374809Y-17432400D01*
X14517666Y-17384780D01*
X14612904Y-17384780D01*
X14755761Y-17432400D01*
X14803380Y-17480019D01*
X15089095Y-17384780D02*
X15660523Y-17384780D01*
X15374809Y-18384780D02*
X15374809Y-17384780D01*
X16517666Y-18384780D02*
X15946238Y-18384780D01*
X16231952Y-18384780D02*
X16231952Y-17384780D01*
X16136714Y-17527638D01*
X16041476Y-17622876D01*
X15946238Y-17670495D01*
X17470047Y-18384780D02*
X16898619Y-18384780D01*
X17184333Y-18384780D02*
X17184333Y-17384780D01*
X17089095Y-17527638D01*
X16993857Y-17622876D01*
X16898619Y-17670495D01*
X2825761Y-12765019D02*
X2730523Y-12717400D01*
X2635285Y-12622161D01*
X2492428Y-12479304D01*
X2397190Y-12431685D01*
X2301952Y-12431685D01*
X2349571Y-12669780D02*
X2254333Y-12622161D01*
X2159095Y-12526923D01*
X2111476Y-12336447D01*
X2111476Y-12003114D01*
X2159095Y-11812638D01*
X2254333Y-11717400D01*
X2349571Y-11669780D01*
X2540047Y-11669780D01*
X2635285Y-11717400D01*
X2730523Y-11812638D01*
X2778142Y-12003114D01*
X2778142Y-12336447D01*
X2730523Y-12526923D01*
X2635285Y-12622161D01*
X2540047Y-12669780D01*
X2349571Y-12669780D01*
X3730523Y-12669780D02*
X3159095Y-12669780D01*
X3444809Y-12669780D02*
X3444809Y-11669780D01*
X3349571Y-11812638D01*
X3254333Y-11907876D01*
X3159095Y-11955495D01*
X96091476Y-84524780D02*
X96758142Y-85524780D01*
X96758142Y-84524780D02*
X96091476Y-85524780D01*
X97662904Y-85524780D02*
X97091476Y-85524780D01*
X97377190Y-85524780D02*
X97377190Y-84524780D01*
X97281952Y-84667638D01*
X97186714Y-84762876D01*
X97091476Y-84810495D01*
X24282476Y-42640304D02*
X24282476Y-43287923D01*
X24320571Y-43364114D01*
X24358666Y-43402209D01*
X24434857Y-43440304D01*
X24587238Y-43440304D01*
X24663428Y-43402209D01*
X24701523Y-43364114D01*
X24739619Y-43287923D01*
X24739619Y-42640304D01*
X25044380Y-42640304D02*
X25577714Y-42640304D01*
X25234857Y-43440304D01*
X11708142Y-45324780D02*
X12374809Y-45324780D01*
X11946238Y-46324780D01*
X13184333Y-45658114D02*
X13184333Y-46324780D01*
X12946238Y-45277161D02*
X12708142Y-45991447D01*
X13327190Y-45991447D01*
X14184333Y-46324780D02*
X13708142Y-46324780D01*
X13708142Y-45324780D01*
X14470047Y-46277161D02*
X14612904Y-46324780D01*
X14851000Y-46324780D01*
X14946238Y-46277161D01*
X14993857Y-46229542D01*
X15041476Y-46134304D01*
X15041476Y-46039066D01*
X14993857Y-45943828D01*
X14946238Y-45896209D01*
X14851000Y-45848590D01*
X14660523Y-45800971D01*
X14565285Y-45753352D01*
X14517666Y-45705733D01*
X14470047Y-45610495D01*
X14470047Y-45515257D01*
X14517666Y-45420019D01*
X14565285Y-45372400D01*
X14660523Y-45324780D01*
X14898619Y-45324780D01*
X15041476Y-45372400D01*
X15660523Y-45324780D02*
X15755761Y-45324780D01*
X15851000Y-45372400D01*
X15898619Y-45420019D01*
X15946238Y-45515257D01*
X15993857Y-45705733D01*
X15993857Y-45943828D01*
X15946238Y-46134304D01*
X15898619Y-46229542D01*
X15851000Y-46277161D01*
X15755761Y-46324780D01*
X15660523Y-46324780D01*
X15565285Y-46277161D01*
X15517666Y-46229542D01*
X15470047Y-46134304D01*
X15422428Y-45943828D01*
X15422428Y-45705733D01*
X15470047Y-45515257D01*
X15517666Y-45420019D01*
X15565285Y-45372400D01*
X15660523Y-45324780D01*
X16851000Y-45324780D02*
X16660523Y-45324780D01*
X16565285Y-45372400D01*
X16517666Y-45420019D01*
X16422428Y-45562876D01*
X16374809Y-45753352D01*
X16374809Y-46134304D01*
X16422428Y-46229542D01*
X16470047Y-46277161D01*
X16565285Y-46324780D01*
X16755761Y-46324780D01*
X16851000Y-46277161D01*
X16898619Y-46229542D01*
X16946238Y-46134304D01*
X16946238Y-45896209D01*
X16898619Y-45800971D01*
X16851000Y-45753352D01*
X16755761Y-45705733D01*
X16565285Y-45705733D01*
X16470047Y-45753352D01*
X16422428Y-45800971D01*
X16374809Y-45896209D01*
X10207666Y-12050780D02*
X10207666Y-12765066D01*
X10160047Y-12907923D01*
X10064809Y-13003161D01*
X9921952Y-13050780D01*
X9826714Y-13050780D01*
X11160047Y-12050780D02*
X10683857Y-12050780D01*
X10636238Y-12526971D01*
X10683857Y-12479352D01*
X10779095Y-12431733D01*
X11017190Y-12431733D01*
X11112428Y-12479352D01*
X11160047Y-12526971D01*
X11207666Y-12622209D01*
X11207666Y-12860304D01*
X11160047Y-12955542D01*
X11112428Y-13003161D01*
X11017190Y-13050780D01*
X10779095Y-13050780D01*
X10683857Y-13003161D01*
X10636238Y-12955542D01*
X20618466Y-39884304D02*
X20351800Y-39503352D01*
X20161323Y-39884304D02*
X20161323Y-39084304D01*
X20466085Y-39084304D01*
X20542276Y-39122400D01*
X20580371Y-39160495D01*
X20618466Y-39236685D01*
X20618466Y-39350971D01*
X20580371Y-39427161D01*
X20542276Y-39465257D01*
X20466085Y-39503352D01*
X20161323Y-39503352D01*
X21304180Y-39084304D02*
X21151800Y-39084304D01*
X21075609Y-39122400D01*
X21037514Y-39160495D01*
X20961323Y-39274780D01*
X20923228Y-39427161D01*
X20923228Y-39731923D01*
X20961323Y-39808114D01*
X20999419Y-39846209D01*
X21075609Y-39884304D01*
X21227990Y-39884304D01*
X21304180Y-39846209D01*
X21342276Y-39808114D01*
X21380371Y-39731923D01*
X21380371Y-39541447D01*
X21342276Y-39465257D01*
X21304180Y-39427161D01*
X21227990Y-39389066D01*
X21075609Y-39389066D01*
X20999419Y-39427161D01*
X20961323Y-39465257D01*
X20923228Y-39541447D01*
X20534333Y-24964780D02*
X20201000Y-24488590D01*
X19962904Y-24964780D02*
X19962904Y-23964780D01*
X20343857Y-23964780D01*
X20439095Y-24012400D01*
X20486714Y-24060019D01*
X20534333Y-24155257D01*
X20534333Y-24298114D01*
X20486714Y-24393352D01*
X20439095Y-24440971D01*
X20343857Y-24488590D01*
X19962904Y-24488590D01*
X20867666Y-23964780D02*
X21534333Y-23964780D01*
X21105761Y-24964780D01*
X4057666Y-27819304D02*
X3791000Y-27438352D01*
X3600523Y-27819304D02*
X3600523Y-27019304D01*
X3905285Y-27019304D01*
X3981476Y-27057400D01*
X4019571Y-27095495D01*
X4057666Y-27171685D01*
X4057666Y-27285971D01*
X4019571Y-27362161D01*
X3981476Y-27400257D01*
X3905285Y-27438352D01*
X3600523Y-27438352D01*
X4438619Y-27819304D02*
X4591000Y-27819304D01*
X4667190Y-27781209D01*
X4705285Y-27743114D01*
X4781476Y-27628828D01*
X4819571Y-27476447D01*
X4819571Y-27171685D01*
X4781476Y-27095495D01*
X4743380Y-27057400D01*
X4667190Y-27019304D01*
X4514809Y-27019304D01*
X4438619Y-27057400D01*
X4400523Y-27095495D01*
X4362428Y-27171685D01*
X4362428Y-27362161D01*
X4400523Y-27438352D01*
X4438619Y-27476447D01*
X4514809Y-27514542D01*
X4667190Y-27514542D01*
X4743380Y-27476447D01*
X4781476Y-27438352D01*
X4819571Y-27362161D01*
X1136714Y-27819304D02*
X870047Y-27438352D01*
X679571Y-27819304D02*
X679571Y-27019304D01*
X984333Y-27019304D01*
X1060523Y-27057400D01*
X1098619Y-27095495D01*
X1136714Y-27171685D01*
X1136714Y-27285971D01*
X1098619Y-27362161D01*
X1060523Y-27400257D01*
X984333Y-27438352D01*
X679571Y-27438352D01*
X1898619Y-27819304D02*
X1441476Y-27819304D01*
X1670047Y-27819304D02*
X1670047Y-27019304D01*
X1593857Y-27133590D01*
X1517666Y-27209780D01*
X1441476Y-27247876D01*
X2393857Y-27019304D02*
X2470047Y-27019304D01*
X2546238Y-27057400D01*
X2584333Y-27095495D01*
X2622428Y-27171685D01*
X2660523Y-27324066D01*
X2660523Y-27514542D01*
X2622428Y-27666923D01*
X2584333Y-27743114D01*
X2546238Y-27781209D01*
X2470047Y-27819304D01*
X2393857Y-27819304D01*
X2317666Y-27781209D01*
X2279571Y-27743114D01*
X2241476Y-27666923D01*
X2203380Y-27514542D01*
X2203380Y-27324066D01*
X2241476Y-27171685D01*
X2279571Y-27095495D01*
X2317666Y-27057400D01*
X2393857Y-27019304D01*
X2587666Y-53706780D02*
X2587666Y-54421066D01*
X2540047Y-54563923D01*
X2444809Y-54659161D01*
X2301952Y-54706780D01*
X2206714Y-54706780D01*
X2968619Y-53706780D02*
X3587666Y-53706780D01*
X3254333Y-54087733D01*
X3397190Y-54087733D01*
X3492428Y-54135352D01*
X3540047Y-54182971D01*
X3587666Y-54278209D01*
X3587666Y-54516304D01*
X3540047Y-54611542D01*
X3492428Y-54659161D01*
X3397190Y-54706780D01*
X3111476Y-54706780D01*
X3016238Y-54659161D01*
X2968619Y-54611542D01*
X3676714Y-4248114D02*
X3638619Y-4286209D01*
X3524333Y-4324304D01*
X3448142Y-4324304D01*
X3333857Y-4286209D01*
X3257666Y-4210019D01*
X3219571Y-4133828D01*
X3181476Y-3981447D01*
X3181476Y-3867161D01*
X3219571Y-3714780D01*
X3257666Y-3638590D01*
X3333857Y-3562400D01*
X3448142Y-3524304D01*
X3524333Y-3524304D01*
X3638619Y-3562400D01*
X3676714Y-3600495D01*
X3981476Y-3600495D02*
X4019571Y-3562400D01*
X4095761Y-3524304D01*
X4286238Y-3524304D01*
X4362428Y-3562400D01*
X4400523Y-3600495D01*
X4438619Y-3676685D01*
X4438619Y-3752876D01*
X4400523Y-3867161D01*
X3943380Y-4324304D01*
X4438619Y-4324304D01*
X5162428Y-3524304D02*
X4781476Y-3524304D01*
X4743380Y-3905257D01*
X4781476Y-3867161D01*
X4857666Y-3829066D01*
X5048142Y-3829066D01*
X5124333Y-3867161D01*
X5162428Y-3905257D01*
X5200523Y-3981447D01*
X5200523Y-4171923D01*
X5162428Y-4248114D01*
X5124333Y-4286209D01*
X5048142Y-4324304D01*
X4857666Y-4324304D01*
X4781476Y-4286209D01*
X4743380Y-4248114D01*
X1136714Y-4248114D02*
X1098619Y-4286209D01*
X984333Y-4324304D01*
X908142Y-4324304D01*
X793857Y-4286209D01*
X717666Y-4210019D01*
X679571Y-4133828D01*
X641476Y-3981447D01*
X641476Y-3867161D01*
X679571Y-3714780D01*
X717666Y-3638590D01*
X793857Y-3562400D01*
X908142Y-3524304D01*
X984333Y-3524304D01*
X1098619Y-3562400D01*
X1136714Y-3600495D01*
X1441476Y-3600495D02*
X1479571Y-3562400D01*
X1555761Y-3524304D01*
X1746238Y-3524304D01*
X1822428Y-3562400D01*
X1860523Y-3600495D01*
X1898619Y-3676685D01*
X1898619Y-3752876D01*
X1860523Y-3867161D01*
X1403380Y-4324304D01*
X1898619Y-4324304D01*
X2584333Y-3790971D02*
X2584333Y-4324304D01*
X2393857Y-3486209D02*
X2203380Y-4057638D01*
X2698619Y-4057638D01*
X39236714Y-34093114D02*
X39198619Y-34131209D01*
X39084333Y-34169304D01*
X39008142Y-34169304D01*
X38893857Y-34131209D01*
X38817666Y-34055019D01*
X38779571Y-33978828D01*
X38741476Y-33826447D01*
X38741476Y-33712161D01*
X38779571Y-33559780D01*
X38817666Y-33483590D01*
X38893857Y-33407400D01*
X39008142Y-33369304D01*
X39084333Y-33369304D01*
X39198619Y-33407400D01*
X39236714Y-33445495D01*
X39541476Y-33445495D02*
X39579571Y-33407400D01*
X39655761Y-33369304D01*
X39846238Y-33369304D01*
X39922428Y-33407400D01*
X39960523Y-33445495D01*
X39998619Y-33521685D01*
X39998619Y-33597876D01*
X39960523Y-33712161D01*
X39503380Y-34169304D01*
X39998619Y-34169304D01*
X40493857Y-33369304D02*
X40570047Y-33369304D01*
X40646238Y-33407400D01*
X40684333Y-33445495D01*
X40722428Y-33521685D01*
X40760523Y-33674066D01*
X40760523Y-33864542D01*
X40722428Y-34016923D01*
X40684333Y-34093114D01*
X40646238Y-34131209D01*
X40570047Y-34169304D01*
X40493857Y-34169304D01*
X40417666Y-34131209D01*
X40379571Y-34093114D01*
X40341476Y-34016923D01*
X40303380Y-33864542D01*
X40303380Y-33674066D01*
X40341476Y-33521685D01*
X40379571Y-33445495D01*
X40417666Y-33407400D01*
X40493857Y-33369304D01*
X45840714Y-42348114D02*
X45802619Y-42386209D01*
X45688333Y-42424304D01*
X45612142Y-42424304D01*
X45497857Y-42386209D01*
X45421666Y-42310019D01*
X45383571Y-42233828D01*
X45345476Y-42081447D01*
X45345476Y-41967161D01*
X45383571Y-41814780D01*
X45421666Y-41738590D01*
X45497857Y-41662400D01*
X45612142Y-41624304D01*
X45688333Y-41624304D01*
X45802619Y-41662400D01*
X45840714Y-41700495D01*
X46145476Y-41700495D02*
X46183571Y-41662400D01*
X46259761Y-41624304D01*
X46450238Y-41624304D01*
X46526428Y-41662400D01*
X46564523Y-41700495D01*
X46602619Y-41776685D01*
X46602619Y-41852876D01*
X46564523Y-41967161D01*
X46107380Y-42424304D01*
X46602619Y-42424304D01*
X46907380Y-41700495D02*
X46945476Y-41662400D01*
X47021666Y-41624304D01*
X47212142Y-41624304D01*
X47288333Y-41662400D01*
X47326428Y-41700495D01*
X47364523Y-41776685D01*
X47364523Y-41852876D01*
X47326428Y-41967161D01*
X46869285Y-42424304D01*
X47364523Y-42424304D01*
X63874714Y-42348114D02*
X63836619Y-42386209D01*
X63722333Y-42424304D01*
X63646142Y-42424304D01*
X63531857Y-42386209D01*
X63455666Y-42310019D01*
X63417571Y-42233828D01*
X63379476Y-42081447D01*
X63379476Y-41967161D01*
X63417571Y-41814780D01*
X63455666Y-41738590D01*
X63531857Y-41662400D01*
X63646142Y-41624304D01*
X63722333Y-41624304D01*
X63836619Y-41662400D01*
X63874714Y-41700495D01*
X64179476Y-41700495D02*
X64217571Y-41662400D01*
X64293761Y-41624304D01*
X64484238Y-41624304D01*
X64560428Y-41662400D01*
X64598523Y-41700495D01*
X64636619Y-41776685D01*
X64636619Y-41852876D01*
X64598523Y-41967161D01*
X64141380Y-42424304D01*
X64636619Y-42424304D01*
X65398523Y-42424304D02*
X64941380Y-42424304D01*
X65169952Y-42424304D02*
X65169952Y-41624304D01*
X65093761Y-41738590D01*
X65017571Y-41814780D01*
X64941380Y-41852876D01*
X81921314Y-30918085D02*
X81959409Y-30956180D01*
X81997504Y-31070466D01*
X81997504Y-31146657D01*
X81959409Y-31260942D01*
X81883219Y-31337133D01*
X81807028Y-31375228D01*
X81654647Y-31413323D01*
X81540361Y-31413323D01*
X81387980Y-31375228D01*
X81311790Y-31337133D01*
X81235600Y-31260942D01*
X81197504Y-31146657D01*
X81197504Y-31070466D01*
X81235600Y-30956180D01*
X81273695Y-30918085D01*
X81273695Y-30613323D02*
X81235600Y-30575228D01*
X81197504Y-30499038D01*
X81197504Y-30308561D01*
X81235600Y-30232371D01*
X81273695Y-30194276D01*
X81349885Y-30156180D01*
X81426076Y-30156180D01*
X81540361Y-30194276D01*
X81997504Y-30651419D01*
X81997504Y-30156180D01*
X81997504Y-29775228D02*
X81997504Y-29622847D01*
X81959409Y-29546657D01*
X81921314Y-29508561D01*
X81807028Y-29432371D01*
X81654647Y-29394276D01*
X81349885Y-29394276D01*
X81273695Y-29432371D01*
X81235600Y-29470466D01*
X81197504Y-29546657D01*
X81197504Y-29699038D01*
X81235600Y-29775228D01*
X81273695Y-29813323D01*
X81349885Y-29851419D01*
X81540361Y-29851419D01*
X81616552Y-29813323D01*
X81654647Y-29775228D01*
X81692742Y-29699038D01*
X81692742Y-29546657D01*
X81654647Y-29470466D01*
X81616552Y-29432371D01*
X81540361Y-29394276D01*
X79876714Y-19234114D02*
X79838619Y-19272209D01*
X79724333Y-19310304D01*
X79648142Y-19310304D01*
X79533857Y-19272209D01*
X79457666Y-19196019D01*
X79419571Y-19119828D01*
X79381476Y-18967447D01*
X79381476Y-18853161D01*
X79419571Y-18700780D01*
X79457666Y-18624590D01*
X79533857Y-18548400D01*
X79648142Y-18510304D01*
X79724333Y-18510304D01*
X79838619Y-18548400D01*
X79876714Y-18586495D01*
X80638619Y-19310304D02*
X80181476Y-19310304D01*
X80410047Y-19310304D02*
X80410047Y-18510304D01*
X80333857Y-18624590D01*
X80257666Y-18700780D01*
X80181476Y-18738876D01*
X81019571Y-19310304D02*
X81171952Y-19310304D01*
X81248142Y-19272209D01*
X81286238Y-19234114D01*
X81362428Y-19119828D01*
X81400523Y-18967447D01*
X81400523Y-18662685D01*
X81362428Y-18586495D01*
X81324333Y-18548400D01*
X81248142Y-18510304D01*
X81095761Y-18510304D01*
X81019571Y-18548400D01*
X80981476Y-18586495D01*
X80943380Y-18662685D01*
X80943380Y-18853161D01*
X80981476Y-18929352D01*
X81019571Y-18967447D01*
X81095761Y-19005542D01*
X81248142Y-19005542D01*
X81324333Y-18967447D01*
X81362428Y-18929352D01*
X81400523Y-18853161D01*
X79876714Y-9074114D02*
X79838619Y-9112209D01*
X79724333Y-9150304D01*
X79648142Y-9150304D01*
X79533857Y-9112209D01*
X79457666Y-9036019D01*
X79419571Y-8959828D01*
X79381476Y-8807447D01*
X79381476Y-8693161D01*
X79419571Y-8540780D01*
X79457666Y-8464590D01*
X79533857Y-8388400D01*
X79648142Y-8350304D01*
X79724333Y-8350304D01*
X79838619Y-8388400D01*
X79876714Y-8426495D01*
X80638619Y-9150304D02*
X80181476Y-9150304D01*
X80410047Y-9150304D02*
X80410047Y-8350304D01*
X80333857Y-8464590D01*
X80257666Y-8540780D01*
X80181476Y-8578876D01*
X81095761Y-8693161D02*
X81019571Y-8655066D01*
X80981476Y-8616971D01*
X80943380Y-8540780D01*
X80943380Y-8502685D01*
X80981476Y-8426495D01*
X81019571Y-8388400D01*
X81095761Y-8350304D01*
X81248142Y-8350304D01*
X81324333Y-8388400D01*
X81362428Y-8426495D01*
X81400523Y-8502685D01*
X81400523Y-8540780D01*
X81362428Y-8616971D01*
X81324333Y-8655066D01*
X81248142Y-8693161D01*
X81095761Y-8693161D01*
X81019571Y-8731257D01*
X80981476Y-8769352D01*
X80943380Y-8845542D01*
X80943380Y-8997923D01*
X80981476Y-9074114D01*
X81019571Y-9112209D01*
X81095761Y-9150304D01*
X81248142Y-9150304D01*
X81324333Y-9112209D01*
X81362428Y-9074114D01*
X81400523Y-8997923D01*
X81400523Y-8845542D01*
X81362428Y-8769352D01*
X81324333Y-8731257D01*
X81248142Y-8693161D01*
X53206714Y-2978114D02*
X53168619Y-3016209D01*
X53054333Y-3054304D01*
X52978142Y-3054304D01*
X52863857Y-3016209D01*
X52787666Y-2940019D01*
X52749571Y-2863828D01*
X52711476Y-2711447D01*
X52711476Y-2597161D01*
X52749571Y-2444780D01*
X52787666Y-2368590D01*
X52863857Y-2292400D01*
X52978142Y-2254304D01*
X53054333Y-2254304D01*
X53168619Y-2292400D01*
X53206714Y-2330495D01*
X53968619Y-3054304D02*
X53511476Y-3054304D01*
X53740047Y-3054304D02*
X53740047Y-2254304D01*
X53663857Y-2368590D01*
X53587666Y-2444780D01*
X53511476Y-2482876D01*
X54235285Y-2254304D02*
X54768619Y-2254304D01*
X54425761Y-3054304D01*
X38766714Y-14636685D02*
X38804809Y-14674780D01*
X38842904Y-14789066D01*
X38842904Y-14865257D01*
X38804809Y-14979542D01*
X38728619Y-15055733D01*
X38652428Y-15093828D01*
X38500047Y-15131923D01*
X38385761Y-15131923D01*
X38233380Y-15093828D01*
X38157190Y-15055733D01*
X38081000Y-14979542D01*
X38042904Y-14865257D01*
X38042904Y-14789066D01*
X38081000Y-14674780D01*
X38119095Y-14636685D01*
X38842904Y-13874780D02*
X38842904Y-14331923D01*
X38842904Y-14103352D02*
X38042904Y-14103352D01*
X38157190Y-14179542D01*
X38233380Y-14255733D01*
X38271476Y-14331923D01*
X38042904Y-13189066D02*
X38042904Y-13341447D01*
X38081000Y-13417638D01*
X38119095Y-13455733D01*
X38233380Y-13531923D01*
X38385761Y-13570019D01*
X38690523Y-13570019D01*
X38766714Y-13531923D01*
X38804809Y-13493828D01*
X38842904Y-13417638D01*
X38842904Y-13265257D01*
X38804809Y-13189066D01*
X38766714Y-13150971D01*
X38690523Y-13112876D01*
X38500047Y-13112876D01*
X38423857Y-13150971D01*
X38385761Y-13189066D01*
X38347666Y-13265257D01*
X38347666Y-13417638D01*
X38385761Y-13493828D01*
X38423857Y-13531923D01*
X38500047Y-13570019D01*
X26066714Y-47656685D02*
X26104809Y-47694780D01*
X26142904Y-47809066D01*
X26142904Y-47885257D01*
X26104809Y-47999542D01*
X26028619Y-48075733D01*
X25952428Y-48113828D01*
X25800047Y-48151923D01*
X25685761Y-48151923D01*
X25533380Y-48113828D01*
X25457190Y-48075733D01*
X25381000Y-47999542D01*
X25342904Y-47885257D01*
X25342904Y-47809066D01*
X25381000Y-47694780D01*
X25419095Y-47656685D01*
X26142904Y-46894780D02*
X26142904Y-47351923D01*
X26142904Y-47123352D02*
X25342904Y-47123352D01*
X25457190Y-47199542D01*
X25533380Y-47275733D01*
X25571476Y-47351923D01*
X25342904Y-46399542D02*
X25342904Y-46323352D01*
X25381000Y-46247161D01*
X25419095Y-46209066D01*
X25495285Y-46170971D01*
X25647666Y-46132876D01*
X25838142Y-46132876D01*
X25990523Y-46170971D01*
X26066714Y-46209066D01*
X26104809Y-46247161D01*
X26142904Y-46323352D01*
X26142904Y-46399542D01*
X26104809Y-46475733D01*
X26066714Y-46513828D01*
X25990523Y-46551923D01*
X25838142Y-46590019D01*
X25647666Y-46590019D01*
X25495285Y-46551923D01*
X25419095Y-46513828D01*
X25381000Y-46475733D01*
X25342904Y-46399542D01*
X26066714Y-34956685D02*
X26104809Y-34994780D01*
X26142904Y-35109066D01*
X26142904Y-35185257D01*
X26104809Y-35299542D01*
X26028619Y-35375733D01*
X25952428Y-35413828D01*
X25800047Y-35451923D01*
X25685761Y-35451923D01*
X25533380Y-35413828D01*
X25457190Y-35375733D01*
X25381000Y-35299542D01*
X25342904Y-35185257D01*
X25342904Y-35109066D01*
X25381000Y-34994780D01*
X25419095Y-34956685D01*
X26142904Y-34194780D02*
X26142904Y-34651923D01*
X26142904Y-34423352D02*
X25342904Y-34423352D01*
X25457190Y-34499542D01*
X25533380Y-34575733D01*
X25571476Y-34651923D01*
X25419095Y-33890019D02*
X25381000Y-33851923D01*
X25342904Y-33775733D01*
X25342904Y-33585257D01*
X25381000Y-33509066D01*
X25419095Y-33470971D01*
X25495285Y-33432876D01*
X25571476Y-33432876D01*
X25685761Y-33470971D01*
X26142904Y-33928114D01*
X26142904Y-33432876D01*
X23996714Y-23552114D02*
X23958619Y-23590209D01*
X23844333Y-23628304D01*
X23768142Y-23628304D01*
X23653857Y-23590209D01*
X23577666Y-23514019D01*
X23539571Y-23437828D01*
X23501476Y-23285447D01*
X23501476Y-23171161D01*
X23539571Y-23018780D01*
X23577666Y-22942590D01*
X23653857Y-22866400D01*
X23768142Y-22828304D01*
X23844333Y-22828304D01*
X23958619Y-22866400D01*
X23996714Y-22904495D01*
X24758619Y-23628304D02*
X24301476Y-23628304D01*
X24530047Y-23628304D02*
X24530047Y-22828304D01*
X24453857Y-22942590D01*
X24377666Y-23018780D01*
X24301476Y-23056876D01*
X25520523Y-23628304D02*
X25063380Y-23628304D01*
X25291952Y-23628304D02*
X25291952Y-22828304D01*
X25215761Y-22942590D01*
X25139571Y-23018780D01*
X25063380Y-23056876D01*
X4057666Y-99498114D02*
X4019571Y-99536209D01*
X3905285Y-99574304D01*
X3829095Y-99574304D01*
X3714809Y-99536209D01*
X3638619Y-99460019D01*
X3600523Y-99383828D01*
X3562428Y-99231447D01*
X3562428Y-99117161D01*
X3600523Y-98964780D01*
X3638619Y-98888590D01*
X3714809Y-98812400D01*
X3829095Y-98774304D01*
X3905285Y-98774304D01*
X4019571Y-98812400D01*
X4057666Y-98850495D01*
X4514809Y-99117161D02*
X4438619Y-99079066D01*
X4400523Y-99040971D01*
X4362428Y-98964780D01*
X4362428Y-98926685D01*
X4400523Y-98850495D01*
X4438619Y-98812400D01*
X4514809Y-98774304D01*
X4667190Y-98774304D01*
X4743380Y-98812400D01*
X4781476Y-98850495D01*
X4819571Y-98926685D01*
X4819571Y-98964780D01*
X4781476Y-99040971D01*
X4743380Y-99079066D01*
X4667190Y-99117161D01*
X4514809Y-99117161D01*
X4438619Y-99155257D01*
X4400523Y-99193352D01*
X4362428Y-99269542D01*
X4362428Y-99421923D01*
X4400523Y-99498114D01*
X4438619Y-99536209D01*
X4514809Y-99574304D01*
X4667190Y-99574304D01*
X4743380Y-99536209D01*
X4781476Y-99498114D01*
X4819571Y-99421923D01*
X4819571Y-99269542D01*
X4781476Y-99193352D01*
X4743380Y-99155257D01*
X4667190Y-99117161D01*
X21837666Y-99498114D02*
X21799571Y-99536209D01*
X21685285Y-99574304D01*
X21609095Y-99574304D01*
X21494809Y-99536209D01*
X21418619Y-99460019D01*
X21380523Y-99383828D01*
X21342428Y-99231447D01*
X21342428Y-99117161D01*
X21380523Y-98964780D01*
X21418619Y-98888590D01*
X21494809Y-98812400D01*
X21609095Y-98774304D01*
X21685285Y-98774304D01*
X21799571Y-98812400D01*
X21837666Y-98850495D01*
X22104333Y-98774304D02*
X22637666Y-98774304D01*
X22294809Y-99574304D01*
X90517666Y-99508114D02*
X90479571Y-99546209D01*
X90365285Y-99584304D01*
X90289095Y-99584304D01*
X90174809Y-99546209D01*
X90098619Y-99470019D01*
X90060523Y-99393828D01*
X90022428Y-99241447D01*
X90022428Y-99127161D01*
X90060523Y-98974780D01*
X90098619Y-98898590D01*
X90174809Y-98822400D01*
X90289095Y-98784304D01*
X90365285Y-98784304D01*
X90479571Y-98822400D01*
X90517666Y-98860495D01*
X91241476Y-98784304D02*
X90860523Y-98784304D01*
X90822428Y-99165257D01*
X90860523Y-99127161D01*
X90936714Y-99089066D01*
X91127190Y-99089066D01*
X91203380Y-99127161D01*
X91241476Y-99165257D01*
X91279571Y-99241447D01*
X91279571Y-99431923D01*
X91241476Y-99508114D01*
X91203380Y-99546209D01*
X91127190Y-99584304D01*
X90936714Y-99584304D01*
X90860523Y-99546209D01*
X90822428Y-99508114D01*
X11677666Y-25838114D02*
X11639571Y-25876209D01*
X11525285Y-25914304D01*
X11449095Y-25914304D01*
X11334809Y-25876209D01*
X11258619Y-25800019D01*
X11220523Y-25723828D01*
X11182428Y-25571447D01*
X11182428Y-25457161D01*
X11220523Y-25304780D01*
X11258619Y-25228590D01*
X11334809Y-25152400D01*
X11449095Y-25114304D01*
X11525285Y-25114304D01*
X11639571Y-25152400D01*
X11677666Y-25190495D01*
X11944333Y-25114304D02*
X12439571Y-25114304D01*
X12172904Y-25419066D01*
X12287190Y-25419066D01*
X12363380Y-25457161D01*
X12401476Y-25495257D01*
X12439571Y-25571447D01*
X12439571Y-25761923D01*
X12401476Y-25838114D01*
X12363380Y-25876209D01*
X12287190Y-25914304D01*
X12058619Y-25914304D01*
X11982428Y-25876209D01*
X11944333Y-25838114D01*
X7232666Y-39808114D02*
X7194571Y-39846209D01*
X7080285Y-39884304D01*
X7004095Y-39884304D01*
X6889809Y-39846209D01*
X6813619Y-39770019D01*
X6775523Y-39693828D01*
X6737428Y-39541447D01*
X6737428Y-39427161D01*
X6775523Y-39274780D01*
X6813619Y-39198590D01*
X6889809Y-39122400D01*
X7004095Y-39084304D01*
X7080285Y-39084304D01*
X7194571Y-39122400D01*
X7232666Y-39160495D01*
X7537428Y-39160495D02*
X7575523Y-39122400D01*
X7651714Y-39084304D01*
X7842190Y-39084304D01*
X7918380Y-39122400D01*
X7956476Y-39160495D01*
X7994571Y-39236685D01*
X7994571Y-39312876D01*
X7956476Y-39427161D01*
X7499333Y-39884304D01*
X7994571Y-39884304D01*
X38766714Y-21875733D02*
X38804809Y-21913828D01*
X38842904Y-22028114D01*
X38842904Y-22104304D01*
X38804809Y-22218590D01*
X38728619Y-22294780D01*
X38652428Y-22332876D01*
X38500047Y-22370971D01*
X38385761Y-22370971D01*
X38233380Y-22332876D01*
X38157190Y-22294780D01*
X38081000Y-22218590D01*
X38042904Y-22104304D01*
X38042904Y-22028114D01*
X38081000Y-21913828D01*
X38119095Y-21875733D01*
X38842904Y-21113828D02*
X38842904Y-21570971D01*
X38842904Y-21342400D02*
X38042904Y-21342400D01*
X38157190Y-21418590D01*
X38233380Y-21494780D01*
X38271476Y-21570971D01*
X84739095Y-96124780D02*
X84739095Y-96934304D01*
X84786714Y-97029542D01*
X84834333Y-97077161D01*
X84929571Y-97124780D01*
X85120047Y-97124780D01*
X85215285Y-97077161D01*
X85262904Y-97029542D01*
X85310523Y-96934304D01*
X85310523Y-96124780D01*
X85834333Y-97124780D02*
X86024809Y-97124780D01*
X86120047Y-97077161D01*
X86167666Y-97029542D01*
X86262904Y-96886685D01*
X86310523Y-96696209D01*
X86310523Y-96315257D01*
X86262904Y-96220019D01*
X86215285Y-96172400D01*
X86120047Y-96124780D01*
X85929571Y-96124780D01*
X85834333Y-96172400D01*
X85786714Y-96220019D01*
X85739095Y-96315257D01*
X85739095Y-96553352D01*
X85786714Y-96648590D01*
X85834333Y-96696209D01*
X85929571Y-96743828D01*
X86120047Y-96743828D01*
X86215285Y-96696209D01*
X86262904Y-96648590D01*
X86310523Y-96553352D01*
X84493285Y-59439257D02*
X84264714Y-59439257D01*
X84150428Y-59496400D01*
X84093285Y-59553542D01*
X83979000Y-59724971D01*
X83921857Y-59953542D01*
X83921857Y-60410685D01*
X83979000Y-60524971D01*
X84036142Y-60582114D01*
X84150428Y-60639257D01*
X84379000Y-60639257D01*
X84493285Y-60582114D01*
X84550428Y-60524971D01*
X84607571Y-60410685D01*
X84607571Y-60124971D01*
X84550428Y-60010685D01*
X84493285Y-59953542D01*
X84379000Y-59896400D01*
X84150428Y-59896400D01*
X84036142Y-59953542D01*
X83979000Y-60010685D01*
X83921857Y-60124971D01*
X85693285Y-59439257D02*
X85121857Y-59439257D01*
X85064714Y-60010685D01*
X85121857Y-59953542D01*
X85236142Y-59896400D01*
X85521857Y-59896400D01*
X85636142Y-59953542D01*
X85693285Y-60010685D01*
X85750428Y-60124971D01*
X85750428Y-60410685D01*
X85693285Y-60524971D01*
X85636142Y-60582114D01*
X85521857Y-60639257D01*
X85236142Y-60639257D01*
X85121857Y-60582114D01*
X85064714Y-60524971D01*
X86836142Y-59439257D02*
X86264714Y-59439257D01*
X86207571Y-60010685D01*
X86264714Y-59953542D01*
X86379000Y-59896400D01*
X86664714Y-59896400D01*
X86779000Y-59953542D01*
X86836142Y-60010685D01*
X86893285Y-60124971D01*
X86893285Y-60410685D01*
X86836142Y-60524971D01*
X86779000Y-60582114D01*
X86664714Y-60639257D01*
X86379000Y-60639257D01*
X86264714Y-60582114D01*
X86207571Y-60524971D01*
X88036142Y-60639257D02*
X87350428Y-60639257D01*
X87693285Y-60639257D02*
X87693285Y-59439257D01*
X87579000Y-59610685D01*
X87464714Y-59724971D01*
X87350428Y-59782114D01*
X8489095Y-96124780D02*
X8489095Y-96934304D01*
X8536714Y-97029542D01*
X8584333Y-97077161D01*
X8679571Y-97124780D01*
X8870047Y-97124780D01*
X8965285Y-97077161D01*
X9012904Y-97029542D01*
X9060523Y-96934304D01*
X9060523Y-96124780D01*
X10012904Y-96124780D02*
X9536714Y-96124780D01*
X9489095Y-96600971D01*
X9536714Y-96553352D01*
X9631952Y-96505733D01*
X9870047Y-96505733D01*
X9965285Y-96553352D01*
X10012904Y-96600971D01*
X10060523Y-96696209D01*
X10060523Y-96934304D01*
X10012904Y-97029542D01*
X9965285Y-97077161D01*
X9870047Y-97124780D01*
X9631952Y-97124780D01*
X9536714Y-97077161D01*
X9489095Y-97029542D01*
X9471000Y-81066685D02*
X9471000Y-80495257D01*
X9813857Y-81180971D02*
X8613857Y-80780971D01*
X9813857Y-80380971D01*
X8613857Y-80152400D02*
X8613857Y-79466685D01*
X9813857Y-79809542D02*
X8613857Y-79809542D01*
X8728142Y-79123828D02*
X8671000Y-79066685D01*
X8613857Y-78952400D01*
X8613857Y-78666685D01*
X8671000Y-78552400D01*
X8728142Y-78495257D01*
X8842428Y-78438114D01*
X8956714Y-78438114D01*
X9128142Y-78495257D01*
X9813857Y-79180971D01*
X9813857Y-78438114D01*
X9813857Y-77866685D02*
X9813857Y-77638114D01*
X9756714Y-77523828D01*
X9699571Y-77466685D01*
X9528142Y-77352400D01*
X9299571Y-77295257D01*
X8842428Y-77295257D01*
X8728142Y-77352400D01*
X8671000Y-77409542D01*
X8613857Y-77523828D01*
X8613857Y-77752400D01*
X8671000Y-77866685D01*
X8728142Y-77923828D01*
X8842428Y-77980971D01*
X9128142Y-77980971D01*
X9242428Y-77923828D01*
X9299571Y-77866685D01*
X9356714Y-77752400D01*
X9356714Y-77523828D01*
X9299571Y-77409542D01*
X9242428Y-77352400D01*
X9128142Y-77295257D01*
X9699571Y-76095257D02*
X9756714Y-76152400D01*
X9813857Y-76323828D01*
X9813857Y-76438114D01*
X9756714Y-76609542D01*
X9642428Y-76723828D01*
X9528142Y-76780971D01*
X9299571Y-76838114D01*
X9128142Y-76838114D01*
X8899571Y-76780971D01*
X8785285Y-76723828D01*
X8671000Y-76609542D01*
X8613857Y-76438114D01*
X8613857Y-76323828D01*
X8671000Y-76152400D01*
X8728142Y-76095257D01*
X8613857Y-75352400D02*
X8613857Y-75238114D01*
X8671000Y-75123828D01*
X8728142Y-75066685D01*
X8842428Y-75009542D01*
X9071000Y-74952400D01*
X9356714Y-74952400D01*
X9585285Y-75009542D01*
X9699571Y-75066685D01*
X9756714Y-75123828D01*
X9813857Y-75238114D01*
X9813857Y-75352400D01*
X9756714Y-75466685D01*
X9699571Y-75523828D01*
X9585285Y-75580971D01*
X9356714Y-75638114D01*
X9071000Y-75638114D01*
X8842428Y-75580971D01*
X8728142Y-75523828D01*
X8671000Y-75466685D01*
X8613857Y-75352400D01*
X9813857Y-73809542D02*
X9813857Y-74495257D01*
X9813857Y-74152400D02*
X8613857Y-74152400D01*
X8785285Y-74266685D01*
X8899571Y-74380971D01*
X8956714Y-74495257D01*
X8613857Y-73066685D02*
X8613857Y-72952400D01*
X8671000Y-72838114D01*
X8728142Y-72780971D01*
X8842428Y-72723828D01*
X9071000Y-72666685D01*
X9356714Y-72666685D01*
X9585285Y-72723828D01*
X9699571Y-72780971D01*
X9756714Y-72838114D01*
X9813857Y-72952400D01*
X9813857Y-73066685D01*
X9756714Y-73180971D01*
X9699571Y-73238114D01*
X9585285Y-73295257D01*
X9356714Y-73352400D01*
X9071000Y-73352400D01*
X8842428Y-73295257D01*
X8728142Y-73238114D01*
X8671000Y-73180971D01*
X8613857Y-73066685D01*
X9471000Y-72209542D02*
X9471000Y-71638114D01*
X9813857Y-72323828D02*
X8613857Y-71923828D01*
X9813857Y-71523828D01*
X26314495Y-95997780D02*
X26314495Y-96807304D01*
X26362114Y-96902542D01*
X26409733Y-96950161D01*
X26504971Y-96997780D01*
X26695447Y-96997780D01*
X26790685Y-96950161D01*
X26838304Y-96902542D01*
X26885923Y-96807304D01*
X26885923Y-95997780D01*
X27790685Y-95997780D02*
X27600209Y-95997780D01*
X27504971Y-96045400D01*
X27457352Y-96093019D01*
X27362114Y-96235876D01*
X27314495Y-96426352D01*
X27314495Y-96807304D01*
X27362114Y-96902542D01*
X27409733Y-96950161D01*
X27504971Y-96997780D01*
X27695447Y-96997780D01*
X27790685Y-96950161D01*
X27838304Y-96902542D01*
X27885923Y-96807304D01*
X27885923Y-96569209D01*
X27838304Y-96473971D01*
X27790685Y-96426352D01*
X27695447Y-96378733D01*
X27504971Y-96378733D01*
X27409733Y-96426352D01*
X27362114Y-96473971D01*
X27314495Y-96569209D01*
X27593857Y-81323828D02*
X26393857Y-81323828D01*
X26965285Y-81323828D02*
X26965285Y-80638114D01*
X27593857Y-80638114D02*
X26393857Y-80638114D01*
X27593857Y-80066685D02*
X26393857Y-80066685D01*
X27251000Y-79666685D01*
X26393857Y-79266685D01*
X27593857Y-79266685D01*
X26393857Y-78180971D02*
X26393857Y-78409542D01*
X26451000Y-78523828D01*
X26508142Y-78580971D01*
X26679571Y-78695257D01*
X26908142Y-78752400D01*
X27365285Y-78752400D01*
X27479571Y-78695257D01*
X27536714Y-78638114D01*
X27593857Y-78523828D01*
X27593857Y-78295257D01*
X27536714Y-78180971D01*
X27479571Y-78123828D01*
X27365285Y-78066685D01*
X27079571Y-78066685D01*
X26965285Y-78123828D01*
X26908142Y-78180971D01*
X26851000Y-78295257D01*
X26851000Y-78523828D01*
X26908142Y-78638114D01*
X26965285Y-78695257D01*
X27079571Y-78752400D01*
X26508142Y-77609542D02*
X26451000Y-77552400D01*
X26393857Y-77438114D01*
X26393857Y-77152400D01*
X26451000Y-77038114D01*
X26508142Y-76980971D01*
X26622428Y-76923828D01*
X26736714Y-76923828D01*
X26908142Y-76980971D01*
X27593857Y-77666685D01*
X27593857Y-76923828D01*
X26908142Y-76238114D02*
X26851000Y-76352400D01*
X26793857Y-76409542D01*
X26679571Y-76466685D01*
X26622428Y-76466685D01*
X26508142Y-76409542D01*
X26451000Y-76352400D01*
X26393857Y-76238114D01*
X26393857Y-76009542D01*
X26451000Y-75895257D01*
X26508142Y-75838114D01*
X26622428Y-75780971D01*
X26679571Y-75780971D01*
X26793857Y-75838114D01*
X26851000Y-75895257D01*
X26908142Y-76009542D01*
X26908142Y-76238114D01*
X26965285Y-76352400D01*
X27022428Y-76409542D01*
X27136714Y-76466685D01*
X27365285Y-76466685D01*
X27479571Y-76409542D01*
X27536714Y-76352400D01*
X27593857Y-76238114D01*
X27593857Y-76009542D01*
X27536714Y-75895257D01*
X27479571Y-75838114D01*
X27365285Y-75780971D01*
X27136714Y-75780971D01*
X27022428Y-75838114D01*
X26965285Y-75895257D01*
X26908142Y-76009542D01*
X26393857Y-74695257D02*
X26393857Y-75266685D01*
X26965285Y-75323828D01*
X26908142Y-75266685D01*
X26851000Y-75152400D01*
X26851000Y-74866685D01*
X26908142Y-74752400D01*
X26965285Y-74695257D01*
X27079571Y-74638114D01*
X27365285Y-74638114D01*
X27479571Y-74695257D01*
X27536714Y-74752400D01*
X27593857Y-74866685D01*
X27593857Y-75152400D01*
X27536714Y-75266685D01*
X27479571Y-75323828D01*
X27593857Y-73495257D02*
X27593857Y-74180971D01*
X27593857Y-73838114D02*
X26393857Y-73838114D01*
X26565285Y-73952400D01*
X26679571Y-74066685D01*
X26736714Y-74180971D01*
X26508142Y-73038114D02*
X26451000Y-72980971D01*
X26393857Y-72866685D01*
X26393857Y-72580971D01*
X26451000Y-72466685D01*
X26508142Y-72409542D01*
X26622428Y-72352400D01*
X26736714Y-72352400D01*
X26908142Y-72409542D01*
X27593857Y-73095257D01*
X27593857Y-72352400D01*
X27251000Y-71895257D02*
X27251000Y-71323828D01*
X27593857Y-72009542D02*
X26393857Y-71609542D01*
X27593857Y-71209542D01*
X57397666Y-54032114D02*
X57359571Y-54070209D01*
X57245285Y-54108304D01*
X57169095Y-54108304D01*
X57054809Y-54070209D01*
X56978619Y-53994019D01*
X56940523Y-53917828D01*
X56902428Y-53765447D01*
X56902428Y-53651161D01*
X56940523Y-53498780D01*
X56978619Y-53422590D01*
X57054809Y-53346400D01*
X57169095Y-53308304D01*
X57245285Y-53308304D01*
X57359571Y-53346400D01*
X57397666Y-53384495D01*
X57778619Y-54108304D02*
X57931000Y-54108304D01*
X58007190Y-54070209D01*
X58045285Y-54032114D01*
X58121476Y-53917828D01*
X58159571Y-53765447D01*
X58159571Y-53460685D01*
X58121476Y-53384495D01*
X58083380Y-53346400D01*
X58007190Y-53308304D01*
X57854809Y-53308304D01*
X57778619Y-53346400D01*
X57740523Y-53384495D01*
X57702428Y-53460685D01*
X57702428Y-53651161D01*
X57740523Y-53727352D01*
X57778619Y-53765447D01*
X57854809Y-53803542D01*
X58007190Y-53803542D01*
X58083380Y-53765447D01*
X58121476Y-53727352D01*
X58159571Y-53651161D01*
X34537666Y-54032114D02*
X34499571Y-54070209D01*
X34385285Y-54108304D01*
X34309095Y-54108304D01*
X34194809Y-54070209D01*
X34118619Y-53994019D01*
X34080523Y-53917828D01*
X34042428Y-53765447D01*
X34042428Y-53651161D01*
X34080523Y-53498780D01*
X34118619Y-53422590D01*
X34194809Y-53346400D01*
X34309095Y-53308304D01*
X34385285Y-53308304D01*
X34499571Y-53346400D01*
X34537666Y-53384495D01*
X35223380Y-53308304D02*
X35071000Y-53308304D01*
X34994809Y-53346400D01*
X34956714Y-53384495D01*
X34880523Y-53498780D01*
X34842428Y-53651161D01*
X34842428Y-53955923D01*
X34880523Y-54032114D01*
X34918619Y-54070209D01*
X34994809Y-54108304D01*
X35147190Y-54108304D01*
X35223380Y-54070209D01*
X35261476Y-54032114D01*
X35299571Y-53955923D01*
X35299571Y-53765447D01*
X35261476Y-53689257D01*
X35223380Y-53651161D01*
X35147190Y-53613066D01*
X34994809Y-53613066D01*
X34918619Y-53651161D01*
X34880523Y-53689257D01*
X34842428Y-53765447D01*
X24455523Y-52674780D02*
X24122190Y-52198590D01*
X23884095Y-52674780D02*
X23884095Y-51674780D01*
X24265047Y-51674780D01*
X24360285Y-51722400D01*
X24407904Y-51770019D01*
X24455523Y-51865257D01*
X24455523Y-52008114D01*
X24407904Y-52103352D01*
X24360285Y-52150971D01*
X24265047Y-52198590D01*
X23884095Y-52198590D01*
X24884095Y-52674780D02*
X24884095Y-51674780D01*
X25455523Y-52674780D01*
X25455523Y-51674780D01*
X26455523Y-52674780D02*
X25884095Y-52674780D01*
X26169809Y-52674780D02*
X26169809Y-51674780D01*
X26074571Y-51817638D01*
X25979333Y-51912876D01*
X25884095Y-51960495D01*
X33393142Y-6224542D02*
X33345523Y-6272161D01*
X33202666Y-6319780D01*
X33107428Y-6319780D01*
X32964571Y-6272161D01*
X32869333Y-6176923D01*
X32821714Y-6081685D01*
X32774095Y-5891209D01*
X32774095Y-5748352D01*
X32821714Y-5557876D01*
X32869333Y-5462638D01*
X32964571Y-5367400D01*
X33107428Y-5319780D01*
X33202666Y-5319780D01*
X33345523Y-5367400D01*
X33393142Y-5415019D01*
X33774095Y-5415019D02*
X33821714Y-5367400D01*
X33916952Y-5319780D01*
X34155047Y-5319780D01*
X34250285Y-5367400D01*
X34297904Y-5415019D01*
X34345523Y-5510257D01*
X34345523Y-5605495D01*
X34297904Y-5748352D01*
X33726476Y-6319780D01*
X34345523Y-6319780D01*
X35202666Y-5319780D02*
X35012190Y-5319780D01*
X34916952Y-5367400D01*
X34869333Y-5415019D01*
X34774095Y-5557876D01*
X34726476Y-5748352D01*
X34726476Y-6129304D01*
X34774095Y-6224542D01*
X34821714Y-6272161D01*
X34916952Y-6319780D01*
X35107428Y-6319780D01*
X35202666Y-6272161D01*
X35250285Y-6224542D01*
X35297904Y-6129304D01*
X35297904Y-5891209D01*
X35250285Y-5795971D01*
X35202666Y-5748352D01*
X35107428Y-5700733D01*
X34916952Y-5700733D01*
X34821714Y-5748352D01*
X34774095Y-5795971D01*
X34726476Y-5891209D01*
X25246104Y-9215380D02*
X25246104Y-8215380D01*
X25484200Y-8215380D01*
X25627057Y-8263000D01*
X25722295Y-8358238D01*
X25769914Y-8453476D01*
X25817533Y-8643952D01*
X25817533Y-8786809D01*
X25769914Y-8977285D01*
X25722295Y-9072523D01*
X25627057Y-9167761D01*
X25484200Y-9215380D01*
X25246104Y-9215380D01*
X26769914Y-9215380D02*
X26198485Y-9215380D01*
X26484200Y-9215380D02*
X26484200Y-8215380D01*
X26388961Y-8358238D01*
X26293723Y-8453476D01*
X26198485Y-8501095D01*
X18730933Y-9647180D02*
X18397600Y-9170990D01*
X18159504Y-9647180D02*
X18159504Y-8647180D01*
X18540457Y-8647180D01*
X18635695Y-8694800D01*
X18683314Y-8742419D01*
X18730933Y-8837657D01*
X18730933Y-8980514D01*
X18683314Y-9075752D01*
X18635695Y-9123371D01*
X18540457Y-9170990D01*
X18159504Y-9170990D01*
X19683314Y-9647180D02*
X19111885Y-9647180D01*
X19397600Y-9647180D02*
X19397600Y-8647180D01*
X19302361Y-8790038D01*
X19207123Y-8885276D01*
X19111885Y-8932895D01*
X96258142Y-98045542D02*
X96210523Y-98093161D01*
X96067666Y-98140780D01*
X95972428Y-98140780D01*
X95829571Y-98093161D01*
X95734333Y-97997923D01*
X95686714Y-97902685D01*
X95639095Y-97712209D01*
X95639095Y-97569352D01*
X95686714Y-97378876D01*
X95734333Y-97283638D01*
X95829571Y-97188400D01*
X95972428Y-97140780D01*
X96067666Y-97140780D01*
X96210523Y-97188400D01*
X96258142Y-97236019D01*
X97210523Y-98140780D02*
X96639095Y-98140780D01*
X96924809Y-98140780D02*
X96924809Y-97140780D01*
X96829571Y-97283638D01*
X96734333Y-97378876D01*
X96639095Y-97426495D01*
X98115285Y-97140780D02*
X97639095Y-97140780D01*
X97591476Y-97616971D01*
X97639095Y-97569352D01*
X97734333Y-97521733D01*
X97972428Y-97521733D01*
X98067666Y-97569352D01*
X98115285Y-97616971D01*
X98162904Y-97712209D01*
X98162904Y-97950304D01*
X98115285Y-98045542D01*
X98067666Y-98093161D01*
X97972428Y-98140780D01*
X97734333Y-98140780D01*
X97639095Y-98093161D01*
X97591476Y-98045542D01*
X96208142Y-73229542D02*
X96160523Y-73277161D01*
X96017666Y-73324780D01*
X95922428Y-73324780D01*
X95779571Y-73277161D01*
X95684333Y-73181923D01*
X95636714Y-73086685D01*
X95589095Y-72896209D01*
X95589095Y-72753352D01*
X95636714Y-72562876D01*
X95684333Y-72467638D01*
X95779571Y-72372400D01*
X95922428Y-72324780D01*
X96017666Y-72324780D01*
X96160523Y-72372400D01*
X96208142Y-72420019D01*
X96589095Y-72420019D02*
X96636714Y-72372400D01*
X96731952Y-72324780D01*
X96970047Y-72324780D01*
X97065285Y-72372400D01*
X97112904Y-72420019D01*
X97160523Y-72515257D01*
X97160523Y-72610495D01*
X97112904Y-72753352D01*
X96541476Y-73324780D01*
X97160523Y-73324780D01*
X97493857Y-72324780D02*
X98160523Y-72324780D01*
X97731952Y-73324780D01*
X25838304Y-620780D02*
X25838304Y-1430304D01*
X25885923Y-1525542D01*
X25933542Y-1573161D01*
X26028780Y-1620780D01*
X26219257Y-1620780D01*
X26314495Y-1573161D01*
X26362114Y-1525542D01*
X26409733Y-1430304D01*
X26409733Y-620780D01*
X27409733Y-1620780D02*
X26838304Y-1620780D01*
X27124019Y-1620780D02*
X27124019Y-620780D01*
X27028780Y-763638D01*
X26933542Y-858876D01*
X26838304Y-906495D01*
X27790685Y-716019D02*
X27838304Y-668400D01*
X27933542Y-620780D01*
X28171638Y-620780D01*
X28266876Y-668400D01*
X28314495Y-716019D01*
X28362114Y-811257D01*
X28362114Y-906495D01*
X28314495Y-1049352D01*
X27743066Y-1620780D01*
X28362114Y-1620780D01*
X92286714Y-42205733D02*
X92324809Y-42243828D01*
X92362904Y-42358114D01*
X92362904Y-42434304D01*
X92324809Y-42548590D01*
X92248619Y-42624780D01*
X92172428Y-42662876D01*
X92020047Y-42700971D01*
X91905761Y-42700971D01*
X91753380Y-42662876D01*
X91677190Y-42624780D01*
X91601000Y-42548590D01*
X91562904Y-42434304D01*
X91562904Y-42358114D01*
X91601000Y-42243828D01*
X91639095Y-42205733D01*
X91829571Y-41520019D02*
X92362904Y-41520019D01*
X91524809Y-41710495D02*
X92096238Y-41900971D01*
X92096238Y-41405733D01*
X79533714Y-42678285D02*
X79571809Y-42716380D01*
X79609904Y-42830666D01*
X79609904Y-42906857D01*
X79571809Y-43021142D01*
X79495619Y-43097333D01*
X79419428Y-43135428D01*
X79267047Y-43173523D01*
X79152761Y-43173523D01*
X79000380Y-43135428D01*
X78924190Y-43097333D01*
X78848000Y-43021142D01*
X78809904Y-42906857D01*
X78809904Y-42830666D01*
X78848000Y-42716380D01*
X78886095Y-42678285D01*
X79609904Y-41916380D02*
X79609904Y-42373523D01*
X79609904Y-42144952D02*
X78809904Y-42144952D01*
X78924190Y-42221142D01*
X79000380Y-42297333D01*
X79038476Y-42373523D01*
X79076571Y-41230666D02*
X79609904Y-41230666D01*
X78771809Y-41421142D02*
X79343238Y-41611619D01*
X79343238Y-41116380D01*
X100086714Y-35958114D02*
X100048619Y-35996209D01*
X99934333Y-36034304D01*
X99858142Y-36034304D01*
X99743857Y-35996209D01*
X99667666Y-35920019D01*
X99629571Y-35843828D01*
X99591476Y-35691447D01*
X99591476Y-35577161D01*
X99629571Y-35424780D01*
X99667666Y-35348590D01*
X99743857Y-35272400D01*
X99858142Y-35234304D01*
X99934333Y-35234304D01*
X100048619Y-35272400D01*
X100086714Y-35310495D01*
X100391476Y-35310495D02*
X100429571Y-35272400D01*
X100505761Y-35234304D01*
X100696238Y-35234304D01*
X100772428Y-35272400D01*
X100810523Y-35310495D01*
X100848619Y-35386685D01*
X100848619Y-35462876D01*
X100810523Y-35577161D01*
X100353380Y-36034304D01*
X100848619Y-36034304D01*
X101305761Y-35577161D02*
X101229571Y-35539066D01*
X101191476Y-35500971D01*
X101153380Y-35424780D01*
X101153380Y-35386685D01*
X101191476Y-35310495D01*
X101229571Y-35272400D01*
X101305761Y-35234304D01*
X101458142Y-35234304D01*
X101534333Y-35272400D01*
X101572428Y-35310495D01*
X101610523Y-35386685D01*
X101610523Y-35424780D01*
X101572428Y-35500971D01*
X101534333Y-35539066D01*
X101458142Y-35577161D01*
X101305761Y-35577161D01*
X101229571Y-35615257D01*
X101191476Y-35653352D01*
X101153380Y-35729542D01*
X101153380Y-35881923D01*
X101191476Y-35958114D01*
X101229571Y-35996209D01*
X101305761Y-36034304D01*
X101458142Y-36034304D01*
X101534333Y-35996209D01*
X101572428Y-35958114D01*
X101610523Y-35881923D01*
X101610523Y-35729542D01*
X101572428Y-35653352D01*
X101534333Y-35615257D01*
X101458142Y-35577161D01*
X92236714Y-50186685D02*
X92274809Y-50224780D01*
X92312904Y-50339066D01*
X92312904Y-50415257D01*
X92274809Y-50529542D01*
X92198619Y-50605733D01*
X92122428Y-50643828D01*
X91970047Y-50681923D01*
X91855761Y-50681923D01*
X91703380Y-50643828D01*
X91627190Y-50605733D01*
X91551000Y-50529542D01*
X91512904Y-50415257D01*
X91512904Y-50339066D01*
X91551000Y-50224780D01*
X91589095Y-50186685D01*
X91512904Y-49920019D02*
X91512904Y-49424780D01*
X91817666Y-49691447D01*
X91817666Y-49577161D01*
X91855761Y-49500971D01*
X91893857Y-49462876D01*
X91970047Y-49424780D01*
X92160523Y-49424780D01*
X92236714Y-49462876D01*
X92274809Y-49500971D01*
X92312904Y-49577161D01*
X92312904Y-49805733D01*
X92274809Y-49881923D01*
X92236714Y-49920019D01*
X91512904Y-48929542D02*
X91512904Y-48853352D01*
X91551000Y-48777161D01*
X91589095Y-48739066D01*
X91665285Y-48700971D01*
X91817666Y-48662876D01*
X92008142Y-48662876D01*
X92160523Y-48700971D01*
X92236714Y-48739066D01*
X92274809Y-48777161D01*
X92312904Y-48853352D01*
X92312904Y-48929542D01*
X92274809Y-49005733D01*
X92236714Y-49043828D01*
X92160523Y-49081923D01*
X92008142Y-49120019D01*
X91817666Y-49120019D01*
X91665285Y-49081923D01*
X91589095Y-49043828D01*
X91551000Y-49005733D01*
X91512904Y-48929542D01*
X79635314Y-50069685D02*
X79673409Y-50107780D01*
X79711504Y-50222066D01*
X79711504Y-50298257D01*
X79673409Y-50412542D01*
X79597219Y-50488733D01*
X79521028Y-50526828D01*
X79368647Y-50564923D01*
X79254361Y-50564923D01*
X79101980Y-50526828D01*
X79025790Y-50488733D01*
X78949600Y-50412542D01*
X78911504Y-50298257D01*
X78911504Y-50222066D01*
X78949600Y-50107780D01*
X78987695Y-50069685D01*
X78911504Y-49803019D02*
X78911504Y-49307780D01*
X79216266Y-49574447D01*
X79216266Y-49460161D01*
X79254361Y-49383971D01*
X79292457Y-49345876D01*
X79368647Y-49307780D01*
X79559123Y-49307780D01*
X79635314Y-49345876D01*
X79673409Y-49383971D01*
X79711504Y-49460161D01*
X79711504Y-49688733D01*
X79673409Y-49764923D01*
X79635314Y-49803019D01*
X79711504Y-48545876D02*
X79711504Y-49003019D01*
X79711504Y-48774447D02*
X78911504Y-48774447D01*
X79025790Y-48850638D01*
X79101980Y-48926828D01*
X79140076Y-49003019D01*
X92636714Y-36008114D02*
X92598619Y-36046209D01*
X92484333Y-36084304D01*
X92408142Y-36084304D01*
X92293857Y-36046209D01*
X92217666Y-35970019D01*
X92179571Y-35893828D01*
X92141476Y-35741447D01*
X92141476Y-35627161D01*
X92179571Y-35474780D01*
X92217666Y-35398590D01*
X92293857Y-35322400D01*
X92408142Y-35284304D01*
X92484333Y-35284304D01*
X92598619Y-35322400D01*
X92636714Y-35360495D01*
X92903380Y-35284304D02*
X93398619Y-35284304D01*
X93131952Y-35589066D01*
X93246238Y-35589066D01*
X93322428Y-35627161D01*
X93360523Y-35665257D01*
X93398619Y-35741447D01*
X93398619Y-35931923D01*
X93360523Y-36008114D01*
X93322428Y-36046209D01*
X93246238Y-36084304D01*
X93017666Y-36084304D01*
X92941476Y-36046209D01*
X92903380Y-36008114D01*
X93703380Y-35360495D02*
X93741476Y-35322400D01*
X93817666Y-35284304D01*
X94008142Y-35284304D01*
X94084333Y-35322400D01*
X94122428Y-35360495D01*
X94160523Y-35436685D01*
X94160523Y-35512876D01*
X94122428Y-35627161D01*
X93665285Y-36084304D01*
X94160523Y-36084304D01*
X84905914Y-36048914D02*
X84867819Y-36087009D01*
X84753533Y-36125104D01*
X84677342Y-36125104D01*
X84563057Y-36087009D01*
X84486866Y-36010819D01*
X84448771Y-35934628D01*
X84410676Y-35782247D01*
X84410676Y-35667961D01*
X84448771Y-35515580D01*
X84486866Y-35439390D01*
X84563057Y-35363200D01*
X84677342Y-35325104D01*
X84753533Y-35325104D01*
X84867819Y-35363200D01*
X84905914Y-35401295D01*
X85172580Y-35325104D02*
X85667819Y-35325104D01*
X85401152Y-35629866D01*
X85515438Y-35629866D01*
X85591628Y-35667961D01*
X85629723Y-35706057D01*
X85667819Y-35782247D01*
X85667819Y-35972723D01*
X85629723Y-36048914D01*
X85591628Y-36087009D01*
X85515438Y-36125104D01*
X85286866Y-36125104D01*
X85210676Y-36087009D01*
X85172580Y-36048914D01*
X85934485Y-35325104D02*
X86429723Y-35325104D01*
X86163057Y-35629866D01*
X86277342Y-35629866D01*
X86353533Y-35667961D01*
X86391628Y-35706057D01*
X86429723Y-35782247D01*
X86429723Y-35972723D01*
X86391628Y-36048914D01*
X86353533Y-36087009D01*
X86277342Y-36125104D01*
X86048771Y-36125104D01*
X85972580Y-36087009D01*
X85934485Y-36048914D01*
X92236714Y-57736685D02*
X92274809Y-57774780D01*
X92312904Y-57889066D01*
X92312904Y-57965257D01*
X92274809Y-58079542D01*
X92198619Y-58155733D01*
X92122428Y-58193828D01*
X91970047Y-58231923D01*
X91855761Y-58231923D01*
X91703380Y-58193828D01*
X91627190Y-58155733D01*
X91551000Y-58079542D01*
X91512904Y-57965257D01*
X91512904Y-57889066D01*
X91551000Y-57774780D01*
X91589095Y-57736685D01*
X91512904Y-57470019D02*
X91512904Y-56974780D01*
X91817666Y-57241447D01*
X91817666Y-57127161D01*
X91855761Y-57050971D01*
X91893857Y-57012876D01*
X91970047Y-56974780D01*
X92160523Y-56974780D01*
X92236714Y-57012876D01*
X92274809Y-57050971D01*
X92312904Y-57127161D01*
X92312904Y-57355733D01*
X92274809Y-57431923D01*
X92236714Y-57470019D01*
X91779571Y-56289066D02*
X92312904Y-56289066D01*
X91474809Y-56479542D02*
X92046238Y-56670019D01*
X92046238Y-56174780D01*
X79660714Y-57943685D02*
X79698809Y-57981780D01*
X79736904Y-58096066D01*
X79736904Y-58172257D01*
X79698809Y-58286542D01*
X79622619Y-58362733D01*
X79546428Y-58400828D01*
X79394047Y-58438923D01*
X79279761Y-58438923D01*
X79127380Y-58400828D01*
X79051190Y-58362733D01*
X78975000Y-58286542D01*
X78936904Y-58172257D01*
X78936904Y-58096066D01*
X78975000Y-57981780D01*
X79013095Y-57943685D01*
X78936904Y-57677019D02*
X78936904Y-57181780D01*
X79241666Y-57448447D01*
X79241666Y-57334161D01*
X79279761Y-57257971D01*
X79317857Y-57219876D01*
X79394047Y-57181780D01*
X79584523Y-57181780D01*
X79660714Y-57219876D01*
X79698809Y-57257971D01*
X79736904Y-57334161D01*
X79736904Y-57562733D01*
X79698809Y-57638923D01*
X79660714Y-57677019D01*
X78936904Y-56457971D02*
X78936904Y-56838923D01*
X79317857Y-56877019D01*
X79279761Y-56838923D01*
X79241666Y-56762733D01*
X79241666Y-56572257D01*
X79279761Y-56496066D01*
X79317857Y-56457971D01*
X79394047Y-56419876D01*
X79584523Y-56419876D01*
X79660714Y-56457971D01*
X79698809Y-56496066D01*
X79736904Y-56572257D01*
X79736904Y-56762733D01*
X79698809Y-56838923D01*
X79660714Y-56877019D01*
X98639095Y-42524780D02*
X98639095Y-43334304D01*
X98686714Y-43429542D01*
X98734333Y-43477161D01*
X98829571Y-43524780D01*
X99020047Y-43524780D01*
X99115285Y-43477161D01*
X99162904Y-43429542D01*
X99210523Y-43334304D01*
X99210523Y-42524780D01*
X99829571Y-42953352D02*
X99734333Y-42905733D01*
X99686714Y-42858114D01*
X99639095Y-42762876D01*
X99639095Y-42715257D01*
X99686714Y-42620019D01*
X99734333Y-42572400D01*
X99829571Y-42524780D01*
X100020047Y-42524780D01*
X100115285Y-42572400D01*
X100162904Y-42620019D01*
X100210523Y-42715257D01*
X100210523Y-42762876D01*
X100162904Y-42858114D01*
X100115285Y-42905733D01*
X100020047Y-42953352D01*
X99829571Y-42953352D01*
X99734333Y-43000971D01*
X99686714Y-43048590D01*
X99639095Y-43143828D01*
X99639095Y-43334304D01*
X99686714Y-43429542D01*
X99734333Y-43477161D01*
X99829571Y-43524780D01*
X100020047Y-43524780D01*
X100115285Y-43477161D01*
X100162904Y-43429542D01*
X100210523Y-43334304D01*
X100210523Y-43143828D01*
X100162904Y-43048590D01*
X100115285Y-43000971D01*
X100020047Y-42953352D01*
X99107666Y-26274780D02*
X99107666Y-26989066D01*
X99060047Y-27131923D01*
X98964809Y-27227161D01*
X98821952Y-27274780D01*
X98726714Y-27274780D01*
X99726714Y-26703352D02*
X99631476Y-26655733D01*
X99583857Y-26608114D01*
X99536238Y-26512876D01*
X99536238Y-26465257D01*
X99583857Y-26370019D01*
X99631476Y-26322400D01*
X99726714Y-26274780D01*
X99917190Y-26274780D01*
X100012428Y-26322400D01*
X100060047Y-26370019D01*
X100107666Y-26465257D01*
X100107666Y-26512876D01*
X100060047Y-26608114D01*
X100012428Y-26655733D01*
X99917190Y-26703352D01*
X99726714Y-26703352D01*
X99631476Y-26750971D01*
X99583857Y-26798590D01*
X99536238Y-26893828D01*
X99536238Y-27084304D01*
X99583857Y-27179542D01*
X99631476Y-27227161D01*
X99726714Y-27274780D01*
X99917190Y-27274780D01*
X100012428Y-27227161D01*
X100060047Y-27179542D01*
X100107666Y-27084304D01*
X100107666Y-26893828D01*
X100060047Y-26798590D01*
X100012428Y-26750971D01*
X99917190Y-26703352D01*
%LPC*%
D15*
X82931000Y-39522400D03*
D16*
X90551000Y-57302400D03*
X82931000Y-42062400D03*
X90551000Y-54762400D03*
X82931000Y-44602400D03*
X90551000Y-52222400D03*
X82931000Y-47142400D03*
X90551000Y-49682400D03*
X82931000Y-49682400D03*
X90551000Y-47142400D03*
X82931000Y-52222400D03*
X90551000Y-44602400D03*
X82931000Y-54762400D03*
X90551000Y-42062400D03*
X82931000Y-57302400D03*
X90551000Y-39522400D03*
D17*
X65151000Y-26822400D03*
X65151000Y-16662400D03*
X54991000Y-26822400D03*
D18*
X9271000Y-1422400D03*
X6731000Y-1422400D03*
D19*
X4191000Y-1422400D03*
D20*
X95551000Y-28994100D03*
X95551000Y-3594100D03*
D21*
X93011000Y-21754100D03*
D22*
X93011000Y-18964100D03*
X93011000Y-16164100D03*
X93011000Y-13504100D03*
X93011000Y-10704100D03*
X95551000Y-12104100D03*
X95551000Y-14894100D03*
X95551000Y-17564100D03*
X95551000Y-20354100D03*
D23*
X47371000Y-21742400D03*
X47371000Y-24282400D03*
X47371000Y-26822400D03*
X47371000Y-29362400D03*
X47371000Y-31902400D03*
X47371000Y-19202400D03*
X47371000Y-16662400D03*
X47371000Y-14122400D03*
X47371000Y-11582400D03*
X47371000Y-9042400D03*
X47371000Y-6502400D03*
D15*
X44831000Y-21742400D03*
D23*
X44831000Y-24282400D03*
X44831000Y-26822400D03*
X44831000Y-29362400D03*
X44831000Y-31902400D03*
X44831000Y-34442400D03*
X44831000Y-19202400D03*
X44831000Y-16662400D03*
X44831000Y-14122400D03*
X44831000Y-11582400D03*
X44831000Y-9042400D03*
X47371000Y-34442400D03*
X49911000Y-34442400D03*
X52451000Y-34442400D03*
X54991000Y-34442400D03*
X57531000Y-34442400D03*
X60071000Y-34442400D03*
X62611000Y-34442400D03*
X65151000Y-34442400D03*
X67691000Y-34442400D03*
X70231000Y-34442400D03*
X47371000Y-36982400D03*
X49911000Y-36982400D03*
X52451000Y-36982400D03*
X54991000Y-36982400D03*
X57531000Y-36982400D03*
X60071000Y-36982400D03*
X62611000Y-36982400D03*
X65151000Y-36982400D03*
X67691000Y-36982400D03*
X70231000Y-36982400D03*
X72771000Y-36982400D03*
X72771000Y-34442400D03*
X72771000Y-31902400D03*
X72771000Y-29362400D03*
X72771000Y-26822400D03*
X72771000Y-24282400D03*
X72771000Y-21742400D03*
X72771000Y-19202400D03*
X72771000Y-16662400D03*
X72771000Y-14122400D03*
X72771000Y-11582400D03*
X75311000Y-34442400D03*
X75311000Y-31902400D03*
X75311000Y-29362400D03*
X75311000Y-26822400D03*
X75311000Y-24282400D03*
X75311000Y-21742400D03*
X75311000Y-19202400D03*
X75311000Y-16662400D03*
X75311000Y-14122400D03*
X75311000Y-11582400D03*
X75311000Y-9042400D03*
X72771000Y-9042400D03*
X70231000Y-9042400D03*
X67691000Y-9042400D03*
X65151000Y-9042400D03*
X62611000Y-9042400D03*
X60071000Y-9042400D03*
X57531000Y-9042400D03*
X54991000Y-9042400D03*
X52451000Y-9042400D03*
X49911000Y-9042400D03*
X72771000Y-6502400D03*
X70231000Y-6502400D03*
X67691000Y-6502400D03*
X65151000Y-6502400D03*
X62611000Y-6502400D03*
X60071000Y-6502400D03*
X57531000Y-6502400D03*
X54991000Y-6502400D03*
X52451000Y-6502400D03*
X49911000Y-6502400D03*
D24*
X32131000Y-29362400D03*
D25*
X34671000Y-29362400D03*
X32131000Y-31902400D03*
X34671000Y-31902400D03*
X32131000Y-34442400D03*
X34671000Y-34442400D03*
X32131000Y-36982400D03*
X34671000Y-36982400D03*
X32131000Y-39522400D03*
X34671000Y-39522400D03*
D15*
X37211000Y-47142400D03*
D16*
X52451000Y-95402400D03*
X37211000Y-49682400D03*
X52451000Y-92862400D03*
X37211000Y-52222400D03*
X52451000Y-90322400D03*
X37211000Y-54762400D03*
X52451000Y-87782400D03*
X37211000Y-57302400D03*
X52451000Y-85242400D03*
X37211000Y-59842400D03*
X52451000Y-82702400D03*
X37211000Y-62382400D03*
X52451000Y-80162400D03*
X37211000Y-64922400D03*
X52451000Y-77622400D03*
X37211000Y-67462400D03*
X52451000Y-75082400D03*
X37211000Y-70002400D03*
X52451000Y-72542400D03*
X37211000Y-72542400D03*
X52451000Y-70002400D03*
X37211000Y-75082400D03*
X52451000Y-67462400D03*
X37211000Y-77622400D03*
X52451000Y-64922400D03*
X37211000Y-80162400D03*
X52451000Y-62382400D03*
X37211000Y-82702400D03*
X52451000Y-59842400D03*
X37211000Y-85242400D03*
X52451000Y-57302400D03*
X37211000Y-87782400D03*
X52451000Y-54762400D03*
X37211000Y-90322400D03*
X52451000Y-52222400D03*
X37211000Y-92862400D03*
X52451000Y-49682400D03*
X37211000Y-95402400D03*
X52451000Y-47142400D03*
D15*
X39751000Y-47142400D03*
D16*
X54991000Y-95402400D03*
X39751000Y-49682400D03*
X54991000Y-92862400D03*
X39751000Y-52222400D03*
X54991000Y-90322400D03*
X39751000Y-54762400D03*
X54991000Y-87782400D03*
X39751000Y-57302400D03*
X54991000Y-85242400D03*
X39751000Y-59842400D03*
X54991000Y-82702400D03*
X39751000Y-62382400D03*
X54991000Y-80162400D03*
X39751000Y-64922400D03*
X54991000Y-77622400D03*
X39751000Y-67462400D03*
X54991000Y-75082400D03*
X39751000Y-70002400D03*
X54991000Y-72542400D03*
X39751000Y-72542400D03*
X54991000Y-70002400D03*
X39751000Y-75082400D03*
X54991000Y-67462400D03*
X39751000Y-77622400D03*
X54991000Y-64922400D03*
X39751000Y-80162400D03*
X54991000Y-62382400D03*
X39751000Y-82702400D03*
X54991000Y-59842400D03*
X39751000Y-85242400D03*
X54991000Y-57302400D03*
X39751000Y-87782400D03*
X54991000Y-54762400D03*
X39751000Y-90322400D03*
X54991000Y-52222400D03*
X39751000Y-92862400D03*
X54991000Y-49682400D03*
X39751000Y-95402400D03*
X54991000Y-47142400D03*
D15*
X60071000Y-47142400D03*
D16*
X75311000Y-95402400D03*
X60071000Y-49682400D03*
X75311000Y-92862400D03*
X60071000Y-52222400D03*
X75311000Y-90322400D03*
X60071000Y-54762400D03*
X75311000Y-87782400D03*
X60071000Y-57302400D03*
X75311000Y-85242400D03*
X60071000Y-59842400D03*
X75311000Y-82702400D03*
X60071000Y-62382400D03*
X75311000Y-80162400D03*
X60071000Y-64922400D03*
X75311000Y-77622400D03*
X60071000Y-67462400D03*
X75311000Y-75082400D03*
X60071000Y-70002400D03*
X75311000Y-72542400D03*
X60071000Y-72542400D03*
X75311000Y-70002400D03*
X60071000Y-75082400D03*
X75311000Y-67462400D03*
X60071000Y-77622400D03*
X75311000Y-64922400D03*
X60071000Y-80162400D03*
X75311000Y-62382400D03*
X60071000Y-82702400D03*
X75311000Y-59842400D03*
X60071000Y-85242400D03*
X75311000Y-57302400D03*
X60071000Y-87782400D03*
X75311000Y-54762400D03*
X60071000Y-90322400D03*
X75311000Y-52222400D03*
X60071000Y-92862400D03*
X75311000Y-49682400D03*
X60071000Y-95402400D03*
X75311000Y-47142400D03*
D15*
X21971000Y-29362400D03*
D16*
X4191000Y-36982400D03*
X19431000Y-29362400D03*
X6731000Y-36982400D03*
X16891000Y-29362400D03*
X9271000Y-36982400D03*
X14351000Y-29362400D03*
X11811000Y-36982400D03*
X11811000Y-29362400D03*
X14351000Y-36982400D03*
X9271000Y-29362400D03*
X16891000Y-36982400D03*
X6731000Y-29362400D03*
X19431000Y-36982400D03*
X4191000Y-29362400D03*
X21971000Y-36982400D03*
D15*
X21971000Y-14122400D03*
D16*
X6731000Y-21742400D03*
X19431000Y-14122400D03*
X9271000Y-21742400D03*
X16891000Y-14122400D03*
X11811000Y-21742400D03*
X14351000Y-14122400D03*
X14351000Y-21742400D03*
X11811000Y-14122400D03*
X16891000Y-21742400D03*
X9271000Y-14122400D03*
X19431000Y-21742400D03*
X6731000Y-14122400D03*
X21971000Y-21742400D03*
D26*
X2921000Y-15392400D03*
X1591000Y-13722400D03*
X4191000Y-13722400D03*
D27*
X96901000Y-82702400D03*
X96901000Y-87582400D03*
D15*
X21971000Y-42062400D03*
D16*
X6731000Y-49682400D03*
X19431000Y-42062400D03*
X9271000Y-49682400D03*
X16891000Y-42062400D03*
X11811000Y-49682400D03*
X14351000Y-42062400D03*
X14351000Y-49682400D03*
X11811000Y-42062400D03*
X16891000Y-49682400D03*
X9271000Y-42062400D03*
X19431000Y-49682400D03*
X6731000Y-42062400D03*
X21971000Y-49682400D03*
D28*
X10541000Y-10312400D03*
D29*
X10541000Y-7772400D03*
D30*
X16891000Y-39522400D03*
D31*
X24511000Y-39522400D03*
D30*
X16891000Y-26822400D03*
D31*
X24511000Y-26822400D03*
D30*
X4191000Y-25552400D03*
D31*
X4191000Y-17932400D03*
D30*
X1651000Y-17932400D03*
D31*
X1651000Y-25552400D03*
D32*
X2921000Y-52222400D03*
D25*
X32131000Y-19202400D03*
D33*
X32131000Y-16662400D03*
X34671000Y-19202400D03*
D25*
X34671000Y-14122400D03*
D33*
X34671000Y-16662400D03*
D24*
X32131000Y-14122400D03*
D30*
X4191000Y-10312400D03*
X4191000Y-5312400D03*
X1651000Y-10312400D03*
X1651000Y-5312400D03*
X39751000Y-26902400D03*
X39751000Y-31902400D03*
X48641000Y-42062400D03*
X53641000Y-42062400D03*
X66421000Y-42062400D03*
X71421000Y-42062400D03*
X80391000Y-33092400D03*
X80391000Y-28092400D03*
X80391000Y-20472400D03*
X80391000Y-25472400D03*
X80391000Y-10312400D03*
X80391000Y-15312400D03*
X56261000Y-1422400D03*
X51261000Y-1422400D03*
X39751000Y-11582400D03*
X39751000Y-16582400D03*
X24511000Y-49682400D03*
X24511000Y-44682400D03*
X24511000Y-36982400D03*
X24511000Y-31982400D03*
X24511000Y-21742400D03*
X24511000Y-16742400D03*
X1651000Y-97942400D03*
X6651000Y-97942400D03*
X19431000Y-97942400D03*
X24431000Y-97942400D03*
X88011000Y-97942400D03*
X93011000Y-97942400D03*
X9271000Y-26822400D03*
X14271000Y-26822400D03*
X9271000Y-39522400D03*
X14271000Y-39522400D03*
X39751000Y-24282400D03*
X39751000Y-19282400D03*
D23*
X77851000Y-95402400D03*
D15*
X93091000Y-95402400D03*
D23*
X77851000Y-92862400D03*
X93091000Y-92862400D03*
X77851000Y-90322400D03*
X93091000Y-90322400D03*
X77851000Y-87782400D03*
X93091000Y-87782400D03*
X77851000Y-85242400D03*
X93091000Y-85242400D03*
X77851000Y-82702400D03*
X93091000Y-82702400D03*
X77851000Y-80162400D03*
X93091000Y-80162400D03*
X77851000Y-77622400D03*
X93091000Y-77622400D03*
X77851000Y-75082400D03*
X93091000Y-75082400D03*
X77851000Y-72542400D03*
X93091000Y-72542400D03*
X77851000Y-70002400D03*
X93091000Y-70002400D03*
X77851000Y-67462400D03*
X93091000Y-67462400D03*
X77851000Y-64922400D03*
X93091000Y-64922400D03*
X77851000Y-62382400D03*
X93091000Y-62382400D03*
X1651000Y-95402400D03*
X16891000Y-95402400D03*
X1651000Y-92862400D03*
X16891000Y-92862400D03*
X1651000Y-90322400D03*
X16891000Y-90322400D03*
X1651000Y-87782400D03*
X16891000Y-87782400D03*
X1651000Y-85242400D03*
X16891000Y-85242400D03*
X1651000Y-82702400D03*
X16891000Y-82702400D03*
X1651000Y-80162400D03*
X16891000Y-80162400D03*
X1651000Y-77622400D03*
X16891000Y-77622400D03*
X1651000Y-75082400D03*
X16891000Y-75082400D03*
X1651000Y-72542400D03*
X16891000Y-72542400D03*
X1651000Y-70002400D03*
X16891000Y-70002400D03*
X1651000Y-67462400D03*
X16891000Y-67462400D03*
X1651000Y-64922400D03*
X16891000Y-64922400D03*
X1651000Y-62382400D03*
X16891000Y-62382400D03*
X1651000Y-59842400D03*
X16891000Y-59842400D03*
X1651000Y-57302400D03*
X16891000Y-57302400D03*
X19431000Y-95402400D03*
X34671000Y-95402400D03*
X19431000Y-92862400D03*
X34671000Y-92862400D03*
X19431000Y-90322400D03*
X34671000Y-90322400D03*
X19431000Y-87782400D03*
X34671000Y-87782400D03*
X19431000Y-85242400D03*
X34671000Y-85242400D03*
X19431000Y-82702400D03*
X34671000Y-82702400D03*
X19431000Y-80162400D03*
X34671000Y-80162400D03*
X19431000Y-77622400D03*
X34671000Y-77622400D03*
X19431000Y-75082400D03*
X34671000Y-75082400D03*
X19431000Y-72542400D03*
X34671000Y-72542400D03*
X19431000Y-70002400D03*
X34671000Y-70002400D03*
X19431000Y-67462400D03*
X34671000Y-67462400D03*
X19431000Y-64922400D03*
X34671000Y-64922400D03*
X19431000Y-62382400D03*
X34671000Y-62382400D03*
X19431000Y-59842400D03*
X34671000Y-59842400D03*
X19431000Y-57302400D03*
X34671000Y-57302400D03*
X57531000Y-52222400D03*
X57531000Y-47142400D03*
X34671000Y-52222400D03*
X34671000Y-47142400D03*
D15*
X21971000Y-52222400D03*
D23*
X19431000Y-52222400D03*
X16891000Y-52222400D03*
X14351000Y-52222400D03*
X11811000Y-52222400D03*
X9271000Y-52222400D03*
X6731000Y-52222400D03*
X39751000Y-3962400D03*
X37251000Y-3962400D03*
D15*
X27305000Y-11582400D03*
D16*
X24765000Y-11582400D03*
D30*
X14986000Y-11582400D03*
D31*
X22606000Y-11582400D03*
D30*
X96901000Y-95362400D03*
X96901000Y-92862400D03*
X96901000Y-77622400D03*
X96901000Y-75122400D03*
D19*
X24511000Y-4597400D03*
D18*
X27051000Y-4597400D03*
X29591000Y-4597400D03*
D23*
X93091000Y-39522400D03*
X93091000Y-44602400D03*
X80391000Y-39522400D03*
X80391000Y-44602400D03*
X98171000Y-36982400D03*
X103251000Y-36982400D03*
X93091000Y-52222400D03*
X93091000Y-47142400D03*
X80391000Y-52222400D03*
X80391000Y-47142400D03*
X90551000Y-36982400D03*
X95631000Y-36982400D03*
X88011000Y-36982400D03*
X82931000Y-36982400D03*
X93091000Y-54762400D03*
X93091000Y-59842400D03*
X80391000Y-59842400D03*
X80391000Y-54762400D03*
D15*
X95631000Y-39522400D03*
D16*
X103251000Y-57302400D03*
X95631000Y-42062400D03*
X103251000Y-54762400D03*
X95631000Y-44602400D03*
X103251000Y-52222400D03*
X95631000Y-47142400D03*
X103251000Y-49682400D03*
X95631000Y-49682400D03*
X103251000Y-47142400D03*
X95631000Y-52222400D03*
X103251000Y-44602400D03*
X95631000Y-54762400D03*
X103251000Y-42062400D03*
X95631000Y-57302400D03*
X103251000Y-39522400D03*
D25*
X98171000Y-10312400D03*
X100711000Y-10312400D03*
X98171000Y-12852400D03*
X100711000Y-12852400D03*
X98171000Y-15392400D03*
X100711000Y-15392400D03*
X98171000Y-17932400D03*
X100711000Y-17932400D03*
X98171000Y-20472400D03*
D24*
X100711000Y-20472400D03*
M02*
