%TF.GenerationSoftware,KiCad,Pcbnew,5.1.5*%
%TF.CreationDate,2020-05-07T22:51:20+02:00*%
%TF.ProjectId,superpet,73757065-7270-4657-942e-6b696361645f,rev?*%
%TF.SameCoordinates,PX2edf448PY2f17140*%
%TF.FileFunction,Copper,L1,Top*%
%TF.FilePolarity,Positive*%
%FSLAX46Y46*%
G04 Gerber Fmt 4.6, Leading zero omitted, Abs format (unit mm)*
G04 Created by KiCad (PCBNEW 5.1.5) date 2020-05-07 22:51:20*
%MOMM*%
%LPD*%
G04 APERTURE LIST*
%ADD10C,0.300000*%
%ADD11R,1.422400X1.422400*%
%ADD12O,1.422400X1.422400*%
%ADD13O,1.800000X1.800000*%
%ADD14R,1.800000X1.800000*%
%ADD15C,3.810000*%
%ADD16R,1.520000X1.520000*%
%ADD17C,1.520000*%
%ADD18C,1.422400*%
%ADD19R,1.700000X1.700000*%
%ADD20C,1.700000*%
%ADD21C,1.400000*%
%ADD22C,1.500000*%
%ADD23R,2.600000X2.000000*%
%ADD24O,2.600000X2.000000*%
%ADD25C,1.600000*%
%ADD26O,1.600000X1.600000*%
%ADD27C,2.200000*%
%ADD28O,1.700000X1.700000*%
%ADD29C,1.000000*%
%ADD30C,0.203200*%
%ADD31C,0.660400*%
%ADD32C,0.254000*%
G04 APERTURE END LIST*
D10*
X99936714Y-1235971D02*
X100793857Y-1235971D01*
X100365285Y-2735971D02*
X100365285Y-1235971D01*
X101579571Y-1235971D02*
X101865285Y-1235971D01*
X102008142Y-1307400D01*
X102151000Y-1450257D01*
X102222428Y-1735971D01*
X102222428Y-2235971D01*
X102151000Y-2521685D01*
X102008142Y-2664542D01*
X101865285Y-2735971D01*
X101579571Y-2735971D01*
X101436714Y-2664542D01*
X101293857Y-2521685D01*
X101222428Y-2235971D01*
X101222428Y-1735971D01*
X101293857Y-1450257D01*
X101436714Y-1307400D01*
X101579571Y-1235971D01*
X102865285Y-2735971D02*
X102865285Y-1235971D01*
X103436714Y-1235971D01*
X103579571Y-1307400D01*
X103651000Y-1378828D01*
X103722428Y-1521685D01*
X103722428Y-1735971D01*
X103651000Y-1878828D01*
X103579571Y-1950257D01*
X103436714Y-2021685D01*
X102865285Y-2021685D01*
D11*
X82931000Y-39522400D03*
D12*
X90551000Y-57302400D03*
X82931000Y-42062400D03*
X90551000Y-54762400D03*
X82931000Y-44602400D03*
X90551000Y-52222400D03*
X82931000Y-47142400D03*
X90551000Y-49682400D03*
X82931000Y-49682400D03*
X90551000Y-47142400D03*
X82931000Y-52222400D03*
X90551000Y-44602400D03*
X82931000Y-54762400D03*
X90551000Y-42062400D03*
X82931000Y-57302400D03*
X90551000Y-39522400D03*
D13*
X9271000Y-1422400D03*
X6731000Y-1422400D03*
D14*
X4191000Y-1422400D03*
D15*
X95551000Y-28994100D03*
X95551000Y-3594100D03*
D16*
X93011000Y-21754100D03*
D17*
X93011000Y-18964100D03*
X93011000Y-16164100D03*
X93011000Y-13504100D03*
X93011000Y-10704100D03*
X95551000Y-12104100D03*
X95551000Y-14894100D03*
X95551000Y-17564100D03*
X95551000Y-20354100D03*
D18*
X47371000Y-21742400D03*
X47371000Y-24282400D03*
X47371000Y-26822400D03*
X47371000Y-29362400D03*
X47371000Y-31902400D03*
X47371000Y-19202400D03*
X47371000Y-16662400D03*
X47371000Y-14122400D03*
X47371000Y-11582400D03*
X47371000Y-9042400D03*
X47371000Y-6502400D03*
D11*
X44831000Y-21742400D03*
D18*
X44831000Y-24282400D03*
X44831000Y-26822400D03*
X44831000Y-29362400D03*
X44831000Y-31902400D03*
X44831000Y-34442400D03*
X44831000Y-19202400D03*
X44831000Y-16662400D03*
X44831000Y-14122400D03*
X44831000Y-11582400D03*
X44831000Y-9042400D03*
X47371000Y-34442400D03*
X49911000Y-34442400D03*
X52451000Y-34442400D03*
X54991000Y-34442400D03*
X57531000Y-34442400D03*
X60071000Y-34442400D03*
X62611000Y-34442400D03*
X65151000Y-34442400D03*
X67691000Y-34442400D03*
X70231000Y-34442400D03*
X47371000Y-36982400D03*
X49911000Y-36982400D03*
X52451000Y-36982400D03*
X54991000Y-36982400D03*
X57531000Y-36982400D03*
X60071000Y-36982400D03*
X62611000Y-36982400D03*
X65151000Y-36982400D03*
X67691000Y-36982400D03*
X70231000Y-36982400D03*
X72771000Y-36982400D03*
X72771000Y-34442400D03*
X72771000Y-31902400D03*
X72771000Y-29362400D03*
X72771000Y-26822400D03*
X72771000Y-24282400D03*
X72771000Y-21742400D03*
X72771000Y-19202400D03*
X72771000Y-16662400D03*
X72771000Y-14122400D03*
X72771000Y-11582400D03*
X75311000Y-34442400D03*
X75311000Y-31902400D03*
X75311000Y-29362400D03*
X75311000Y-26822400D03*
X75311000Y-24282400D03*
X75311000Y-21742400D03*
X75311000Y-19202400D03*
X75311000Y-16662400D03*
X75311000Y-14122400D03*
X75311000Y-11582400D03*
X75311000Y-9042400D03*
X72771000Y-9042400D03*
X70231000Y-9042400D03*
X67691000Y-9042400D03*
X65151000Y-9042400D03*
X62611000Y-9042400D03*
X60071000Y-9042400D03*
X57531000Y-9042400D03*
X54991000Y-9042400D03*
X52451000Y-9042400D03*
X49911000Y-9042400D03*
X72771000Y-6502400D03*
X70231000Y-6502400D03*
X67691000Y-6502400D03*
X65151000Y-6502400D03*
X62611000Y-6502400D03*
X60071000Y-6502400D03*
X57531000Y-6502400D03*
X54991000Y-6502400D03*
X52451000Y-6502400D03*
X49911000Y-6502400D03*
D19*
X32131000Y-29362400D03*
D20*
X34671000Y-29362400D03*
X32131000Y-31902400D03*
X34671000Y-31902400D03*
X32131000Y-34442400D03*
X34671000Y-34442400D03*
X32131000Y-36982400D03*
X34671000Y-36982400D03*
X32131000Y-39522400D03*
X34671000Y-39522400D03*
D11*
X37211000Y-47142400D03*
D12*
X52451000Y-95402400D03*
X37211000Y-49682400D03*
X52451000Y-92862400D03*
X37211000Y-52222400D03*
X52451000Y-90322400D03*
X37211000Y-54762400D03*
X52451000Y-87782400D03*
X37211000Y-57302400D03*
X52451000Y-85242400D03*
X37211000Y-59842400D03*
X52451000Y-82702400D03*
X37211000Y-62382400D03*
X52451000Y-80162400D03*
X37211000Y-64922400D03*
X52451000Y-77622400D03*
X37211000Y-67462400D03*
X52451000Y-75082400D03*
X37211000Y-70002400D03*
X52451000Y-72542400D03*
X37211000Y-72542400D03*
X52451000Y-70002400D03*
X37211000Y-75082400D03*
X52451000Y-67462400D03*
X37211000Y-77622400D03*
X52451000Y-64922400D03*
X37211000Y-80162400D03*
X52451000Y-62382400D03*
X37211000Y-82702400D03*
X52451000Y-59842400D03*
X37211000Y-85242400D03*
X52451000Y-57302400D03*
X37211000Y-87782400D03*
X52451000Y-54762400D03*
X37211000Y-90322400D03*
X52451000Y-52222400D03*
X37211000Y-92862400D03*
X52451000Y-49682400D03*
X37211000Y-95402400D03*
X52451000Y-47142400D03*
D11*
X39751000Y-47142400D03*
D12*
X54991000Y-95402400D03*
X39751000Y-49682400D03*
X54991000Y-92862400D03*
X39751000Y-52222400D03*
X54991000Y-90322400D03*
X39751000Y-54762400D03*
X54991000Y-87782400D03*
X39751000Y-57302400D03*
X54991000Y-85242400D03*
X39751000Y-59842400D03*
X54991000Y-82702400D03*
X39751000Y-62382400D03*
X54991000Y-80162400D03*
X39751000Y-64922400D03*
X54991000Y-77622400D03*
X39751000Y-67462400D03*
X54991000Y-75082400D03*
X39751000Y-70002400D03*
X54991000Y-72542400D03*
X39751000Y-72542400D03*
X54991000Y-70002400D03*
X39751000Y-75082400D03*
X54991000Y-67462400D03*
X39751000Y-77622400D03*
X54991000Y-64922400D03*
X39751000Y-80162400D03*
X54991000Y-62382400D03*
X39751000Y-82702400D03*
X54991000Y-59842400D03*
X39751000Y-85242400D03*
X54991000Y-57302400D03*
X39751000Y-87782400D03*
X54991000Y-54762400D03*
X39751000Y-90322400D03*
X54991000Y-52222400D03*
X39751000Y-92862400D03*
X54991000Y-49682400D03*
X39751000Y-95402400D03*
X54991000Y-47142400D03*
D11*
X60071000Y-47142400D03*
D12*
X75311000Y-95402400D03*
X60071000Y-49682400D03*
X75311000Y-92862400D03*
X60071000Y-52222400D03*
X75311000Y-90322400D03*
X60071000Y-54762400D03*
X75311000Y-87782400D03*
X60071000Y-57302400D03*
X75311000Y-85242400D03*
X60071000Y-59842400D03*
X75311000Y-82702400D03*
X60071000Y-62382400D03*
X75311000Y-80162400D03*
X60071000Y-64922400D03*
X75311000Y-77622400D03*
X60071000Y-67462400D03*
X75311000Y-75082400D03*
X60071000Y-70002400D03*
X75311000Y-72542400D03*
X60071000Y-72542400D03*
X75311000Y-70002400D03*
X60071000Y-75082400D03*
X75311000Y-67462400D03*
X60071000Y-77622400D03*
X75311000Y-64922400D03*
X60071000Y-80162400D03*
X75311000Y-62382400D03*
X60071000Y-82702400D03*
X75311000Y-59842400D03*
X60071000Y-85242400D03*
X75311000Y-57302400D03*
X60071000Y-87782400D03*
X75311000Y-54762400D03*
X60071000Y-90322400D03*
X75311000Y-52222400D03*
X60071000Y-92862400D03*
X75311000Y-49682400D03*
X60071000Y-95402400D03*
X75311000Y-47142400D03*
D11*
X21971000Y-29362400D03*
D12*
X4191000Y-36982400D03*
X19431000Y-29362400D03*
X6731000Y-36982400D03*
X16891000Y-29362400D03*
X9271000Y-36982400D03*
X14351000Y-29362400D03*
X11811000Y-36982400D03*
X11811000Y-29362400D03*
X14351000Y-36982400D03*
X9271000Y-29362400D03*
X16891000Y-36982400D03*
X6731000Y-29362400D03*
X19431000Y-36982400D03*
X4191000Y-29362400D03*
X21971000Y-36982400D03*
D11*
X21971000Y-14122400D03*
D12*
X6731000Y-21742400D03*
X19431000Y-14122400D03*
X9271000Y-21742400D03*
X16891000Y-14122400D03*
X11811000Y-21742400D03*
X14351000Y-14122400D03*
X14351000Y-21742400D03*
X11811000Y-14122400D03*
X16891000Y-21742400D03*
X9271000Y-14122400D03*
X19431000Y-21742400D03*
X6731000Y-14122400D03*
X21971000Y-21742400D03*
D21*
X2921000Y-15392400D03*
X1591000Y-13722400D03*
X4191000Y-13722400D03*
D22*
X96901000Y-82702400D03*
X96901000Y-87582400D03*
D11*
X21971000Y-42062400D03*
D12*
X6731000Y-49682400D03*
X19431000Y-42062400D03*
X9271000Y-49682400D03*
X16891000Y-42062400D03*
X11811000Y-49682400D03*
X14351000Y-42062400D03*
X14351000Y-49682400D03*
X11811000Y-42062400D03*
X16891000Y-49682400D03*
X9271000Y-42062400D03*
X19431000Y-49682400D03*
X6731000Y-42062400D03*
X21971000Y-49682400D03*
D23*
X10541000Y-10312400D03*
D24*
X10541000Y-7772400D03*
D25*
X16891000Y-39522400D03*
D26*
X24511000Y-39522400D03*
D25*
X16891000Y-26822400D03*
D26*
X24511000Y-26822400D03*
D25*
X4191000Y-25552400D03*
D26*
X4191000Y-17932400D03*
D25*
X1651000Y-17932400D03*
D26*
X1651000Y-25552400D03*
D27*
X2921000Y-52222400D03*
D20*
X32131000Y-19202400D03*
D28*
X32131000Y-16662400D03*
X34671000Y-19202400D03*
D20*
X34671000Y-14122400D03*
D28*
X34671000Y-16662400D03*
D19*
X32131000Y-14122400D03*
D25*
X4191000Y-10312400D03*
X4191000Y-5312400D03*
X1651000Y-10312400D03*
X1651000Y-5312400D03*
X39751000Y-26902400D03*
X39751000Y-31902400D03*
X48641000Y-42062400D03*
X53641000Y-42062400D03*
X66421000Y-42062400D03*
X71421000Y-42062400D03*
X80391000Y-33092400D03*
X80391000Y-28092400D03*
X80391000Y-20472400D03*
X80391000Y-25472400D03*
X80391000Y-10312400D03*
X80391000Y-15312400D03*
X56261000Y-1422400D03*
X51261000Y-1422400D03*
X39751000Y-11582400D03*
X39751000Y-16582400D03*
X24511000Y-49682400D03*
X24511000Y-44682400D03*
X24511000Y-36982400D03*
X24511000Y-31982400D03*
X24511000Y-21742400D03*
X24511000Y-16742400D03*
X1651000Y-97942400D03*
X6651000Y-97942400D03*
X19431000Y-97942400D03*
X24431000Y-97942400D03*
X88011000Y-97942400D03*
X93011000Y-97942400D03*
X9271000Y-26822400D03*
X14271000Y-26822400D03*
X9271000Y-39522400D03*
X14271000Y-39522400D03*
X39751000Y-24282400D03*
X39751000Y-19282400D03*
D18*
X77851000Y-95402400D03*
D11*
X93091000Y-95402400D03*
D18*
X77851000Y-92862400D03*
X93091000Y-92862400D03*
X77851000Y-90322400D03*
X93091000Y-90322400D03*
X77851000Y-87782400D03*
X93091000Y-87782400D03*
X77851000Y-85242400D03*
X93091000Y-85242400D03*
X77851000Y-82702400D03*
X93091000Y-82702400D03*
X77851000Y-80162400D03*
X93091000Y-80162400D03*
X77851000Y-77622400D03*
X93091000Y-77622400D03*
X77851000Y-75082400D03*
X93091000Y-75082400D03*
X77851000Y-72542400D03*
X93091000Y-72542400D03*
X77851000Y-70002400D03*
X93091000Y-70002400D03*
X77851000Y-67462400D03*
X93091000Y-67462400D03*
X77851000Y-64922400D03*
X93091000Y-64922400D03*
X77851000Y-62382400D03*
X93091000Y-62382400D03*
X1651000Y-95402400D03*
X16891000Y-95402400D03*
X1651000Y-92862400D03*
X16891000Y-92862400D03*
X1651000Y-90322400D03*
X16891000Y-90322400D03*
X1651000Y-87782400D03*
X16891000Y-87782400D03*
X1651000Y-85242400D03*
X16891000Y-85242400D03*
X1651000Y-82702400D03*
X16891000Y-82702400D03*
X1651000Y-80162400D03*
X16891000Y-80162400D03*
X1651000Y-77622400D03*
X16891000Y-77622400D03*
X1651000Y-75082400D03*
X16891000Y-75082400D03*
X1651000Y-72542400D03*
X16891000Y-72542400D03*
X1651000Y-70002400D03*
X16891000Y-70002400D03*
X1651000Y-67462400D03*
X16891000Y-67462400D03*
X1651000Y-64922400D03*
X16891000Y-64922400D03*
X1651000Y-62382400D03*
X16891000Y-62382400D03*
X1651000Y-59842400D03*
X16891000Y-59842400D03*
X1651000Y-57302400D03*
X16891000Y-57302400D03*
X19431000Y-95402400D03*
X34671000Y-95402400D03*
X19431000Y-92862400D03*
X34671000Y-92862400D03*
X19431000Y-90322400D03*
X34671000Y-90322400D03*
X19431000Y-87782400D03*
X34671000Y-87782400D03*
X19431000Y-85242400D03*
X34671000Y-85242400D03*
X19431000Y-82702400D03*
X34671000Y-82702400D03*
X19431000Y-80162400D03*
X34671000Y-80162400D03*
X19431000Y-77622400D03*
X34671000Y-77622400D03*
X19431000Y-75082400D03*
X34671000Y-75082400D03*
X19431000Y-72542400D03*
X34671000Y-72542400D03*
X19431000Y-70002400D03*
X34671000Y-70002400D03*
X19431000Y-67462400D03*
X34671000Y-67462400D03*
X19431000Y-64922400D03*
X34671000Y-64922400D03*
X19431000Y-62382400D03*
X34671000Y-62382400D03*
X19431000Y-59842400D03*
X34671000Y-59842400D03*
X19431000Y-57302400D03*
X34671000Y-57302400D03*
X57531000Y-52222400D03*
X57531000Y-47142400D03*
X34671000Y-52222400D03*
X34671000Y-47142400D03*
D11*
X21971000Y-52222400D03*
D18*
X19431000Y-52222400D03*
X16891000Y-52222400D03*
X14351000Y-52222400D03*
X11811000Y-52222400D03*
X9271000Y-52222400D03*
X6731000Y-52222400D03*
X39751000Y-3962400D03*
X37251000Y-3962400D03*
D11*
X27305000Y-11582400D03*
D12*
X24765000Y-11582400D03*
D25*
X14986000Y-11582400D03*
D26*
X22606000Y-11582400D03*
D25*
X96901000Y-95362400D03*
X96901000Y-92862400D03*
X96901000Y-77622400D03*
X96901000Y-75122400D03*
D14*
X24511000Y-4597400D03*
D13*
X27051000Y-4597400D03*
X29591000Y-4597400D03*
D18*
X93091000Y-39522400D03*
X93091000Y-44602400D03*
X80391000Y-39522400D03*
X80391000Y-44602400D03*
X98171000Y-36982400D03*
X103251000Y-36982400D03*
X93091000Y-52222400D03*
X93091000Y-47142400D03*
X80391000Y-52222400D03*
X80391000Y-47142400D03*
X90551000Y-36982400D03*
X95631000Y-36982400D03*
X88011000Y-36982400D03*
X82931000Y-36982400D03*
X93091000Y-54762400D03*
X93091000Y-59842400D03*
X80391000Y-59842400D03*
X80391000Y-54762400D03*
D11*
X95631000Y-39522400D03*
D12*
X103251000Y-57302400D03*
X95631000Y-42062400D03*
X103251000Y-54762400D03*
X95631000Y-44602400D03*
X103251000Y-52222400D03*
X95631000Y-47142400D03*
X103251000Y-49682400D03*
X95631000Y-49682400D03*
X103251000Y-47142400D03*
X95631000Y-52222400D03*
X103251000Y-44602400D03*
X95631000Y-54762400D03*
X103251000Y-42062400D03*
X95631000Y-57302400D03*
X103251000Y-39522400D03*
D20*
X98171000Y-10312400D03*
X100711000Y-10312400D03*
X98171000Y-12852400D03*
X100711000Y-12852400D03*
X98171000Y-15392400D03*
X100711000Y-15392400D03*
X98171000Y-17932400D03*
X100711000Y-17932400D03*
X98171000Y-20472400D03*
D19*
X100711000Y-20472400D03*
D29*
X58769255Y-33512410D03*
X50457999Y-28980059D03*
X8003650Y-53476977D03*
X38481000Y-45872400D03*
X23861319Y-81470636D03*
X23839716Y-78834825D03*
X23905123Y-76522210D03*
X41522558Y-64160647D03*
X23858221Y-73860035D03*
X75405223Y-43261233D03*
X41522558Y-66632675D03*
X24024426Y-71283859D03*
X75533985Y-41358250D03*
X41522558Y-68732400D03*
X33200192Y-68770678D03*
X41528529Y-71033651D03*
X33535303Y-66368601D03*
X82589340Y-18498472D03*
X41522558Y-73714588D03*
X83286600Y-17221200D03*
X84327999Y-70002401D03*
X41588295Y-76109770D03*
X76583221Y-61755289D03*
X32555265Y-61802098D03*
X33336354Y-35697236D03*
X49784000Y-32537400D03*
X41522558Y-78892400D03*
X41565192Y-59521725D03*
X41634814Y-83604210D03*
X43992800Y-54762400D03*
X15387587Y-92752810D03*
X15367000Y-94640400D03*
X15450251Y-96603507D03*
D18*
X31403615Y-63649876D03*
D29*
X56481838Y-13570734D03*
X36668596Y-11417934D03*
X35966400Y-23469600D03*
X84219855Y-11174280D03*
X85883371Y-55597237D03*
X85532508Y-11912182D03*
X87102382Y-59672481D03*
X23915978Y-58377898D03*
X50083496Y-17381589D03*
X33909000Y-23901400D03*
X20218400Y-26593800D03*
X86425284Y-92872915D03*
X42645747Y-24023906D03*
X38715231Y-9266378D03*
X22856326Y-90068400D03*
X86631500Y-90847359D03*
X87122000Y-11988800D03*
X26064105Y-89028449D03*
X28778200Y-13385800D03*
X35941006Y-89699784D03*
X27076185Y-13657210D03*
X24233231Y-86534456D03*
X31399077Y-49502437D03*
X57462045Y-20830694D03*
X27273500Y-69874798D03*
X27279600Y-24257000D03*
X28539548Y-75650057D03*
X54991000Y-19646900D03*
X28211364Y-16953057D03*
X27730665Y-68681460D03*
X50730021Y-21851827D03*
X27792202Y-25345558D03*
X51181000Y-13502402D03*
X83515200Y-22428200D03*
X56481499Y-44715479D03*
X69088000Y-31641608D03*
X52139257Y-40919400D03*
X67691000Y-38696900D03*
X4419362Y-50935999D03*
X62076646Y-49682400D03*
X30130152Y-60861343D03*
X28244423Y-15296380D03*
D30*
X62611000Y-6502400D02*
X61312784Y-7800616D01*
X58845814Y-8445088D02*
X58845814Y-9766217D01*
X61312784Y-7800616D02*
X59490286Y-7800616D01*
X59490286Y-7800616D02*
X58845814Y-8445088D01*
X58845814Y-9766217D02*
X59445698Y-10366101D01*
X59445698Y-10366101D02*
X59445698Y-32835967D01*
X59445698Y-32835967D02*
X58769255Y-33512410D01*
D31*
X6731000Y-14122400D02*
X6731000Y-9773920D01*
X6731000Y-9773920D02*
X8732520Y-7772400D01*
X8732520Y-7772400D02*
X10541000Y-7772400D01*
X34671000Y-57302400D02*
X34671000Y-56296612D01*
X33426399Y-55052011D02*
X33426399Y-48387001D01*
X34671000Y-56296612D02*
X33426399Y-55052011D01*
X33426399Y-48387001D02*
X33959801Y-47853599D01*
X33959801Y-47853599D02*
X34671000Y-47142400D01*
X67691000Y-9042400D02*
X67691000Y-11117628D01*
X67691000Y-11117628D02*
X71965772Y-15392400D01*
X71965772Y-15392400D02*
X74041000Y-15392400D01*
X74041000Y-15392400D02*
X75311000Y-16662400D01*
X32131000Y-19202400D02*
X32131000Y-24709234D01*
X34671000Y-27249234D02*
X34671000Y-28160319D01*
X34671000Y-28160319D02*
X34671000Y-29362400D01*
X32131000Y-24709234D02*
X34671000Y-27249234D01*
X39751000Y-24282400D02*
X41114981Y-22918419D01*
X40550999Y-17382399D02*
X39751000Y-16582400D01*
X41114981Y-22918419D02*
X41114981Y-17946381D01*
X41114981Y-17946381D02*
X40550999Y-17382399D01*
X16179801Y-58013599D02*
X16891000Y-57302400D01*
X6651000Y-67542400D02*
X16179801Y-58013599D01*
X6651000Y-97942400D02*
X6651000Y-67542400D01*
X80391000Y-25472400D02*
X79057599Y-24138999D01*
X79057599Y-24138999D02*
X79057599Y-16645801D01*
X79057599Y-16645801D02*
X80391000Y-15312400D01*
X80391000Y-25552400D02*
X80391000Y-25472400D01*
X80391000Y-15392400D02*
X80391000Y-15312400D01*
X60071000Y-47142400D02*
X60071000Y-47062400D01*
X39751000Y-16662400D02*
X39751000Y-16582400D01*
X49911000Y-6502400D02*
X49911000Y-2692400D01*
X49911000Y-2692400D02*
X51181000Y-1422400D01*
X51181000Y-1422400D02*
X51261000Y-1422400D01*
X71501000Y-42062400D02*
X71421000Y-42062400D01*
X53641000Y-42062400D02*
X53721000Y-42062400D01*
X54991000Y-34442400D02*
X53721000Y-35712400D01*
X53721000Y-35712400D02*
X53721000Y-42062400D01*
X88011000Y-52222400D02*
X90551000Y-54762400D01*
X88061800Y-42062400D02*
X90551000Y-42062400D01*
X88011000Y-42011600D02*
X88061800Y-42062400D01*
X88011000Y-36982400D02*
X88011000Y-42011600D01*
X88011000Y-42011600D02*
X88011000Y-52222400D01*
X93091000Y-57302400D02*
X93091000Y-59842400D01*
X90551000Y-54762400D02*
X93091000Y-57302400D01*
X95551000Y-36902400D02*
X95631000Y-36982400D01*
X95551000Y-28994100D02*
X95551000Y-36902400D01*
D30*
X49958000Y-28480060D02*
X50457999Y-28980059D01*
X49918122Y-20739313D02*
X49918122Y-28440182D01*
X52451000Y-18206435D02*
X49918122Y-20739313D01*
X52451000Y-9042400D02*
X52451000Y-18206435D01*
X49918122Y-28440182D02*
X49958000Y-28480060D01*
X75311000Y-31902400D02*
X76332580Y-32923980D01*
X68556169Y-45960767D02*
X68556169Y-86917231D01*
X76332580Y-32923980D02*
X76332580Y-35515714D01*
X76332580Y-35515714D02*
X70316199Y-41532095D01*
X70316199Y-41532095D02*
X70316199Y-44200737D01*
X70316199Y-44200737D02*
X68556169Y-45960767D01*
X68556169Y-86917231D02*
X60782199Y-94691201D01*
X60782199Y-94691201D02*
X60071000Y-95402400D01*
X75311000Y-95402400D02*
X69114863Y-89206263D01*
X69114863Y-89206263D02*
X69114863Y-45976827D01*
X72531206Y-42560484D02*
X72531206Y-40058080D01*
X69114863Y-45976827D02*
X72531206Y-42560484D01*
X72531206Y-40058080D02*
X76738991Y-35850295D01*
X76738991Y-35850295D02*
X76738991Y-31425391D01*
X76738991Y-31425391D02*
X75946000Y-30632400D01*
X75946000Y-30632400D02*
X74041000Y-30632400D01*
X74041000Y-30632400D02*
X72771000Y-31902400D01*
X61722000Y-56794400D02*
X60969755Y-56042155D01*
X60969755Y-56042155D02*
X59527725Y-56042155D01*
X59527725Y-56042155D02*
X59020710Y-55535140D01*
X59020710Y-55535140D02*
X59020710Y-54161690D01*
X59020710Y-54161690D02*
X59817000Y-53365400D01*
X59820517Y-53365400D02*
X60071000Y-53114917D01*
X60071000Y-53114917D02*
X60071000Y-52222400D01*
X59817000Y-53365400D02*
X59820517Y-53365400D01*
X77851000Y-90322400D02*
X76428588Y-91744812D01*
X76428588Y-91744812D02*
X76428588Y-96273129D01*
X76428588Y-96273129D02*
X75801391Y-96900326D01*
X75801391Y-96900326D02*
X59678211Y-96900326D01*
X59678211Y-96900326D02*
X58873693Y-96095808D01*
X58873693Y-96095808D02*
X58873693Y-69696025D01*
X58873693Y-69696025D02*
X59964318Y-68605400D01*
X59964318Y-68605400D02*
X60431682Y-68605400D01*
X60431682Y-68605400D02*
X61722000Y-67315082D01*
X61722000Y-67315082D02*
X61722000Y-56794400D01*
X75311000Y-29362400D02*
X77145402Y-31196802D01*
X74599801Y-92151201D02*
X75311000Y-92862400D01*
X77145402Y-31196802D02*
X77145402Y-36018635D01*
X77145402Y-36018635D02*
X72937617Y-40226420D01*
X72937617Y-40226420D02*
X72937617Y-42728826D01*
X69673557Y-87224957D02*
X74599801Y-92151201D01*
X72937617Y-42728826D02*
X69673557Y-45992886D01*
X69673557Y-45992886D02*
X69673557Y-87224957D01*
X8003338Y-53476665D02*
X8003650Y-53476977D01*
X8003338Y-43330062D02*
X8003338Y-53476665D01*
X9271000Y-42062400D02*
X8003338Y-43330062D01*
X75311000Y-26822400D02*
X77585856Y-29097256D01*
X77585856Y-29097256D02*
X77585856Y-36152932D01*
X77585856Y-36152932D02*
X73344028Y-40394760D01*
X73344028Y-40394760D02*
X73344028Y-42913770D01*
X73344028Y-42913770D02*
X70224492Y-46033306D01*
X70224492Y-46033306D02*
X70224492Y-85235892D01*
X70224492Y-85235892D02*
X74599801Y-89611201D01*
X74599801Y-89611201D02*
X75311000Y-90322400D01*
X39751000Y-59842400D02*
X38481000Y-58572400D01*
X38481000Y-58572400D02*
X38481000Y-45872400D01*
X72771000Y-26822400D02*
X73994339Y-25599061D01*
X73994339Y-25599061D02*
X75675161Y-25599061D01*
X75675161Y-25599061D02*
X77999002Y-27922902D01*
X70759907Y-83231307D02*
X74599801Y-87071201D01*
X74599801Y-87071201D02*
X75311000Y-87782400D01*
X77999002Y-27922902D02*
X77999002Y-36314537D01*
X77999002Y-36314537D02*
X73750439Y-40563100D01*
X73750439Y-43088523D02*
X70759907Y-46079055D01*
X73750439Y-40563100D02*
X73750439Y-43088523D01*
X70759907Y-46079055D02*
X70759907Y-83231307D01*
X19431000Y-67462400D02*
X21410751Y-69442151D01*
X21410751Y-69442151D02*
X21410751Y-79020068D01*
X21410751Y-79020068D02*
X23361320Y-80970637D01*
X23361320Y-80970637D02*
X23861319Y-81470636D01*
X75311000Y-85242400D02*
X71341880Y-81273280D01*
X71341880Y-46088446D02*
X74156850Y-43273476D01*
X71341880Y-81273280D02*
X71341880Y-46088446D01*
X74156850Y-43273476D02*
X74156850Y-40731440D01*
X74156850Y-40731440D02*
X78407852Y-36480438D01*
X78407852Y-36480438D02*
X78407852Y-27379252D01*
X78407852Y-27379252D02*
X75311000Y-24282400D01*
X19431000Y-64922400D02*
X22063106Y-67554506D01*
X22063106Y-67554506D02*
X22063106Y-77058215D01*
X22063106Y-77058215D02*
X23339717Y-78334826D01*
X23339717Y-78334826D02*
X23839716Y-78834825D01*
X72771000Y-21742400D02*
X74058828Y-23030228D01*
X74058828Y-23030228D02*
X75557742Y-23030228D01*
X75557742Y-23030228D02*
X78826210Y-26298696D01*
X71911299Y-79302699D02*
X75311000Y-82702400D01*
X78826210Y-26298696D02*
X78826210Y-36636831D01*
X78826210Y-36636831D02*
X74563261Y-40899780D01*
X74563261Y-40899780D02*
X74563261Y-43468617D01*
X74563261Y-43468617D02*
X71911299Y-46120579D01*
X71911299Y-46120579D02*
X71911299Y-79302699D01*
X23405124Y-76022211D02*
X23905123Y-76522210D01*
X22661097Y-75278184D02*
X23405124Y-76022211D01*
X22661097Y-65612497D02*
X22661097Y-75278184D01*
X19431000Y-62382400D02*
X22661097Y-65612497D01*
X39751000Y-67462400D02*
X39751000Y-66574695D01*
X39751000Y-66574695D02*
X41520503Y-64805192D01*
X41520503Y-64805192D02*
X41520503Y-64162702D01*
X41520503Y-64162702D02*
X41522558Y-64160647D01*
X57531000Y-45110400D02*
X57531000Y-37988188D01*
X57531000Y-37988188D02*
X57531000Y-36982400D01*
X57277000Y-62128400D02*
X57277000Y-54864000D01*
X57277000Y-54864000D02*
X56451500Y-54038500D01*
X60071000Y-64922400D02*
X57277000Y-62128400D01*
X56451500Y-54038500D02*
X56451500Y-46189900D01*
X56451500Y-46189900D02*
X57531000Y-45110400D01*
X19431000Y-59842400D02*
X23219625Y-63631025D01*
X23358222Y-73360036D02*
X23858221Y-73860035D01*
X23219625Y-63631025D02*
X23219625Y-73221439D01*
X23219625Y-73221439D02*
X23358222Y-73360036D01*
X72422070Y-46244386D02*
X74905224Y-43761232D01*
X75311000Y-80162400D02*
X72422070Y-77273470D01*
X72422070Y-77273470D02*
X72422070Y-46244386D01*
X74905224Y-43761232D02*
X75405223Y-43261233D01*
X57531000Y-34442400D02*
X58648588Y-35559988D01*
X58614299Y-53993350D02*
X58614299Y-59909699D01*
X58648588Y-35559988D02*
X58648588Y-50338421D01*
X58648588Y-50338421D02*
X59029591Y-50719423D01*
X61214000Y-61747400D02*
X61214000Y-66319400D01*
X59029591Y-50719423D02*
X59029591Y-53578058D01*
X58614299Y-59909699D02*
X59817000Y-61112400D01*
X60782199Y-66751201D02*
X60071000Y-67462400D01*
X59817000Y-61112400D02*
X60579000Y-61112400D01*
X59029591Y-53578058D02*
X58614299Y-53993350D01*
X60579000Y-61112400D02*
X61214000Y-61747400D01*
X61214000Y-66319400D02*
X60782199Y-66751201D01*
X39751000Y-70002400D02*
X39751000Y-69173527D01*
X39751000Y-69173527D02*
X41510886Y-67413641D01*
X41510886Y-67413641D02*
X41510886Y-66644347D01*
X41510886Y-66644347D02*
X41522558Y-66632675D01*
X19431000Y-57302400D02*
X24024426Y-61895826D01*
X24024426Y-61895826D02*
X24024426Y-71283859D01*
X76022177Y-44126887D02*
X76022177Y-43778039D01*
X72932841Y-75244241D02*
X72932841Y-47216222D01*
X76402527Y-42226792D02*
X76033984Y-41858249D01*
X76033984Y-41858249D02*
X75533985Y-41358250D01*
X76402527Y-43397690D02*
X76402527Y-42226792D01*
X72932841Y-47216222D02*
X76022177Y-44126887D01*
X75311000Y-77622400D02*
X72932841Y-75244241D01*
X76022177Y-43778039D02*
X76402527Y-43397690D01*
X60071000Y-36982400D02*
X60782199Y-37693599D01*
X60782199Y-37693599D02*
X60782199Y-38127657D01*
X60782199Y-38127657D02*
X61271845Y-38617303D01*
X60071000Y-70002400D02*
X62248438Y-67824962D01*
X62248438Y-67824962D02*
X62248438Y-51045298D01*
X62248438Y-51045298D02*
X61271845Y-50068705D01*
X61271845Y-50068705D02*
X61271845Y-38617303D01*
X41522558Y-69765054D02*
X41522558Y-69439506D01*
X41522558Y-69439506D02*
X41522558Y-68732400D01*
X39751000Y-71536612D02*
X41522558Y-69765054D01*
X39751000Y-72542400D02*
X39751000Y-71536612D01*
X34671000Y-59842400D02*
X34671000Y-60848188D01*
X34671000Y-60848188D02*
X32700193Y-62818995D01*
X32700193Y-62818995D02*
X32700193Y-68270679D01*
X32700193Y-68270679D02*
X33200192Y-68770678D01*
X78867001Y-37503297D02*
X78867001Y-40010081D01*
X76822300Y-43552668D02*
X76428588Y-43946379D01*
X79286199Y-37084099D02*
X78867001Y-37503297D01*
X79286199Y-25560796D02*
X79286199Y-37084099D01*
X74623900Y-20444207D02*
X76019814Y-20444207D01*
X74051216Y-17942616D02*
X74051216Y-19871523D01*
X72771000Y-16662400D02*
X74051216Y-17942616D01*
X76822300Y-42054782D02*
X76822300Y-43552668D01*
X77876400Y-22300793D02*
X77876400Y-24150998D01*
X77876400Y-24150998D02*
X79286199Y-25560796D01*
X73501654Y-47389646D02*
X73501654Y-73273054D01*
X74051216Y-19871523D02*
X74623900Y-20444207D01*
X76019814Y-20444207D02*
X77876400Y-22300793D01*
X76428588Y-44462712D02*
X73501654Y-47389646D01*
X73501654Y-73273054D02*
X74599801Y-74371201D01*
X74599801Y-74371201D02*
X75311000Y-75082400D01*
X76428588Y-43946379D02*
X76428588Y-44462712D01*
X78867001Y-40010081D02*
X76822300Y-42054782D01*
X60071000Y-72542400D02*
X62881456Y-69731944D01*
X62881456Y-69731944D02*
X62881456Y-38423735D01*
X62881456Y-38423735D02*
X62611000Y-38153279D01*
X62611000Y-38153279D02*
X62611000Y-37988188D01*
X62611000Y-37988188D02*
X62611000Y-36982400D01*
X41528529Y-71740757D02*
X41528529Y-71033651D01*
X41528529Y-72299083D02*
X41528529Y-71740757D01*
X39751000Y-75082400D02*
X39751000Y-74076612D01*
X39751000Y-74076612D02*
X41528529Y-72299083D01*
X33535303Y-63518097D02*
X33535303Y-66368601D01*
X34671000Y-62382400D02*
X33535303Y-63518097D01*
X75311000Y-72542400D02*
X74081338Y-71312738D01*
X82589340Y-35353018D02*
X82589340Y-19205578D01*
X82589340Y-19205578D02*
X82589340Y-18498472D01*
X79374999Y-45041823D02*
X79374999Y-38567359D01*
X75983167Y-48433655D02*
X79374999Y-45041823D01*
X74081338Y-49047400D02*
X74695083Y-48433655D01*
X79374999Y-38567359D02*
X82589340Y-35353018D01*
X74081338Y-71312738D02*
X74081338Y-49047400D01*
X74695083Y-48433655D02*
X75983167Y-48433655D01*
X60071000Y-75082400D02*
X63547668Y-71605732D01*
X63547668Y-71605732D02*
X63547668Y-38325421D01*
X63547668Y-38325421D02*
X63646556Y-38226533D01*
X63322199Y-35153599D02*
X62611000Y-34442400D01*
X63646556Y-38226533D02*
X63646556Y-35477956D01*
X63646556Y-35477956D02*
X63322199Y-35153599D01*
X39751000Y-77622400D02*
X39751000Y-76616612D01*
X39751000Y-76616612D02*
X41517930Y-74849682D01*
X41517930Y-74849682D02*
X41517930Y-73719216D01*
X41517930Y-73719216D02*
X41522558Y-73714588D01*
X75311000Y-70002400D02*
X77851000Y-70002400D01*
X84327999Y-55443834D02*
X84327999Y-69295295D01*
X84632800Y-18567400D02*
X84632800Y-55139033D01*
X83286600Y-17221200D02*
X84632800Y-18567400D01*
X84632800Y-55139033D02*
X84327999Y-55443834D01*
X84327999Y-69295295D02*
X84327999Y-70002401D01*
X60071000Y-77622400D02*
X64191629Y-73501771D01*
X64126507Y-38256295D02*
X64126507Y-35466893D01*
X64191629Y-73501771D02*
X64191629Y-38321417D01*
X64191629Y-38321417D02*
X64126507Y-38256295D01*
X64126507Y-35466893D02*
X64439801Y-35153599D01*
X64439801Y-35153599D02*
X65151000Y-34442400D01*
X41588295Y-76816876D02*
X41588295Y-76109770D01*
X41588295Y-77253899D02*
X41588295Y-76816876D01*
X39751000Y-79091194D02*
X41588295Y-77253899D01*
X39751000Y-80162400D02*
X39751000Y-79091194D01*
X76583221Y-61755289D02*
X76583221Y-66190179D01*
X76583221Y-66190179D02*
X75311000Y-67462400D01*
X32555265Y-47114735D02*
X32555265Y-61094992D01*
X33336354Y-35697236D02*
X33336354Y-46333646D01*
X32555265Y-61094992D02*
X32555265Y-61802098D01*
X33336354Y-46333646D02*
X32555265Y-47114735D01*
X75311000Y-67462400D02*
X76571368Y-68722768D01*
X76571368Y-68722768D02*
X78493380Y-68722768D01*
X78562199Y-94691201D02*
X77851000Y-95402400D01*
X78493380Y-68722768D02*
X79146122Y-69375510D01*
X79146122Y-69375510D02*
X79146122Y-94107278D01*
X79146122Y-94107278D02*
X78562199Y-94691201D01*
X48894999Y-17932399D02*
X49352222Y-18389622D01*
X49352222Y-31398516D02*
X49784000Y-31830294D01*
X49784000Y-31830294D02*
X49784000Y-32537400D01*
X47371000Y-6502400D02*
X48894999Y-8026399D01*
X48894999Y-8026399D02*
X48894999Y-17932399D01*
X49352222Y-18389622D02*
X49352222Y-31398516D01*
X60071000Y-80162400D02*
X64822540Y-75410860D01*
X67208400Y-33401000D02*
X68300600Y-33401000D01*
X68732400Y-35941000D02*
X68402199Y-36271201D01*
X64822540Y-75410860D02*
X64822540Y-45629360D01*
X64822540Y-45629360D02*
X67691000Y-42760900D01*
X67691000Y-42760900D02*
X67691000Y-40792400D01*
X67691000Y-40792400D02*
X66230500Y-39331900D01*
X66230500Y-39331900D02*
X66230500Y-34378900D01*
X66230500Y-34378900D02*
X67208400Y-33401000D01*
X68732400Y-33832800D02*
X68732400Y-35941000D01*
X68300600Y-33401000D02*
X68732400Y-33832800D01*
X68402199Y-36271201D02*
X67691000Y-36982400D01*
X37211000Y-82702400D02*
X34671000Y-82702400D01*
X39751000Y-82702400D02*
X37211000Y-82702400D01*
X41522558Y-79599506D02*
X41522558Y-78892400D01*
X39751000Y-82702400D02*
X41522558Y-80930842D01*
X41522558Y-80930842D02*
X41522558Y-79599506D01*
X44209516Y-25379037D02*
X39849380Y-29739173D01*
X45847001Y-20218401D02*
X45847001Y-24770081D01*
X38981905Y-29739173D02*
X37845941Y-30875137D01*
X45238045Y-25379037D02*
X44209516Y-25379037D01*
X45847001Y-24770081D02*
X45238045Y-25379037D01*
X37845941Y-30875137D02*
X37845941Y-38452594D01*
X44831000Y-19202400D02*
X45847001Y-20218401D01*
X39849380Y-29739173D02*
X38981905Y-29739173D01*
X37845941Y-38452594D02*
X42375176Y-42981829D01*
X42065191Y-59021726D02*
X41565192Y-59521725D01*
X42375176Y-42981829D02*
X42375176Y-58711741D01*
X42375176Y-58711741D02*
X42065191Y-59021726D01*
X67691000Y-34442400D02*
X66636911Y-35496489D01*
X66636911Y-35496489D02*
X66636911Y-39039811D01*
X66636911Y-39039811D02*
X68135500Y-40538400D01*
X68135500Y-40538400D02*
X68135500Y-43014900D01*
X68135500Y-43014900D02*
X65448451Y-45701949D01*
X65448451Y-45701949D02*
X65448451Y-77324949D01*
X65448451Y-77324949D02*
X60782199Y-81991201D01*
X60782199Y-81991201D02*
X60071000Y-82702400D01*
X39751000Y-85242400D02*
X41389190Y-83604210D01*
X41389190Y-83604210D02*
X41634814Y-83604210D01*
X37211000Y-85242400D02*
X34671000Y-85242400D01*
X39751000Y-85242400D02*
X37211000Y-85242400D01*
X60071000Y-85242400D02*
X66002142Y-79311258D01*
X66002142Y-45834058D02*
X68554600Y-43281600D01*
X66002142Y-79311258D02*
X66002142Y-45834058D01*
X68554600Y-38658800D02*
X70256400Y-36957000D01*
X68554600Y-43281600D02*
X68554600Y-38658800D01*
X70256400Y-36957000D02*
X70231000Y-36982400D01*
X77139801Y-93573599D02*
X77851000Y-92862400D01*
X53860601Y-83756599D02*
X53428900Y-84188300D01*
X76834999Y-96947063D02*
X76834999Y-93878401D01*
X56235600Y-83146999D02*
X55626000Y-83756599D01*
X55626000Y-83756599D02*
X53860601Y-83756599D01*
X53428900Y-84188300D02*
X51854100Y-84188300D01*
X56235600Y-56007000D02*
X56235600Y-83146999D01*
X76090608Y-97691454D02*
X76834999Y-96947063D01*
X76834999Y-93878401D02*
X77139801Y-93573599D01*
X51854100Y-84188300D02*
X51158212Y-84884188D01*
X51158212Y-84884188D02*
X51158212Y-95967464D01*
X51158212Y-95967464D02*
X52882202Y-97691454D01*
X54991000Y-54762400D02*
X56235600Y-56007000D01*
X52882202Y-97691454D02*
X76090608Y-97691454D01*
X43992800Y-40513000D02*
X43992800Y-54762400D01*
X48031400Y-25527000D02*
X46888400Y-25527000D01*
X46888400Y-25527000D02*
X46126400Y-26289000D01*
X47371000Y-21742400D02*
X48539400Y-22910800D01*
X48539400Y-25019000D02*
X48031400Y-25527000D01*
X48539400Y-22910800D02*
X48539400Y-25019000D01*
X41478200Y-30636767D02*
X41478200Y-37998400D01*
X46126400Y-26289000D02*
X46126400Y-27254200D01*
X44174979Y-27939988D02*
X41478200Y-30636767D01*
X46126400Y-27254200D02*
X45440612Y-27939988D01*
X45440612Y-27939988D02*
X44174979Y-27939988D01*
X41478200Y-37998400D02*
X43992800Y-40513000D01*
X60071000Y-87782400D02*
X66603980Y-81249420D01*
X66603980Y-81249420D02*
X66603980Y-45968820D01*
X69011800Y-43561000D02*
X69011800Y-39845486D01*
X66603980Y-45968820D02*
X69011800Y-43561000D01*
X69011800Y-39845486D02*
X71323200Y-37534086D01*
X71323200Y-37534086D02*
X71323200Y-35534600D01*
X71323200Y-35534600D02*
X70231000Y-34442400D01*
X19431000Y-80162400D02*
X18175149Y-81418251D01*
X18175149Y-81418251D02*
X16292472Y-81418251D01*
X16292472Y-81418251D02*
X15395073Y-82315650D01*
X15395073Y-82315650D02*
X15395073Y-92745324D01*
X15395073Y-92745324D02*
X15387587Y-92752810D01*
X60071000Y-90322400D02*
X67299107Y-83094293D01*
X74053700Y-33172400D02*
X75336400Y-34455100D01*
X67299107Y-83094293D02*
X67299107Y-45934093D01*
X75336400Y-34455100D02*
X75311000Y-34442400D01*
X67299107Y-45934093D02*
X69503377Y-43729823D01*
X69503377Y-43729823D02*
X69503378Y-41195415D01*
X72415400Y-33172400D02*
X74053700Y-33172400D01*
X69503378Y-41195415D02*
X71729602Y-38969191D01*
X71729602Y-38969191D02*
X71729602Y-33858198D01*
X71729602Y-33858198D02*
X72415400Y-33172400D01*
X15367000Y-94640400D02*
X15355557Y-94640400D01*
X15355557Y-94640400D02*
X14344340Y-93629183D01*
X19963030Y-78892400D02*
X20718545Y-78136885D01*
X14344340Y-93629183D02*
X14344340Y-81185060D01*
X14344340Y-81185060D02*
X16637000Y-78892400D01*
X20718545Y-78136885D02*
X20718545Y-73829945D01*
X16637000Y-78892400D02*
X19963030Y-78892400D01*
X20718545Y-73829945D02*
X20142199Y-73253599D01*
X20142199Y-73253599D02*
X19431000Y-72542400D01*
X60071000Y-92862400D02*
X67888840Y-85044560D01*
X67888840Y-85044560D02*
X67888840Y-46053345D01*
X69909788Y-41363755D02*
X73799678Y-37473865D01*
X67888840Y-46053345D02*
X69909788Y-44032397D01*
X69909788Y-44032397D02*
X69909788Y-41363755D01*
X73799678Y-37473865D02*
X73799678Y-35471078D01*
X73799678Y-35471078D02*
X73482199Y-35153599D01*
X73482199Y-35153599D02*
X72771000Y-34442400D01*
X19431000Y-77622400D02*
X18126130Y-76317530D01*
X18126130Y-76317530D02*
X16692188Y-76317530D01*
X16692188Y-76317530D02*
X13122059Y-79887659D01*
X13122059Y-94275315D02*
X15450251Y-96603507D01*
X13122059Y-79887659D02*
X13122059Y-94275315D01*
X6731000Y-49682400D02*
X6731000Y-44012914D01*
X6731000Y-44012914D02*
X5479055Y-42760969D01*
X5479055Y-42760969D02*
X5479055Y-32773344D01*
X5479055Y-32773344D02*
X8001000Y-30251399D01*
X8001000Y-30251399D02*
X8001000Y-23012400D01*
X8001000Y-23012400D02*
X9271000Y-21742400D01*
X56057800Y-42529812D02*
X52451000Y-46136612D01*
X48945811Y-18999210D02*
X48945811Y-33096211D01*
X44831000Y-21742400D02*
X43916600Y-21742400D01*
X55478680Y-33355280D02*
X56057800Y-33934400D01*
X48945811Y-33096211D02*
X49204880Y-33355280D01*
X49204880Y-33355280D02*
X55478680Y-33355280D01*
X52451000Y-46136612D02*
X52451000Y-47142400D01*
X43814999Y-18714719D02*
X44343319Y-18186399D01*
X43814999Y-21640799D02*
X43814999Y-18714719D01*
X43916600Y-21742400D02*
X43814999Y-21640799D01*
X48133000Y-18186399D02*
X48945811Y-18999210D01*
X56057800Y-33934400D02*
X56057800Y-42529812D01*
X44343319Y-18186399D02*
X48133000Y-18186399D01*
X53974999Y-48666399D02*
X53974999Y-82762649D01*
X53323108Y-99047201D02*
X88541305Y-99047201D01*
X91846400Y-89027000D02*
X92379801Y-88493599D01*
X88541305Y-99047201D02*
X91846400Y-95742106D01*
X92379801Y-88493599D02*
X93091000Y-87782400D01*
X91846400Y-95742106D02*
X91846400Y-89027000D01*
X50466928Y-96191021D02*
X53323108Y-99047201D01*
X52451000Y-47142400D02*
X53974999Y-48666399D01*
X50466928Y-85000721D02*
X50466928Y-96191021D01*
X51711160Y-83756489D02*
X50466928Y-85000721D01*
X52981161Y-83756489D02*
X51711160Y-83756489D01*
X53974999Y-82762649D02*
X52981161Y-83756489D01*
X1651000Y-17932400D02*
X1651000Y-23012400D01*
X1651000Y-23012400D02*
X4191000Y-25552400D01*
X1651000Y-17932400D02*
X1651000Y-16662400D01*
X1651000Y-16662400D02*
X2921000Y-15392400D01*
D31*
X1591000Y-13722400D02*
X1591000Y-10372400D01*
X1591000Y-10372400D02*
X1651000Y-10312400D01*
X5715000Y-2946400D02*
X4191000Y-1422400D01*
X1651000Y-8534400D02*
X2540000Y-7645400D01*
X1651000Y-10312400D02*
X1651000Y-8534400D01*
X2540000Y-7645400D02*
X4572000Y-7645400D01*
X4572000Y-7645400D02*
X5715000Y-6502400D01*
X5715000Y-6502400D02*
X5715000Y-2946400D01*
X4191000Y-10312400D02*
X9271000Y-5232400D01*
X9271000Y-5232400D02*
X9271000Y-1422400D01*
X31403615Y-51401381D02*
X30136923Y-50134689D01*
X12446000Y-1422400D02*
X9271000Y-1422400D01*
X18186399Y-7162799D02*
X12446000Y-1422400D01*
X31403615Y-63649876D02*
X31403615Y-51401381D01*
X30136923Y-10934523D02*
X26365199Y-7162799D01*
X30136923Y-50134689D02*
X30136923Y-10934523D01*
X26365199Y-7162799D02*
X18186399Y-7162799D01*
D30*
X54991000Y-47142400D02*
X54991000Y-44891785D01*
X54991000Y-44891785D02*
X56481838Y-43400947D01*
X56481838Y-43400947D02*
X56481838Y-30792562D01*
X56481838Y-30792562D02*
X58395154Y-28879246D01*
X58395154Y-28879246D02*
X58395154Y-24812508D01*
X58395154Y-24812508D02*
X56481838Y-22899192D01*
X56481838Y-22899192D02*
X56481838Y-13570734D01*
X36466399Y-22969601D02*
X35966400Y-23469600D01*
X36668596Y-11417934D02*
X36668596Y-22767404D01*
X36668596Y-22767404D02*
X36466399Y-22969601D01*
X65151000Y-6502400D02*
X63875397Y-7778003D01*
X63875397Y-7778003D02*
X61977719Y-7778003D01*
X61977719Y-7778003D02*
X61188588Y-8567134D01*
X61188588Y-8567134D02*
X61188588Y-9829812D01*
X61087001Y-51206400D02*
X61087001Y-53746399D01*
X61188588Y-33553400D02*
X61188588Y-35067327D01*
X60540917Y-10477483D02*
X60540917Y-32905729D01*
X61188588Y-9829812D02*
X60540917Y-10477483D01*
X60540917Y-32905729D02*
X61188588Y-33553400D01*
X61188588Y-35067327D02*
X60533050Y-35722865D01*
X60533050Y-35722865D02*
X59667345Y-35722865D01*
X59667345Y-35722865D02*
X59054999Y-36335211D01*
X59054999Y-36335211D02*
X59054999Y-50170081D01*
X59583319Y-50698401D02*
X60579002Y-50698401D01*
X59054999Y-50170081D02*
X59583319Y-50698401D01*
X60579002Y-50698401D02*
X61087001Y-51206400D01*
X61087001Y-53746399D02*
X60071000Y-54762400D01*
X85883371Y-54890131D02*
X85883371Y-55597237D01*
X85883371Y-15931771D02*
X85883371Y-54890131D01*
X84226400Y-14274800D02*
X85883371Y-15931771D01*
X84219855Y-11174280D02*
X84226400Y-11180825D01*
X84226400Y-11180825D02*
X84226400Y-14274800D01*
X86334600Y-15465906D02*
X86334600Y-54894066D01*
X85532508Y-14663814D02*
X86334600Y-15465906D01*
X86334600Y-54894066D02*
X87102382Y-55661848D01*
X85532508Y-11912182D02*
X85532508Y-14663814D01*
X87102382Y-58965375D02*
X87102382Y-59672481D01*
X87102382Y-55661848D02*
X87102382Y-58965375D01*
D31*
X65151000Y-36982400D02*
X65151000Y-40792400D01*
X65151000Y-40792400D02*
X66421000Y-42062400D01*
X44831000Y-24282400D02*
X43848717Y-24282400D01*
X41228717Y-26902400D02*
X40882370Y-26902400D01*
X43848717Y-24282400D02*
X41228717Y-26902400D01*
X40882370Y-26902400D02*
X39751000Y-26902400D01*
X39751000Y-11582400D02*
X40995601Y-12827001D01*
X40995601Y-12827001D02*
X46126399Y-12827001D01*
X46126399Y-12827001D02*
X46659801Y-12293599D01*
X46659801Y-12293599D02*
X47371000Y-11582400D01*
X39751000Y-26902400D02*
X34751000Y-31902400D01*
X34751000Y-31902400D02*
X34671000Y-31902400D01*
X39751000Y-11582400D02*
X38417599Y-12915801D01*
X38417599Y-12915801D02*
X38417599Y-25568999D01*
X38417599Y-25568999D02*
X38951001Y-26102401D01*
X38951001Y-26102401D02*
X39751000Y-26902400D01*
X57531000Y-6502400D02*
X57531000Y-2692400D01*
X57531000Y-2692400D02*
X56261000Y-1422400D01*
X24511000Y-36982400D02*
X23114000Y-35585400D01*
X23114000Y-35585400D02*
X23114000Y-31330738D01*
X24511000Y-29933738D02*
X24511000Y-26822400D01*
X23114000Y-31330738D02*
X24511000Y-29933738D01*
X21971000Y-52222400D02*
X21971000Y-52227657D01*
X3754573Y-95838827D02*
X2450999Y-97142401D01*
X21971000Y-52227657D02*
X19502757Y-54695900D01*
X15581658Y-54695900D02*
X3754573Y-66522985D01*
X3754573Y-66522985D02*
X3754573Y-95838827D01*
X19502757Y-54695900D02*
X15581658Y-54695900D01*
X2450999Y-97142401D02*
X1651000Y-97942400D01*
X24511000Y-39522400D02*
X24515977Y-39527377D01*
X23177599Y-43796055D02*
X23177599Y-45695684D01*
X24515977Y-39527377D02*
X24515977Y-42457677D01*
X24515977Y-42457677D02*
X23177599Y-43796055D01*
X23177599Y-45695684D02*
X24511000Y-47029085D01*
X24511000Y-47029085D02*
X24511000Y-49682400D01*
X19431000Y-97942400D02*
X19431000Y-95402400D01*
X24511000Y-36982400D02*
X24511000Y-39522400D01*
X24511000Y-21742400D02*
X24511000Y-26822400D01*
X21971000Y-14122400D02*
X21971000Y-19202400D01*
X21971000Y-19202400D02*
X24511000Y-21742400D01*
X60071000Y-62382400D02*
X57979291Y-60290691D01*
X57531000Y-53771800D02*
X57531000Y-52222400D01*
X57480200Y-53822600D02*
X57531000Y-53771800D01*
X57979291Y-60290691D02*
X57979291Y-54321691D01*
X57979291Y-54321691D02*
X57480200Y-53822600D01*
X14986000Y-11582400D02*
X16256000Y-11582400D01*
X16891000Y-12217400D02*
X16891000Y-14122400D01*
X16256000Y-11582400D02*
X16891000Y-12217400D01*
X88011000Y-97942400D02*
X84429600Y-97942400D01*
X84429600Y-97942400D02*
X80289400Y-93802200D01*
X80289400Y-64820800D02*
X77851000Y-62382400D01*
X80289400Y-93802200D02*
X80289400Y-64820800D01*
X81724401Y-26758999D02*
X81190999Y-27292401D01*
X81190999Y-27292401D02*
X80391000Y-28092400D01*
X81724401Y-24832367D02*
X81724401Y-26758999D01*
X80391000Y-23498966D02*
X81724401Y-24832367D01*
X80391000Y-20472400D02*
X80391000Y-23498966D01*
X81724401Y-11645801D02*
X81190999Y-11112399D01*
X80391000Y-19165763D02*
X81724401Y-17832362D01*
X80391000Y-20472400D02*
X80391000Y-19165763D01*
X81724401Y-17832362D02*
X81724401Y-11645801D01*
X81190999Y-11112399D02*
X80391000Y-10312400D01*
X39751000Y-3962400D02*
X39751000Y-11582400D01*
D30*
X23393787Y-57855707D02*
X23415979Y-57877899D01*
X23415979Y-57877899D02*
X23915978Y-58377898D01*
X23393787Y-49463228D02*
X23393787Y-57855707D01*
X20626709Y-46696150D02*
X23393787Y-49463228D01*
X23225126Y-28076526D02*
X23225126Y-30004233D01*
X16891000Y-21742400D02*
X23225126Y-28076526D01*
X23225126Y-30004233D02*
X20626709Y-32602650D01*
X20626709Y-32602650D02*
X20626709Y-46696150D01*
X16891000Y-42062400D02*
X15623093Y-40794493D01*
X15623093Y-35711427D02*
X21971000Y-29363520D01*
X15623093Y-40794493D02*
X15623093Y-35711427D01*
X21971000Y-29363520D02*
X21971000Y-29362400D01*
X19431000Y-49682400D02*
X19431000Y-52222400D01*
X49911000Y-9042400D02*
X49911000Y-17209093D01*
X49911000Y-17209093D02*
X50083496Y-17381589D01*
X19431000Y-49682400D02*
X19431000Y-44602400D01*
X19431000Y-44602400D02*
X16891000Y-42062400D01*
X35825801Y-17817201D02*
X35825801Y-21755999D01*
X34671000Y-16662400D02*
X35825801Y-17817201D01*
X35825801Y-21755999D02*
X33909000Y-23672800D01*
X33909000Y-23672800D02*
X33909000Y-23901400D01*
X21971000Y-28346400D02*
X21971000Y-29362400D01*
X20218400Y-26593800D02*
X21971000Y-28346400D01*
X4191000Y-36982400D02*
X4191000Y-49122323D01*
X4191000Y-49122323D02*
X5451798Y-50383121D01*
X5451798Y-50383121D02*
X5451798Y-53102145D01*
X5451798Y-53102145D02*
X6960768Y-54611115D01*
X6960768Y-54611115D02*
X9422285Y-54611115D01*
X9422285Y-54611115D02*
X11811000Y-52222400D01*
X11811000Y-52222400D02*
X11811000Y-49682400D01*
X85267800Y-55078784D02*
X84810622Y-55535962D01*
X83159600Y-11252200D02*
X83159600Y-14325600D01*
X79691962Y-7784562D02*
X83159600Y-11252200D01*
X71488838Y-7784562D02*
X79691962Y-7784562D01*
X83159600Y-14325600D02*
X85267800Y-16433800D01*
X85267800Y-16433800D02*
X85267800Y-55078784D01*
X70231000Y-9042400D02*
X71488838Y-7784562D01*
X84810622Y-55535962D02*
X84810622Y-69014514D01*
X85925285Y-92372916D02*
X86425284Y-92872915D01*
X84810622Y-69014514D02*
X85361402Y-69565294D01*
X85361402Y-69565294D02*
X85361402Y-91809033D01*
X85361402Y-91809033D02*
X85925285Y-92372916D01*
X42645747Y-18847653D02*
X42645747Y-24023906D01*
X44831000Y-16662400D02*
X42645747Y-18847653D01*
X35306000Y-71272400D02*
X35999690Y-70578710D01*
X38215232Y-9766377D02*
X38715231Y-9266378D01*
X37592000Y-10389609D02*
X38215232Y-9766377D01*
X33456948Y-31407346D02*
X34116695Y-30747599D01*
X33456948Y-32664400D02*
X33456948Y-31407346D01*
X37592000Y-28150506D02*
X37592000Y-10389609D01*
X34116695Y-30747599D02*
X34994907Y-30747599D01*
X33989054Y-33196506D02*
X33456948Y-32664400D01*
X33782000Y-71272400D02*
X35306000Y-71272400D01*
X32171546Y-72882854D02*
X33782000Y-71272400D01*
X35999690Y-34092836D02*
X35103360Y-33196506D01*
X35999690Y-70578710D02*
X35999690Y-34092836D01*
X32171546Y-88995035D02*
X32171546Y-72882854D01*
X31098181Y-90068400D02*
X32171546Y-88995035D01*
X22856326Y-90068400D02*
X31098181Y-90068400D01*
X34994907Y-30747599D02*
X37592000Y-28150506D01*
X35103360Y-33196506D02*
X33989054Y-33196506D01*
X20532235Y-87744309D02*
X22856326Y-90068400D01*
X19469091Y-87744309D02*
X20532235Y-87744309D01*
X19431000Y-87782400D02*
X19469091Y-87744309D01*
X19431000Y-87909400D02*
X19431000Y-87782400D01*
X86631500Y-90847359D02*
X87907183Y-89571676D01*
X86969600Y-12848306D02*
X87122000Y-12695906D01*
X86969600Y-54954315D02*
X86969600Y-12848306D01*
X87907183Y-89571676D02*
X87907183Y-55891898D01*
X87122000Y-12695906D02*
X87122000Y-11988800D01*
X87907183Y-55891898D02*
X86969600Y-54954315D01*
X26064105Y-89028449D02*
X26064105Y-16099895D01*
X26064105Y-16099895D02*
X28778200Y-13385800D01*
X41071789Y-30468427D02*
X44006617Y-27533599D01*
X36441005Y-89199785D02*
X40867738Y-89199785D01*
X44006617Y-27533599D02*
X44119801Y-27533599D01*
X35941006Y-89699784D02*
X36441005Y-89199785D01*
X44119801Y-27533599D02*
X44831000Y-26822400D01*
X43187998Y-86879525D02*
X43187998Y-41282998D01*
X41071789Y-39166789D02*
X41071789Y-30468427D01*
X43187998Y-41282998D02*
X41071789Y-39166789D01*
X40867738Y-89199785D02*
X43187998Y-86879525D01*
X46659801Y-27533599D02*
X47371000Y-26822400D01*
X44343318Y-28346399D02*
X45847001Y-28346399D01*
X19431000Y-90322400D02*
X20695246Y-91586646D01*
X20695246Y-91586646D02*
X41656000Y-91586646D01*
X42341809Y-30347908D02*
X44343318Y-28346399D01*
X41656000Y-91586646D02*
X44797602Y-88445044D01*
X44797602Y-40184252D02*
X42341809Y-37728459D01*
X45847001Y-28346399D02*
X46659801Y-27533599D01*
X42341809Y-37728459D02*
X42341809Y-30347908D01*
X44797602Y-88445044D02*
X44797602Y-40184252D01*
X26576186Y-14157209D02*
X27076185Y-13657210D01*
X25647597Y-15085798D02*
X26576186Y-14157209D01*
X25647597Y-85120090D02*
X25647597Y-15085798D01*
X24233231Y-86534456D02*
X25647597Y-85120090D01*
X16891000Y-90322400D02*
X19431000Y-92862400D01*
X18161000Y-89052400D02*
X17602199Y-89611201D01*
X20039062Y-89052400D02*
X18161000Y-89052400D01*
X22016136Y-91029474D02*
X20039062Y-89052400D01*
X33418593Y-88953952D02*
X31343071Y-91029474D01*
X33418593Y-84644385D02*
X33418593Y-88953952D01*
X38430863Y-31240939D02*
X38430863Y-37618063D01*
X39736372Y-30426932D02*
X39244870Y-30426932D01*
X44377856Y-25785448D02*
X39736372Y-30426932D01*
X31343071Y-91029474D02*
X22016136Y-91029474D01*
X38430863Y-37618063D02*
X42781587Y-41968787D01*
X45867952Y-25785448D02*
X44377856Y-25785448D01*
X17602199Y-89611201D02*
X16891000Y-90322400D01*
X42781587Y-41968787D02*
X42781587Y-81215400D01*
X42781587Y-81215400D02*
X40024587Y-83972400D01*
X40024587Y-83972400D02*
X34090578Y-83972400D01*
X39244870Y-30426932D02*
X38430863Y-31240939D01*
X47371000Y-24282400D02*
X45867952Y-25785448D01*
X34090578Y-83972400D02*
X33418593Y-84644385D01*
X45204013Y-91219387D02*
X42291000Y-94132400D01*
X35382199Y-94691201D02*
X34671000Y-95402400D01*
X46114454Y-30618946D02*
X44444556Y-30618946D01*
X44444556Y-30618946D02*
X42748220Y-32315282D01*
X45204013Y-39761611D02*
X45204013Y-91219387D01*
X35941000Y-94132400D02*
X35382199Y-94691201D01*
X42748220Y-32315282D02*
X42748220Y-37305818D01*
X42291000Y-94132400D02*
X35941000Y-94132400D01*
X47371000Y-29362400D02*
X46114454Y-30618946D01*
X42748220Y-37305818D02*
X45204013Y-39761611D01*
X31399077Y-49502437D02*
X31399077Y-41676162D01*
X31399077Y-41676162D02*
X30788006Y-41065091D01*
X30788006Y-41065091D02*
X30788006Y-39039800D01*
X30788006Y-18005394D02*
X30788006Y-39039800D01*
X30788006Y-39039800D02*
X30788006Y-40690800D01*
X32131000Y-16662400D02*
X30788006Y-18005394D01*
X57531000Y-20761739D02*
X57462045Y-20830694D01*
X57531000Y-9042400D02*
X57531000Y-20761739D01*
X27273500Y-69874798D02*
X26773501Y-69374799D01*
X26773501Y-69374799D02*
X26773501Y-24763099D01*
X26773501Y-24763099D02*
X26779601Y-24756999D01*
X26779601Y-24756999D02*
X27279600Y-24257000D01*
X54991000Y-19646900D02*
X54991000Y-18939794D01*
X54991000Y-18939794D02*
X54991000Y-9042400D01*
X28211364Y-16953057D02*
X28211364Y-24573612D01*
X28597004Y-24959252D02*
X28597004Y-74885495D01*
X28597004Y-74885495D02*
X28539548Y-74942951D01*
X28211364Y-24573612D02*
X28597004Y-24959252D01*
X28539548Y-74942951D02*
X28539548Y-75650057D01*
X53728896Y-18852952D02*
X50730021Y-21851827D01*
X53728896Y-7764504D02*
X53728896Y-18852952D01*
X54991000Y-6502400D02*
X53728896Y-7764504D01*
X27730665Y-68681460D02*
X27730665Y-25407095D01*
X27730665Y-25407095D02*
X27792202Y-25345558D01*
X51181000Y-12795296D02*
X51181000Y-13502402D01*
X52451000Y-7538718D02*
X51181000Y-8808718D01*
X51181000Y-8808718D02*
X51181000Y-12795296D01*
X52451000Y-6502400D02*
X52451000Y-7538718D01*
X97191001Y-18832399D02*
X98091000Y-17932400D01*
X96748600Y-19274800D02*
X97191001Y-18832399D01*
X96748600Y-21336000D02*
X96748600Y-19274800D01*
X95631000Y-54762400D02*
X96926400Y-53467000D01*
X96926400Y-31851600D02*
X98323400Y-30454600D01*
X98323400Y-30454600D02*
X98323400Y-22910800D01*
X96926400Y-53467000D02*
X96926400Y-31851600D01*
X98323400Y-22910800D02*
X96748600Y-21336000D01*
X102539801Y-55473599D02*
X103251000Y-54762400D01*
X101951000Y-56062400D02*
X102539801Y-55473599D01*
X93091000Y-76616612D02*
X101951000Y-67756612D01*
X101951000Y-67756612D02*
X101951000Y-56062400D01*
X93091000Y-77622400D02*
X93091000Y-76616612D01*
X91668588Y-43484812D02*
X91668588Y-14846512D01*
X91668588Y-14846512D02*
X92251001Y-14264099D01*
X92251001Y-14264099D02*
X93011000Y-13504100D01*
X90551000Y-44602400D02*
X91668588Y-43484812D01*
X102539801Y-50393599D02*
X103251000Y-49682400D01*
X100451000Y-52482400D02*
X102539801Y-50393599D01*
X93091000Y-67462400D02*
X100451000Y-60102400D01*
X100451000Y-60102400D02*
X100451000Y-52482400D01*
X103632000Y-18393400D02*
X103632000Y-27940000D01*
X102539801Y-43891201D02*
X103251000Y-44602400D01*
X103632000Y-27940000D02*
X101625411Y-29946589D01*
X100631000Y-15392400D02*
X103632000Y-18393400D01*
X101625411Y-29946589D02*
X101625411Y-42976811D01*
X101625411Y-42976811D02*
X102539801Y-43891201D01*
X91901000Y-68812400D02*
X92379801Y-69291201D01*
X93801000Y-61072400D02*
X92546800Y-61072400D01*
X91901000Y-61718200D02*
X91901000Y-68812400D01*
X94301000Y-60572400D02*
X93801000Y-61072400D01*
X93827600Y-53517800D02*
X94301000Y-53991200D01*
X92379801Y-69291201D02*
X93091000Y-70002400D01*
X92546800Y-61072400D02*
X91901000Y-61718200D01*
X91846400Y-53517800D02*
X93827600Y-53517800D01*
X90551000Y-52222400D02*
X91846400Y-53517800D01*
X94301000Y-53991200D02*
X94301000Y-60572400D01*
X102539801Y-46431201D02*
X103251000Y-47142400D01*
X102641400Y-19942800D02*
X102641400Y-27559000D01*
X100631000Y-17932400D02*
X102641400Y-19942800D01*
X102641400Y-27559000D02*
X100838000Y-29362400D01*
X100838000Y-29362400D02*
X100838000Y-44729400D01*
X100838000Y-44729400D02*
X102539801Y-46431201D01*
X92074999Y-45618401D02*
X92074999Y-24904903D01*
X90551000Y-47142400D02*
X92074999Y-45618401D01*
X92074999Y-24904903D02*
X95551000Y-21428902D01*
X95551000Y-21428902D02*
X95551000Y-20354100D01*
X96342199Y-56591201D02*
X95631000Y-57302400D01*
X98091000Y-15392400D02*
X99364800Y-16666200D01*
X99364800Y-53568600D02*
X96342199Y-56591201D01*
X99364800Y-16666200D02*
X99364800Y-53568600D01*
X82931000Y-56266082D02*
X84074000Y-55123082D01*
X82931000Y-57302400D02*
X82931000Y-56266082D01*
X83515200Y-22656800D02*
X83515200Y-22428200D01*
X84074000Y-23215600D02*
X83515200Y-22656800D01*
X84074000Y-55123082D02*
X84074000Y-23215600D01*
X9271000Y-26822400D02*
X9271000Y-29362400D01*
X56481499Y-45422585D02*
X56045089Y-45858995D01*
X54498188Y-84201000D02*
X53456788Y-85242400D01*
X56481499Y-44715479D02*
X56481499Y-45422585D01*
X56769000Y-83210400D02*
X55778400Y-84201000D01*
X56045089Y-45858995D02*
X56045089Y-54206840D01*
X55778400Y-84201000D02*
X54498188Y-84201000D01*
X56045089Y-54206840D02*
X56769000Y-54930751D01*
X53456788Y-85242400D02*
X52451000Y-85242400D01*
X56769000Y-54930751D02*
X56769000Y-83210400D01*
X69088000Y-30934502D02*
X69088000Y-31641608D01*
X69088000Y-15491889D02*
X69088000Y-30934502D01*
X65151000Y-9042400D02*
X65151000Y-11554889D01*
X65151000Y-11554889D02*
X69088000Y-15491889D01*
X51739801Y-81991201D02*
X52451000Y-82702400D01*
X43154631Y-33578769D02*
X43154631Y-36753831D01*
X44831000Y-31902400D02*
X43154631Y-33578769D01*
X43154631Y-36753831D02*
X45633370Y-39232570D01*
X45633370Y-39232570D02*
X45633370Y-75884770D01*
X45633370Y-75884770D02*
X51739801Y-81991201D01*
X46109952Y-33163448D02*
X44606270Y-33163448D01*
X47371000Y-31902400D02*
X46109952Y-33163448D01*
X51739801Y-79451201D02*
X52451000Y-80162400D01*
X43561042Y-35926316D02*
X46097623Y-38462897D01*
X46097623Y-73809023D02*
X51739801Y-79451201D01*
X46097623Y-38462897D02*
X46097623Y-73809023D01*
X43561042Y-34208676D02*
X43561042Y-35926316D01*
X44606270Y-33163448D02*
X43561042Y-34208676D01*
X44831000Y-34442400D02*
X46074917Y-35686317D01*
X46074917Y-35686317D02*
X46074917Y-37272816D01*
X46074917Y-37272816D02*
X46736000Y-37933899D01*
X46736000Y-37933899D02*
X46736000Y-71907400D01*
X46736000Y-71907400D02*
X51739801Y-76911201D01*
X51739801Y-76911201D02*
X52451000Y-77622400D01*
X47371000Y-36982400D02*
X47371000Y-70002400D01*
X47371000Y-70002400D02*
X51739801Y-74371201D01*
X51739801Y-74371201D02*
X52451000Y-75082400D01*
X49911000Y-34442400D02*
X48646926Y-35706474D01*
X48646926Y-35706474D02*
X48646926Y-39846617D01*
X48646926Y-39846617D02*
X49752053Y-40951744D01*
X49752053Y-40951744D02*
X49752053Y-43707690D01*
X49752053Y-43707690D02*
X48010555Y-45449188D01*
X48010555Y-45449188D02*
X48010555Y-68101955D01*
X48010555Y-68101955D02*
X51739801Y-71831201D01*
X51739801Y-71831201D02*
X52451000Y-72542400D01*
X52451000Y-70002400D02*
X53467001Y-68986399D01*
X53467001Y-68986399D02*
X53467001Y-66974719D01*
X53467001Y-66974719D02*
X52687929Y-66195647D01*
X49309178Y-45966672D02*
X51334447Y-43941403D01*
X51334447Y-43941403D02*
X51334447Y-38098953D01*
X52687929Y-66195647D02*
X52220565Y-66195647D01*
X52220565Y-66195647D02*
X49309178Y-63284260D01*
X49309178Y-63284260D02*
X49309178Y-45966672D01*
X51334447Y-38098953D02*
X51739801Y-37693599D01*
X51739801Y-37693599D02*
X52451000Y-36982400D01*
X52451000Y-67462400D02*
X48668085Y-63679485D01*
X48668085Y-63679485D02*
X48668085Y-45366409D01*
X51739801Y-35153599D02*
X52451000Y-34442400D01*
X48668085Y-45366409D02*
X50928036Y-43106458D01*
X50928036Y-43106458D02*
X50928036Y-35965364D01*
X50928036Y-35965364D02*
X51739801Y-35153599D01*
X52451000Y-64922400D02*
X53479788Y-63893612D01*
X53479788Y-63893612D02*
X53479788Y-49207506D01*
X53479788Y-49207506D02*
X52430683Y-48158401D01*
X52430683Y-48158401D02*
X51963319Y-48158401D01*
X51963319Y-48158401D02*
X51434999Y-47630081D01*
X51434999Y-47630081D02*
X51434999Y-46247739D01*
X51434999Y-46247739D02*
X54991000Y-42691738D01*
X54991000Y-42691738D02*
X54991000Y-37988188D01*
X54991000Y-37988188D02*
X54991000Y-36982400D01*
X67691000Y-38696900D02*
X69214999Y-37172901D01*
X69214999Y-37172901D02*
X69214999Y-33300955D01*
X69214999Y-33300955D02*
X70019885Y-32496069D01*
X70019885Y-32496069D02*
X70019885Y-15075899D01*
X70019885Y-15075899D02*
X66421000Y-11477014D01*
X66421000Y-11477014D02*
X66421000Y-7772400D01*
X66421000Y-7772400D02*
X67691000Y-6502400D01*
X52451000Y-62382400D02*
X49929477Y-59860877D01*
X49929477Y-59860877D02*
X49929477Y-46474602D01*
X49929477Y-46474602D02*
X52139257Y-44264822D01*
X52139257Y-44264822D02*
X52139257Y-41626506D01*
X52139257Y-41626506D02*
X52139257Y-40919400D01*
X9271000Y-52222400D02*
X10287001Y-51206399D01*
X10287001Y-51206399D02*
X10287001Y-43586399D01*
X10287001Y-43586399D02*
X11811000Y-42062400D01*
X14351000Y-29362400D02*
X11811000Y-26822400D01*
X11811000Y-26822400D02*
X11811000Y-21742400D01*
X11811000Y-36982400D02*
X15622785Y-33170615D01*
X15622785Y-33170615D02*
X15622785Y-23014185D01*
X15622785Y-23014185D02*
X15062199Y-22453599D01*
X15062199Y-22453599D02*
X14351000Y-21742400D01*
X9271000Y-49682400D02*
X9271000Y-43566082D01*
X9271000Y-43566082D02*
X10794999Y-42042083D01*
X10794999Y-42042083D02*
X10794999Y-40538401D01*
X10794999Y-40538401D02*
X14351000Y-36982400D01*
X1651000Y-25552400D02*
X1651000Y-48173286D01*
X1651000Y-48173286D02*
X4413713Y-50935999D01*
X4413713Y-50935999D02*
X4419362Y-50935999D01*
X62611000Y-9042400D02*
X61594999Y-10058401D01*
X61594999Y-10058401D02*
X61594999Y-38114000D01*
X61594999Y-38114000D02*
X62076646Y-38595647D01*
X62076646Y-38595647D02*
X62076646Y-48975294D01*
X62076646Y-48975294D02*
X62076646Y-49682400D01*
X62611000Y-9042400D02*
X62611000Y-9063631D01*
X29630153Y-60361344D02*
X30130152Y-60861343D01*
X28244423Y-15296380D02*
X29097090Y-16149047D01*
X29097090Y-16149047D02*
X29097090Y-59828281D01*
X29097090Y-59828281D02*
X29630153Y-60361344D01*
X93802199Y-74371201D02*
X93091000Y-75082400D01*
X101451000Y-66722400D02*
X93802199Y-74371201D01*
X104351000Y-56202400D02*
X104351000Y-54172400D01*
X104351000Y-54172400D02*
X103651000Y-53472400D01*
X103651000Y-53472400D02*
X102901000Y-53472400D01*
X101451000Y-54922400D02*
X101451000Y-66722400D01*
X103251000Y-57302400D02*
X104351000Y-56202400D01*
X102901000Y-53472400D02*
X101451000Y-54922400D01*
X93802199Y-71831201D02*
X93091000Y-72542400D01*
X100951000Y-64682400D02*
X93802199Y-71831201D01*
X100951000Y-54522400D02*
X100951000Y-64682400D01*
X103251000Y-52222400D02*
X100951000Y-54522400D01*
D32*
G36*
X104316001Y-99307400D02*
G01*
X93455608Y-99307400D01*
X93627292Y-99246003D01*
X93752514Y-99179071D01*
X93824097Y-98935102D01*
X93011000Y-98122005D01*
X92197903Y-98935102D01*
X92269486Y-99179071D01*
X92524996Y-99299971D01*
X92554633Y-99307400D01*
X89478000Y-99307400D01*
X89478000Y-99152215D01*
X90617303Y-98012912D01*
X91570783Y-98012912D01*
X91612213Y-98292530D01*
X91707397Y-98558692D01*
X91774329Y-98683914D01*
X92018298Y-98755497D01*
X92831395Y-97942400D01*
X93190605Y-97942400D01*
X94003702Y-98755497D01*
X94247671Y-98683914D01*
X94368571Y-98428404D01*
X94437300Y-98154216D01*
X94451217Y-97871888D01*
X94409787Y-97592270D01*
X94314603Y-97326108D01*
X94247671Y-97200886D01*
X94003702Y-97129303D01*
X93190605Y-97942400D01*
X92831395Y-97942400D01*
X92018298Y-97129303D01*
X91774329Y-97200886D01*
X91653429Y-97456396D01*
X91584700Y-97730584D01*
X91570783Y-98012912D01*
X90617303Y-98012912D01*
X92003761Y-96626455D01*
X92025306Y-96644137D01*
X92135620Y-96703102D01*
X92255318Y-96739412D01*
X92259483Y-96739822D01*
X92197903Y-96949698D01*
X93011000Y-97762795D01*
X93824097Y-96949698D01*
X93765917Y-96751410D01*
X93802200Y-96751672D01*
X93926682Y-96739412D01*
X94046380Y-96703102D01*
X94156694Y-96644137D01*
X94253385Y-96564785D01*
X94332737Y-96468094D01*
X94391702Y-96357780D01*
X94392514Y-96355102D01*
X96087903Y-96355102D01*
X96159486Y-96599071D01*
X96414996Y-96719971D01*
X96689184Y-96788700D01*
X96971512Y-96802617D01*
X97251130Y-96761187D01*
X97517292Y-96666003D01*
X97642514Y-96599071D01*
X97714097Y-96355102D01*
X96901000Y-95542005D01*
X96087903Y-96355102D01*
X94392514Y-96355102D01*
X94428012Y-96238082D01*
X94440272Y-96113600D01*
X94437200Y-95688150D01*
X94278450Y-95529400D01*
X93218000Y-95529400D01*
X93218000Y-95549400D01*
X92964000Y-95549400D01*
X92964000Y-95529400D01*
X92944000Y-95529400D01*
X92944000Y-95432912D01*
X95460783Y-95432912D01*
X95502213Y-95712530D01*
X95597397Y-95978692D01*
X95664329Y-96103914D01*
X95908298Y-96175497D01*
X96721395Y-95362400D01*
X97080605Y-95362400D01*
X97893702Y-96175497D01*
X98137671Y-96103914D01*
X98258571Y-95848404D01*
X98327300Y-95574216D01*
X98341217Y-95291888D01*
X98299787Y-95012270D01*
X98204603Y-94746108D01*
X98137671Y-94620886D01*
X97893702Y-94549303D01*
X97080605Y-95362400D01*
X96721395Y-95362400D01*
X95908298Y-94549303D01*
X95664329Y-94620886D01*
X95543429Y-94876396D01*
X95474700Y-95150584D01*
X95460783Y-95432912D01*
X92944000Y-95432912D01*
X92944000Y-95275400D01*
X92964000Y-95275400D01*
X92964000Y-95255400D01*
X93218000Y-95255400D01*
X93218000Y-95275400D01*
X94278450Y-95275400D01*
X94437200Y-95116650D01*
X94440272Y-94691200D01*
X94428012Y-94566718D01*
X94391702Y-94447020D01*
X94332737Y-94336706D01*
X94253385Y-94240015D01*
X94156694Y-94160663D01*
X94046380Y-94101698D01*
X93926682Y-94065388D01*
X93802200Y-94053128D01*
X93731279Y-94053640D01*
X93949153Y-93908062D01*
X94136662Y-93720553D01*
X94283987Y-93500065D01*
X94385467Y-93255072D01*
X94437200Y-92994989D01*
X94437200Y-92729811D01*
X94435461Y-92721065D01*
X95466000Y-92721065D01*
X95466000Y-93003735D01*
X95521147Y-93280974D01*
X95629320Y-93542127D01*
X95786363Y-93777159D01*
X95986241Y-93977037D01*
X96186869Y-94111092D01*
X96159486Y-94125729D01*
X96087903Y-94369698D01*
X96901000Y-95182795D01*
X97714097Y-94369698D01*
X97642514Y-94125729D01*
X97613659Y-94112076D01*
X97815759Y-93977037D01*
X98015637Y-93777159D01*
X98172680Y-93542127D01*
X98280853Y-93280974D01*
X98336000Y-93003735D01*
X98336000Y-92721065D01*
X98280853Y-92443826D01*
X98172680Y-92182673D01*
X98015637Y-91947641D01*
X97815759Y-91747763D01*
X97580727Y-91590720D01*
X97319574Y-91482547D01*
X97042335Y-91427400D01*
X96759665Y-91427400D01*
X96482426Y-91482547D01*
X96221273Y-91590720D01*
X95986241Y-91747763D01*
X95786363Y-91947641D01*
X95629320Y-92182673D01*
X95521147Y-92443826D01*
X95466000Y-92721065D01*
X94435461Y-92721065D01*
X94385467Y-92469728D01*
X94283987Y-92224735D01*
X94136662Y-92004247D01*
X93949153Y-91816738D01*
X93728665Y-91669413D01*
X93540400Y-91591431D01*
X93676280Y-91541942D01*
X93779848Y-91486583D01*
X93840668Y-91251673D01*
X93091000Y-90502005D01*
X93076858Y-90516148D01*
X92897253Y-90336543D01*
X92911395Y-90322400D01*
X93270605Y-90322400D01*
X94020273Y-91072068D01*
X94255183Y-91011248D01*
X94367202Y-90770891D01*
X94430176Y-90513298D01*
X94441687Y-90248370D01*
X94401291Y-89986287D01*
X94310542Y-89737120D01*
X94255183Y-89633552D01*
X94020273Y-89572732D01*
X93270605Y-90322400D01*
X92911395Y-90322400D01*
X92897253Y-90308258D01*
X93076858Y-90128653D01*
X93091000Y-90142795D01*
X93840668Y-89393127D01*
X93779848Y-89158217D01*
X93548066Y-89050194D01*
X93728665Y-88975387D01*
X93949153Y-88828062D01*
X94136662Y-88640553D01*
X94283987Y-88420065D01*
X94385467Y-88175072D01*
X94437200Y-87914989D01*
X94437200Y-87649811D01*
X94396658Y-87445989D01*
X95516000Y-87445989D01*
X95516000Y-87718811D01*
X95569225Y-87986389D01*
X95673629Y-88238443D01*
X95825201Y-88465286D01*
X96018114Y-88658199D01*
X96244957Y-88809771D01*
X96497011Y-88914175D01*
X96764589Y-88967400D01*
X97037411Y-88967400D01*
X97304989Y-88914175D01*
X97557043Y-88809771D01*
X97783886Y-88658199D01*
X97976799Y-88465286D01*
X98128371Y-88238443D01*
X98232775Y-87986389D01*
X98286000Y-87718811D01*
X98286000Y-87445989D01*
X98232775Y-87178411D01*
X98128371Y-86926357D01*
X97976799Y-86699514D01*
X97783886Y-86506601D01*
X97557043Y-86355029D01*
X97304989Y-86250625D01*
X97037411Y-86197400D01*
X96764589Y-86197400D01*
X96497011Y-86250625D01*
X96244957Y-86355029D01*
X96018114Y-86506601D01*
X95825201Y-86699514D01*
X95673629Y-86926357D01*
X95569225Y-87178411D01*
X95516000Y-87445989D01*
X94396658Y-87445989D01*
X94385467Y-87389728D01*
X94283987Y-87144735D01*
X94136662Y-86924247D01*
X93949153Y-86736738D01*
X93728665Y-86589413D01*
X93542740Y-86512400D01*
X93728665Y-86435387D01*
X93949153Y-86288062D01*
X94136662Y-86100553D01*
X94283987Y-85880065D01*
X94385467Y-85635072D01*
X94437200Y-85374989D01*
X94437200Y-85109811D01*
X94385467Y-84849728D01*
X94283987Y-84604735D01*
X94136662Y-84384247D01*
X93949153Y-84196738D01*
X93728665Y-84049413D01*
X93542740Y-83972400D01*
X93728665Y-83895387D01*
X93949153Y-83748062D01*
X94136662Y-83560553D01*
X94283987Y-83340065D01*
X94385467Y-83095072D01*
X94437200Y-82834989D01*
X94437200Y-82569811D01*
X94436440Y-82565989D01*
X95516000Y-82565989D01*
X95516000Y-82838811D01*
X95569225Y-83106389D01*
X95673629Y-83358443D01*
X95825201Y-83585286D01*
X96018114Y-83778199D01*
X96244957Y-83929771D01*
X96497011Y-84034175D01*
X96764589Y-84087400D01*
X97037411Y-84087400D01*
X97304989Y-84034175D01*
X97557043Y-83929771D01*
X97783886Y-83778199D01*
X97976799Y-83585286D01*
X98128371Y-83358443D01*
X98232775Y-83106389D01*
X98286000Y-82838811D01*
X98286000Y-82565989D01*
X98232775Y-82298411D01*
X98128371Y-82046357D01*
X97976799Y-81819514D01*
X97783886Y-81626601D01*
X97557043Y-81475029D01*
X97304989Y-81370625D01*
X97037411Y-81317400D01*
X96764589Y-81317400D01*
X96497011Y-81370625D01*
X96244957Y-81475029D01*
X96018114Y-81626601D01*
X95825201Y-81819514D01*
X95673629Y-82046357D01*
X95569225Y-82298411D01*
X95516000Y-82565989D01*
X94436440Y-82565989D01*
X94385467Y-82309728D01*
X94283987Y-82064735D01*
X94136662Y-81844247D01*
X93949153Y-81656738D01*
X93728665Y-81509413D01*
X93542740Y-81432400D01*
X93728665Y-81355387D01*
X93949153Y-81208062D01*
X94136662Y-81020553D01*
X94283987Y-80800065D01*
X94385467Y-80555072D01*
X94437200Y-80294989D01*
X94437200Y-80029811D01*
X94385467Y-79769728D01*
X94283987Y-79524735D01*
X94136662Y-79304247D01*
X93949153Y-79116738D01*
X93728665Y-78969413D01*
X93542740Y-78892400D01*
X93728665Y-78815387D01*
X93949153Y-78668062D01*
X94136662Y-78480553D01*
X94283987Y-78260065D01*
X94385467Y-78015072D01*
X94437200Y-77754989D01*
X94437200Y-77489811D01*
X94435461Y-77481065D01*
X95466000Y-77481065D01*
X95466000Y-77763735D01*
X95521147Y-78040974D01*
X95629320Y-78302127D01*
X95786363Y-78537159D01*
X95986241Y-78737037D01*
X96221273Y-78894080D01*
X96482426Y-79002253D01*
X96759665Y-79057400D01*
X97042335Y-79057400D01*
X97319574Y-79002253D01*
X97580727Y-78894080D01*
X97815759Y-78737037D01*
X98015637Y-78537159D01*
X98172680Y-78302127D01*
X98280853Y-78040974D01*
X98336000Y-77763735D01*
X98336000Y-77481065D01*
X98280853Y-77203826D01*
X98172680Y-76942673D01*
X98015637Y-76707641D01*
X97815759Y-76507763D01*
X97615131Y-76373708D01*
X97642514Y-76359071D01*
X97714097Y-76115102D01*
X96901000Y-75302005D01*
X96087903Y-76115102D01*
X96159486Y-76359071D01*
X96188341Y-76372724D01*
X95986241Y-76507763D01*
X95786363Y-76707641D01*
X95629320Y-76942673D01*
X95521147Y-77203826D01*
X95466000Y-77481065D01*
X94435461Y-77481065D01*
X94385467Y-77229728D01*
X94283987Y-76984735D01*
X94136662Y-76764247D01*
X94060868Y-76688453D01*
X95473123Y-75276198D01*
X95502213Y-75472530D01*
X95597397Y-75738692D01*
X95664329Y-75863914D01*
X95908298Y-75935497D01*
X96721395Y-75122400D01*
X97080605Y-75122400D01*
X97893702Y-75935497D01*
X98137671Y-75863914D01*
X98258571Y-75608404D01*
X98327300Y-75334216D01*
X98341217Y-75051888D01*
X98299787Y-74772270D01*
X98204603Y-74506108D01*
X98137671Y-74380886D01*
X97893702Y-74309303D01*
X97080605Y-75122400D01*
X96721395Y-75122400D01*
X96707253Y-75108258D01*
X96886858Y-74928653D01*
X96901000Y-74942795D01*
X97714097Y-74129698D01*
X97642514Y-73885729D01*
X97387004Y-73764829D01*
X97112816Y-73696100D01*
X97056021Y-73693300D01*
X101499922Y-69249400D01*
X104316001Y-69249400D01*
X104316001Y-99307400D01*
G37*
X104316001Y-99307400D02*
X93455608Y-99307400D01*
X93627292Y-99246003D01*
X93752514Y-99179071D01*
X93824097Y-98935102D01*
X93011000Y-98122005D01*
X92197903Y-98935102D01*
X92269486Y-99179071D01*
X92524996Y-99299971D01*
X92554633Y-99307400D01*
X89478000Y-99307400D01*
X89478000Y-99152215D01*
X90617303Y-98012912D01*
X91570783Y-98012912D01*
X91612213Y-98292530D01*
X91707397Y-98558692D01*
X91774329Y-98683914D01*
X92018298Y-98755497D01*
X92831395Y-97942400D01*
X93190605Y-97942400D01*
X94003702Y-98755497D01*
X94247671Y-98683914D01*
X94368571Y-98428404D01*
X94437300Y-98154216D01*
X94451217Y-97871888D01*
X94409787Y-97592270D01*
X94314603Y-97326108D01*
X94247671Y-97200886D01*
X94003702Y-97129303D01*
X93190605Y-97942400D01*
X92831395Y-97942400D01*
X92018298Y-97129303D01*
X91774329Y-97200886D01*
X91653429Y-97456396D01*
X91584700Y-97730584D01*
X91570783Y-98012912D01*
X90617303Y-98012912D01*
X92003761Y-96626455D01*
X92025306Y-96644137D01*
X92135620Y-96703102D01*
X92255318Y-96739412D01*
X92259483Y-96739822D01*
X92197903Y-96949698D01*
X93011000Y-97762795D01*
X93824097Y-96949698D01*
X93765917Y-96751410D01*
X93802200Y-96751672D01*
X93926682Y-96739412D01*
X94046380Y-96703102D01*
X94156694Y-96644137D01*
X94253385Y-96564785D01*
X94332737Y-96468094D01*
X94391702Y-96357780D01*
X94392514Y-96355102D01*
X96087903Y-96355102D01*
X96159486Y-96599071D01*
X96414996Y-96719971D01*
X96689184Y-96788700D01*
X96971512Y-96802617D01*
X97251130Y-96761187D01*
X97517292Y-96666003D01*
X97642514Y-96599071D01*
X97714097Y-96355102D01*
X96901000Y-95542005D01*
X96087903Y-96355102D01*
X94392514Y-96355102D01*
X94428012Y-96238082D01*
X94440272Y-96113600D01*
X94437200Y-95688150D01*
X94278450Y-95529400D01*
X93218000Y-95529400D01*
X93218000Y-95549400D01*
X92964000Y-95549400D01*
X92964000Y-95529400D01*
X92944000Y-95529400D01*
X92944000Y-95432912D01*
X95460783Y-95432912D01*
X95502213Y-95712530D01*
X95597397Y-95978692D01*
X95664329Y-96103914D01*
X95908298Y-96175497D01*
X96721395Y-95362400D01*
X97080605Y-95362400D01*
X97893702Y-96175497D01*
X98137671Y-96103914D01*
X98258571Y-95848404D01*
X98327300Y-95574216D01*
X98341217Y-95291888D01*
X98299787Y-95012270D01*
X98204603Y-94746108D01*
X98137671Y-94620886D01*
X97893702Y-94549303D01*
X97080605Y-95362400D01*
X96721395Y-95362400D01*
X95908298Y-94549303D01*
X95664329Y-94620886D01*
X95543429Y-94876396D01*
X95474700Y-95150584D01*
X95460783Y-95432912D01*
X92944000Y-95432912D01*
X92944000Y-95275400D01*
X92964000Y-95275400D01*
X92964000Y-95255400D01*
X93218000Y-95255400D01*
X93218000Y-95275400D01*
X94278450Y-95275400D01*
X94437200Y-95116650D01*
X94440272Y-94691200D01*
X94428012Y-94566718D01*
X94391702Y-94447020D01*
X94332737Y-94336706D01*
X94253385Y-94240015D01*
X94156694Y-94160663D01*
X94046380Y-94101698D01*
X93926682Y-94065388D01*
X93802200Y-94053128D01*
X93731279Y-94053640D01*
X93949153Y-93908062D01*
X94136662Y-93720553D01*
X94283987Y-93500065D01*
X94385467Y-93255072D01*
X94437200Y-92994989D01*
X94437200Y-92729811D01*
X94435461Y-92721065D01*
X95466000Y-92721065D01*
X95466000Y-93003735D01*
X95521147Y-93280974D01*
X95629320Y-93542127D01*
X95786363Y-93777159D01*
X95986241Y-93977037D01*
X96186869Y-94111092D01*
X96159486Y-94125729D01*
X96087903Y-94369698D01*
X96901000Y-95182795D01*
X97714097Y-94369698D01*
X97642514Y-94125729D01*
X97613659Y-94112076D01*
X97815759Y-93977037D01*
X98015637Y-93777159D01*
X98172680Y-93542127D01*
X98280853Y-93280974D01*
X98336000Y-93003735D01*
X98336000Y-92721065D01*
X98280853Y-92443826D01*
X98172680Y-92182673D01*
X98015637Y-91947641D01*
X97815759Y-91747763D01*
X97580727Y-91590720D01*
X97319574Y-91482547D01*
X97042335Y-91427400D01*
X96759665Y-91427400D01*
X96482426Y-91482547D01*
X96221273Y-91590720D01*
X95986241Y-91747763D01*
X95786363Y-91947641D01*
X95629320Y-92182673D01*
X95521147Y-92443826D01*
X95466000Y-92721065D01*
X94435461Y-92721065D01*
X94385467Y-92469728D01*
X94283987Y-92224735D01*
X94136662Y-92004247D01*
X93949153Y-91816738D01*
X93728665Y-91669413D01*
X93540400Y-91591431D01*
X93676280Y-91541942D01*
X93779848Y-91486583D01*
X93840668Y-91251673D01*
X93091000Y-90502005D01*
X93076858Y-90516148D01*
X92897253Y-90336543D01*
X92911395Y-90322400D01*
X93270605Y-90322400D01*
X94020273Y-91072068D01*
X94255183Y-91011248D01*
X94367202Y-90770891D01*
X94430176Y-90513298D01*
X94441687Y-90248370D01*
X94401291Y-89986287D01*
X94310542Y-89737120D01*
X94255183Y-89633552D01*
X94020273Y-89572732D01*
X93270605Y-90322400D01*
X92911395Y-90322400D01*
X92897253Y-90308258D01*
X93076858Y-90128653D01*
X93091000Y-90142795D01*
X93840668Y-89393127D01*
X93779848Y-89158217D01*
X93548066Y-89050194D01*
X93728665Y-88975387D01*
X93949153Y-88828062D01*
X94136662Y-88640553D01*
X94283987Y-88420065D01*
X94385467Y-88175072D01*
X94437200Y-87914989D01*
X94437200Y-87649811D01*
X94396658Y-87445989D01*
X95516000Y-87445989D01*
X95516000Y-87718811D01*
X95569225Y-87986389D01*
X95673629Y-88238443D01*
X95825201Y-88465286D01*
X96018114Y-88658199D01*
X96244957Y-88809771D01*
X96497011Y-88914175D01*
X96764589Y-88967400D01*
X97037411Y-88967400D01*
X97304989Y-88914175D01*
X97557043Y-88809771D01*
X97783886Y-88658199D01*
X97976799Y-88465286D01*
X98128371Y-88238443D01*
X98232775Y-87986389D01*
X98286000Y-87718811D01*
X98286000Y-87445989D01*
X98232775Y-87178411D01*
X98128371Y-86926357D01*
X97976799Y-86699514D01*
X97783886Y-86506601D01*
X97557043Y-86355029D01*
X97304989Y-86250625D01*
X97037411Y-86197400D01*
X96764589Y-86197400D01*
X96497011Y-86250625D01*
X96244957Y-86355029D01*
X96018114Y-86506601D01*
X95825201Y-86699514D01*
X95673629Y-86926357D01*
X95569225Y-87178411D01*
X95516000Y-87445989D01*
X94396658Y-87445989D01*
X94385467Y-87389728D01*
X94283987Y-87144735D01*
X94136662Y-86924247D01*
X93949153Y-86736738D01*
X93728665Y-86589413D01*
X93542740Y-86512400D01*
X93728665Y-86435387D01*
X93949153Y-86288062D01*
X94136662Y-86100553D01*
X94283987Y-85880065D01*
X94385467Y-85635072D01*
X94437200Y-85374989D01*
X94437200Y-85109811D01*
X94385467Y-84849728D01*
X94283987Y-84604735D01*
X94136662Y-84384247D01*
X93949153Y-84196738D01*
X93728665Y-84049413D01*
X93542740Y-83972400D01*
X93728665Y-83895387D01*
X93949153Y-83748062D01*
X94136662Y-83560553D01*
X94283987Y-83340065D01*
X94385467Y-83095072D01*
X94437200Y-82834989D01*
X94437200Y-82569811D01*
X94436440Y-82565989D01*
X95516000Y-82565989D01*
X95516000Y-82838811D01*
X95569225Y-83106389D01*
X95673629Y-83358443D01*
X95825201Y-83585286D01*
X96018114Y-83778199D01*
X96244957Y-83929771D01*
X96497011Y-84034175D01*
X96764589Y-84087400D01*
X97037411Y-84087400D01*
X97304989Y-84034175D01*
X97557043Y-83929771D01*
X97783886Y-83778199D01*
X97976799Y-83585286D01*
X98128371Y-83358443D01*
X98232775Y-83106389D01*
X98286000Y-82838811D01*
X98286000Y-82565989D01*
X98232775Y-82298411D01*
X98128371Y-82046357D01*
X97976799Y-81819514D01*
X97783886Y-81626601D01*
X97557043Y-81475029D01*
X97304989Y-81370625D01*
X97037411Y-81317400D01*
X96764589Y-81317400D01*
X96497011Y-81370625D01*
X96244957Y-81475029D01*
X96018114Y-81626601D01*
X95825201Y-81819514D01*
X95673629Y-82046357D01*
X95569225Y-82298411D01*
X95516000Y-82565989D01*
X94436440Y-82565989D01*
X94385467Y-82309728D01*
X94283987Y-82064735D01*
X94136662Y-81844247D01*
X93949153Y-81656738D01*
X93728665Y-81509413D01*
X93542740Y-81432400D01*
X93728665Y-81355387D01*
X93949153Y-81208062D01*
X94136662Y-81020553D01*
X94283987Y-80800065D01*
X94385467Y-80555072D01*
X94437200Y-80294989D01*
X94437200Y-80029811D01*
X94385467Y-79769728D01*
X94283987Y-79524735D01*
X94136662Y-79304247D01*
X93949153Y-79116738D01*
X93728665Y-78969413D01*
X93542740Y-78892400D01*
X93728665Y-78815387D01*
X93949153Y-78668062D01*
X94136662Y-78480553D01*
X94283987Y-78260065D01*
X94385467Y-78015072D01*
X94437200Y-77754989D01*
X94437200Y-77489811D01*
X94435461Y-77481065D01*
X95466000Y-77481065D01*
X95466000Y-77763735D01*
X95521147Y-78040974D01*
X95629320Y-78302127D01*
X95786363Y-78537159D01*
X95986241Y-78737037D01*
X96221273Y-78894080D01*
X96482426Y-79002253D01*
X96759665Y-79057400D01*
X97042335Y-79057400D01*
X97319574Y-79002253D01*
X97580727Y-78894080D01*
X97815759Y-78737037D01*
X98015637Y-78537159D01*
X98172680Y-78302127D01*
X98280853Y-78040974D01*
X98336000Y-77763735D01*
X98336000Y-77481065D01*
X98280853Y-77203826D01*
X98172680Y-76942673D01*
X98015637Y-76707641D01*
X97815759Y-76507763D01*
X97615131Y-76373708D01*
X97642514Y-76359071D01*
X97714097Y-76115102D01*
X96901000Y-75302005D01*
X96087903Y-76115102D01*
X96159486Y-76359071D01*
X96188341Y-76372724D01*
X95986241Y-76507763D01*
X95786363Y-76707641D01*
X95629320Y-76942673D01*
X95521147Y-77203826D01*
X95466000Y-77481065D01*
X94435461Y-77481065D01*
X94385467Y-77229728D01*
X94283987Y-76984735D01*
X94136662Y-76764247D01*
X94060868Y-76688453D01*
X95473123Y-75276198D01*
X95502213Y-75472530D01*
X95597397Y-75738692D01*
X95664329Y-75863914D01*
X95908298Y-75935497D01*
X96721395Y-75122400D01*
X97080605Y-75122400D01*
X97893702Y-75935497D01*
X98137671Y-75863914D01*
X98258571Y-75608404D01*
X98327300Y-75334216D01*
X98341217Y-75051888D01*
X98299787Y-74772270D01*
X98204603Y-74506108D01*
X98137671Y-74380886D01*
X97893702Y-74309303D01*
X97080605Y-75122400D01*
X96721395Y-75122400D01*
X96707253Y-75108258D01*
X96886858Y-74928653D01*
X96901000Y-74942795D01*
X97714097Y-74129698D01*
X97642514Y-73885729D01*
X97387004Y-73764829D01*
X97112816Y-73696100D01*
X97056021Y-73693300D01*
X101499922Y-69249400D01*
X104316001Y-69249400D01*
X104316001Y-99307400D01*
M02*
