%TF.GenerationSoftware,KiCad,Pcbnew,5.1.5*%
%TF.CreationDate,2020-05-07T02:59:33+02:00*%
%TF.ProjectId,superpet,73757065-7270-4657-942e-6b696361645f,rev?*%
%TF.SameCoordinates,PX2edf448PY2f17140*%
%TF.FileFunction,Copper,L2,Bot*%
%TF.FilePolarity,Positive*%
%FSLAX46Y46*%
G04 Gerber Fmt 4.6, Leading zero omitted, Abs format (unit mm)*
G04 Created by KiCad (PCBNEW 5.1.5) date 2020-05-07 02:59:33*
%MOMM*%
%LPD*%
G04 APERTURE LIST*
%ADD10C,0.300000*%
%ADD11O,1.800000X1.800000*%
%ADD12R,1.800000X1.800000*%
%ADD13R,1.422400X1.422400*%
%ADD14O,1.422400X1.422400*%
%ADD15C,3.810000*%
%ADD16R,1.520000X1.520000*%
%ADD17C,1.520000*%
%ADD18C,1.422400*%
%ADD19R,1.700000X1.700000*%
%ADD20C,1.700000*%
%ADD21C,1.400000*%
%ADD22C,1.500000*%
%ADD23R,2.600000X2.000000*%
%ADD24O,2.600000X2.000000*%
%ADD25C,1.600000*%
%ADD26O,1.600000X1.600000*%
%ADD27C,2.200000*%
%ADD28O,1.700000X1.700000*%
%ADD29C,1.800000*%
%ADD30O,2.000000X2.600000*%
%ADD31R,2.000000X2.600000*%
%ADD32C,1.000000*%
%ADD33C,0.203200*%
%ADD34C,0.660400*%
G04 APERTURE END LIST*
D10*
X97772428Y-10922400D02*
X98772428Y-10922400D01*
X99272428Y-10922400D02*
X99201000Y-10993828D01*
X99129571Y-10922400D01*
X99201000Y-10850971D01*
X99272428Y-10922400D01*
X99129571Y-10922400D01*
X97843857Y-10279542D02*
X97772428Y-10136685D01*
X97772428Y-9850971D01*
X97843857Y-9708114D01*
X97986714Y-9636685D01*
X98058142Y-9636685D01*
X98201000Y-9708114D01*
X98272428Y-9850971D01*
X98272428Y-10065257D01*
X98343857Y-10208114D01*
X98486714Y-10279542D01*
X98558142Y-10279542D01*
X98701000Y-10208114D01*
X98772428Y-10065257D01*
X98772428Y-9850971D01*
X98701000Y-9708114D01*
X97843857Y-9065257D02*
X97772428Y-8922400D01*
X97772428Y-8636685D01*
X97843857Y-8493828D01*
X97986714Y-8422400D01*
X98058142Y-8422400D01*
X98201000Y-8493828D01*
X98272428Y-8636685D01*
X98272428Y-8850971D01*
X98343857Y-8993828D01*
X98486714Y-9065257D01*
X98558142Y-9065257D01*
X98701000Y-8993828D01*
X98772428Y-8850971D01*
X98772428Y-8636685D01*
X98701000Y-8493828D01*
X98772428Y-7136685D02*
X97772428Y-7136685D01*
X98772428Y-7779542D02*
X97986714Y-7779542D01*
X97843857Y-7708114D01*
X97772428Y-7565257D01*
X97772428Y-7350971D01*
X97843857Y-7208114D01*
X97915285Y-7136685D01*
X97843857Y-5850971D02*
X97772428Y-5993828D01*
X97772428Y-6279542D01*
X97843857Y-6422400D01*
X97986714Y-6493828D01*
X98558142Y-6493828D01*
X98701000Y-6422400D01*
X98772428Y-6279542D01*
X98772428Y-5993828D01*
X98701000Y-5850971D01*
X98558142Y-5779542D01*
X98415285Y-5779542D01*
X98272428Y-6493828D01*
X98772428Y-4208114D02*
X98772428Y-3636685D01*
X99272428Y-3993828D02*
X97986714Y-3993828D01*
X97843857Y-3922400D01*
X97772428Y-3779542D01*
X97772428Y-3636685D01*
X98772428Y-3279542D02*
X97772428Y-2993828D01*
X98486714Y-2708114D01*
X97772428Y-2422400D01*
X98772428Y-2136685D01*
X97772428Y-1350971D02*
X97843857Y-1493828D01*
X97915285Y-1565257D01*
X98058142Y-1636685D01*
X98486714Y-1636685D01*
X98629571Y-1565257D01*
X98701000Y-1493828D01*
X98772428Y-1350971D01*
X98772428Y-1136685D01*
X98701000Y-993828D01*
X98629571Y-922400D01*
X98486714Y-850971D01*
X98058142Y-850971D01*
X97915285Y-922400D01*
X97843857Y-993828D01*
X97772428Y-1136685D01*
X97772428Y-1350971D01*
D11*
X9271000Y-1422400D03*
X6731000Y-1422400D03*
D12*
X4191000Y-1422400D03*
D13*
X82931000Y-42062400D03*
D14*
X98171000Y-34442400D03*
X85471000Y-42062400D03*
X95631000Y-34442400D03*
X88011000Y-42062400D03*
X93091000Y-34442400D03*
X90551000Y-42062400D03*
X90551000Y-34442400D03*
X93091000Y-42062400D03*
X88011000Y-34442400D03*
X95631000Y-42062400D03*
X85471000Y-34442400D03*
X98171000Y-42062400D03*
X82931000Y-34442400D03*
D15*
X90551000Y-28994100D03*
X90551000Y-3594100D03*
D16*
X88011000Y-21754100D03*
D17*
X88011000Y-18964100D03*
X88011000Y-16164100D03*
X88011000Y-13504100D03*
X88011000Y-10704100D03*
X90551000Y-12104100D03*
X90551000Y-14894100D03*
X90551000Y-17564100D03*
X90551000Y-20354100D03*
D18*
X47371000Y-21742400D03*
X47371000Y-24282400D03*
X47371000Y-26822400D03*
X47371000Y-29362400D03*
X47371000Y-31902400D03*
X47371000Y-19202400D03*
X47371000Y-16662400D03*
X47371000Y-14122400D03*
X47371000Y-11582400D03*
X47371000Y-9042400D03*
X47371000Y-6502400D03*
D13*
X44831000Y-21742400D03*
D18*
X44831000Y-24282400D03*
X44831000Y-26822400D03*
X44831000Y-29362400D03*
X44831000Y-31902400D03*
X44831000Y-34442400D03*
X44831000Y-19202400D03*
X44831000Y-16662400D03*
X44831000Y-14122400D03*
X44831000Y-11582400D03*
X44831000Y-9042400D03*
X47371000Y-34442400D03*
X49911000Y-34442400D03*
X52451000Y-34442400D03*
X54991000Y-34442400D03*
X57531000Y-34442400D03*
X60071000Y-34442400D03*
X62611000Y-34442400D03*
X65151000Y-34442400D03*
X67691000Y-34442400D03*
X70231000Y-34442400D03*
X47371000Y-36982400D03*
X49911000Y-36982400D03*
X52451000Y-36982400D03*
X54991000Y-36982400D03*
X57531000Y-36982400D03*
X60071000Y-36982400D03*
X62611000Y-36982400D03*
X65151000Y-36982400D03*
X67691000Y-36982400D03*
X70231000Y-36982400D03*
X72771000Y-36982400D03*
X72771000Y-34442400D03*
X72771000Y-31902400D03*
X72771000Y-29362400D03*
X72771000Y-26822400D03*
X72771000Y-24282400D03*
X72771000Y-21742400D03*
X72771000Y-19202400D03*
X72771000Y-16662400D03*
X72771000Y-14122400D03*
X72771000Y-11582400D03*
X75311000Y-34442400D03*
X75311000Y-31902400D03*
X75311000Y-29362400D03*
X75311000Y-26822400D03*
X75311000Y-24282400D03*
X75311000Y-21742400D03*
X75311000Y-19202400D03*
X75311000Y-16662400D03*
X75311000Y-14122400D03*
X75311000Y-11582400D03*
X75311000Y-9042400D03*
X72771000Y-9042400D03*
X70231000Y-9042400D03*
X67691000Y-9042400D03*
X65151000Y-9042400D03*
X62611000Y-9042400D03*
X60071000Y-9042400D03*
X57531000Y-9042400D03*
X54991000Y-9042400D03*
X52451000Y-9042400D03*
X49911000Y-9042400D03*
X72771000Y-6502400D03*
X70231000Y-6502400D03*
X67691000Y-6502400D03*
X65151000Y-6502400D03*
X62611000Y-6502400D03*
X60071000Y-6502400D03*
X57531000Y-6502400D03*
X54991000Y-6502400D03*
X52451000Y-6502400D03*
X49911000Y-6502400D03*
D19*
X32131000Y-29362400D03*
D20*
X34671000Y-29362400D03*
X32131000Y-31902400D03*
X34671000Y-31902400D03*
X32131000Y-34442400D03*
X34671000Y-34442400D03*
X32131000Y-36982400D03*
X34671000Y-36982400D03*
X32131000Y-39522400D03*
X34671000Y-39522400D03*
D13*
X37211000Y-47142400D03*
D14*
X52451000Y-95402400D03*
X37211000Y-49682400D03*
X52451000Y-92862400D03*
X37211000Y-52222400D03*
X52451000Y-90322400D03*
X37211000Y-54762400D03*
X52451000Y-87782400D03*
X37211000Y-57302400D03*
X52451000Y-85242400D03*
X37211000Y-59842400D03*
X52451000Y-82702400D03*
X37211000Y-62382400D03*
X52451000Y-80162400D03*
X37211000Y-64922400D03*
X52451000Y-77622400D03*
X37211000Y-67462400D03*
X52451000Y-75082400D03*
X37211000Y-70002400D03*
X52451000Y-72542400D03*
X37211000Y-72542400D03*
X52451000Y-70002400D03*
X37211000Y-75082400D03*
X52451000Y-67462400D03*
X37211000Y-77622400D03*
X52451000Y-64922400D03*
X37211000Y-80162400D03*
X52451000Y-62382400D03*
X37211000Y-82702400D03*
X52451000Y-59842400D03*
X37211000Y-85242400D03*
X52451000Y-57302400D03*
X37211000Y-87782400D03*
X52451000Y-54762400D03*
X37211000Y-90322400D03*
X52451000Y-52222400D03*
X37211000Y-92862400D03*
X52451000Y-49682400D03*
X37211000Y-95402400D03*
X52451000Y-47142400D03*
D13*
X39751000Y-47142400D03*
D14*
X54991000Y-95402400D03*
X39751000Y-49682400D03*
X54991000Y-92862400D03*
X39751000Y-52222400D03*
X54991000Y-90322400D03*
X39751000Y-54762400D03*
X54991000Y-87782400D03*
X39751000Y-57302400D03*
X54991000Y-85242400D03*
X39751000Y-59842400D03*
X54991000Y-82702400D03*
X39751000Y-62382400D03*
X54991000Y-80162400D03*
X39751000Y-64922400D03*
X54991000Y-77622400D03*
X39751000Y-67462400D03*
X54991000Y-75082400D03*
X39751000Y-70002400D03*
X54991000Y-72542400D03*
X39751000Y-72542400D03*
X54991000Y-70002400D03*
X39751000Y-75082400D03*
X54991000Y-67462400D03*
X39751000Y-77622400D03*
X54991000Y-64922400D03*
X39751000Y-80162400D03*
X54991000Y-62382400D03*
X39751000Y-82702400D03*
X54991000Y-59842400D03*
X39751000Y-85242400D03*
X54991000Y-57302400D03*
X39751000Y-87782400D03*
X54991000Y-54762400D03*
X39751000Y-90322400D03*
X54991000Y-52222400D03*
X39751000Y-92862400D03*
X54991000Y-49682400D03*
X39751000Y-95402400D03*
X54991000Y-47142400D03*
D13*
X60071000Y-47142400D03*
D14*
X75311000Y-95402400D03*
X60071000Y-49682400D03*
X75311000Y-92862400D03*
X60071000Y-52222400D03*
X75311000Y-90322400D03*
X60071000Y-54762400D03*
X75311000Y-87782400D03*
X60071000Y-57302400D03*
X75311000Y-85242400D03*
X60071000Y-59842400D03*
X75311000Y-82702400D03*
X60071000Y-62382400D03*
X75311000Y-80162400D03*
X60071000Y-64922400D03*
X75311000Y-77622400D03*
X60071000Y-67462400D03*
X75311000Y-75082400D03*
X60071000Y-70002400D03*
X75311000Y-72542400D03*
X60071000Y-72542400D03*
X75311000Y-70002400D03*
X60071000Y-75082400D03*
X75311000Y-67462400D03*
X60071000Y-77622400D03*
X75311000Y-64922400D03*
X60071000Y-80162400D03*
X75311000Y-62382400D03*
X60071000Y-82702400D03*
X75311000Y-59842400D03*
X60071000Y-85242400D03*
X75311000Y-57302400D03*
X60071000Y-87782400D03*
X75311000Y-54762400D03*
X60071000Y-90322400D03*
X75311000Y-52222400D03*
X60071000Y-92862400D03*
X75311000Y-49682400D03*
X60071000Y-95402400D03*
X75311000Y-47142400D03*
D13*
X21971000Y-29362400D03*
D14*
X4191000Y-36982400D03*
X19431000Y-29362400D03*
X6731000Y-36982400D03*
X16891000Y-29362400D03*
X9271000Y-36982400D03*
X14351000Y-29362400D03*
X11811000Y-36982400D03*
X11811000Y-29362400D03*
X14351000Y-36982400D03*
X9271000Y-29362400D03*
X16891000Y-36982400D03*
X6731000Y-29362400D03*
X19431000Y-36982400D03*
X4191000Y-29362400D03*
X21971000Y-36982400D03*
D13*
X21971000Y-14122400D03*
D14*
X6731000Y-21742400D03*
X19431000Y-14122400D03*
X9271000Y-21742400D03*
X16891000Y-14122400D03*
X11811000Y-21742400D03*
X14351000Y-14122400D03*
X14351000Y-21742400D03*
X11811000Y-14122400D03*
X16891000Y-21742400D03*
X9271000Y-14122400D03*
X19431000Y-21742400D03*
X6731000Y-14122400D03*
X21971000Y-21742400D03*
D21*
X2921000Y-15392400D03*
X1591000Y-13722400D03*
X4191000Y-13722400D03*
D22*
X96901000Y-82702400D03*
X96901000Y-87582400D03*
D13*
X21971000Y-42062400D03*
D14*
X6731000Y-49682400D03*
X19431000Y-42062400D03*
X9271000Y-49682400D03*
X16891000Y-42062400D03*
X11811000Y-49682400D03*
X14351000Y-42062400D03*
X14351000Y-49682400D03*
X11811000Y-42062400D03*
X16891000Y-49682400D03*
X9271000Y-42062400D03*
X19431000Y-49682400D03*
X6731000Y-42062400D03*
X21971000Y-49682400D03*
D23*
X10541000Y-10312400D03*
D24*
X10541000Y-7772400D03*
D25*
X16891000Y-39522400D03*
D26*
X24511000Y-39522400D03*
D25*
X16891000Y-26822400D03*
D26*
X24511000Y-26822400D03*
D25*
X4191000Y-25552400D03*
D26*
X4191000Y-17932400D03*
D25*
X1651000Y-17932400D03*
D26*
X1651000Y-25552400D03*
D27*
X2921000Y-52222400D03*
D20*
X32131000Y-19202400D03*
D28*
X32131000Y-16662400D03*
X34671000Y-19202400D03*
D20*
X34671000Y-14122400D03*
D28*
X34671000Y-16662400D03*
X32131000Y-14122400D03*
D25*
X4191000Y-10312400D03*
X4191000Y-5312400D03*
X1651000Y-10312400D03*
X1651000Y-5312400D03*
X39751000Y-26902400D03*
X39751000Y-31902400D03*
X48641000Y-42062400D03*
X53641000Y-42062400D03*
X66421000Y-42062400D03*
X71421000Y-42062400D03*
X80391000Y-31982400D03*
X80391000Y-36982400D03*
X80391000Y-20472400D03*
X80391000Y-25472400D03*
X80391000Y-10312400D03*
X80391000Y-15312400D03*
X56261000Y-1422400D03*
X51261000Y-1422400D03*
X39751000Y-11582400D03*
X39751000Y-16582400D03*
D14*
X80391000Y-47142400D03*
X80391000Y-52142400D03*
D25*
X24511000Y-49682400D03*
X24511000Y-44682400D03*
X24511000Y-36982400D03*
X24511000Y-31982400D03*
X24511000Y-21742400D03*
X24511000Y-16742400D03*
X1651000Y-97942400D03*
X6651000Y-97942400D03*
X19431000Y-97942400D03*
X24431000Y-97942400D03*
X77851000Y-59842400D03*
X82851000Y-59842400D03*
X9271000Y-26822400D03*
X14271000Y-26822400D03*
X9271000Y-39522400D03*
X14271000Y-39522400D03*
X39751000Y-24282400D03*
X39751000Y-19282400D03*
D29*
X93091000Y-10312400D03*
D12*
X95631000Y-20472400D03*
D29*
X93091000Y-12852400D03*
X95631000Y-17932400D03*
X93091000Y-15392400D03*
X95631000Y-15392400D03*
X93091000Y-17932400D03*
X95631000Y-12852400D03*
X93091000Y-20472400D03*
X95631000Y-10312400D03*
D13*
X82931000Y-52222400D03*
D14*
X98171000Y-44602400D03*
X85471000Y-52222400D03*
X95631000Y-44602400D03*
X88011000Y-52222400D03*
X93091000Y-44602400D03*
X90551000Y-52222400D03*
X90551000Y-44602400D03*
X93091000Y-52222400D03*
X88011000Y-44602400D03*
X95631000Y-52222400D03*
X85471000Y-44602400D03*
X98171000Y-52222400D03*
X82931000Y-44602400D03*
D18*
X77851000Y-95402400D03*
D13*
X93091000Y-95402400D03*
D18*
X77851000Y-92862400D03*
X93091000Y-92862400D03*
X77851000Y-90322400D03*
X93091000Y-90322400D03*
X77851000Y-87782400D03*
X93091000Y-87782400D03*
X77851000Y-85242400D03*
X93091000Y-85242400D03*
X77851000Y-82702400D03*
X93091000Y-82702400D03*
X77851000Y-80162400D03*
X93091000Y-80162400D03*
X77851000Y-77622400D03*
X93091000Y-77622400D03*
X77851000Y-75082400D03*
X93091000Y-75082400D03*
X77851000Y-72542400D03*
X93091000Y-72542400D03*
X77851000Y-70002400D03*
X93091000Y-70002400D03*
X77851000Y-67462400D03*
X93091000Y-67462400D03*
X77851000Y-64922400D03*
X93091000Y-64922400D03*
X77851000Y-62382400D03*
X93091000Y-62382400D03*
X1651000Y-95402400D03*
X16891000Y-95402400D03*
X1651000Y-92862400D03*
X16891000Y-92862400D03*
X1651000Y-90322400D03*
X16891000Y-90322400D03*
X1651000Y-87782400D03*
X16891000Y-87782400D03*
X1651000Y-85242400D03*
X16891000Y-85242400D03*
X1651000Y-82702400D03*
X16891000Y-82702400D03*
X1651000Y-80162400D03*
X16891000Y-80162400D03*
X1651000Y-77622400D03*
X16891000Y-77622400D03*
X1651000Y-75082400D03*
X16891000Y-75082400D03*
X1651000Y-72542400D03*
X16891000Y-72542400D03*
X1651000Y-70002400D03*
X16891000Y-70002400D03*
X1651000Y-67462400D03*
X16891000Y-67462400D03*
X1651000Y-64922400D03*
X16891000Y-64922400D03*
X1651000Y-62382400D03*
X16891000Y-62382400D03*
X1651000Y-59842400D03*
X16891000Y-59842400D03*
X1651000Y-57302400D03*
X16891000Y-57302400D03*
X19431000Y-95402400D03*
X34671000Y-95402400D03*
X19431000Y-92862400D03*
X34671000Y-92862400D03*
X19431000Y-90322400D03*
X34671000Y-90322400D03*
X19431000Y-87782400D03*
X34671000Y-87782400D03*
X19431000Y-85242400D03*
X34671000Y-85242400D03*
X19431000Y-82702400D03*
X34671000Y-82702400D03*
X19431000Y-80162400D03*
X34671000Y-80162400D03*
X19431000Y-77622400D03*
X34671000Y-77622400D03*
X19431000Y-75082400D03*
X34671000Y-75082400D03*
X19431000Y-72542400D03*
X34671000Y-72542400D03*
X19431000Y-70002400D03*
X34671000Y-70002400D03*
X19431000Y-67462400D03*
X34671000Y-67462400D03*
X19431000Y-64922400D03*
X34671000Y-64922400D03*
X19431000Y-62382400D03*
X34671000Y-62382400D03*
X19431000Y-59842400D03*
X34671000Y-59842400D03*
X19431000Y-57302400D03*
X34671000Y-57302400D03*
X57531000Y-52222400D03*
X57531000Y-47142400D03*
X34671000Y-52222400D03*
X34671000Y-47142400D03*
D13*
X21971000Y-52222400D03*
D18*
X19431000Y-52222400D03*
X16891000Y-52222400D03*
X14351000Y-52222400D03*
X11811000Y-52222400D03*
X9271000Y-52222400D03*
X6731000Y-52222400D03*
X39751000Y-6502400D03*
X37251000Y-6502400D03*
D13*
X27305000Y-11582400D03*
D14*
X24765000Y-11582400D03*
D25*
X14986000Y-11582400D03*
D26*
X22606000Y-11582400D03*
D30*
X95631000Y-56667400D03*
X93091000Y-56667400D03*
D31*
X90551000Y-56667400D03*
D25*
X96901000Y-95362400D03*
X96901000Y-92862400D03*
X96901000Y-77622400D03*
X96901000Y-75122400D03*
D12*
X24511000Y-4597400D03*
D11*
X27051000Y-4597400D03*
X29591000Y-4597400D03*
D32*
X58769255Y-33512410D03*
X50457999Y-28980059D03*
X8003650Y-53476977D03*
X38481000Y-45872400D03*
X23861319Y-81470636D03*
X23839716Y-78834825D03*
X23905123Y-76522210D03*
X41522558Y-64160647D03*
X23858221Y-73860035D03*
X75488117Y-43330671D03*
X41522558Y-66632675D03*
X24024426Y-71283859D03*
X75533985Y-41358250D03*
X41522558Y-68732400D03*
X33200192Y-68770678D03*
X41528529Y-71033651D03*
X33535303Y-66368601D03*
X80157589Y-35271012D03*
X41522558Y-73714588D03*
X84493100Y-70040500D03*
X80652989Y-33944182D03*
X41588295Y-76109770D03*
X76583221Y-61755289D03*
X32555265Y-61802098D03*
X33336354Y-35697236D03*
X49784000Y-32537400D03*
X41522558Y-78892400D03*
X41565192Y-59521725D03*
X41634814Y-83604210D03*
X43992800Y-54762400D03*
X15387587Y-92752810D03*
X15367000Y-94640400D03*
X15450251Y-96603507D03*
D18*
X77978000Y-4724400D03*
X31403615Y-63649876D03*
D32*
X56481838Y-13570734D03*
X36668596Y-11417934D03*
X35966400Y-23469600D03*
X84104121Y-11290014D03*
X84480400Y-55524400D03*
X84984472Y-12110197D03*
X86177490Y-58430988D03*
X23915978Y-58377898D03*
X50083496Y-17381589D03*
X33909000Y-23901400D03*
X20218400Y-26593800D03*
X86425284Y-92872915D03*
X42645747Y-24023906D03*
X38715231Y-9266378D03*
X22856326Y-90068400D03*
X85259809Y-13360400D03*
X86631500Y-90847359D03*
X26064105Y-89028449D03*
X28778200Y-13385800D03*
X35941006Y-89699784D03*
X27076185Y-13657210D03*
X24233231Y-86534456D03*
X31399077Y-49502437D03*
X57462045Y-20830694D03*
X27273500Y-69874798D03*
X27279600Y-24257000D03*
X28539548Y-75650057D03*
X54991000Y-19646900D03*
X28211364Y-16953057D03*
X27730665Y-68681460D03*
X50730021Y-21851827D03*
X27792202Y-25345558D03*
X51181000Y-13502402D03*
X95072200Y-60947300D03*
X90742182Y-61339964D03*
X94970600Y-49288700D03*
X68410189Y-31641608D03*
X56481499Y-44715479D03*
X52139257Y-40919400D03*
X67691000Y-38696900D03*
X4419362Y-50935999D03*
X62076646Y-49682400D03*
X30130152Y-60861343D03*
X28244423Y-15296380D03*
D33*
X48372133Y-28244812D02*
X49974848Y-29847525D01*
X49974848Y-29847525D02*
X51622589Y-29847525D01*
X42755818Y-29534461D02*
X44045467Y-28244812D01*
X32131000Y-29362400D02*
X32131000Y-28309200D01*
X51622589Y-29847525D02*
X54787475Y-33012411D01*
X54787475Y-33012411D02*
X58269256Y-33012411D01*
X37130719Y-28041622D02*
X38623558Y-29534461D01*
X38623558Y-29534461D02*
X42755818Y-29534461D01*
X32398578Y-28041622D02*
X37130719Y-28041622D01*
X32131000Y-28309200D02*
X32398578Y-28041622D01*
X44045467Y-28244812D02*
X48372133Y-28244812D01*
X58269256Y-33012411D02*
X58769255Y-33512410D01*
D34*
X54991000Y-95402400D02*
X57150000Y-95402400D01*
X57150000Y-95402400D02*
X58567190Y-96819590D01*
X58567190Y-96819590D02*
X91680353Y-96819590D01*
X91680353Y-96819590D02*
X93091000Y-95408943D01*
X93091000Y-95408943D02*
X93091000Y-95402400D01*
X52451000Y-95402400D02*
X54991000Y-95402400D01*
X47371000Y-97942400D02*
X49911000Y-95402400D01*
X49911000Y-95402400D02*
X52451000Y-95402400D01*
X24431000Y-97942400D02*
X43561000Y-97942400D01*
X43561000Y-97942400D02*
X47371000Y-97942400D01*
X49911000Y-5232400D02*
X65723010Y-5232400D01*
X66446399Y-5955789D02*
X66446399Y-7797799D01*
X65723010Y-5232400D02*
X66446399Y-5955789D01*
X66446399Y-7797799D02*
X67691000Y-9042400D01*
X49911000Y-6502400D02*
X49911000Y-5232400D01*
X34671000Y-29362400D02*
X37211000Y-29362400D01*
X37211000Y-29362400D02*
X39751000Y-31902400D01*
X16891000Y-57302400D02*
X18285814Y-55907586D01*
X18285814Y-55907586D02*
X20195175Y-55907586D01*
X20195175Y-55907586D02*
X21589989Y-57302400D01*
X21589989Y-57302400D02*
X34671000Y-57302400D01*
X44831000Y-29362400D02*
X46075601Y-30607001D01*
X46075601Y-30607001D02*
X51138488Y-30607001D01*
X51138488Y-30607001D02*
X54966907Y-34435420D01*
X54966907Y-34435420D02*
X54997980Y-34435420D01*
X54997980Y-34435420D02*
X54991000Y-34442400D01*
X96926399Y-25171401D02*
X97554759Y-24543041D01*
X97554759Y-24543041D02*
X97554759Y-12236159D01*
X97554759Y-12236159D02*
X96530999Y-11212399D01*
X96530999Y-11212399D02*
X95631000Y-10312400D01*
X98171000Y-42062400D02*
X96926399Y-40817799D01*
X96926399Y-40817799D02*
X96926399Y-25171401D01*
X6647678Y-19202400D02*
X6731000Y-19119078D01*
X6731000Y-19119078D02*
X6731000Y-14122400D01*
X24511000Y-19202400D02*
X6647678Y-19202400D01*
X6647678Y-19202400D02*
X5024081Y-20825997D01*
X5024081Y-20825997D02*
X5024081Y-23307597D01*
X5024081Y-23307597D02*
X6221617Y-24505133D01*
X6221617Y-24505133D02*
X6221617Y-27597289D01*
X6221617Y-27597289D02*
X4456506Y-29362400D01*
X4456506Y-29362400D02*
X4191000Y-29362400D01*
X32131000Y-19202400D02*
X24511000Y-19202400D01*
X24511000Y-19202400D02*
X24511000Y-16742400D01*
X16891000Y-57302400D02*
X4985957Y-57302400D01*
X4985957Y-57302400D02*
X1287599Y-53604042D01*
X1287599Y-53604042D02*
X1287599Y-32265801D01*
X1287599Y-32265801D02*
X3479801Y-30073599D01*
X3479801Y-30073599D02*
X4191000Y-29362400D01*
X6651000Y-97942400D02*
X6651000Y-97947722D01*
X6651000Y-97947722D02*
X8062397Y-99359119D01*
X8062397Y-99359119D02*
X23025561Y-99359119D01*
X23025561Y-99359119D02*
X24431000Y-97953680D01*
X24431000Y-97953680D02*
X24431000Y-97942400D01*
X88011000Y-10704100D02*
X89836101Y-8878999D01*
X94197599Y-8878999D02*
X94731001Y-9412401D01*
X94731001Y-9412401D02*
X95631000Y-10312400D01*
X86410558Y-13999504D02*
X86410558Y-12304542D01*
X86410558Y-12304542D02*
X88011000Y-10704100D01*
X80391000Y-15312400D02*
X85097662Y-15312400D01*
X85097662Y-15312400D02*
X86410558Y-13999504D01*
X24511000Y-97779242D02*
X24682305Y-97950547D01*
X93091000Y-95461763D02*
X93091000Y-95402400D01*
X97581812Y-59842400D02*
X98171000Y-59253212D01*
X73961000Y-44602400D02*
X71421000Y-42062400D01*
X78486000Y-36982400D02*
X80391000Y-36982400D01*
X53438969Y-43395801D02*
X53641000Y-43193770D01*
X53641000Y-43193770D02*
X53641000Y-42062400D01*
X42291000Y-42062400D02*
X46667566Y-42062400D01*
X48000967Y-43395801D02*
X53438969Y-43395801D01*
X46667566Y-42062400D02*
X48000967Y-43395801D01*
X57531000Y-47222400D02*
X56731001Y-46422401D01*
X56731001Y-46422401D02*
X56167461Y-46422401D01*
X56167461Y-46422401D02*
X53641000Y-43895940D01*
X53641000Y-43895940D02*
X53641000Y-42062400D01*
X26971000Y-19202400D02*
X32131000Y-19202400D01*
X32131000Y-19202400D02*
X32131000Y-20670035D01*
X32131000Y-20670035D02*
X33492896Y-22031931D01*
X33492896Y-22031931D02*
X37500531Y-22031931D01*
X37500531Y-22031931D02*
X38951001Y-23482401D01*
X38951001Y-23482401D02*
X39751000Y-24282400D01*
X37211000Y-44682400D02*
X39686479Y-44682400D01*
X42291000Y-42077879D02*
X42291000Y-42062400D01*
X39686479Y-44682400D02*
X42291000Y-42077879D01*
X37211000Y-47142400D02*
X34751000Y-47142400D01*
X34751000Y-47142400D02*
X34671000Y-47222400D01*
X60071000Y-47142400D02*
X57611000Y-47142400D01*
X57611000Y-47142400D02*
X57531000Y-47222400D01*
X39751000Y-31902400D02*
X42291000Y-31902400D01*
X42291000Y-31902400D02*
X44751000Y-29442400D01*
X44751000Y-29442400D02*
X44831000Y-29362400D01*
X80391000Y-15392400D02*
X80391000Y-15312400D01*
X79121000Y-16662400D02*
X80391000Y-15392400D01*
X75311000Y-16662400D02*
X79121000Y-16662400D01*
X72771000Y-24282400D02*
X74041000Y-25552400D01*
X80391000Y-25552400D02*
X80391000Y-25472400D01*
X74041000Y-25552400D02*
X80391000Y-25552400D01*
X34671000Y-44682400D02*
X37211000Y-44682400D01*
X37211000Y-47142400D02*
X37211000Y-44682400D01*
X60071000Y-47142400D02*
X66341000Y-47142400D01*
X66341000Y-47142400D02*
X71421000Y-42062400D01*
X24511000Y-44682400D02*
X34671000Y-44682400D01*
X34671000Y-39522400D02*
X34671000Y-44682400D01*
X24511000Y-44682400D02*
X9351000Y-44682400D01*
X9351000Y-44682400D02*
X6731000Y-42062400D01*
X4191000Y-29362400D02*
X6811000Y-31982400D01*
X6811000Y-31982400D02*
X24511000Y-31982400D01*
X34671000Y-14122400D02*
X37291000Y-14122400D01*
X37291000Y-14122400D02*
X39751000Y-16582400D01*
X6731000Y-5312400D02*
X7781000Y-5312400D01*
X6731000Y-5312400D02*
X4191000Y-5312400D01*
X6731000Y-1422400D02*
X6731000Y-5312400D01*
X1651000Y-5312400D02*
X4111000Y-5312400D01*
X4111000Y-5312400D02*
X4191000Y-5232400D01*
X24384000Y-97942400D02*
X24431000Y-97942400D01*
X51181000Y-1422400D02*
X51261000Y-1422400D01*
X46101000Y-15392400D02*
X40941000Y-15392400D01*
X47371000Y-16662400D02*
X46101000Y-15392400D01*
X40941000Y-15392400D02*
X39751000Y-16582400D01*
X44751000Y-29442400D02*
X44831000Y-29362400D01*
X7781000Y-5312400D02*
X10241000Y-7772400D01*
X10241000Y-7772400D02*
X10541000Y-7772400D01*
X93131000Y-95362400D02*
X93091000Y-95402400D01*
X94956000Y-92187400D02*
X93091000Y-90322400D01*
X96901000Y-95362400D02*
X94956000Y-95362400D01*
X94956000Y-95362400D02*
X94956000Y-92187400D01*
X94956000Y-95362400D02*
X93131000Y-95362400D01*
X98171000Y-59253212D02*
X98171000Y-52222400D01*
X97700999Y-75922399D02*
X96901000Y-75122400D01*
X98374200Y-76595600D02*
X97700999Y-75922399D01*
X96901000Y-95362400D02*
X98374200Y-93889200D01*
X98374200Y-93889200D02*
X98374200Y-76595600D01*
X39751000Y-47142400D02*
X37211000Y-47142400D01*
X38481000Y-5272400D02*
X38481000Y-5232400D01*
X37251000Y-6502400D02*
X38481000Y-5272400D01*
X38481000Y-5232400D02*
X49911000Y-5232400D01*
X90387599Y-8878999D02*
X90551000Y-8715598D01*
X89836101Y-8878999D02*
X90387599Y-8878999D01*
X90551000Y-8715598D02*
X90551000Y-3594100D01*
X90387599Y-8878999D02*
X94197599Y-8878999D01*
X96913698Y-28994100D02*
X90551000Y-28994100D01*
X96926399Y-29006801D02*
X96913698Y-28994100D01*
X96926399Y-29006801D02*
X96926399Y-25171401D01*
X80391000Y-36982400D02*
X81190999Y-36182401D01*
X81190999Y-36182401D02*
X81190999Y-35166401D01*
X82333591Y-33197799D02*
X83464399Y-33197799D01*
X81686399Y-33844991D02*
X82333591Y-33197799D01*
X81686399Y-34671001D02*
X81686399Y-33844991D01*
X81190999Y-35166401D02*
X81686399Y-34671001D01*
X84175601Y-33909001D02*
X84175601Y-35306001D01*
X83464399Y-33197799D02*
X84175601Y-33909001D01*
X84709000Y-35839400D02*
X96951800Y-35839400D01*
X84175601Y-35306001D02*
X84709000Y-35839400D01*
X96951800Y-35839400D02*
X96926399Y-29006801D01*
X96926399Y-37020500D02*
X96951800Y-35839400D01*
X96951800Y-37045901D02*
X96926399Y-37020500D01*
X98171000Y-42062400D02*
X96951800Y-40843200D01*
X77419200Y-49170600D02*
X80391000Y-52142400D01*
X77419200Y-44602400D02*
X77419200Y-49170600D01*
X77419200Y-44602400D02*
X73961000Y-44602400D01*
X72771000Y-36982400D02*
X77470000Y-36982400D01*
X77470000Y-36982400D02*
X78486000Y-36982400D01*
X77419200Y-37033200D02*
X77470000Y-36982400D01*
X77419200Y-44602400D02*
X77419200Y-37033200D01*
X93091000Y-59817000D02*
X93091000Y-56667400D01*
X93116400Y-59842400D02*
X93091000Y-59817000D01*
X82851000Y-59842400D02*
X93116400Y-59842400D01*
X93116400Y-59842400D02*
X97581812Y-59842400D01*
D33*
X30976199Y-30747599D02*
X30976199Y-28268559D01*
X30976199Y-28268559D02*
X31609547Y-27635211D01*
X41485671Y-28897729D02*
X42544999Y-27838401D01*
X42544999Y-27838401D02*
X49316341Y-27838401D01*
X49316341Y-27838401D02*
X49958000Y-28480060D01*
X49958000Y-28480060D02*
X50457999Y-28980059D01*
X31609547Y-27635211D02*
X37594940Y-27635211D01*
X37594940Y-27635211D02*
X38857458Y-28897729D01*
X38857458Y-28897729D02*
X41485671Y-28897729D01*
X32131000Y-31902400D02*
X30976199Y-30747599D01*
X32131000Y-34442400D02*
X33414599Y-33158801D01*
X51187853Y-35055648D02*
X51841477Y-35709272D01*
X33414599Y-33158801D02*
X46040465Y-33158801D01*
X50478218Y-31648400D02*
X51187853Y-32358035D01*
X46040465Y-33158801D02*
X46268890Y-32930376D01*
X46268890Y-32930376D02*
X48006000Y-32930376D01*
X48006000Y-32930376D02*
X48006000Y-32918400D01*
X58804128Y-35709272D02*
X59359801Y-35153599D01*
X59359801Y-35153599D02*
X60071000Y-34442400D01*
X48006000Y-32918400D02*
X49276000Y-31648400D01*
X49276000Y-31648400D02*
X50478218Y-31648400D01*
X51187853Y-32358035D02*
X51187853Y-35055648D01*
X51841477Y-35709272D02*
X58804128Y-35709272D01*
X32131000Y-39522400D02*
X33516199Y-38137201D01*
X33516199Y-38137201D02*
X48756199Y-38137201D01*
X48756199Y-38137201D02*
X49911000Y-36982400D01*
X37211000Y-49682400D02*
X39751000Y-49682400D01*
X56525212Y-92862400D02*
X54991000Y-92862400D01*
X60071000Y-95402400D02*
X59065212Y-95402400D01*
X59065212Y-95402400D02*
X56525212Y-92862400D01*
X54991000Y-92862400D02*
X52451000Y-92862400D01*
X37211000Y-52222400D02*
X39751000Y-52222400D01*
X54991000Y-90322400D02*
X56007000Y-90322400D01*
X56007000Y-90322400D02*
X57247360Y-91562760D01*
X57247360Y-91562760D02*
X61281542Y-91562760D01*
X61281542Y-91562760D02*
X65082689Y-95363907D01*
X65082689Y-95363907D02*
X75272507Y-95363907D01*
X75272507Y-95363907D02*
X75311000Y-95402400D01*
X54991000Y-90322400D02*
X52451000Y-90322400D01*
X39751000Y-54762400D02*
X37211000Y-54762400D01*
X58039000Y-54254400D02*
X60071000Y-52222400D01*
X40779788Y-53733612D02*
X56007000Y-53733612D01*
X39751000Y-54762400D02*
X40779788Y-53733612D01*
X56007000Y-53733612D02*
X56007000Y-53746400D01*
X56515000Y-54254400D02*
X58039000Y-54254400D01*
X56007000Y-53746400D02*
X56515000Y-54254400D01*
X75311000Y-92862400D02*
X64935166Y-92862400D01*
X64935166Y-92862400D02*
X61277578Y-89204812D01*
X61277578Y-89204812D02*
X56413412Y-89204812D01*
X56413412Y-89204812D02*
X55702199Y-88493599D01*
X55702199Y-88493599D02*
X54991000Y-87782400D01*
X54991000Y-87782400D02*
X52451000Y-87782400D01*
X37211000Y-57302400D02*
X36205212Y-57302400D01*
X36205212Y-57302400D02*
X34935212Y-56032400D01*
X34935212Y-56032400D02*
X21717000Y-56032400D01*
X21717000Y-56032400D02*
X20797805Y-55113205D01*
X20797805Y-55113205D02*
X9639878Y-55113205D01*
X9639878Y-55113205D02*
X8003650Y-53476977D01*
X75311000Y-90322400D02*
X67561006Y-90322400D01*
X67561006Y-90322400D02*
X63535095Y-86296489D01*
X63535095Y-86296489D02*
X58433454Y-86296489D01*
X58433454Y-86296489D02*
X57379365Y-85242400D01*
X57379365Y-85242400D02*
X54991000Y-85242400D01*
X53467001Y-46611452D02*
X53467001Y-47055330D01*
X54671660Y-48259989D02*
X55647022Y-48259990D01*
X59065212Y-49682400D02*
X60071000Y-49682400D01*
X55647022Y-48259990D02*
X57069432Y-49682400D01*
X57069432Y-49682400D02*
X59065212Y-49682400D01*
X52727949Y-45872400D02*
X53467001Y-46611452D01*
X38481000Y-45872400D02*
X52727949Y-45872400D01*
X53467001Y-47055330D02*
X54671660Y-48259989D01*
X37211000Y-59842400D02*
X39751000Y-59842400D01*
X57531000Y-82702400D02*
X58807301Y-83978701D01*
X58807301Y-83978701D02*
X63887301Y-83978701D01*
X63887301Y-83978701D02*
X67691000Y-87782400D01*
X67691000Y-87782400D02*
X75311000Y-87782400D01*
X43019054Y-83784563D02*
X53086000Y-83784563D01*
X53086000Y-83784563D02*
X53908837Y-83784563D01*
X53908837Y-83784563D02*
X54991000Y-82702400D01*
X15621000Y-68516489D02*
X18404093Y-68516489D01*
X1651000Y-67462400D02*
X14566911Y-67462400D01*
X14566911Y-67462400D02*
X15621000Y-68516489D01*
X23861319Y-81470636D02*
X34942918Y-81470636D01*
X42207860Y-84595757D02*
X43019054Y-83784563D01*
X34942918Y-81470636D02*
X35956167Y-82483885D01*
X40335596Y-83954472D02*
X40976881Y-84595757D01*
X35956167Y-82483885D02*
X35956167Y-83267823D01*
X35956167Y-83267823D02*
X36642816Y-83954472D01*
X36642816Y-83954472D02*
X40335596Y-83954472D01*
X40976881Y-84595757D02*
X42207860Y-84595757D01*
X18404093Y-68516489D02*
X19431000Y-67489582D01*
X19431000Y-67489582D02*
X19431000Y-67462400D01*
X75311000Y-87782400D02*
X77851000Y-87782400D01*
X54991000Y-82702400D02*
X57531000Y-82702400D01*
X39751000Y-62382400D02*
X37211000Y-62382400D01*
X57531000Y-80162400D02*
X58796100Y-81427500D01*
X63876100Y-81427500D02*
X67691000Y-85242400D01*
X58796100Y-81427500D02*
X63876100Y-81427500D01*
X67691000Y-85242400D02*
X75311000Y-85242400D01*
X54991000Y-80162400D02*
X53974999Y-81178401D01*
X53974999Y-81178401D02*
X51963319Y-81178401D01*
X51963319Y-81178401D02*
X51181000Y-80396082D01*
X40273877Y-78834825D02*
X24546822Y-78834825D01*
X51181000Y-80396082D02*
X41835134Y-80396082D01*
X41835134Y-80396082D02*
X40273877Y-78834825D01*
X24546822Y-78834825D02*
X23839716Y-78834825D01*
X15621000Y-66174401D02*
X18178999Y-66174401D01*
X1651000Y-64922400D02*
X14368999Y-64922400D01*
X14368999Y-64922400D02*
X15621000Y-66174401D01*
X77851000Y-85242400D02*
X75311000Y-85242400D01*
X57531000Y-80162400D02*
X54991000Y-80162400D01*
X18178999Y-66174401D02*
X19431000Y-64922400D01*
X54991000Y-77622400D02*
X53954682Y-77622400D01*
X53954682Y-77622400D02*
X52938681Y-76606399D01*
X52938681Y-76606399D02*
X51628108Y-76606399D01*
X51628108Y-76606399D02*
X50627353Y-77607154D01*
X41590456Y-77607154D02*
X40285904Y-76302602D01*
X50627353Y-77607154D02*
X41590456Y-77607154D01*
X40285904Y-76302602D02*
X34042336Y-76302602D01*
X34042336Y-76302602D02*
X33823165Y-76521773D01*
X33823165Y-76521773D02*
X23905560Y-76521773D01*
X23905560Y-76521773D02*
X23905123Y-76522210D01*
X57531000Y-77622400D02*
X58182581Y-78273981D01*
X67691000Y-82702400D02*
X74305212Y-82702400D01*
X58182581Y-78273981D02*
X59005703Y-78273981D01*
X59005703Y-78273981D02*
X59627524Y-78895802D01*
X59627524Y-78895802D02*
X63884402Y-78895802D01*
X63884402Y-78895802D02*
X67691000Y-82702400D01*
X74305212Y-82702400D02*
X75311000Y-82702400D01*
X15621000Y-63634401D02*
X18178999Y-63634401D01*
X1651000Y-62382400D02*
X14368999Y-62382400D01*
X14368999Y-62382400D02*
X15621000Y-63634401D01*
X75311000Y-82702400D02*
X77851000Y-82702400D01*
X57531000Y-77622400D02*
X54991000Y-77622400D01*
X18178999Y-63634401D02*
X19431000Y-62382400D01*
X93091000Y-64922400D02*
X89534999Y-68478401D01*
X89534999Y-68478401D02*
X70655905Y-68478401D01*
X70655905Y-68478401D02*
X67099904Y-64922400D01*
X67099904Y-64922400D02*
X60071000Y-64922400D01*
X34671000Y-67462400D02*
X33184414Y-67462400D01*
X19017999Y-66210399D02*
X18565997Y-66662401D01*
X33184414Y-67462400D02*
X31932413Y-66210399D01*
X31932413Y-66210399D02*
X19017999Y-66210399D01*
X18565997Y-66662401D02*
X17690999Y-66662401D01*
X17690999Y-66662401D02*
X17602199Y-66751201D01*
X17602199Y-66751201D02*
X16891000Y-67462400D01*
X42183217Y-63499988D02*
X42022557Y-63660648D01*
X60071000Y-64922400D02*
X58648588Y-63499988D01*
X58648588Y-63499988D02*
X42183217Y-63499988D01*
X42022557Y-63660648D02*
X41522558Y-64160647D01*
X37211000Y-67462400D02*
X34671000Y-67462400D01*
X39751000Y-67462400D02*
X37211000Y-67462400D01*
X67691000Y-80162400D02*
X75311000Y-80162400D01*
X63867225Y-76338625D02*
X67691000Y-80162400D01*
X57531000Y-75082400D02*
X58787225Y-76338625D01*
X58787225Y-76338625D02*
X63867225Y-76338625D01*
X75311000Y-19202400D02*
X74599801Y-18491201D01*
X70866000Y-33324812D02*
X71348588Y-33807400D01*
X74599801Y-18491201D02*
X73939606Y-18491201D01*
X73939606Y-18491201D02*
X73401173Y-17952768D01*
X73401173Y-17952768D02*
X71728565Y-17952768D01*
X71728565Y-17952768D02*
X70866000Y-18815333D01*
X70866000Y-18815333D02*
X70866000Y-33324812D01*
X71348588Y-33807400D02*
X71348588Y-39191142D01*
X71348588Y-39191142D02*
X75488117Y-43330671D01*
X15621000Y-61094401D02*
X18178999Y-61094401D01*
X1651000Y-59842400D02*
X14368999Y-59842400D01*
X14368999Y-59842400D02*
X15621000Y-61094401D01*
X41136252Y-74519390D02*
X40476897Y-73860035D01*
X51510329Y-74519389D02*
X41136252Y-74519390D01*
X52938681Y-74066399D02*
X51963319Y-74066399D01*
X51963319Y-74066399D02*
X51510329Y-74519389D01*
X24565327Y-73860035D02*
X23858221Y-73860035D01*
X54991000Y-75082400D02*
X53954682Y-75082400D01*
X40476897Y-73860035D02*
X24565327Y-73860035D01*
X53954682Y-75082400D02*
X52938681Y-74066399D01*
X77851000Y-80162400D02*
X75311000Y-80162400D01*
X57531000Y-75082400D02*
X54991000Y-75082400D01*
X18178999Y-61094401D02*
X19431000Y-59842400D01*
X60071000Y-67462400D02*
X65177131Y-67462400D01*
X65177131Y-67462400D02*
X68987131Y-71272400D01*
X68987131Y-71272400D02*
X93752244Y-71272400D01*
X93752244Y-71272400D02*
X94328465Y-70696179D01*
X94328465Y-70696179D02*
X94328465Y-63619865D01*
X94328465Y-63619865D02*
X93802199Y-63093599D01*
X93802199Y-63093599D02*
X93091000Y-62382400D01*
X60071000Y-67462400D02*
X59359801Y-66751201D01*
X59359801Y-66751201D02*
X58454907Y-66751201D01*
X57873962Y-66170256D02*
X53591567Y-66170256D01*
X58454907Y-66751201D02*
X57873962Y-66170256D01*
X42195116Y-65960117D02*
X41522558Y-66632675D01*
X53591567Y-66170256D02*
X53381428Y-65960117D01*
X53381428Y-65960117D02*
X42195116Y-65960117D01*
X34671000Y-70002400D02*
X33838718Y-70834682D01*
X25012143Y-70834682D02*
X24643008Y-70465547D01*
X33838718Y-70834682D02*
X25012143Y-70834682D01*
X24643008Y-70465547D02*
X23500966Y-70465547D01*
X23500966Y-70465547D02*
X22853034Y-71113479D01*
X22853034Y-71113479D02*
X18002079Y-71113479D01*
X18002079Y-71113479D02*
X17602199Y-70713599D01*
X17602199Y-70713599D02*
X16891000Y-70002400D01*
X37211000Y-70002400D02*
X39751000Y-70002400D01*
X34671000Y-70002400D02*
X37211000Y-70002400D01*
X53985212Y-72542400D02*
X52969211Y-71526399D01*
X41231429Y-72353800D02*
X40161488Y-71283859D01*
X54991000Y-72542400D02*
X53985212Y-72542400D01*
X52969211Y-71526399D02*
X51816000Y-71526399D01*
X51816000Y-71526399D02*
X50988599Y-72353800D01*
X50988599Y-72353800D02*
X41231429Y-72353800D01*
X40161488Y-71283859D02*
X24024426Y-71283859D01*
X71754999Y-20218401D02*
X71754999Y-37579264D01*
X71754999Y-37579264D02*
X75533985Y-41358250D01*
X72771000Y-19202400D02*
X71754999Y-20218401D01*
X75311000Y-77622400D02*
X77851000Y-77622400D01*
X63627001Y-73558401D02*
X67691000Y-77622400D01*
X67691000Y-77622400D02*
X75311000Y-77622400D01*
X57531000Y-72542400D02*
X58547001Y-73558401D01*
X58547001Y-73558401D02*
X63627001Y-73558401D01*
X57531000Y-72542400D02*
X54991000Y-72542400D01*
X1651000Y-57302400D02*
X2903001Y-58554401D01*
X18178999Y-58554401D02*
X19431000Y-57302400D01*
X2903001Y-58554401D02*
X18178999Y-58554401D01*
X34671000Y-72542400D02*
X21096018Y-72542400D01*
X21096018Y-72542400D02*
X20073508Y-71519890D01*
X20073508Y-71519890D02*
X17913510Y-71519890D01*
X17913510Y-71519890D02*
X17602199Y-71831201D01*
X17602199Y-71831201D02*
X16891000Y-72542400D01*
X51147660Y-68516111D02*
X50931371Y-68732400D01*
X60071000Y-70002400D02*
X58966199Y-68897599D01*
X54460950Y-68897599D02*
X54079462Y-68516111D01*
X42229664Y-68732400D02*
X41522558Y-68732400D01*
X58966199Y-68897599D02*
X54460950Y-68897599D01*
X54079462Y-68516111D02*
X51147660Y-68516111D01*
X50931371Y-68732400D02*
X42229664Y-68732400D01*
X37211000Y-72542400D02*
X34671000Y-72542400D01*
X39751000Y-72542400D02*
X37211000Y-72542400D01*
X34671000Y-59842400D02*
X21953001Y-59842400D01*
X21953001Y-59842400D02*
X20701000Y-58590399D01*
X20701000Y-58590399D02*
X19017999Y-58590399D01*
X19017999Y-58590399D02*
X18434559Y-59173839D01*
X18434559Y-59173839D02*
X17559561Y-59173839D01*
X17559561Y-59173839D02*
X16891000Y-59842400D01*
X57531000Y-70002400D02*
X58747304Y-71218704D01*
X58747304Y-71218704D02*
X63827304Y-71218704D01*
X63827304Y-71218704D02*
X67691000Y-75082400D01*
X67691000Y-75082400D02*
X75311000Y-75082400D01*
X40369728Y-68770678D02*
X33907298Y-68770678D01*
X41136252Y-69537202D02*
X40369728Y-68770678D01*
X51316000Y-68922522D02*
X50701321Y-69537201D01*
X53911122Y-68922522D02*
X51316000Y-68922522D01*
X33907298Y-68770678D02*
X33200192Y-68770678D01*
X50701321Y-69537201D02*
X41136252Y-69537202D01*
X54991000Y-70002400D02*
X53911122Y-68922522D01*
X77851000Y-75082400D02*
X75311000Y-75082400D01*
X57531000Y-70002400D02*
X54991000Y-70002400D01*
X34671000Y-75082400D02*
X33501578Y-75082400D01*
X32915275Y-74496097D02*
X26679904Y-74496097D01*
X33501578Y-75082400D02*
X32915275Y-74496097D01*
X26679904Y-74496097D02*
X26278990Y-74897011D01*
X26278990Y-74897011D02*
X21767612Y-74897011D01*
X20701000Y-73830399D02*
X19017999Y-73830399D01*
X21767612Y-74897011D02*
X20701000Y-73830399D01*
X19017999Y-73830399D02*
X18565997Y-74282401D01*
X18565997Y-74282401D02*
X17690999Y-74282401D01*
X17690999Y-74282401D02*
X17602199Y-74371201D01*
X17602199Y-74371201D02*
X16891000Y-75082400D01*
X60071000Y-72542400D02*
X59364623Y-71836023D01*
X59364623Y-71836023D02*
X58511118Y-71836023D01*
X58511118Y-71836023D02*
X58112694Y-71437599D01*
X58112694Y-71437599D02*
X54340222Y-71437599D01*
X54340222Y-71437599D02*
X53936274Y-71033651D01*
X53936274Y-71033651D02*
X42235635Y-71033651D01*
X42235635Y-71033651D02*
X41528529Y-71033651D01*
X37211000Y-75082400D02*
X39751000Y-75082400D01*
X34671000Y-75082400D02*
X37211000Y-75082400D01*
X34671000Y-62382400D02*
X33405765Y-62382400D01*
X33405765Y-62382400D02*
X33040346Y-62747819D01*
X33040346Y-62747819D02*
X31947113Y-62747819D01*
X31947113Y-62747819D02*
X31477135Y-62277841D01*
X29154944Y-62277841D02*
X28159304Y-61282201D01*
X31477135Y-62277841D02*
X29154944Y-62277841D01*
X28159304Y-61282201D02*
X18866197Y-61282201D01*
X18866197Y-61282201D02*
X18565997Y-61582401D01*
X18565997Y-61582401D02*
X17690999Y-61582401D01*
X17690999Y-61582401D02*
X17602199Y-61671201D01*
X17602199Y-61671201D02*
X16891000Y-62382400D01*
X75311000Y-14122400D02*
X74030364Y-12841764D01*
X74030364Y-12841764D02*
X72102766Y-12841764D01*
X72102766Y-12841764D02*
X71505718Y-13438812D01*
X71505718Y-13438812D02*
X71505718Y-14763514D01*
X74654979Y-18084812D02*
X79638518Y-18084812D01*
X71505718Y-14763514D02*
X72122653Y-15380449D01*
X72122653Y-15380449D02*
X72992731Y-15380449D01*
X72992731Y-15380449D02*
X73888588Y-16276306D01*
X73888588Y-16276306D02*
X73888588Y-17318421D01*
X73888588Y-17318421D02*
X74654979Y-18084812D01*
X79638518Y-18084812D02*
X81673700Y-20119994D01*
X81673700Y-20119994D02*
X81673700Y-31394400D01*
X54991000Y-67462400D02*
X53985212Y-67462400D01*
X51816000Y-66371888D02*
X50750411Y-67437477D01*
X53985212Y-67462400D02*
X52894700Y-66371888D01*
X40717757Y-66720104D02*
X40366254Y-66368601D01*
X52894700Y-66371888D02*
X51816000Y-66371888D01*
X50750411Y-67437477D02*
X42174852Y-67437477D01*
X41980168Y-67632161D02*
X41330938Y-67632161D01*
X42174852Y-67437477D02*
X41980168Y-67632161D01*
X40717757Y-67018980D02*
X40717757Y-66720104D01*
X41330938Y-67632161D02*
X40717757Y-67018980D01*
X40366254Y-66368601D02*
X33535303Y-66368601D01*
X81673700Y-31394400D02*
X81673700Y-31614394D01*
X75311000Y-72542400D02*
X77851000Y-72542400D01*
X63627001Y-68478401D02*
X67691000Y-72542400D01*
X67691000Y-72542400D02*
X75311000Y-72542400D01*
X57531000Y-67462400D02*
X58547001Y-68478401D01*
X58547001Y-68478401D02*
X63627001Y-68478401D01*
X57531000Y-67462400D02*
X54991000Y-67462400D01*
X80266684Y-33139381D02*
X79657590Y-33748475D01*
X79657590Y-33748475D02*
X79657590Y-34771013D01*
X80891900Y-33139381D02*
X80266684Y-33139381D01*
X81673700Y-31394400D02*
X81673700Y-32357581D01*
X81673700Y-32357581D02*
X80891900Y-33139381D01*
X79657590Y-34771013D02*
X80157589Y-35271012D01*
X60071000Y-75082400D02*
X58966199Y-73977599D01*
X53424631Y-73977599D02*
X53107021Y-73659988D01*
X58966199Y-73977599D02*
X53424631Y-73977599D01*
X53107021Y-73659988D02*
X41537306Y-73659988D01*
X41537306Y-73659988D02*
X41482706Y-73714588D01*
X41482706Y-73714588D02*
X41522558Y-73714588D01*
X34671000Y-77622400D02*
X21971000Y-77622400D01*
X21971000Y-77622400D02*
X20718999Y-76370399D01*
X20718999Y-76370399D02*
X19017999Y-76370399D01*
X19017999Y-76370399D02*
X18565997Y-76822401D01*
X18565997Y-76822401D02*
X17690999Y-76822401D01*
X17690999Y-76822401D02*
X16891000Y-77622400D01*
X34671000Y-77622400D02*
X37211000Y-77622400D01*
X39751000Y-77622400D02*
X37211000Y-77622400D01*
X17602199Y-64211201D02*
X16891000Y-64922400D01*
X17690999Y-64122401D02*
X17602199Y-64211201D01*
X32540604Y-64922400D02*
X32281306Y-65181698D01*
X32281306Y-65181698D02*
X22212299Y-65181698D01*
X18565997Y-64122401D02*
X17690999Y-64122401D01*
X34671000Y-64922400D02*
X32540604Y-64922400D01*
X22212299Y-65181698D02*
X20701000Y-63670399D01*
X19017999Y-63670399D02*
X18565997Y-64122401D01*
X20701000Y-63670399D02*
X19017999Y-63670399D01*
X75311000Y-70002400D02*
X69965815Y-70002400D01*
X69965815Y-70002400D02*
X66175181Y-66211766D01*
X66175181Y-66211766D02*
X58820366Y-66211766D01*
X58820366Y-66211766D02*
X57531000Y-64922400D01*
X82270911Y-19431311D02*
X82270911Y-32118300D01*
X82270911Y-32118300D02*
X82270911Y-32361390D01*
X35687001Y-65938401D02*
X35382199Y-65633599D01*
X35382199Y-65633599D02*
X34671000Y-64922400D01*
X40238681Y-65938401D02*
X35687001Y-65938401D01*
X50624378Y-65245340D02*
X40931742Y-65245340D01*
X54991000Y-64922400D02*
X53974999Y-63906399D01*
X51963319Y-63906399D02*
X50624378Y-65245340D01*
X53974999Y-63906399D02*
X51963319Y-63906399D01*
X40931742Y-65245340D02*
X40238681Y-65938401D01*
X74294999Y-15646399D02*
X74294999Y-17150081D01*
X72771000Y-14122400D02*
X74294999Y-15646399D01*
X74294999Y-17150081D02*
X74823319Y-17678401D01*
X80518001Y-17678401D02*
X82270911Y-19431311D01*
X74823319Y-17678401D02*
X80518001Y-17678401D01*
X84493100Y-70040500D02*
X77889100Y-70040500D01*
X77889100Y-70040500D02*
X77851000Y-70002400D01*
X57531000Y-64922400D02*
X54991000Y-64922400D01*
X80689167Y-33944182D02*
X80652989Y-33944182D01*
X82270911Y-32362438D02*
X80689167Y-33944182D01*
X82270911Y-32118300D02*
X82270911Y-32362438D01*
X60071000Y-77622400D02*
X59456590Y-77007990D01*
X59456590Y-77007990D02*
X58563486Y-77007990D01*
X58563486Y-77007990D02*
X58073095Y-76517599D01*
X58073095Y-76517599D02*
X54072918Y-76517599D01*
X54072918Y-76517599D02*
X53665089Y-76109770D01*
X53665089Y-76109770D02*
X42295401Y-76109770D01*
X42295401Y-76109770D02*
X41588295Y-76109770D01*
X34671000Y-80162400D02*
X21861725Y-80162400D01*
X21861725Y-80162400D02*
X20609724Y-78910399D01*
X20609724Y-78910399D02*
X19017999Y-78910399D01*
X18565997Y-79362401D02*
X17690999Y-79362401D01*
X17690999Y-79362401D02*
X16891000Y-80162400D01*
X19017999Y-78910399D02*
X18565997Y-79362401D01*
X37211000Y-80162400D02*
X39751000Y-80162400D01*
X34671000Y-80162400D02*
X37211000Y-80162400D01*
X75671682Y-63525400D02*
X76583221Y-62613861D01*
X76583221Y-62613861D02*
X76583221Y-61755289D01*
X74041000Y-63525400D02*
X75671682Y-63525400D01*
X72771000Y-62255400D02*
X74041000Y-63525400D01*
X72644000Y-62255400D02*
X72771000Y-62255400D01*
X62064801Y-62255400D02*
X72644000Y-62255400D01*
X33090514Y-61266849D02*
X33055264Y-61302099D01*
X54991000Y-62382400D02*
X53875449Y-61266849D01*
X53875449Y-61266849D02*
X33090514Y-61266849D01*
X33055264Y-61302099D02*
X32555265Y-61802098D01*
X33336354Y-35697236D02*
X45481164Y-35697236D01*
X45481164Y-35697236D02*
X46101000Y-35077400D01*
X46101000Y-35077400D02*
X46101000Y-33971786D01*
X46101000Y-33971786D02*
X46736000Y-33336786D01*
X46736000Y-33336786D02*
X48984614Y-33336786D01*
X48984614Y-33336786D02*
X49784000Y-32537400D01*
X56095801Y-61277599D02*
X61087000Y-61277599D01*
X61087000Y-61277599D02*
X62064801Y-62255400D01*
X54991000Y-62382400D02*
X56095801Y-61277599D01*
X60071000Y-80162400D02*
X58801000Y-78892400D01*
X58801000Y-78892400D02*
X42229664Y-78892400D01*
X42229664Y-78892400D02*
X41522558Y-78892400D01*
X34671000Y-82702400D02*
X34669251Y-82704149D01*
X34669251Y-82704149D02*
X21954750Y-82704149D01*
X21954750Y-82704149D02*
X20701000Y-81450399D01*
X20701000Y-81450399D02*
X19017999Y-81450399D01*
X19017999Y-81450399D02*
X18565997Y-81902401D01*
X18565997Y-81902401D02*
X17690999Y-81902401D01*
X17690999Y-81902401D02*
X16891000Y-82702400D01*
X51463339Y-58854739D02*
X42232178Y-58854739D01*
X42065191Y-59021726D02*
X41565192Y-59521725D01*
X52451000Y-59842400D02*
X51463339Y-58854739D01*
X42232178Y-58854739D02*
X42065191Y-59021726D01*
X60071000Y-82702400D02*
X59373504Y-82004904D01*
X59373504Y-82004904D02*
X58528234Y-82004904D01*
X58528234Y-82004904D02*
X58120929Y-81597599D01*
X58120929Y-81597599D02*
X43641425Y-81597599D01*
X43641425Y-81597599D02*
X42134813Y-83104211D01*
X42134813Y-83104211D02*
X41634814Y-83604210D01*
X34671000Y-85242400D02*
X34669085Y-85240485D01*
X34669085Y-85240485D02*
X21969085Y-85240485D01*
X18565997Y-84442401D02*
X17690999Y-84442401D01*
X21969085Y-85240485D02*
X20718999Y-83990399D01*
X20718999Y-83990399D02*
X19017999Y-83990399D01*
X19017999Y-83990399D02*
X18565997Y-84442401D01*
X17690999Y-84442401D02*
X17602199Y-84531201D01*
X17602199Y-84531201D02*
X16891000Y-85242400D01*
X39751000Y-87782400D02*
X47830109Y-87782400D01*
X47830109Y-87782400D02*
X51421535Y-84190974D01*
X51421535Y-84190974D02*
X57531000Y-84190974D01*
X57531000Y-84190974D02*
X58582426Y-85242400D01*
X58582426Y-85242400D02*
X60071000Y-85242400D01*
X15621000Y-83954401D02*
X18178999Y-83954401D01*
X1651000Y-82702400D02*
X14368999Y-82702400D01*
X14368999Y-82702400D02*
X15621000Y-83954401D01*
X37211000Y-87782400D02*
X37211000Y-87733710D01*
X37211000Y-87733710D02*
X35916278Y-86438988D01*
X35916278Y-86438988D02*
X35916278Y-84607872D01*
X35916278Y-84607872D02*
X35280806Y-83972400D01*
X35280806Y-83972400D02*
X21971000Y-83972400D01*
X21971000Y-83972400D02*
X20701000Y-82702400D01*
X20701000Y-82702400D02*
X19431000Y-82702400D01*
X39751000Y-87782400D02*
X37211000Y-87782400D01*
X18178999Y-83954401D02*
X19431000Y-82702400D01*
X52451000Y-54762400D02*
X54991000Y-54762400D01*
X52451000Y-54762400D02*
X43992800Y-54762400D01*
X60071000Y-87782400D02*
X56769000Y-87782400D01*
X55703994Y-86717394D02*
X51734005Y-86717394D01*
X56769000Y-87782400D02*
X55703994Y-86717394D01*
X51734005Y-86717394D02*
X48128999Y-90322400D01*
X48128999Y-90322400D02*
X39751000Y-90322400D01*
X15387587Y-92752810D02*
X15387587Y-93403961D01*
X15387587Y-93403961D02*
X15862027Y-93878401D01*
X15862027Y-93878401D02*
X20559953Y-93878401D01*
X20559953Y-93878401D02*
X20813952Y-94132400D01*
X20813952Y-94132400D02*
X35118831Y-94132400D01*
X35118831Y-94132400D02*
X35955288Y-93295943D01*
X35955288Y-93295943D02*
X35955288Y-92566342D01*
X35955288Y-92566342D02*
X37211000Y-91310630D01*
X37211000Y-91310630D02*
X37211000Y-90322400D01*
X15621000Y-81414401D02*
X18178999Y-81414401D01*
X1651000Y-80162400D02*
X14368999Y-80162400D01*
X14368999Y-80162400D02*
X15621000Y-81414401D01*
X37211000Y-90322400D02*
X39751000Y-90322400D01*
X18178999Y-81414401D02*
X19431000Y-80162400D01*
X52451000Y-52222400D02*
X54991000Y-52222400D01*
X60071000Y-90322400D02*
X56769000Y-90322400D01*
X56769000Y-90322400D02*
X55499000Y-89052400D01*
X55499000Y-89052400D02*
X51739379Y-89052400D01*
X51739379Y-89052400D02*
X47929379Y-92862400D01*
X47929379Y-92862400D02*
X39751000Y-92862400D01*
X15367000Y-94640400D02*
X15367000Y-95382082D01*
X34167534Y-96649830D02*
X35089921Y-96649830D01*
X15367000Y-95382082D02*
X16403319Y-96418401D01*
X16403319Y-96418401D02*
X20504213Y-96418401D01*
X20504213Y-96418401D02*
X20778904Y-96143710D01*
X20778904Y-96143710D02*
X33661414Y-96143710D01*
X33661414Y-96143710D02*
X34167534Y-96649830D01*
X35089921Y-96649830D02*
X35989740Y-95750011D01*
X35989740Y-95750011D02*
X35989740Y-94083660D01*
X35989740Y-94083660D02*
X37211000Y-92862400D01*
X1651000Y-72542400D02*
X14351000Y-72542400D01*
X14351000Y-72542400D02*
X15603001Y-73794401D01*
X18178999Y-73794401D02*
X19431000Y-72542400D01*
X15603001Y-73794401D02*
X18178999Y-73794401D01*
X39751000Y-92862400D02*
X37211000Y-92862400D01*
X60071000Y-92862400D02*
X57404000Y-92862400D01*
X57404000Y-92862400D02*
X56134000Y-91592400D01*
X56134000Y-91592400D02*
X51684593Y-91592400D01*
X51684593Y-91592400D02*
X47874593Y-95402400D01*
X47874593Y-95402400D02*
X39878000Y-95402400D01*
X39878000Y-95402400D02*
X39751000Y-95402400D01*
X15621000Y-78874401D02*
X18178999Y-78874401D01*
X1651000Y-77622400D02*
X14368999Y-77622400D01*
X14368999Y-77622400D02*
X15621000Y-78874401D01*
X15450251Y-96603507D02*
X15216159Y-96837599D01*
X15216159Y-96837599D02*
X33259786Y-96837599D01*
X33259786Y-96837599D02*
X33567106Y-97144919D01*
X33567106Y-97144919D02*
X35468481Y-97144919D01*
X35468481Y-97144919D02*
X37211000Y-95402400D01*
X39751000Y-95402400D02*
X37211000Y-95402400D01*
X18178999Y-78874401D02*
X19431000Y-77622400D01*
X51066517Y-48526883D02*
X41483445Y-48526883D01*
X41483445Y-48526883D02*
X41216550Y-48259988D01*
X9252255Y-47161145D02*
X7442199Y-48971201D01*
X52451000Y-47142400D02*
X51066517Y-48526883D01*
X30152701Y-48259988D02*
X29053858Y-47161145D01*
X41216550Y-48259988D02*
X30152701Y-48259988D01*
X29053858Y-47161145D02*
X9252255Y-47161145D01*
X7442199Y-48971201D02*
X6731000Y-49682400D01*
D34*
X7601000Y-10312400D02*
X10541000Y-10312400D01*
X4191000Y-13722400D02*
X4191000Y-17932400D01*
X4191000Y-13722400D02*
X7601000Y-10312400D01*
X90551000Y-57302400D02*
X90551000Y-57002400D01*
X90551000Y-54707000D02*
X90551000Y-56667400D01*
X81635601Y-53309523D02*
X82428078Y-54102000D01*
X82931000Y-34442400D02*
X82931000Y-38354000D01*
X89946000Y-54102000D02*
X90551000Y-54707000D01*
X82428078Y-54102000D02*
X89946000Y-54102000D01*
X82931000Y-38354000D02*
X79146399Y-42138601D01*
X79146399Y-42138601D02*
X79146399Y-48386999D01*
X79146399Y-48386999D02*
X81635601Y-50876201D01*
X81635601Y-50876201D02*
X81635601Y-53309523D01*
X22950600Y-4597400D02*
X24511000Y-4597400D01*
X18216400Y-4597400D02*
X22950600Y-4597400D01*
X12501400Y-10312400D02*
X18216400Y-4597400D01*
X10541000Y-10312400D02*
X12501400Y-10312400D01*
X24511000Y-6157800D02*
X24511000Y-4597400D01*
X77978000Y-4724400D02*
X77343000Y-4089400D01*
X77343000Y-4089400D02*
X34213800Y-4089400D01*
X24855600Y-6502400D02*
X24511000Y-6157800D01*
X34213800Y-4089400D02*
X31800800Y-6502400D01*
X31800800Y-6502400D02*
X24855600Y-6502400D01*
X38478476Y-63649876D02*
X31403615Y-63649876D01*
X39751000Y-64922400D02*
X38478476Y-63649876D01*
D33*
X55981839Y-13070735D02*
X56481838Y-13570734D01*
X55608696Y-12697592D02*
X55981839Y-13070735D01*
X45946192Y-12697592D02*
X55608696Y-12697592D01*
X44831000Y-11582400D02*
X45946192Y-12697592D01*
X36682976Y-11403554D02*
X36668596Y-11417934D01*
X38426643Y-12689345D02*
X37140852Y-11403554D01*
X37140852Y-11403554D02*
X36682976Y-11403554D01*
X44831000Y-11582400D02*
X43724055Y-12689345D01*
X43724055Y-12689345D02*
X38426643Y-12689345D01*
X35259294Y-23469600D02*
X35966400Y-23469600D01*
X34808446Y-23018752D02*
X35259294Y-23469600D01*
X8007352Y-23018752D02*
X34808446Y-23018752D01*
X6731000Y-21742400D02*
X8007352Y-23018752D01*
X76784189Y-53289211D02*
X76022199Y-54051201D01*
X71627999Y-48158401D02*
X74295000Y-45491400D01*
X56120183Y-48158401D02*
X71627999Y-48158401D01*
X55702199Y-47853599D02*
X55815381Y-47853599D01*
X74295000Y-45491400D02*
X76454000Y-45491400D01*
X76454000Y-45491400D02*
X76784189Y-45821589D01*
X76784189Y-45821589D02*
X76784189Y-53289211D01*
X55815381Y-47853599D02*
X56120183Y-48158401D01*
X54991000Y-47142400D02*
X55702199Y-47853599D01*
X76022199Y-54051201D02*
X75311000Y-54762400D01*
X16891000Y-52222400D02*
X18583266Y-53914666D01*
X18583266Y-53914666D02*
X34679488Y-53914666D01*
X60071000Y-54762400D02*
X59054999Y-55778401D01*
X59054999Y-55778401D02*
X36543223Y-55778401D01*
X36543223Y-55778401D02*
X34679488Y-53914666D01*
X72771000Y-9042400D02*
X73799700Y-10071100D01*
X73799700Y-10071100D02*
X76842660Y-10071100D01*
X76842660Y-10071100D02*
X78188761Y-11417201D01*
X78188761Y-11417201D02*
X83976934Y-11417201D01*
X83976934Y-11417201D02*
X84104121Y-11290014D01*
X83980401Y-56024399D02*
X84480400Y-55524400D01*
X68842001Y-56024399D02*
X83980401Y-56024399D01*
X60071000Y-57302400D02*
X67564000Y-57302400D01*
X67564000Y-57302400D02*
X68842001Y-56024399D01*
X60071000Y-59842400D02*
X73533000Y-59842400D01*
X73533000Y-59842400D02*
X74803000Y-61112400D01*
X74803000Y-61112400D02*
X75984492Y-61112400D01*
X77276044Y-58430988D02*
X85470384Y-58430988D01*
X75984492Y-61112400D02*
X76549236Y-60547656D01*
X76549236Y-60547656D02*
X76549236Y-59157796D01*
X76549236Y-59157796D02*
X77276044Y-58430988D01*
X70231000Y-6502400D02*
X71470825Y-7742225D01*
X71470825Y-7742225D02*
X71470825Y-9380328D01*
X71470825Y-9380328D02*
X72644197Y-10553700D01*
X72644197Y-10553700D02*
X76221195Y-10553700D01*
X76221195Y-10553700D02*
X77777692Y-12110197D01*
X77777692Y-12110197D02*
X84984472Y-12110197D01*
X85470384Y-58430988D02*
X86177490Y-58430988D01*
D34*
X44831000Y-24282400D02*
X46100175Y-25551575D01*
X46100175Y-25551575D02*
X48571095Y-25551575D01*
X63855601Y-35687001D02*
X65151000Y-36982400D01*
X48571095Y-25551575D02*
X54921920Y-31902400D01*
X54921920Y-31902400D02*
X62585601Y-31902400D01*
X62585601Y-31902400D02*
X63855601Y-33172400D01*
X63855601Y-33172400D02*
X63855601Y-35687001D01*
X80391000Y-10312400D02*
X78740000Y-10312400D01*
X75311000Y-9042400D02*
X77470000Y-9042400D01*
X77470000Y-9042400D02*
X78740000Y-10312400D01*
X51181000Y-39522400D02*
X51181000Y-36982400D01*
X47371000Y-34442400D02*
X48666399Y-35737799D01*
X48666399Y-35737799D02*
X50508409Y-35737799D01*
X50508409Y-35737799D02*
X51181000Y-36410390D01*
X51181000Y-36410390D02*
X51181000Y-36982400D01*
X72771000Y-29362400D02*
X74015601Y-30607001D01*
X74015601Y-30607001D02*
X79015601Y-30607001D01*
X79015601Y-30607001D02*
X79591001Y-31182401D01*
X79591001Y-31182401D02*
X80391000Y-31982400D01*
X56261000Y-1422400D02*
X56297615Y-1385785D01*
X56297615Y-1385785D02*
X77628120Y-1385785D01*
X77628120Y-1385785D02*
X80391000Y-4148665D01*
X80391000Y-4148665D02*
X80391000Y-10312400D01*
X66421000Y-42062400D02*
X63881000Y-39522400D01*
X63881000Y-39522400D02*
X51181000Y-39522400D01*
X48641000Y-42062400D02*
X51181000Y-39522400D01*
X75311000Y-21742400D02*
X79121000Y-21742400D01*
X79121000Y-21742400D02*
X80391000Y-20472400D01*
X61341000Y-63652400D02*
X68199000Y-63652400D01*
X75819000Y-66192400D02*
X70739000Y-66192400D01*
X70739000Y-66192400D02*
X68199000Y-63652400D01*
X76606399Y-65405001D02*
X75819000Y-66192400D01*
X77851000Y-62382400D02*
X76606399Y-63627001D01*
X76606399Y-63627001D02*
X76606399Y-65405001D01*
X60071000Y-62382400D02*
X61341000Y-63652400D01*
X34671000Y-50927001D02*
X25755601Y-50927001D01*
X25755601Y-50927001D02*
X25310999Y-50482399D01*
X25310999Y-50482399D02*
X24511000Y-49682400D01*
X19431000Y-97942400D02*
X14942215Y-97942400D01*
X14942215Y-97942400D02*
X13431277Y-96431462D01*
X13431277Y-96431462D02*
X5422538Y-96431462D01*
X5422538Y-96431462D02*
X3911600Y-97942400D01*
X3911600Y-97942400D02*
X1651000Y-97942400D01*
X21971000Y-52222400D02*
X21971000Y-49682400D01*
X21971000Y-49682400D02*
X24511000Y-49682400D01*
X56235601Y-50927001D02*
X34671000Y-50927001D01*
X34671000Y-52222400D02*
X34671000Y-50927001D01*
X57531000Y-52222400D02*
X56235601Y-50927001D01*
X82931000Y-44602400D02*
X80391000Y-47142400D01*
X21971000Y-36982400D02*
X24511000Y-36982400D01*
X9271000Y-36982400D02*
X10515601Y-35737799D01*
X10515601Y-35737799D02*
X20726399Y-35737799D01*
X20726399Y-35737799D02*
X21971000Y-36982400D01*
X6731000Y-36982400D02*
X9271000Y-36982400D01*
X21971000Y-21742400D02*
X24511000Y-21742400D01*
X19431000Y-21742400D02*
X21971000Y-21742400D01*
X19431000Y-29362400D02*
X16891000Y-29362400D01*
X24511000Y-26822400D02*
X21971000Y-26822400D01*
X21971000Y-26822400D02*
X19431000Y-29362400D01*
X16891000Y-15367001D02*
X20726399Y-15367001D01*
X13055601Y-15367001D02*
X16891000Y-15367001D01*
X16891000Y-15367001D02*
X16891000Y-14122400D01*
X11811000Y-14122400D02*
X13055601Y-15367001D01*
X20726399Y-15367001D02*
X21971000Y-14122400D01*
X1651000Y-97942400D02*
X1651000Y-95402400D01*
X25958800Y-26822400D02*
X24511000Y-26822400D01*
X26263600Y-26517600D02*
X25958800Y-26822400D01*
X38404800Y-26517600D02*
X26263600Y-26517600D01*
X39751000Y-26902400D02*
X38789600Y-26902400D01*
X38789600Y-26902400D02*
X38404800Y-26517600D01*
X31267400Y-2921000D02*
X29591000Y-4597400D01*
X53631030Y-2921000D02*
X31267400Y-2921000D01*
X56261000Y-1422400D02*
X55129630Y-1422400D01*
X55129630Y-1422400D02*
X53631030Y-2921000D01*
D33*
X73846498Y-58377898D02*
X23915978Y-58377898D01*
X75311000Y-59842400D02*
X73846498Y-58377898D01*
X74823319Y-46126399D02*
X69781407Y-51168311D01*
X20142199Y-52933599D02*
X19431000Y-52222400D01*
X58791739Y-52596767D02*
X58061305Y-53327201D01*
X58061305Y-53327201D02*
X20535801Y-53327201D01*
X69781407Y-51168311D02*
X59270192Y-51168311D01*
X75798681Y-46126399D02*
X74823319Y-46126399D01*
X76327001Y-48666399D02*
X76327001Y-46654719D01*
X75311000Y-49682400D02*
X76327001Y-48666399D01*
X58791739Y-51646764D02*
X58791739Y-52596767D01*
X59270192Y-51168311D02*
X58791739Y-51646764D01*
X20535801Y-53327201D02*
X20142199Y-52933599D01*
X76327001Y-46654719D02*
X75798681Y-46126399D01*
X19431000Y-49682400D02*
X18149911Y-48401311D01*
X18149911Y-48401311D02*
X15632089Y-48401311D01*
X15062199Y-48971201D02*
X14351000Y-49682400D01*
X15632089Y-48401311D02*
X15062199Y-48971201D01*
X49352311Y-18112774D02*
X49583497Y-17881588D01*
X39751000Y-19282400D02*
X40920626Y-18112774D01*
X40920626Y-18112774D02*
X49352311Y-18112774D01*
X49583497Y-17881588D02*
X50083496Y-17381589D01*
X39751000Y-19282400D02*
X37131000Y-16662400D01*
X37131000Y-16662400D02*
X34671000Y-16662400D01*
X33201894Y-23901400D02*
X32744694Y-23444200D01*
X33909000Y-23901400D02*
X33201894Y-23901400D01*
X32744694Y-23444200D02*
X23368000Y-23444200D01*
X23368000Y-23444200D02*
X20218400Y-26593800D01*
X11811000Y-52222400D02*
X14127613Y-54539013D01*
X14127613Y-54539013D02*
X21265024Y-54539013D01*
X51689000Y-56184812D02*
X53873412Y-56184812D01*
X21265024Y-54539013D02*
X21735623Y-55009612D01*
X41275000Y-56794400D02*
X51079412Y-56794400D01*
X21735623Y-55009612D02*
X34827394Y-55009612D01*
X40665412Y-56184812D02*
X41275000Y-56794400D01*
X34827394Y-55009612D02*
X36002594Y-56184812D01*
X36002594Y-56184812D02*
X40665412Y-56184812D01*
X51079412Y-56794400D02*
X51689000Y-56184812D01*
X53873412Y-56184812D02*
X54991000Y-57302400D01*
X58547001Y-56286399D02*
X57531000Y-57302400D01*
X57531000Y-57302400D02*
X54991000Y-57302400D01*
X75311000Y-47142400D02*
X66167001Y-56286399D01*
X66167001Y-56286399D02*
X58547001Y-56286399D01*
X93091000Y-92862400D02*
X93086671Y-92858071D01*
X93086671Y-92858071D02*
X86440128Y-92858071D01*
X86440128Y-92858071D02*
X86425284Y-92872915D01*
X42645747Y-24731012D02*
X42645747Y-24023906D01*
X42645747Y-26291943D02*
X42645747Y-24731012D01*
X40741666Y-28196024D02*
X42645747Y-26291943D01*
X39039382Y-28196024D02*
X40741666Y-28196024D01*
X38072158Y-27228800D02*
X39039382Y-28196024D01*
X26380328Y-39966718D02*
X26380328Y-31267297D01*
X24284646Y-42062400D02*
X26380328Y-39966718D01*
X30418825Y-27228800D02*
X38072158Y-27228800D01*
X21971000Y-42062400D02*
X24284646Y-42062400D01*
X26380328Y-31267297D02*
X30418825Y-27228800D01*
X38939209Y-9042400D02*
X38715231Y-9266378D01*
X44831000Y-9042400D02*
X38939209Y-9042400D01*
X1651000Y-92862400D02*
X13756385Y-92862400D01*
X13756385Y-92862400D02*
X14823185Y-91795600D01*
X14823185Y-91795600D02*
X18465800Y-91795600D01*
X18897600Y-91363800D02*
X21566290Y-91363800D01*
X21566290Y-91363800D02*
X22856326Y-90073764D01*
X18465800Y-91795600D02*
X18897600Y-91363800D01*
X22856326Y-90073764D02*
X22856326Y-90068400D01*
X34671000Y-87782400D02*
X35687001Y-88798401D01*
X35687001Y-88798401D02*
X48234230Y-88798401D01*
X48234230Y-88798401D02*
X50774230Y-86258401D01*
X50774230Y-86258401D02*
X57023001Y-86258401D01*
X85890133Y-91588726D02*
X86631500Y-90847359D01*
X57023001Y-86258401D02*
X57467500Y-86702900D01*
X57467500Y-86702900D02*
X61158336Y-86702900D01*
X61158336Y-86702900D02*
X66044162Y-91588726D01*
X66044162Y-91588726D02*
X85890133Y-91588726D01*
X34671000Y-87782400D02*
X21953001Y-87782400D01*
X21953001Y-87782400D02*
X20701000Y-86530399D01*
X20701000Y-86530399D02*
X19017999Y-86530399D01*
X19017999Y-86530399D02*
X18565997Y-86982401D01*
X18565997Y-86982401D02*
X17690999Y-86982401D01*
X17690999Y-86982401D02*
X17602199Y-87071201D01*
X17602199Y-87071201D02*
X16891000Y-87782400D01*
X77089000Y-13360400D02*
X85259809Y-13360400D01*
X75311000Y-11582400D02*
X77089000Y-13360400D01*
X15621000Y-89028449D02*
X26064105Y-89028449D01*
X1651000Y-87782400D02*
X14374951Y-87782400D01*
X14374951Y-87782400D02*
X15621000Y-89028449D01*
X34671000Y-90322400D02*
X33390266Y-89041666D01*
X33390266Y-89041666D02*
X26077322Y-89041666D01*
X26077322Y-89041666D02*
X26064105Y-89028449D01*
X68971772Y-5843074D02*
X68971772Y-9517994D01*
X68418578Y-10071188D02*
X32092812Y-10071188D01*
X69607946Y-5206900D02*
X68971772Y-5843074D01*
X32092812Y-10071188D02*
X29278199Y-12885801D01*
X29278199Y-12885801D02*
X28778200Y-13385800D01*
X68971772Y-9517994D02*
X68418578Y-10071188D01*
X72771000Y-6502400D02*
X71475500Y-5206900D01*
X71475500Y-5206900D02*
X69607946Y-5206900D01*
X34671000Y-92862400D02*
X21267712Y-92862400D01*
X21267712Y-92862400D02*
X20216853Y-91811541D01*
X20216853Y-91811541D02*
X19024609Y-91811541D01*
X19024609Y-91811541D02*
X17973750Y-92862400D01*
X17973750Y-92862400D02*
X16891000Y-92862400D01*
X35941006Y-90406890D02*
X35941006Y-89699784D01*
X35941006Y-91592394D02*
X35941006Y-90406890D01*
X34671000Y-92862400D02*
X35941006Y-91592394D01*
X15621000Y-91389189D02*
X18043461Y-91389189D01*
X14554211Y-90322400D02*
X15621000Y-91389189D01*
X1651000Y-90322400D02*
X14554211Y-90322400D01*
X19110250Y-90322400D02*
X19431000Y-90322400D01*
X18043461Y-91389189D02*
X19110250Y-90322400D01*
X15621000Y-86494401D02*
X18178999Y-86494401D01*
X1651000Y-85242400D02*
X14368999Y-85242400D01*
X14368999Y-85242400D02*
X15621000Y-86494401D01*
X19431000Y-85242400D02*
X20436788Y-85242400D01*
X20436788Y-85242400D02*
X21748751Y-86554363D01*
X21748751Y-86554363D02*
X24213324Y-86554363D01*
X24213324Y-86554363D02*
X24233231Y-86534456D01*
X71056500Y-11582400D02*
X70802500Y-11582400D01*
X72771000Y-11582400D02*
X71765212Y-11582400D01*
X71765212Y-11582400D02*
X70802500Y-11582400D01*
X18178999Y-86494401D02*
X19431000Y-85242400D01*
X32902909Y-10477599D02*
X29189906Y-14190602D01*
X48874682Y-11582400D02*
X47769881Y-10477599D01*
X29189906Y-14190602D02*
X27609577Y-14190602D01*
X70802500Y-11582400D02*
X48874682Y-11582400D01*
X27609577Y-14190602D02*
X27576184Y-14157209D01*
X27576184Y-14157209D02*
X27076185Y-13657210D01*
X47769881Y-10477599D02*
X32902909Y-10477599D01*
X16891000Y-95402400D02*
X18008588Y-94284812D01*
X18008588Y-94284812D02*
X19867608Y-94284812D01*
X19867608Y-94284812D02*
X20985196Y-95402400D01*
X20985196Y-95402400D02*
X34671000Y-95402400D01*
X48387001Y-17150081D02*
X48387001Y-15138401D01*
X34671000Y-19202400D02*
X33516199Y-18047599D01*
X33516199Y-18047599D02*
X33516199Y-16108095D01*
X33516199Y-16108095D02*
X34116695Y-15507599D01*
X34116695Y-15507599D02*
X37041093Y-15507599D01*
X37041093Y-15507599D02*
X39220695Y-17687201D01*
X39220695Y-17687201D02*
X47849881Y-17687201D01*
X47849881Y-17687201D02*
X48387001Y-17150081D01*
X48387001Y-15138401D02*
X47371000Y-14122400D01*
X14351000Y-52222400D02*
X15383902Y-52222400D01*
X15383902Y-52222400D02*
X15678019Y-51928283D01*
X20688301Y-50386783D02*
X20688301Y-49088814D01*
X15678019Y-51928283D02*
X15678019Y-51339993D01*
X16071005Y-50947007D02*
X20128077Y-50947007D01*
X15678019Y-51339993D02*
X16071005Y-50947007D01*
X26301919Y-49502437D02*
X30691971Y-49502437D01*
X30691971Y-49502437D02*
X31399077Y-49502437D01*
X20128077Y-50947007D02*
X20688301Y-50386783D01*
X20688301Y-49088814D02*
X21398776Y-48378339D01*
X21398776Y-48378339D02*
X25177821Y-48378339D01*
X25177821Y-48378339D02*
X26301919Y-49502437D01*
X32131000Y-16662400D02*
X33285801Y-15507599D01*
X33285801Y-15507599D02*
X33285801Y-13798493D01*
X33285801Y-13798493D02*
X34116695Y-12967599D01*
X34116695Y-12967599D02*
X35657846Y-12967599D01*
X35657846Y-12967599D02*
X36101448Y-13411201D01*
X38495395Y-14122400D02*
X43825212Y-14122400D01*
X36101448Y-13411201D02*
X37784196Y-13411201D01*
X37784196Y-13411201D02*
X38495395Y-14122400D01*
X43825212Y-14122400D02*
X44831000Y-14122400D01*
X59359801Y-8331201D02*
X60071000Y-9042400D01*
X59004203Y-7975603D02*
X59359801Y-8331201D01*
X46015353Y-7975603D02*
X59004203Y-7975603D01*
X45507340Y-7467589D02*
X46015353Y-7975603D01*
X19431000Y-10871200D02*
X22352011Y-7950189D01*
X19431000Y-14122400D02*
X19431000Y-10871200D01*
X22352011Y-7950189D02*
X43468860Y-7950189D01*
X43468860Y-7950189D02*
X43951459Y-7467589D01*
X43951459Y-7467589D02*
X45507340Y-7467589D01*
X19431000Y-70002400D02*
X27145898Y-70002400D01*
X27145898Y-70002400D02*
X27273500Y-69874798D01*
X41137082Y-23312821D02*
X41137082Y-24674318D01*
X27986706Y-24257000D02*
X27279600Y-24257000D01*
X48078618Y-22758401D02*
X41691502Y-22758401D01*
X57462045Y-20830694D02*
X50006325Y-20830694D01*
X29116907Y-25387201D02*
X27986706Y-24257000D01*
X40424199Y-25387201D02*
X29116907Y-25387201D01*
X41691502Y-22758401D02*
X41137082Y-23312821D01*
X50006325Y-20830694D02*
X48078618Y-22758401D01*
X41137082Y-24674318D02*
X40424199Y-25387201D01*
X27832442Y-75650057D02*
X28539548Y-75650057D01*
X21268657Y-75650057D02*
X27832442Y-75650057D01*
X20701000Y-75082400D02*
X21268657Y-75650057D01*
X19431000Y-75082400D02*
X20701000Y-75082400D01*
X15621000Y-76334401D02*
X18178999Y-76334401D01*
X1651000Y-75082400D02*
X14368999Y-75082400D01*
X14368999Y-75082400D02*
X15621000Y-76334401D01*
X18178999Y-76334401D02*
X19431000Y-75082400D01*
X49313559Y-19646900D02*
X54991000Y-19646900D01*
X48453006Y-20507453D02*
X49313559Y-19646900D01*
X29075742Y-17817435D02*
X32397035Y-17817435D01*
X33401000Y-19989800D02*
X33918653Y-20507453D01*
X28211364Y-16953057D02*
X29075742Y-17817435D01*
X32397035Y-17817435D02*
X33401000Y-18821400D01*
X33918653Y-20507453D02*
X48453006Y-20507453D01*
X33401000Y-18821400D02*
X33401000Y-19989800D01*
X27023559Y-68681460D02*
X27730665Y-68681460D01*
X26762283Y-68681460D02*
X27023559Y-68681460D01*
X2730500Y-68922900D02*
X26520843Y-68922900D01*
X26520843Y-68922900D02*
X26762283Y-68681460D01*
X1651000Y-70002400D02*
X2730500Y-68922900D01*
X41702842Y-25035668D02*
X40944898Y-25793612D01*
X27817531Y-25345558D02*
X27792202Y-25345558D01*
X40944898Y-25793612D02*
X28265585Y-25793612D01*
X28265585Y-25793612D02*
X27817531Y-25345558D01*
X41702842Y-23615729D02*
X41702842Y-25035668D01*
X42099466Y-23219105D02*
X41702842Y-23615729D01*
X49362743Y-23219105D02*
X42099466Y-23219105D01*
X50730021Y-21851827D02*
X49362743Y-23219105D01*
X32131000Y-14122400D02*
X33967267Y-12286133D01*
X33967267Y-12286133D02*
X36009733Y-12286133D01*
X50473894Y-13502402D02*
X51181000Y-13502402D01*
X36009733Y-12286133D02*
X36347932Y-12624332D01*
X36347932Y-12624332D02*
X37786879Y-12624332D01*
X50075495Y-13104003D02*
X50473894Y-13502402D01*
X37786879Y-12624332D02*
X38266550Y-13104003D01*
X38266550Y-13104003D02*
X50075495Y-13104003D01*
D34*
X82931000Y-42062400D02*
X84175601Y-43307001D01*
X84175601Y-43307001D02*
X84175601Y-45797131D01*
X84175601Y-45797131D02*
X85152570Y-46774100D01*
X85152570Y-46774100D02*
X94665801Y-46774100D01*
X94665801Y-46774100D02*
X96875601Y-48983900D01*
X95631000Y-54707000D02*
X95631000Y-56667400D01*
X96875601Y-53462399D02*
X95631000Y-54707000D01*
X96875601Y-48983900D02*
X96875601Y-53462399D01*
D33*
X93091000Y-34442400D02*
X95631000Y-34442400D01*
X93091000Y-42062400D02*
X90551000Y-42062400D01*
X90551000Y-34442400D02*
X90551000Y-34433292D01*
X90551000Y-34433292D02*
X86337397Y-30219689D01*
X86337397Y-30219689D02*
X86337397Y-15166003D01*
X86337397Y-15166003D02*
X88011000Y-13492400D01*
X88011000Y-12598400D02*
X88011000Y-13504100D01*
X94361000Y-11582400D02*
X91951105Y-11582400D01*
X91062105Y-10693400D02*
X89916000Y-10693400D01*
X95631000Y-12852400D02*
X94361000Y-11582400D01*
X91951105Y-11582400D02*
X91062105Y-10693400D01*
X89916000Y-10693400D02*
X88011000Y-12598400D01*
X85471000Y-34442400D02*
X88011000Y-34442400D01*
X95631000Y-15392400D02*
X94426199Y-16597201D01*
X92512695Y-16597201D02*
X92067894Y-16152400D01*
X94426199Y-16597201D02*
X92512695Y-16597201D01*
X92067894Y-16152400D02*
X88011000Y-16152400D01*
X86522482Y-67462400D02*
X93037582Y-60947300D01*
X93037582Y-60947300D02*
X95072200Y-60947300D01*
X77851000Y-67462400D02*
X86522482Y-67462400D01*
X87159746Y-64922400D02*
X90742182Y-61339964D01*
X77851000Y-64922400D02*
X87159746Y-64922400D01*
X95631000Y-17932400D02*
X94426199Y-19137201D01*
X92277286Y-19137201D02*
X92092485Y-18952400D01*
X94426199Y-19137201D02*
X92277286Y-19137201D01*
X92092485Y-18952400D02*
X88011000Y-18952400D01*
X93738700Y-50207997D02*
X84031003Y-50207997D01*
X93738700Y-50207997D02*
X94051303Y-50207997D01*
X94051303Y-50207997D02*
X94970600Y-49288700D01*
X84031003Y-50207997D02*
X82931000Y-51308000D01*
X82931000Y-51308000D02*
X82931000Y-52222400D01*
X93091000Y-20472400D02*
X90681000Y-20472400D01*
X90681000Y-20472400D02*
X90551000Y-20342400D01*
X92581000Y-14882400D02*
X93091000Y-15392400D01*
X88011000Y-21742400D02*
X94361000Y-21742400D01*
X94361000Y-21742400D02*
X95631000Y-20472400D01*
X9271000Y-39522400D02*
X10537656Y-38255744D01*
X10537656Y-38255744D02*
X15617656Y-38255744D01*
X15617656Y-38255744D02*
X16891000Y-36982400D01*
X16891000Y-39522400D02*
X19431000Y-36982400D01*
X14271000Y-39522400D02*
X16891000Y-39522400D01*
X6731000Y-29362400D02*
X7946759Y-28146641D01*
X12946759Y-28146641D02*
X14271000Y-26822400D01*
X7946759Y-28146641D02*
X12946759Y-28146641D01*
X14271000Y-26822400D02*
X16891000Y-26822400D01*
X56481499Y-44715479D02*
X67173052Y-44715479D01*
X67173052Y-44715479D02*
X68910188Y-42978343D01*
X68910188Y-42978343D02*
X68910188Y-32141607D01*
X68910188Y-32141607D02*
X68410189Y-31641608D01*
X67246500Y-43459400D02*
X56642000Y-43459400D01*
X54102000Y-40919400D02*
X52846363Y-40919400D01*
X56642000Y-43459400D02*
X54102000Y-40919400D01*
X67691000Y-38696900D02*
X67691000Y-43014900D01*
X52846363Y-40919400D02*
X52139257Y-40919400D01*
X67691000Y-43014900D02*
X67246500Y-43459400D01*
X14351000Y-42062400D02*
X11811000Y-42062400D01*
X19431000Y-42062400D02*
X18154161Y-40785561D01*
X18154161Y-40785561D02*
X5983954Y-40785561D01*
X5983954Y-40785561D02*
X2751199Y-44018316D01*
X2751199Y-44018316D02*
X2751199Y-52052599D01*
X2751199Y-52052599D02*
X2921000Y-52222400D01*
X6731000Y-52222400D02*
X2921000Y-52222400D01*
X16891000Y-49682400D02*
X15876753Y-49682400D01*
X15468031Y-50555304D02*
X15083491Y-50939844D01*
X15876753Y-49682400D02*
X15468031Y-50091122D01*
X15468031Y-50091122D02*
X15468031Y-50555304D01*
X15083491Y-50939844D02*
X4423207Y-50939844D01*
X4423207Y-50939844D02*
X4419362Y-50935999D01*
X93091000Y-12852400D02*
X91310999Y-12852399D01*
X91310999Y-12852399D02*
X90551000Y-12092400D01*
X53467000Y-48666400D02*
X55478681Y-48666399D01*
X55478681Y-48666399D02*
X57574182Y-50761900D01*
X60997146Y-50761900D02*
X61576647Y-50182399D01*
X52451000Y-49682400D02*
X53467000Y-48666400D01*
X57574182Y-50761900D02*
X60997146Y-50761900D01*
X61576647Y-50182399D02*
X62076646Y-49682400D01*
X30837258Y-60861343D02*
X30130152Y-60861343D01*
X75311000Y-62382400D02*
X73787001Y-60858401D01*
X30846150Y-60858401D02*
X30843208Y-60861343D01*
X30843208Y-60861343D02*
X30837258Y-60861343D01*
X73787001Y-60858401D02*
X30846150Y-60858401D01*
X23476077Y-15296380D02*
X28244423Y-15296380D01*
X9271000Y-14122400D02*
X11766124Y-16617524D01*
X11766124Y-16617524D02*
X22154933Y-16617524D01*
X22154933Y-16617524D02*
X23476077Y-15296380D01*
X59004208Y-7569192D02*
X59359801Y-7213599D01*
X46183693Y-7569192D02*
X59004208Y-7569192D01*
X20929622Y-7543778D02*
X43300519Y-7543778D01*
X14351000Y-14122400D02*
X20929622Y-7543778D01*
X43300519Y-7543778D02*
X43783119Y-7061178D01*
X43783119Y-7061178D02*
X45675680Y-7061178D01*
X59359801Y-7213599D02*
X60071000Y-6502400D01*
X45675680Y-7061178D02*
X46183693Y-7569192D01*
X24765000Y-11582400D02*
X22606000Y-11582400D01*
X96901000Y-87582400D02*
X96901000Y-86512400D01*
X96901000Y-86512400D02*
X93091000Y-82702400D01*
X96901000Y-92862400D02*
X96901000Y-87582400D01*
X46507400Y-9042400D02*
X47371000Y-9042400D01*
X29591000Y-11582400D02*
X32766000Y-8407400D01*
X32766000Y-8407400D02*
X43586399Y-8407400D01*
X45339000Y-7874000D02*
X46507400Y-9042400D01*
X43586399Y-8407400D02*
X44119799Y-7874000D01*
X44119799Y-7874000D02*
X45339000Y-7874000D01*
X29591000Y-11582400D02*
X27305000Y-11582400D01*
X95631000Y-82702400D02*
X93091000Y-80162400D01*
X96901000Y-82702400D02*
X95631000Y-82702400D01*
X95631000Y-77622400D02*
X93091000Y-80162400D01*
X96901000Y-77622400D02*
X95631000Y-77622400D01*
M02*
